  0
SECTION
  2
HEADER
  9
$ANGBASE
  50
0.0
  9
$ANGDIR
  70
  1
  9
$MEASUREMENT
  70
0
  0
ENDSEC
  0
SECTION
  2
TABLES
  0
TABLE
  2
LTYPE
  70
1
  0
LTYPE
  2
CONTINUOUS
  70
0
  3
Solid line
  72
65
  73
0
  40
0.0
  0
ENDTAB
  0
TABLE
  2
STYLE
  70
4
  0
STYLE
  2
KICAD
  70
0
  40
0
  41
1
  42
1
  50
0
  71
0
  3
isocp.shx
  0
STYLE
  2
KICADB
  70
0
  40
0
  41
1
  42
1
  50
0
  71
0
  3
isocp.shx
  0
STYLE
  2
KICADI
  70
0
  40
0
  41
1
  42
1
  50
15
  71
0
  3
isocp.shx
  0
STYLE
  2
KICADBI
  70
0
  40
0
  41
1
  42
1
  50
15
  71
0
  3
isocp.shx
  0
ENDTAB
  0
TABLE
  2
LAYER
  70
30
  0
LAYER
  2
BLACK
  70
0
  62
7
  6
CONTINUOUS
  0
LAYER
  2
GRAY1
  70
0
  62
251
  6
CONTINUOUS
  0
LAYER
  2
GRAY2
  70
0
  62
8
  6
CONTINUOUS
  0
LAYER
  2
GRAY3
  70
0
  62
9
  6
CONTINUOUS
  0
LAYER
  2
WHITE
  70
0
  62
7
  6
CONTINUOUS
  0
LAYER
  2
LYELLOW
  70
0
  62
51
  6
CONTINUOUS
  0
LAYER
  2
BLUE1
  70
0
  62
178
  6
CONTINUOUS
  0
LAYER
  2
GREEN1
  70
0
  62
98
  6
CONTINUOUS
  0
LAYER
  2
CYAN1
  70
0
  62
138
  6
CONTINUOUS
  0
LAYER
  2
RED1
  70
0
  62
18
  6
CONTINUOUS
  0
LAYER
  2
MAGENTA1
  70
0
  62
228
  6
CONTINUOUS
  0
LAYER
  2
BROWN1
  70
0
  62
58
  6
CONTINUOUS
  0
LAYER
  2
BLUE2
  70
0
  62
5
  6
CONTINUOUS
  0
LAYER
  2
GREEN2
  70
0
  62
3
  6
CONTINUOUS
  0
LAYER
  2
CYAN2
  70
0
  62
4
  6
CONTINUOUS
  0
LAYER
  2
RED2
  70
0
  62
1
  6
CONTINUOUS
  0
LAYER
  2
MAGENTA2
  70
0
  62
6
  6
CONTINUOUS
  0
LAYER
  2
BROWN2
  70
0
  62
54
  6
CONTINUOUS
  0
LAYER
  2
BLUE3
  70
0
  62
171
  6
CONTINUOUS
  0
LAYER
  2
GREEN3
  70
0
  62
91
  6
CONTINUOUS
  0
LAYER
  2
CYAN3
  70
0
  62
131
  6
CONTINUOUS
  0
LAYER
  2
RED3
  70
0
  62
11
  6
CONTINUOUS
  0
LAYER
  2
MAGENTA3
  70
0
  62
221
  6
CONTINUOUS
  0
LAYER
  2
YELLOW3
  70
0
  62
2
  6
CONTINUOUS
  0
LAYER
  2
BLUE4
  70
0
  62
5
  6
CONTINUOUS
  0
LAYER
  2
GREEN4
  70
0
  62
3
  6
CONTINUOUS
  0
LAYER
  2
CYAN4
  70
0
  62
4
  6
CONTINUOUS
  0
LAYER
  2
RED4
  70
0
  62
1
  6
CONTINUOUS
  0
LAYER
  2
MAGENTA4
  70
0
  62
6
  6
CONTINUOUS
  0
LAYER
  2
YELLOW4
  70
0
  62
2
  6
CONTINUOUS
  0
ENDTAB
  0
ENDSEC
  0
SECTION
  2
ENTITIES
0
LINE
8
Black
10
79.75
20
-99.175
11
78.85
21
-99.175
0
LINE
8
Black
10
78.85
20
-99.175
11
78.85
21
-98.425
0
LINE
8
Black
10
78.85
20
-98.425
11
79.75
21
-98.425
0
LINE
8
Black
10
79.75
20
-98.425
11
79.75
21
-99.175
0
LINE
8
Black
10
77.55
20
-99.175
11
76.65
21
-99.175
0
LINE
8
Black
10
76.65
20
-99.175
11
76.65
21
-98.425
0
LINE
8
Black
10
76.65
20
-98.425
11
77.55
21
-98.425
0
LINE
8
Black
10
77.55
20
-98.425
11
77.55
21
-99.175
0
LINE
8
Black
10
78.65
20
-99.175
11
77.75
21
-99.175
0
LINE
8
Black
10
77.75
20
-99.175
11
77.75
21
-98.425
0
LINE
8
Black
10
77.75
20
-98.425
11
78.65
21
-98.425
0
LINE
8
Black
10
78.65
20
-98.425
11
78.65
21
-99.175
0
LINE
8
Black
10
80.85
20
-99.175
11
79.95
21
-99.175
0
LINE
8
Black
10
79.95
20
-99.175
11
79.95
21
-98.425
0
LINE
8
Black
10
79.95
20
-98.425
11
80.85
21
-98.425
0
LINE
8
Black
10
80.85
20
-98.425
11
80.85
21
-99.175
0
LINE
8
Black
10
69.16
20
-99.16
11
68.64
21
-99.16
0
LINE
8
Black
10
68.64
20
-99.16
11
68.64
21
-98.64
0
LINE
8
Black
10
68.64
20
-98.64
11
69.16
21
-98.64
0
LINE
8
Black
10
69.16
20
-98.64
11
69.16
21
-99.16
0
LINE
8
Black
10
63.76
20
-99.16
11
63.44
21
-99.16
0
LINE
8
Black
10
63.44
20
-99.16
11
63.44
21
-98.8
0
LINE
8
Black
10
63.44
20
-98.8
11
63.76
21
-98.8
0
LINE
8
Black
10
63.76
20
-98.8
11
63.76
21
-99.16
0
LINE
8
Black
10
63.16
20
-99.16
11
62.84
21
-99.16
0
LINE
8
Black
10
62.84
20
-99.16
11
62.84
21
-98.8
0
LINE
8
Black
10
62.84
20
-98.8
11
63.16
21
-98.8
0
LINE
8
Black
10
63.16
20
-98.8
11
63.16
21
-99.16
0
LINE
8
Black
10
69.96
20
-99.16
11
69.44
21
-99.16
0
LINE
8
Black
10
69.44
20
-99.16
11
69.44
21
-98.64
0
LINE
8
Black
10
69.44
20
-98.64
11
69.96
21
-98.64
0
LINE
8
Black
10
69.96
20
-98.64
11
69.96
21
-99.16
0
LINE
8
Black
10
62.56
20
-99.16
11
62.24
21
-99.16
0
LINE
8
Black
10
62.24
20
-99.16
11
62.24
21
-98.8
0
LINE
8
Black
10
62.24
20
-98.8
11
62.56
21
-98.8
0
LINE
8
Black
10
62.56
20
-98.8
11
62.56
21
-99.16
0
LINE
8
Black
10
71.56
20
-99.16
11
71.04
21
-99.16
0
LINE
8
Black
10
71.04
20
-99.16
11
71.04
21
-98.64
0
LINE
8
Black
10
71.04
20
-98.64
11
71.56
21
-98.64
0
LINE
8
Black
10
71.56
20
-98.64
11
71.56
21
-99.16
0
LINE
8
Black
10
64.36
20
-99.16
11
64.04
21
-99.16
0
LINE
8
Black
10
64.04
20
-99.16
11
64.04
21
-98.8
0
LINE
8
Black
10
64.04
20
-98.8
11
64.36
21
-98.8
0
LINE
8
Black
10
64.36
20
-98.8
11
64.36
21
-99.16
0
LINE
8
Black
10
70.76
20
-99.16
11
70.24
21
-99.16
0
LINE
8
Black
10
70.24
20
-99.16
11
70.24
21
-98.64
0
LINE
8
Black
10
70.24
20
-98.64
11
70.76
21
-98.64
0
LINE
8
Black
10
70.76
20
-98.64
11
70.76
21
-99.16
0
LINE
8
Black
10
94.725
20
-99.075
11
93.275
21
-99.075
0
LINE
8
Black
10
93.275
20
-99.075
11
93.275
21
-97.925
0
LINE
8
Black
10
93.275
20
-97.925
11
94.725
21
-97.925
0
LINE
8
Black
10
94.725
20
-97.925
11
94.725
21
-99.075
0
LINE
8
Black
10
90.725
20
-99.075
11
89.275
21
-99.075
0
LINE
8
Black
10
89.275
20
-99.075
11
89.275
21
-97.925
0
LINE
8
Black
10
89.275
20
-97.925
11
90.725
21
-97.925
0
LINE
8
Black
10
90.725
20
-97.925
11
90.725
21
-99.075
0
LINE
8
Black
10
83.7
20
-99.075
11
82.7
21
-99.075
0
LINE
8
Black
10
82.7
20
-99.075
11
82.7
21
-98.125
0
LINE
8
Black
10
82.7
20
-98.125
11
83.7
21
-98.125
0
LINE
8
Black
10
83.7
20
-98.125
11
83.7
21
-99.075
0
LINE
8
Black
10
82.2
20
-99.075
11
81.2
21
-99.075
0
LINE
8
Black
10
81.2
20
-99.075
11
81.2
21
-98.125
0
LINE
8
Black
10
81.2
20
-98.125
11
82.2
21
-98.125
0
LINE
8
Black
10
82.2
20
-98.125
11
82.2
21
-99.075
0
LINE
8
Black
10
88.725
20
-99.075
11
87.275
21
-99.075
0
LINE
8
Black
10
87.275
20
-99.075
11
87.275
21
-97.925
0
LINE
8
Black
10
87.275
20
-97.925
11
88.725
21
-97.925
0
LINE
8
Black
10
88.725
20
-97.925
11
88.725
21
-99.075
0
LINE
8
Black
10
92.725
20
-99.075
11
91.275
21
-99.075
0
LINE
8
Black
10
91.275
20
-99.075
11
91.275
21
-97.925
0
LINE
8
Black
10
91.275
20
-97.925
11
92.725
21
-97.925
0
LINE
8
Black
10
92.725
20
-97.925
11
92.725
21
-99.075
0
LINE
8
Black
10
86.7
20
-99.075
11
85.7
21
-99.075
0
LINE
8
Black
10
85.7
20
-99.075
11
85.7
21
-98.125
0
LINE
8
Black
10
85.7
20
-98.125
11
86.7
21
-98.125
0
LINE
8
Black
10
86.7
20
-98.125
11
86.7
21
-99.075
0
LINE
8
Black
10
99.4
20
-99.075
11
97.6
21
-99.075
0
LINE
8
Black
10
97.6
20
-99.075
11
97.6
21
-97.925
0
LINE
8
Black
10
97.6
20
-97.925
11
99.4
21
-97.925
0
LINE
8
Black
10
99.4
20
-97.925
11
99.4
21
-99.075
0
LINE
8
Black
10
97.1
20
-99.075
11
95.3
21
-99.075
0
LINE
8
Black
10
95.3
20
-99.075
11
95.3
21
-97.925
0
LINE
8
Black
10
95.3
20
-97.925
11
97.1
21
-97.925
0
LINE
8
Black
10
97.1
20
-97.925
11
97.1
21
-99.075
0
LINE
8
Black
10
85.2
20
-99.075
11
84.2
21
-99.075
0
LINE
8
Black
10
84.2
20
-99.075
11
84.2
21
-98.125
0
LINE
8
Black
10
84.2
20
-98.125
11
85.2
21
-98.125
0
LINE
8
Black
10
85.2
20
-98.125
11
85.2
21
-99.075
0
LINE
8
Black
10
73.81
20
-99.06
11
73.19
21
-99.06
0
LINE
8
Black
10
73.19
20
-99.06
11
73.19
21
-98.44
0
LINE
8
Black
10
73.19
20
-98.44
11
73.81
21
-98.44
0
LINE
8
Black
10
73.81
20
-98.44
11
73.81
21
-99.06
0
LINE
8
Black
10
66.21
20
-99.06
11
65.79
21
-99.06
0
LINE
8
Black
10
65.79
20
-99.06
11
65.79
21
-98.6
0
LINE
8
Black
10
65.79
20
-98.6
11
66.21
21
-98.6
0
LINE
8
Black
10
66.21
20
-98.6
11
66.21
21
-99.06
0
LINE
8
Black
10
68.21
20
-99.06
11
67.79
21
-99.06
0
LINE
8
Black
10
67.79
20
-99.06
11
67.79
21
-98.6
0
LINE
8
Black
10
67.79
20
-98.6
11
68.21
21
-98.6
0
LINE
8
Black
10
68.21
20
-98.6
11
68.21
21
-99.06
0
LINE
8
Black
10
75.01
20
-99.06
11
74.39
21
-99.06
0
LINE
8
Black
10
74.39
20
-99.06
11
74.39
21
-98.44
0
LINE
8
Black
10
74.39
20
-98.44
11
75.01
21
-98.44
0
LINE
8
Black
10
75.01
20
-98.44
11
75.01
21
-99.06
0
LINE
8
Black
10
65.21
20
-99.06
11
64.79
21
-99.06
0
LINE
8
Black
10
64.79
20
-99.06
11
64.79
21
-98.6
0
LINE
8
Black
10
64.79
20
-98.6
11
65.21
21
-98.6
0
LINE
8
Black
10
65.21
20
-98.6
11
65.21
21
-99.06
0
LINE
8
Black
10
76.21
20
-99.06
11
75.59
21
-99.06
0
LINE
8
Black
10
75.59
20
-99.06
11
75.59
21
-98.44
0
LINE
8
Black
10
75.59
20
-98.44
11
76.21
21
-98.44
0
LINE
8
Black
10
76.21
20
-98.44
11
76.21
21
-99.06
0
LINE
8
Black
10
72.61
20
-99.06
11
71.99
21
-99.06
0
LINE
8
Black
10
71.99
20
-99.06
11
71.99
21
-98.44
0
LINE
8
Black
10
71.99
20
-98.44
11
72.61
21
-98.44
0
LINE
8
Black
10
72.61
20
-98.44
11
72.61
21
-99.06
0
LINE
8
Black
10
67.21
20
-99.06
11
66.79
21
-99.06
0
LINE
8
Black
10
66.79
20
-99.06
11
66.79
21
-98.6
0
LINE
8
Black
10
66.79
20
-98.6
11
67.21
21
-98.6
0
LINE
8
Black
10
67.21
20
-98.6
11
67.21
21
-99.06
0
LINE
8
Black
10
64.36
20
-98.6
11
64.04
21
-98.6
0
LINE
8
Black
10
64.04
20
-98.6
11
64.04
21
-98.24
0
LINE
8
Black
10
64.04
20
-98.24
11
64.36
21
-98.24
0
LINE
8
Black
10
64.36
20
-98.24
11
64.36
21
-98.6
0
LINE
8
Black
10
63.16
20
-98.6
11
62.84
21
-98.6
0
LINE
8
Black
10
62.84
20
-98.6
11
62.84
21
-98.24
0
LINE
8
Black
10
62.84
20
-98.24
11
63.16
21
-98.24
0
LINE
8
Black
10
63.16
20
-98.24
11
63.16
21
-98.6
0
LINE
8
Black
10
63.76
20
-98.6
11
63.44
21
-98.6
0
LINE
8
Black
10
63.44
20
-98.6
11
63.44
21
-98.24
0
LINE
8
Black
10
63.44
20
-98.24
11
63.76
21
-98.24
0
LINE
8
Black
10
63.76
20
-98.24
11
63.76
21
-98.6
0
LINE
8
Black
10
62.56
20
-98.6
11
62.24
21
-98.6
0
LINE
8
Black
10
62.24
20
-98.6
11
62.24
21
-98.24
0
LINE
8
Black
10
62.24
20
-98.24
11
62.56
21
-98.24
0
LINE
8
Black
10
62.56
20
-98.24
11
62.56
21
-98.6
0
LINE
8
Black
10
67.21
20
-98.4
11
66.79
21
-98.4
0
LINE
8
Black
10
66.79
20
-98.4
11
66.79
21
-97.94
0
LINE
8
Black
10
66.79
20
-97.94
11
67.21
21
-97.94
0
LINE
8
Black
10
67.21
20
-97.94
11
67.21
21
-98.4
0
LINE
8
Black
10
65.21
20
-98.4
11
64.79
21
-98.4
0
LINE
8
Black
10
64.79
20
-98.4
11
64.79
21
-97.94
0
LINE
8
Black
10
64.79
20
-97.94
11
65.21
21
-97.94
0
LINE
8
Black
10
65.21
20
-97.94
11
65.21
21
-98.4
0
LINE
8
Black
10
68.21
20
-98.4
11
67.79
21
-98.4
0
LINE
8
Black
10
67.79
20
-98.4
11
67.79
21
-97.94
0
LINE
8
Black
10
67.79
20
-97.94
11
68.21
21
-97.94
0
LINE
8
Black
10
68.21
20
-97.94
11
68.21
21
-98.4
0
LINE
8
Black
10
66.21
20
-98.4
11
65.79
21
-98.4
0
LINE
8
Black
10
65.79
20
-98.4
11
65.79
21
-97.94
0
LINE
8
Black
10
65.79
20
-97.94
11
66.21
21
-97.94
0
LINE
8
Black
10
66.21
20
-97.94
11
66.21
21
-98.4
0
LINE
8
Black
10
69.16
20
-98.36
11
68.64
21
-98.36
0
LINE
8
Black
10
68.64
20
-98.36
11
68.64
21
-97.84
0
LINE
8
Black
10
68.64
20
-97.84
11
69.16
21
-97.84
0
LINE
8
Black
10
69.16
20
-97.84
11
69.16
21
-98.36
0
LINE
8
Black
10
70.76
20
-98.36
11
70.24
21
-98.36
0
LINE
8
Black
10
70.24
20
-98.36
11
70.24
21
-97.84
0
LINE
8
Black
10
70.24
20
-97.84
11
70.76
21
-97.84
0
LINE
8
Black
10
70.76
20
-97.84
11
70.76
21
-98.36
0
LINE
8
Black
10
71.56
20
-98.36
11
71.04
21
-98.36
0
LINE
8
Black
10
71.04
20
-98.36
11
71.04
21
-97.84
0
LINE
8
Black
10
71.04
20
-97.84
11
71.56
21
-97.84
0
LINE
8
Black
10
71.56
20
-97.84
11
71.56
21
-98.36
0
LINE
8
Black
10
69.96
20
-98.36
11
69.44
21
-98.36
0
LINE
8
Black
10
69.44
20
-98.36
11
69.44
21
-97.84
0
LINE
8
Black
10
69.44
20
-97.84
11
69.96
21
-97.84
0
LINE
8
Black
10
69.96
20
-97.84
11
69.96
21
-98.36
0
LINE
8
Black
10
75.01
20
-98.16
11
74.39
21
-98.16
0
LINE
8
Black
10
74.39
20
-98.16
11
74.39
21
-97.54
0
LINE
8
Black
10
74.39
20
-97.54
11
75.01
21
-97.54
0
LINE
8
Black
10
75.01
20
-97.54
11
75.01
21
-98.16
0
LINE
8
Black
10
76.21
20
-98.16
11
75.59
21
-98.16
0
LINE
8
Black
10
75.59
20
-98.16
11
75.59
21
-97.54
0
LINE
8
Black
10
75.59
20
-97.54
11
76.21
21
-97.54
0
LINE
8
Black
10
76.21
20
-97.54
11
76.21
21
-98.16
0
LINE
8
Black
10
73.81
20
-98.16
11
73.19
21
-98.16
0
LINE
8
Black
10
73.19
20
-98.16
11
73.19
21
-97.54
0
LINE
8
Black
10
73.19
20
-97.54
11
73.81
21
-97.54
0
LINE
8
Black
10
73.81
20
-97.54
11
73.81
21
-98.16
0
LINE
8
Black
10
72.61
20
-98.16
11
71.99
21
-98.16
0
LINE
8
Black
10
71.99
20
-98.16
11
71.99
21
-97.54
0
LINE
8
Black
10
71.99
20
-97.54
11
72.61
21
-97.54
0
LINE
8
Black
10
72.61
20
-97.54
11
72.61
21
-98.16
0
LINE
8
Black
10
64.36
20
-97.96
11
64.04
21
-97.96
0
LINE
8
Black
10
64.04
20
-97.96
11
64.04
21
-97.6
0
LINE
8
Black
10
64.04
20
-97.6
11
64.36
21
-97.6
0
LINE
8
Black
10
64.36
20
-97.6
11
64.36
21
-97.96
0
LINE
8
Black
10
63.76
20
-97.96
11
63.44
21
-97.96
0
LINE
8
Black
10
63.44
20
-97.96
11
63.44
21
-97.6
0
LINE
8
Black
10
63.44
20
-97.6
11
63.76
21
-97.6
0
LINE
8
Black
10
63.76
20
-97.6
11
63.76
21
-97.96
0
LINE
8
Black
10
63.16
20
-97.96
11
62.84
21
-97.96
0
LINE
8
Black
10
62.84
20
-97.96
11
62.84
21
-97.6
0
LINE
8
Black
10
62.84
20
-97.6
11
63.16
21
-97.6
0
LINE
8
Black
10
63.16
20
-97.6
11
63.16
21
-97.96
0
LINE
8
Black
10
62.56
20
-97.96
11
62.24
21
-97.96
0
LINE
8
Black
10
62.24
20
-97.96
11
62.24
21
-97.6
0
LINE
8
Black
10
62.24
20
-97.6
11
62.56
21
-97.6
0
LINE
8
Black
10
62.56
20
-97.6
11
62.56
21
-97.96
0
LINE
8
Black
10
77.55
20
-97.775
11
76.65
21
-97.775
0
LINE
8
Black
10
76.65
20
-97.775
11
76.65
21
-97.025
0
LINE
8
Black
10
76.65
20
-97.025
11
77.55
21
-97.025
0
LINE
8
Black
10
77.55
20
-97.025
11
77.55
21
-97.775
0
LINE
8
Black
10
80.85
20
-97.775
11
79.95
21
-97.775
0
LINE
8
Black
10
79.95
20
-97.775
11
79.95
21
-97.025
0
LINE
8
Black
10
79.95
20
-97.025
11
80.85
21
-97.025
0
LINE
8
Black
10
80.85
20
-97.025
11
80.85
21
-97.775
0
LINE
8
Black
10
78.65
20
-97.775
11
77.75
21
-97.775
0
LINE
8
Black
10
77.75
20
-97.775
11
77.75
21
-97.025
0
LINE
8
Black
10
77.75
20
-97.025
11
78.65
21
-97.025
0
LINE
8
Black
10
78.65
20
-97.025
11
78.65
21
-97.775
0
LINE
8
Black
10
79.75
20
-97.775
11
78.85
21
-97.775
0
LINE
8
Black
10
78.85
20
-97.775
11
78.85
21
-97.025
0
LINE
8
Black
10
78.85
20
-97.025
11
79.75
21
-97.025
0
LINE
8
Black
10
79.75
20
-97.025
11
79.75
21
-97.775
0
LINE
8
Black
10
71.56
20
-97.56
11
71.04
21
-97.56
0
LINE
8
Black
10
71.04
20
-97.56
11
71.04
21
-97.04
0
LINE
8
Black
10
71.04
20
-97.04
11
71.56
21
-97.04
0
LINE
8
Black
10
71.56
20
-97.04
11
71.56
21
-97.56
0
LINE
8
Black
10
70.76
20
-97.56
11
70.24
21
-97.56
0
LINE
8
Black
10
70.24
20
-97.56
11
70.24
21
-97.04
0
LINE
8
Black
10
70.24
20
-97.04
11
70.76
21
-97.04
0
LINE
8
Black
10
70.76
20
-97.04
11
70.76
21
-97.56
0
LINE
8
Black
10
69.96
20
-97.56
11
69.44
21
-97.56
0
LINE
8
Black
10
69.44
20
-97.56
11
69.44
21
-97.04
0
LINE
8
Black
10
69.44
20
-97.04
11
69.96
21
-97.04
0
LINE
8
Black
10
69.96
20
-97.04
11
69.96
21
-97.56
0
LINE
8
Black
10
69.16
20
-97.56
11
68.64
21
-97.56
0
LINE
8
Black
10
68.64
20
-97.56
11
68.64
21
-97.04
0
LINE
8
Black
10
68.64
20
-97.04
11
69.16
21
-97.04
0
LINE
8
Black
10
69.16
20
-97.04
11
69.16
21
-97.56
0
LINE
8
Black
10
82.2
20
-97.475
11
81.2
21
-97.475
0
LINE
8
Black
10
81.2
20
-97.475
11
81.2
21
-96.525
0
LINE
8
Black
10
81.2
20
-96.525
11
82.2
21
-96.525
0
LINE
8
Black
10
82.2
20
-96.525
11
82.2
21
-97.475
0
LINE
8
Black
10
86.7
20
-97.475
11
85.7
21
-97.475
0
LINE
8
Black
10
85.7
20
-97.475
11
85.7
21
-96.525
0
LINE
8
Black
10
85.7
20
-96.525
11
86.7
21
-96.525
0
LINE
8
Black
10
86.7
20
-96.525
11
86.7
21
-97.475
0
LINE
8
Black
10
85.2
20
-97.475
11
84.2
21
-97.475
0
LINE
8
Black
10
84.2
20
-97.475
11
84.2
21
-96.525
0
LINE
8
Black
10
84.2
20
-96.525
11
85.2
21
-96.525
0
LINE
8
Black
10
85.2
20
-96.525
11
85.2
21
-97.475
0
LINE
8
Black
10
83.7
20
-97.475
11
82.7
21
-97.475
0
LINE
8
Black
10
82.7
20
-97.475
11
82.7
21
-96.525
0
LINE
8
Black
10
82.7
20
-96.525
11
83.7
21
-96.525
0
LINE
8
Black
10
83.7
20
-96.525
11
83.7
21
-97.475
0
LINE
8
Black
10
64.36
20
-97.4
11
64.04
21
-97.4
0
LINE
8
Black
10
64.04
20
-97.4
11
64.04
21
-97.04
0
LINE
8
Black
10
64.04
20
-97.04
11
64.36
21
-97.04
0
LINE
8
Black
10
64.36
20
-97.04
11
64.36
21
-97.4
0
LINE
8
Black
10
63.16
20
-97.4
11
62.84
21
-97.4
0
LINE
8
Black
10
62.84
20
-97.4
11
62.84
21
-97.04
0
LINE
8
Black
10
62.84
20
-97.04
11
63.16
21
-97.04
0
LINE
8
Black
10
63.16
20
-97.04
11
63.16
21
-97.4
0
LINE
8
Black
10
63.76
20
-97.4
11
63.44
21
-97.4
0
LINE
8
Black
10
63.44
20
-97.4
11
63.44
21
-97.04
0
LINE
8
Black
10
63.44
20
-97.04
11
63.76
21
-97.04
0
LINE
8
Black
10
63.76
20
-97.04
11
63.76
21
-97.4
0
LINE
8
Black
10
62.56
20
-97.4
11
62.24
21
-97.4
0
LINE
8
Black
10
62.24
20
-97.4
11
62.24
21
-97.04
0
LINE
8
Black
10
62.24
20
-97.04
11
62.56
21
-97.04
0
LINE
8
Black
10
62.56
20
-97.04
11
62.56
21
-97.4
0
LINE
8
Black
10
67.21
20
-97.36
11
66.79
21
-97.36
0
LINE
8
Black
10
66.79
20
-97.36
11
66.79
21
-96.9
0
LINE
8
Black
10
66.79
20
-96.9
11
67.21
21
-96.9
0
LINE
8
Black
10
67.21
20
-96.9
11
67.21
21
-97.36
0
LINE
8
Black
10
65.21
20
-97.36
11
64.79
21
-97.36
0
LINE
8
Black
10
64.79
20
-97.36
11
64.79
21
-96.9
0
LINE
8
Black
10
64.79
20
-96.9
11
65.21
21
-96.9
0
LINE
8
Black
10
65.21
20
-96.9
11
65.21
21
-97.36
0
LINE
8
Black
10
68.21
20
-97.36
11
67.79
21
-97.36
0
LINE
8
Black
10
67.79
20
-97.36
11
67.79
21
-96.9
0
LINE
8
Black
10
67.79
20
-96.9
11
68.21
21
-96.9
0
LINE
8
Black
10
68.21
20
-96.9
11
68.21
21
-97.36
0
LINE
8
Black
10
66.21
20
-97.36
11
65.79
21
-97.36
0
LINE
8
Black
10
65.79
20
-97.36
11
65.79
21
-96.9
0
LINE
8
Black
10
65.79
20
-96.9
11
66.21
21
-96.9
0
LINE
8
Black
10
66.21
20
-96.9
11
66.21
21
-97.36
0
LINE
8
Black
10
90.725
20
-97.275
11
89.275
21
-97.275
0
LINE
8
Black
10
89.275
20
-97.275
11
89.275
21
-96.125
0
LINE
8
Black
10
89.275
20
-96.125
11
90.725
21
-96.125
0
LINE
8
Black
10
90.725
20
-96.125
11
90.725
21
-97.275
0
LINE
8
Black
10
94.725
20
-97.275
11
93.275
21
-97.275
0
LINE
8
Black
10
93.275
20
-97.275
11
93.275
21
-96.125
0
LINE
8
Black
10
93.275
20
-96.125
11
94.725
21
-96.125
0
LINE
8
Black
10
94.725
20
-96.125
11
94.725
21
-97.275
0
LINE
8
Black
10
88.725
20
-97.275
11
87.275
21
-97.275
0
LINE
8
Black
10
87.275
20
-97.275
11
87.275
21
-96.125
0
LINE
8
Black
10
87.275
20
-96.125
11
88.725
21
-96.125
0
LINE
8
Black
10
88.725
20
-96.125
11
88.725
21
-97.275
0
LINE
8
Black
10
92.725
20
-97.275
11
91.275
21
-97.275
0
LINE
8
Black
10
91.275
20
-97.275
11
91.275
21
-96.125
0
LINE
8
Black
10
91.275
20
-96.125
11
92.725
21
-96.125
0
LINE
8
Black
10
92.725
20
-96.125
11
92.725
21
-97.275
0
LINE
8
Black
10
76.21
20
-96.96
11
75.59
21
-96.96
0
LINE
8
Black
10
75.59
20
-96.96
11
75.59
21
-96.34
0
LINE
8
Black
10
75.59
20
-96.34
11
76.21
21
-96.34
0
LINE
8
Black
10
76.21
20
-96.34
11
76.21
21
-96.96
0
LINE
8
Black
10
75.01
20
-96.96
11
74.39
21
-96.96
0
LINE
8
Black
10
74.39
20
-96.96
11
74.39
21
-96.34
0
LINE
8
Black
10
74.39
20
-96.34
11
75.01
21
-96.34
0
LINE
8
Black
10
75.01
20
-96.34
11
75.01
21
-96.96
0
LINE
8
Black
10
72.61
20
-96.96
11
71.99
21
-96.96
0
LINE
8
Black
10
71.99
20
-96.96
11
71.99
21
-96.34
0
LINE
8
Black
10
71.99
20
-96.34
11
72.61
21
-96.34
0
LINE
8
Black
10
72.61
20
-96.34
11
72.61
21
-96.96
0
LINE
8
Black
10
73.81
20
-96.96
11
73.19
21
-96.96
0
LINE
8
Black
10
73.19
20
-96.96
11
73.19
21
-96.34
0
LINE
8
Black
10
73.19
20
-96.34
11
73.81
21
-96.34
0
LINE
8
Black
10
73.81
20
-96.34
11
73.81
21
-96.96
0
LINE
8
Black
10
79.75
20
-96.775
11
78.85
21
-96.775
0
LINE
8
Black
10
78.85
20
-96.775
11
78.85
21
-96.025
0
LINE
8
Black
10
78.85
20
-96.025
11
79.75
21
-96.025
0
LINE
8
Black
10
79.75
20
-96.025
11
79.75
21
-96.775
0
LINE
8
Black
10
78.65
20
-96.775
11
77.75
21
-96.775
0
LINE
8
Black
10
77.75
20
-96.775
11
77.75
21
-96.025
0
LINE
8
Black
10
77.75
20
-96.025
11
78.65
21
-96.025
0
LINE
8
Black
10
78.65
20
-96.025
11
78.65
21
-96.775
0
LINE
8
Black
10
80.85
20
-96.775
11
79.95
21
-96.775
0
LINE
8
Black
10
79.95
20
-96.775
11
79.95
21
-96.025
0
LINE
8
Black
10
79.95
20
-96.025
11
80.85
21
-96.025
0
LINE
8
Black
10
80.85
20
-96.025
11
80.85
21
-96.775
0
LINE
8
Black
10
77.55
20
-96.775
11
76.65
21
-96.775
0
LINE
8
Black
10
76.65
20
-96.775
11
76.65
21
-96.025
0
LINE
8
Black
10
76.65
20
-96.025
11
77.55
21
-96.025
0
LINE
8
Black
10
77.55
20
-96.025
11
77.55
21
-96.775
0
LINE
8
Black
10
69.16
20
-96.76
11
68.64
21
-96.76
0
LINE
8
Black
10
68.64
20
-96.76
11
68.64
21
-96.24
0
LINE
8
Black
10
68.64
20
-96.24
11
69.16
21
-96.24
0
LINE
8
Black
10
69.16
20
-96.24
11
69.16
21
-96.76
0
LINE
8
Black
10
70.76
20
-96.76
11
70.24
21
-96.76
0
LINE
8
Black
10
70.24
20
-96.76
11
70.24
21
-96.24
0
LINE
8
Black
10
70.24
20
-96.24
11
70.76
21
-96.24
0
LINE
8
Black
10
70.76
20
-96.24
11
70.76
21
-96.76
0
LINE
8
Black
10
63.16
20
-96.76
11
62.84
21
-96.76
0
LINE
8
Black
10
62.84
20
-96.76
11
62.84
21
-96.4
0
LINE
8
Black
10
62.84
20
-96.4
11
63.16
21
-96.4
0
LINE
8
Black
10
63.16
20
-96.4
11
63.16
21
-96.76
0
LINE
8
Black
10
64.36
20
-96.76
11
64.04
21
-96.76
0
LINE
8
Black
10
64.04
20
-96.76
11
64.04
21
-96.4
0
LINE
8
Black
10
64.04
20
-96.4
11
64.36
21
-96.4
0
LINE
8
Black
10
64.36
20
-96.4
11
64.36
21
-96.76
0
LINE
8
Black
10
71.56
20
-96.76
11
71.04
21
-96.76
0
LINE
8
Black
10
71.04
20
-96.76
11
71.04
21
-96.24
0
LINE
8
Black
10
71.04
20
-96.24
11
71.56
21
-96.24
0
LINE
8
Black
10
71.56
20
-96.24
11
71.56
21
-96.76
0
LINE
8
Black
10
63.76
20
-96.76
11
63.44
21
-96.76
0
LINE
8
Black
10
63.44
20
-96.76
11
63.44
21
-96.4
0
LINE
8
Black
10
63.44
20
-96.4
11
63.76
21
-96.4
0
LINE
8
Black
10
63.76
20
-96.4
11
63.76
21
-96.76
0
LINE
8
Black
10
69.96
20
-96.76
11
69.44
21
-96.76
0
LINE
8
Black
10
69.44
20
-96.76
11
69.44
21
-96.24
0
LINE
8
Black
10
69.44
20
-96.24
11
69.96
21
-96.24
0
LINE
8
Black
10
69.96
20
-96.24
11
69.96
21
-96.76
0
LINE
8
Black
10
62.56
20
-96.76
11
62.24
21
-96.76
0
LINE
8
Black
10
62.24
20
-96.76
11
62.24
21
-96.4
0
LINE
8
Black
10
62.24
20
-96.4
11
62.56
21
-96.4
0
LINE
8
Black
10
62.56
20
-96.4
11
62.56
21
-96.76
0
LINE
8
Black
10
67.21
20
-96.7
11
66.79
21
-96.7
0
LINE
8
Black
10
66.79
20
-96.7
11
66.79
21
-96.24
0
LINE
8
Black
10
66.79
20
-96.24
11
67.21
21
-96.24
0
LINE
8
Black
10
67.21
20
-96.24
11
67.21
21
-96.7
0
LINE
8
Black
10
68.21
20
-96.7
11
67.79
21
-96.7
0
LINE
8
Black
10
67.79
20
-96.7
11
67.79
21
-96.24
0
LINE
8
Black
10
67.79
20
-96.24
11
68.21
21
-96.24
0
LINE
8
Black
10
68.21
20
-96.24
11
68.21
21
-96.7
0
LINE
8
Black
10
66.21
20
-96.7
11
65.79
21
-96.7
0
LINE
8
Black
10
65.79
20
-96.7
11
65.79
21
-96.24
0
LINE
8
Black
10
65.79
20
-96.24
11
66.21
21
-96.24
0
LINE
8
Black
10
66.21
20
-96.24
11
66.21
21
-96.7
0
LINE
8
Black
10
65.21
20
-96.7
11
64.79
21
-96.7
0
LINE
8
Black
10
64.79
20
-96.7
11
64.79
21
-96.24
0
LINE
8
Black
10
64.79
20
-96.24
11
65.21
21
-96.24
0
LINE
8
Black
10
65.21
20
-96.24
11
65.21
21
-96.7
0
LINE
8
Black
10
63.16
20
-96.2
11
62.84
21
-96.2
0
LINE
8
Black
10
62.84
20
-96.2
11
62.84
21
-95.84
0
LINE
8
Black
10
62.84
20
-95.84
11
63.16
21
-95.84
0
LINE
8
Black
10
63.16
20
-95.84
11
63.16
21
-96.2
0
LINE
8
Black
10
64.36
20
-96.2
11
64.04
21
-96.2
0
LINE
8
Black
10
64.04
20
-96.2
11
64.04
21
-95.84
0
LINE
8
Black
10
64.04
20
-95.84
11
64.36
21
-95.84
0
LINE
8
Black
10
64.36
20
-95.84
11
64.36
21
-96.2
0
LINE
8
Black
10
62.56
20
-96.2
11
62.24
21
-96.2
0
LINE
8
Black
10
62.24
20
-96.2
11
62.24
21
-95.84
0
LINE
8
Black
10
62.24
20
-95.84
11
62.56
21
-95.84
0
LINE
8
Black
10
62.56
20
-95.84
11
62.56
21
-96.2
0
LINE
8
Black
10
63.76
20
-96.2
11
63.44
21
-96.2
0
LINE
8
Black
10
63.44
20
-96.2
11
63.44
21
-95.84
0
LINE
8
Black
10
63.44
20
-95.84
11
63.76
21
-95.84
0
LINE
8
Black
10
63.76
20
-95.84
11
63.76
21
-96.2
0
LINE
8
Black
10
99.4
20
-96.075
11
97.6
21
-96.075
0
LINE
8
Black
10
97.6
20
-96.075
11
97.6
21
-94.925
0
LINE
8
Black
10
97.6
20
-94.925
11
99.4
21
-94.925
0
LINE
8
Black
10
99.4
20
-94.925
11
99.4
21
-96.075
0
LINE
8
Black
10
97.1
20
-96.075
11
95.3
21
-96.075
0
LINE
8
Black
10
95.3
20
-96.075
11
95.3
21
-94.925
0
LINE
8
Black
10
95.3
20
-94.925
11
97.1
21
-94.925
0
LINE
8
Black
10
97.1
20
-94.925
11
97.1
21
-96.075
0
LINE
8
Black
10
72.61
20
-96.06
11
71.99
21
-96.06
0
LINE
8
Black
10
71.99
20
-96.06
11
71.99
21
-95.44
0
LINE
8
Black
10
71.99
20
-95.44
11
72.61
21
-95.44
0
LINE
8
Black
10
72.61
20
-95.44
11
72.61
21
-96.06
0
LINE
8
Black
10
76.21
20
-96.06
11
75.59
21
-96.06
0
LINE
8
Black
10
75.59
20
-96.06
11
75.59
21
-95.44
0
LINE
8
Black
10
75.59
20
-95.44
11
76.21
21
-95.44
0
LINE
8
Black
10
76.21
20
-95.44
11
76.21
21
-96.06
0
LINE
8
Black
10
75.01
20
-96.06
11
74.39
21
-96.06
0
LINE
8
Black
10
74.39
20
-96.06
11
74.39
21
-95.44
0
LINE
8
Black
10
74.39
20
-95.44
11
75.01
21
-95.44
0
LINE
8
Black
10
75.01
20
-95.44
11
75.01
21
-96.06
0
LINE
8
Black
10
73.81
20
-96.06
11
73.19
21
-96.06
0
LINE
8
Black
10
73.19
20
-96.06
11
73.19
21
-95.44
0
LINE
8
Black
10
73.19
20
-95.44
11
73.81
21
-95.44
0
LINE
8
Black
10
73.81
20
-95.44
11
73.81
21
-96.06
0
LINE
8
Black
10
85.2
20
-95.975
11
84.2
21
-95.975
0
LINE
8
Black
10
84.2
20
-95.975
11
84.2
21
-95.025
0
LINE
8
Black
10
84.2
20
-95.025
11
85.2
21
-95.025
0
LINE
8
Black
10
85.2
20
-95.025
11
85.2
21
-95.975
0
LINE
8
Black
10
82.2
20
-95.975
11
81.2
21
-95.975
0
LINE
8
Black
10
81.2
20
-95.975
11
81.2
21
-95.025
0
LINE
8
Black
10
81.2
20
-95.025
11
82.2
21
-95.025
0
LINE
8
Black
10
82.2
20
-95.025
11
82.2
21
-95.975
0
LINE
8
Black
10
83.7
20
-95.975
11
82.7
21
-95.975
0
LINE
8
Black
10
82.7
20
-95.975
11
82.7
21
-95.025
0
LINE
8
Black
10
82.7
20
-95.025
11
83.7
21
-95.025
0
LINE
8
Black
10
83.7
20
-95.025
11
83.7
21
-95.975
0
LINE
8
Black
10
86.7
20
-95.975
11
85.7
21
-95.975
0
LINE
8
Black
10
85.7
20
-95.975
11
85.7
21
-95.025
0
LINE
8
Black
10
85.7
20
-95.025
11
86.7
21
-95.025
0
LINE
8
Black
10
86.7
20
-95.025
11
86.7
21
-95.975
0
LINE
8
Black
10
71.56
20
-95.96
11
71.04
21
-95.96
0
LINE
8
Black
10
71.04
20
-95.96
11
71.04
21
-95.44
0
LINE
8
Black
10
71.04
20
-95.44
11
71.56
21
-95.44
0
LINE
8
Black
10
71.56
20
-95.44
11
71.56
21
-95.96
0
LINE
8
Black
10
69.96
20
-95.96
11
69.44
21
-95.96
0
LINE
8
Black
10
69.44
20
-95.96
11
69.44
21
-95.44
0
LINE
8
Black
10
69.44
20
-95.44
11
69.96
21
-95.44
0
LINE
8
Black
10
69.96
20
-95.44
11
69.96
21
-95.96
0
LINE
8
Black
10
70.76
20
-95.96
11
70.24
21
-95.96
0
LINE
8
Black
10
70.24
20
-95.96
11
70.24
21
-95.44
0
LINE
8
Black
10
70.24
20
-95.44
11
70.76
21
-95.44
0
LINE
8
Black
10
70.76
20
-95.44
11
70.76
21
-95.96
0
LINE
8
Black
10
69.16
20
-95.96
11
68.64
21
-95.96
0
LINE
8
Black
10
68.64
20
-95.96
11
68.64
21
-95.44
0
LINE
8
Black
10
68.64
20
-95.44
11
69.16
21
-95.44
0
LINE
8
Black
10
69.16
20
-95.44
11
69.16
21
-95.96
0
LINE
8
Black
10
65.21
20
-95.66
11
64.79
21
-95.66
0
LINE
8
Black
10
64.79
20
-95.66
11
64.79
21
-95.2
0
LINE
8
Black
10
64.79
20
-95.2
11
65.21
21
-95.2
0
LINE
8
Black
10
65.21
20
-95.2
11
65.21
21
-95.66
0
LINE
8
Black
10
67.21
20
-95.66
11
66.79
21
-95.66
0
LINE
8
Black
10
66.79
20
-95.66
11
66.79
21
-95.2
0
LINE
8
Black
10
66.79
20
-95.2
11
67.21
21
-95.2
0
LINE
8
Black
10
67.21
20
-95.2
11
67.21
21
-95.66
0
LINE
8
Black
10
68.21
20
-95.66
11
67.79
21
-95.66
0
LINE
8
Black
10
67.79
20
-95.66
11
67.79
21
-95.2
0
LINE
8
Black
10
67.79
20
-95.2
11
68.21
21
-95.2
0
LINE
8
Black
10
68.21
20
-95.2
11
68.21
21
-95.66
0
LINE
8
Black
10
66.21
20
-95.66
11
65.79
21
-95.66
0
LINE
8
Black
10
65.79
20
-95.66
11
65.79
21
-95.2
0
LINE
8
Black
10
65.79
20
-95.2
11
66.21
21
-95.2
0
LINE
8
Black
10
66.21
20
-95.2
11
66.21
21
-95.66
0
LINE
8
Black
10
92.725
20
-95.575
11
91.275
21
-95.575
0
LINE
8
Black
10
91.275
20
-95.575
11
91.275
21
-94.425
0
LINE
8
Black
10
91.275
20
-94.425
11
92.725
21
-94.425
0
LINE
8
Black
10
92.725
20
-94.425
11
92.725
21
-95.575
0
LINE
8
Black
10
94.725
20
-95.575
11
93.275
21
-95.575
0
LINE
8
Black
10
93.275
20
-95.575
11
93.275
21
-94.425
0
LINE
8
Black
10
93.275
20
-94.425
11
94.725
21
-94.425
0
LINE
8
Black
10
94.725
20
-94.425
11
94.725
21
-95.575
0
LINE
8
Black
10
90.725
20
-95.575
11
89.275
21
-95.575
0
LINE
8
Black
10
89.275
20
-95.575
11
89.275
21
-94.425
0
LINE
8
Black
10
89.275
20
-94.425
11
90.725
21
-94.425
0
LINE
8
Black
10
90.725
20
-94.425
11
90.725
21
-95.575
0
LINE
8
Black
10
88.725
20
-95.575
11
87.275
21
-95.575
0
LINE
8
Black
10
87.275
20
-95.575
11
87.275
21
-94.425
0
LINE
8
Black
10
87.275
20
-94.425
11
88.725
21
-94.425
0
LINE
8
Black
10
88.725
20
-94.425
11
88.725
21
-95.575
0
LINE
8
Black
10
78.65
20
-95.375
11
77.75
21
-95.375
0
LINE
8
Black
10
77.75
20
-95.375
11
77.75
21
-94.625
0
LINE
8
Black
10
77.75
20
-94.625
11
78.65
21
-94.625
0
LINE
8
Black
10
78.65
20
-94.625
11
78.65
21
-95.375
0
LINE
8
Black
10
80.85
20
-95.375
11
79.95
21
-95.375
0
LINE
8
Black
10
79.95
20
-95.375
11
79.95
21
-94.625
0
LINE
8
Black
10
79.95
20
-94.625
11
80.85
21
-94.625
0
LINE
8
Black
10
80.85
20
-94.625
11
80.85
21
-95.375
0
LINE
8
Black
10
79.75
20
-95.375
11
78.85
21
-95.375
0
LINE
8
Black
10
78.85
20
-95.375
11
78.85
21
-94.625
0
LINE
8
Black
10
78.85
20
-94.625
11
79.75
21
-94.625
0
LINE
8
Black
10
79.75
20
-94.625
11
79.75
21
-95.375
0
LINE
8
Black
10
77.55
20
-95.375
11
76.65
21
-95.375
0
LINE
8
Black
10
76.65
20
-95.375
11
76.65
21
-94.625
0
LINE
8
Black
10
76.65
20
-94.625
11
77.55
21
-94.625
0
LINE
8
Black
10
77.55
20
-94.625
11
77.55
21
-95.375
0
LINE
8
Black
10
69.16
20
-95.16
11
68.64
21
-95.16
0
LINE
8
Black
10
68.64
20
-95.16
11
68.64
21
-94.64
0
LINE
8
Black
10
68.64
20
-94.64
11
69.16
21
-94.64
0
LINE
8
Black
10
69.16
20
-94.64
11
69.16
21
-95.16
0
LINE
8
Black
10
70.76
20
-95.16
11
70.24
21
-95.16
0
LINE
8
Black
10
70.24
20
-95.16
11
70.24
21
-94.64
0
LINE
8
Black
10
70.24
20
-94.64
11
70.76
21
-94.64
0
LINE
8
Black
10
70.76
20
-94.64
11
70.76
21
-95.16
0
LINE
8
Black
10
69.96
20
-95.16
11
69.44
21
-95.16
0
LINE
8
Black
10
69.44
20
-95.16
11
69.44
21
-94.64
0
LINE
8
Black
10
69.44
20
-94.64
11
69.96
21
-94.64
0
LINE
8
Black
10
69.96
20
-94.64
11
69.96
21
-95.16
0
LINE
8
Black
10
71.56
20
-95.16
11
71.04
21
-95.16
0
LINE
8
Black
10
71.04
20
-95.16
11
71.04
21
-94.64
0
LINE
8
Black
10
71.04
20
-94.64
11
71.56
21
-94.64
0
LINE
8
Black
10
71.56
20
-94.64
11
71.56
21
-95.16
0
LINE
8
Black
10
66.21
20
-95
11
65.79
21
-95
0
LINE
8
Black
10
65.79
20
-95
11
65.79
21
-94.54
0
LINE
8
Black
10
65.79
20
-94.54
11
66.21
21
-94.54
0
LINE
8
Black
10
66.21
20
-94.54
11
66.21
21
-95
0
LINE
8
Black
10
65.21
20
-95
11
64.79
21
-95
0
LINE
8
Black
10
64.79
20
-95
11
64.79
21
-94.54
0
LINE
8
Black
10
64.79
20
-94.54
11
65.21
21
-94.54
0
LINE
8
Black
10
65.21
20
-94.54
11
65.21
21
-95
0
LINE
8
Black
10
68.21
20
-95
11
67.79
21
-95
0
LINE
8
Black
10
67.79
20
-95
11
67.79
21
-94.54
0
LINE
8
Black
10
67.79
20
-94.54
11
68.21
21
-94.54
0
LINE
8
Black
10
68.21
20
-94.54
11
68.21
21
-95
0
LINE
8
Black
10
67.21
20
-95
11
66.79
21
-95
0
LINE
8
Black
10
66.79
20
-95
11
66.79
21
-94.54
0
LINE
8
Black
10
66.79
20
-94.54
11
67.21
21
-94.54
0
LINE
8
Black
10
67.21
20
-94.54
11
67.21
21
-95
0
LINE
8
Black
10
73.81
20
-94.86
11
73.19
21
-94.86
0
LINE
8
Black
10
73.19
20
-94.86
11
73.19
21
-94.24
0
LINE
8
Black
10
73.19
20
-94.24
11
73.81
21
-94.24
0
LINE
8
Black
10
73.81
20
-94.24
11
73.81
21
-94.86
0
LINE
8
Black
10
72.61
20
-94.86
11
71.99
21
-94.86
0
LINE
8
Black
10
71.99
20
-94.86
11
71.99
21
-94.24
0
LINE
8
Black
10
71.99
20
-94.24
11
72.61
21
-94.24
0
LINE
8
Black
10
72.61
20
-94.24
11
72.61
21
-94.86
0
LINE
8
Black
10
75.01
20
-94.86
11
74.39
21
-94.86
0
LINE
8
Black
10
74.39
20
-94.86
11
74.39
21
-94.24
0
LINE
8
Black
10
74.39
20
-94.24
11
75.01
21
-94.24
0
LINE
8
Black
10
75.01
20
-94.24
11
75.01
21
-94.86
0
LINE
8
Black
10
76.21
20
-94.86
11
75.59
21
-94.86
0
LINE
8
Black
10
75.59
20
-94.86
11
75.59
21
-94.24
0
LINE
8
Black
10
75.59
20
-94.24
11
76.21
21
-94.24
0
LINE
8
Black
10
76.21
20
-94.24
11
76.21
21
-94.86
0
LINE
8
Black
10
97.1
20
-94.375
11
95.3
21
-94.375
0
LINE
8
Black
10
95.3
20
-94.375
11
95.3
21
-93.225
0
LINE
8
Black
10
95.3
20
-93.225
11
97.1
21
-93.225
0
LINE
8
Black
10
97.1
20
-93.225
11
97.1
21
-94.375
0
LINE
8
Black
10
77.55
20
-94.375
11
76.65
21
-94.375
0
LINE
8
Black
10
76.65
20
-94.375
11
76.65
21
-93.625
0
LINE
8
Black
10
76.65
20
-93.625
11
77.55
21
-93.625
0
LINE
8
Black
10
77.55
20
-93.625
11
77.55
21
-94.375
0
LINE
8
Black
10
78.65
20
-94.375
11
77.75
21
-94.375
0
LINE
8
Black
10
77.75
20
-94.375
11
77.75
21
-93.625
0
LINE
8
Black
10
77.75
20
-93.625
11
78.65
21
-93.625
0
LINE
8
Black
10
78.65
20
-93.625
11
78.65
21
-94.375
0
LINE
8
Black
10
83.7
20
-94.375
11
82.7
21
-94.375
0
LINE
8
Black
10
82.7
20
-94.375
11
82.7
21
-93.425
0
LINE
8
Black
10
82.7
20
-93.425
11
83.7
21
-93.425
0
LINE
8
Black
10
83.7
20
-93.425
11
83.7
21
-94.375
0
LINE
8
Black
10
86.7
20
-94.375
11
85.7
21
-94.375
0
LINE
8
Black
10
85.7
20
-94.375
11
85.7
21
-93.425
0
LINE
8
Black
10
85.7
20
-93.425
11
86.7
21
-93.425
0
LINE
8
Black
10
86.7
20
-93.425
11
86.7
21
-94.375
0
LINE
8
Black
10
82.2
20
-94.375
11
81.2
21
-94.375
0
LINE
8
Black
10
81.2
20
-94.375
11
81.2
21
-93.425
0
LINE
8
Black
10
81.2
20
-93.425
11
82.2
21
-93.425
0
LINE
8
Black
10
82.2
20
-93.425
11
82.2
21
-94.375
0
LINE
8
Black
10
99.4
20
-94.375
11
97.6
21
-94.375
0
LINE
8
Black
10
97.6
20
-94.375
11
97.6
21
-93.225
0
LINE
8
Black
10
97.6
20
-93.225
11
99.4
21
-93.225
0
LINE
8
Black
10
99.4
20
-93.225
11
99.4
21
-94.375
0
LINE
8
Black
10
80.85
20
-94.375
11
79.95
21
-94.375
0
LINE
8
Black
10
79.95
20
-94.375
11
79.95
21
-93.625
0
LINE
8
Black
10
79.95
20
-93.625
11
80.85
21
-93.625
0
LINE
8
Black
10
80.85
20
-93.625
11
80.85
21
-94.375
0
LINE
8
Black
10
85.2
20
-94.375
11
84.2
21
-94.375
0
LINE
8
Black
10
84.2
20
-94.375
11
84.2
21
-93.425
0
LINE
8
Black
10
84.2
20
-93.425
11
85.2
21
-93.425
0
LINE
8
Black
10
85.2
20
-93.425
11
85.2
21
-94.375
0
LINE
8
Black
10
79.75
20
-94.375
11
78.85
21
-94.375
0
LINE
8
Black
10
78.85
20
-94.375
11
78.85
21
-93.625
0
LINE
8
Black
10
78.85
20
-93.625
11
79.75
21
-93.625
0
LINE
8
Black
10
79.75
20
-93.625
11
79.75
21
-94.375
0
LINE
8
Black
10
75.01
20
-93.96
11
74.39
21
-93.96
0
LINE
8
Black
10
74.39
20
-93.96
11
74.39
21
-93.34
0
LINE
8
Black
10
74.39
20
-93.34
11
75.01
21
-93.34
0
LINE
8
Black
10
75.01
20
-93.34
11
75.01
21
-93.96
0
LINE
8
Black
10
76.21
20
-93.96
11
75.59
21
-93.96
0
LINE
8
Black
10
75.59
20
-93.96
11
75.59
21
-93.34
0
LINE
8
Black
10
75.59
20
-93.34
11
76.21
21
-93.34
0
LINE
8
Black
10
76.21
20
-93.34
11
76.21
21
-93.96
0
LINE
8
Black
10
73.81
20
-93.96
11
73.19
21
-93.96
0
LINE
8
Black
10
73.19
20
-93.96
11
73.19
21
-93.34
0
LINE
8
Black
10
73.19
20
-93.34
11
73.81
21
-93.34
0
LINE
8
Black
10
73.81
20
-93.34
11
73.81
21
-93.96
0
LINE
8
Black
10
72.61
20
-93.96
11
71.99
21
-93.96
0
LINE
8
Black
10
71.99
20
-93.96
11
71.99
21
-93.34
0
LINE
8
Black
10
71.99
20
-93.34
11
72.61
21
-93.34
0
LINE
8
Black
10
72.61
20
-93.34
11
72.61
21
-93.96
0
LINE
8
Black
10
90.725
20
-93.775
11
89.275
21
-93.775
0
LINE
8
Black
10
89.275
20
-93.775
11
89.275
21
-92.625
0
LINE
8
Black
10
89.275
20
-92.625
11
90.725
21
-92.625
0
LINE
8
Black
10
90.725
20
-92.625
11
90.725
21
-93.775
0
LINE
8
Black
10
88.725
20
-93.775
11
87.275
21
-93.775
0
LINE
8
Black
10
87.275
20
-93.775
11
87.275
21
-92.625
0
LINE
8
Black
10
87.275
20
-92.625
11
88.725
21
-92.625
0
LINE
8
Black
10
88.725
20
-92.625
11
88.725
21
-93.775
0
LINE
8
Black
10
94.725
20
-93.775
11
93.275
21
-93.775
0
LINE
8
Black
10
93.275
20
-93.775
11
93.275
21
-92.625
0
LINE
8
Black
10
93.275
20
-92.625
11
94.725
21
-92.625
0
LINE
8
Black
10
94.725
20
-92.625
11
94.725
21
-93.775
0
LINE
8
Black
10
92.725
20
-93.775
11
91.275
21
-93.775
0
LINE
8
Black
10
91.275
20
-93.775
11
91.275
21
-92.625
0
LINE
8
Black
10
91.275
20
-92.625
11
92.725
21
-92.625
0
LINE
8
Black
10
92.725
20
-92.625
11
92.725
21
-93.775
0
LINE
8
Black
10
77.55
20
-92.975
11
76.65
21
-92.975
0
LINE
8
Black
10
76.65
20
-92.975
11
76.65
21
-92.225
0
LINE
8
Black
10
76.65
20
-92.225
11
77.55
21
-92.225
0
LINE
8
Black
10
77.55
20
-92.225
11
77.55
21
-92.975
0
LINE
8
Black
10
79.75
20
-92.975
11
78.85
21
-92.975
0
LINE
8
Black
10
78.85
20
-92.975
11
78.85
21
-92.225
0
LINE
8
Black
10
78.85
20
-92.225
11
79.75
21
-92.225
0
LINE
8
Black
10
79.75
20
-92.225
11
79.75
21
-92.975
0
LINE
8
Black
10
78.65
20
-92.975
11
77.75
21
-92.975
0
LINE
8
Black
10
77.75
20
-92.975
11
77.75
21
-92.225
0
LINE
8
Black
10
77.75
20
-92.225
11
78.65
21
-92.225
0
LINE
8
Black
10
78.65
20
-92.225
11
78.65
21
-92.975
0
LINE
8
Black
10
80.85
20
-92.975
11
79.95
21
-92.975
0
LINE
8
Black
10
79.95
20
-92.975
11
79.95
21
-92.225
0
LINE
8
Black
10
79.95
20
-92.225
11
80.85
21
-92.225
0
LINE
8
Black
10
80.85
20
-92.225
11
80.85
21
-92.975
0
LINE
8
Black
10
82.2
20
-92.875
11
81.2
21
-92.875
0
LINE
8
Black
10
81.2
20
-92.875
11
81.2
21
-91.925
0
LINE
8
Black
10
81.2
20
-91.925
11
82.2
21
-91.925
0
LINE
8
Black
10
82.2
20
-91.925
11
82.2
21
-92.875
0
LINE
8
Black
10
83.7
20
-92.875
11
82.7
21
-92.875
0
LINE
8
Black
10
82.7
20
-92.875
11
82.7
21
-91.925
0
LINE
8
Black
10
82.7
20
-91.925
11
83.7
21
-91.925
0
LINE
8
Black
10
83.7
20
-91.925
11
83.7
21
-92.875
0
LINE
8
Black
10
85.2
20
-92.875
11
84.2
21
-92.875
0
LINE
8
Black
10
84.2
20
-92.875
11
84.2
21
-91.925
0
LINE
8
Black
10
84.2
20
-91.925
11
85.2
21
-91.925
0
LINE
8
Black
10
85.2
20
-91.925
11
85.2
21
-92.875
0
LINE
8
Black
10
86.7
20
-92.875
11
85.7
21
-92.875
0
LINE
8
Black
10
85.7
20
-92.875
11
85.7
21
-91.925
0
LINE
8
Black
10
85.7
20
-91.925
11
86.7
21
-91.925
0
LINE
8
Black
10
86.7
20
-91.925
11
86.7
21
-92.875
0
LINE
8
Black
10
52.1
20
-92.175
11
51.1
21
-92.175
0
LINE
8
Black
10
51.1
20
-92.175
11
51.1
21
-91.225
0
LINE
8
Black
10
51.1
20
-91.225
11
52.1
21
-91.225
0
LINE
8
Black
10
52.1
20
-91.225
11
52.1
21
-92.175
0
LINE
8
Black
10
53.6
20
-92.175
11
52.6
21
-92.175
0
LINE
8
Black
10
52.6
20
-92.175
11
52.6
21
-91.225
0
LINE
8
Black
10
52.6
20
-91.225
11
53.6
21
-91.225
0
LINE
8
Black
10
53.6
20
-91.225
11
53.6
21
-92.175
0
LINE
8
Black
10
55.1
20
-92.175
11
54.1
21
-92.175
0
LINE
8
Black
10
54.1
20
-92.175
11
54.1
21
-91.225
0
LINE
8
Black
10
54.1
20
-91.225
11
55.1
21
-91.225
0
LINE
8
Black
10
55.1
20
-91.225
11
55.1
21
-92.175
0
LINE
8
Black
10
62.6
20
-92.175
11
61.6
21
-92.175
0
LINE
8
Black
10
61.6
20
-92.175
11
61.6
21
-91.225
0
LINE
8
Black
10
61.6
20
-91.225
11
62.6
21
-91.225
0
LINE
8
Black
10
62.6
20
-91.225
11
62.6
21
-92.175
0
LINE
8
Black
10
61.1
20
-92.175
11
60.1
21
-92.175
0
LINE
8
Black
10
60.1
20
-92.175
11
60.1
21
-91.225
0
LINE
8
Black
10
60.1
20
-91.225
11
61.1
21
-91.225
0
LINE
8
Black
10
61.1
20
-91.225
11
61.1
21
-92.175
0
LINE
8
Black
10
56.6
20
-92.175
11
55.6
21
-92.175
0
LINE
8
Black
10
55.6
20
-92.175
11
55.6
21
-91.225
0
LINE
8
Black
10
55.6
20
-91.225
11
56.6
21
-91.225
0
LINE
8
Black
10
56.6
20
-91.225
11
56.6
21
-92.175
0
LINE
8
Black
10
58.1
20
-92.175
11
57.1
21
-92.175
0
LINE
8
Black
10
57.1
20
-92.175
11
57.1
21
-91.225
0
LINE
8
Black
10
57.1
20
-91.225
11
58.1
21
-91.225
0
LINE
8
Black
10
58.1
20
-91.225
11
58.1
21
-92.175
0
LINE
8
Black
10
59.6
20
-92.175
11
58.6
21
-92.175
0
LINE
8
Black
10
58.6
20
-92.175
11
58.6
21
-91.225
0
LINE
8
Black
10
58.6
20
-91.225
11
59.6
21
-91.225
0
LINE
8
Black
10
59.6
20
-91.225
11
59.6
21
-92.175
0
LINE
8
Black
10
90.725
20
-92.075
11
89.275
21
-92.075
0
LINE
8
Black
10
89.275
20
-92.075
11
89.275
21
-90.925
0
LINE
8
Black
10
89.275
20
-90.925
11
90.725
21
-90.925
0
LINE
8
Black
10
90.725
20
-90.925
11
90.725
21
-92.075
0
LINE
8
Black
10
88.725
20
-92.075
11
87.275
21
-92.075
0
LINE
8
Black
10
87.275
20
-92.075
11
87.275
21
-90.925
0
LINE
8
Black
10
87.275
20
-90.925
11
88.725
21
-90.925
0
LINE
8
Black
10
88.725
20
-90.925
11
88.725
21
-92.075
0
LINE
8
Black
10
92.725
20
-92.075
11
91.275
21
-92.075
0
LINE
8
Black
10
91.275
20
-92.075
11
91.275
21
-90.925
0
LINE
8
Black
10
91.275
20
-90.925
11
92.725
21
-90.925
0
LINE
8
Black
10
92.725
20
-90.925
11
92.725
21
-92.075
0
LINE
8
Black
10
94.725
20
-92.075
11
93.275
21
-92.075
0
LINE
8
Black
10
93.275
20
-92.075
11
93.275
21
-90.925
0
LINE
8
Black
10
93.275
20
-90.925
11
94.725
21
-90.925
0
LINE
8
Black
10
94.725
20
-90.925
11
94.725
21
-92.075
0
LINE
8
Black
10
97.1
20
-91.375
11
95.3
21
-91.375
0
LINE
8
Black
10
95.3
20
-91.375
11
95.3
21
-90.225
0
LINE
8
Black
10
95.3
20
-90.225
11
97.1
21
-90.225
0
LINE
8
Black
10
97.1
20
-90.225
11
97.1
21
-91.375
0
LINE
8
Black
10
99.4
20
-91.375
11
97.6
21
-91.375
0
LINE
8
Black
10
97.6
20
-91.375
11
97.6
21
-90.225
0
LINE
8
Black
10
97.6
20
-90.225
11
99.4
21
-90.225
0
LINE
8
Black
10
99.4
20
-90.225
11
99.4
21
-91.375
0
LINE
8
Black
10
83.7
20
-91.275
11
82.7
21
-91.275
0
LINE
8
Black
10
82.7
20
-91.275
11
82.7
21
-90.325
0
LINE
8
Black
10
82.7
20
-90.325
11
83.7
21
-90.325
0
LINE
8
Black
10
83.7
20
-90.325
11
83.7
21
-91.275
0
LINE
8
Black
10
82.2
20
-91.275
11
81.2
21
-91.275
0
LINE
8
Black
10
81.2
20
-91.275
11
81.2
21
-90.325
0
LINE
8
Black
10
81.2
20
-90.325
11
82.2
21
-90.325
0
LINE
8
Black
10
82.2
20
-90.325
11
82.2
21
-91.275
0
LINE
8
Black
10
86.7
20
-91.275
11
85.7
21
-91.275
0
LINE
8
Black
10
85.7
20
-91.275
11
85.7
21
-90.325
0
LINE
8
Black
10
85.7
20
-90.325
11
86.7
21
-90.325
0
LINE
8
Black
10
86.7
20
-90.325
11
86.7
21
-91.275
0
LINE
8
Black
10
85.2
20
-91.275
11
84.2
21
-91.275
0
LINE
8
Black
10
84.2
20
-91.275
11
84.2
21
-90.325
0
LINE
8
Black
10
84.2
20
-90.325
11
85.2
21
-90.325
0
LINE
8
Black
10
85.2
20
-90.325
11
85.2
21
-91.275
0
LINE
8
Black
10
58.1
20
-90.575
11
57.1
21
-90.575
0
LINE
8
Black
10
57.1
20
-90.575
11
57.1
21
-89.625
0
LINE
8
Black
10
57.1
20
-89.625
11
58.1
21
-89.625
0
LINE
8
Black
10
58.1
20
-89.625
11
58.1
21
-90.575
0
LINE
8
Black
10
52.1
20
-90.575
11
51.1
21
-90.575
0
LINE
8
Black
10
51.1
20
-90.575
11
51.1
21
-89.625
0
LINE
8
Black
10
51.1
20
-89.625
11
52.1
21
-89.625
0
LINE
8
Black
10
52.1
20
-89.625
11
52.1
21
-90.575
0
LINE
8
Black
10
62.6
20
-90.575
11
61.6
21
-90.575
0
LINE
8
Black
10
61.6
20
-90.575
11
61.6
21
-89.625
0
LINE
8
Black
10
61.6
20
-89.625
11
62.6
21
-89.625
0
LINE
8
Black
10
62.6
20
-89.625
11
62.6
21
-90.575
0
LINE
8
Black
10
53.6
20
-90.575
11
52.6
21
-90.575
0
LINE
8
Black
10
52.6
20
-90.575
11
52.6
21
-89.625
0
LINE
8
Black
10
52.6
20
-89.625
11
53.6
21
-89.625
0
LINE
8
Black
10
53.6
20
-89.625
11
53.6
21
-90.575
0
LINE
8
Black
10
55.1
20
-90.575
11
54.1
21
-90.575
0
LINE
8
Black
10
54.1
20
-90.575
11
54.1
21
-89.625
0
LINE
8
Black
10
54.1
20
-89.625
11
55.1
21
-89.625
0
LINE
8
Black
10
55.1
20
-89.625
11
55.1
21
-90.575
0
LINE
8
Black
10
61.1
20
-90.575
11
60.1
21
-90.575
0
LINE
8
Black
10
60.1
20
-90.575
11
60.1
21
-89.625
0
LINE
8
Black
10
60.1
20
-89.625
11
61.1
21
-89.625
0
LINE
8
Black
10
61.1
20
-89.625
11
61.1
21
-90.575
0
LINE
8
Black
10
56.6
20
-90.575
11
55.6
21
-90.575
0
LINE
8
Black
10
55.6
20
-90.575
11
55.6
21
-89.625
0
LINE
8
Black
10
55.6
20
-89.625
11
56.6
21
-89.625
0
LINE
8
Black
10
56.6
20
-89.625
11
56.6
21
-90.575
0
LINE
8
Black
10
59.6
20
-90.575
11
58.6
21
-90.575
0
LINE
8
Black
10
58.6
20
-90.575
11
58.6
21
-89.625
0
LINE
8
Black
10
58.6
20
-89.625
11
59.6
21
-89.625
0
LINE
8
Black
10
59.6
20
-89.625
11
59.6
21
-90.575
0
LINE
8
Black
10
88.725
20
-90.275
11
87.275
21
-90.275
0
LINE
8
Black
10
87.275
20
-90.275
11
87.275
21
-89.125
0
LINE
8
Black
10
87.275
20
-89.125
11
88.725
21
-89.125
0
LINE
8
Black
10
88.725
20
-89.125
11
88.725
21
-90.275
0
LINE
8
Black
10
92.725
20
-90.275
11
91.275
21
-90.275
0
LINE
8
Black
10
91.275
20
-90.275
11
91.275
21
-89.125
0
LINE
8
Black
10
91.275
20
-89.125
11
92.725
21
-89.125
0
LINE
8
Black
10
92.725
20
-89.125
11
92.725
21
-90.275
0
LINE
8
Black
10
94.725
20
-90.275
11
93.275
21
-90.275
0
LINE
8
Black
10
93.275
20
-90.275
11
93.275
21
-89.125
0
LINE
8
Black
10
93.275
20
-89.125
11
94.725
21
-89.125
0
LINE
8
Black
10
94.725
20
-89.125
11
94.725
21
-90.275
0
LINE
8
Black
10
90.725
20
-90.275
11
89.275
21
-90.275
0
LINE
8
Black
10
89.275
20
-90.275
11
89.275
21
-89.125
0
LINE
8
Black
10
89.275
20
-89.125
11
90.725
21
-89.125
0
LINE
8
Black
10
90.725
20
-89.125
11
90.725
21
-90.275
0
LINE
8
Black
10
78.15
20
-89.95
11
77.85
21
-89.95
0
LINE
8
Black
10
77.85
20
-89.95
11
77.85
21
-88.45
0
LINE
8
Black
10
77.85
20
-88.45
11
78.15
21
-88.45
0
LINE
8
Black
10
78.15
20
-88.45
11
78.15
21
-89.95
0
LINE
8
Black
10
77.65
20
-89.95
11
77.35
21
-89.95
0
LINE
8
Black
10
77.35
20
-89.95
11
77.35
21
-88.45
0
LINE
8
Black
10
77.35
20
-88.45
11
77.65
21
-88.45
0
LINE
8
Black
10
77.65
20
-88.45
11
77.65
21
-89.95
0
LINE
8
Black
10
77.15
20
-89.95
11
76.85
21
-89.95
0
LINE
8
Black
10
76.85
20
-89.95
11
76.85
21
-88.45
0
LINE
8
Black
10
76.85
20
-88.45
11
77.15
21
-88.45
0
LINE
8
Black
10
77.15
20
-88.45
11
77.15
21
-89.95
0
LINE
8
Black
10
76.65
20
-89.95
11
76.35
21
-89.95
0
LINE
8
Black
10
76.35
20
-89.95
11
76.35
21
-88.45
0
LINE
8
Black
10
76.35
20
-88.45
11
76.65
21
-88.45
0
LINE
8
Black
10
76.65
20
-88.45
11
76.65
21
-89.95
0
LINE
8
Black
10
76.15
20
-89.95
11
75.85
21
-89.95
0
LINE
8
Black
10
75.85
20
-89.95
11
75.85
21
-88.45
0
LINE
8
Black
10
75.85
20
-88.45
11
76.15
21
-88.45
0
LINE
8
Black
10
76.15
20
-88.45
11
76.15
21
-89.95
0
LINE
8
Black
10
75.15
20
-89.95
11
74.85
21
-89.95
0
LINE
8
Black
10
74.85
20
-89.95
11
74.85
21
-88.45
0
LINE
8
Black
10
74.85
20
-88.45
11
75.15
21
-88.45
0
LINE
8
Black
10
75.15
20
-88.45
11
75.15
21
-89.95
0
LINE
8
Black
10
75.65
20
-89.95
11
75.35
21
-89.95
0
LINE
8
Black
10
75.35
20
-89.95
11
75.35
21
-88.45
0
LINE
8
Black
10
75.35
20
-88.45
11
75.65
21
-88.45
0
LINE
8
Black
10
75.65
20
-88.45
11
75.65
21
-89.95
0
LINE
8
Black
10
72.15
20
-89.95
11
71.85
21
-89.95
0
LINE
8
Black
10
71.85
20
-89.95
11
71.85
21
-88.45
0
LINE
8
Black
10
71.85
20
-88.45
11
72.15
21
-88.45
0
LINE
8
Black
10
72.15
20
-88.45
11
72.15
21
-89.95
0
LINE
8
Black
10
68.65
20
-89.95
11
68.35
21
-89.95
0
LINE
8
Black
10
68.35
20
-89.95
11
68.35
21
-88.45
0
LINE
8
Black
10
68.35
20
-88.45
11
68.65
21
-88.45
0
LINE
8
Black
10
68.65
20
-88.45
11
68.65
21
-89.95
0
LINE
8
Black
10
71.65
20
-89.95
11
71.35
21
-89.95
0
LINE
8
Black
10
71.35
20
-89.95
11
71.35
21
-88.45
0
LINE
8
Black
10
71.35
20
-88.45
11
71.65
21
-88.45
0
LINE
8
Black
10
71.65
20
-88.45
11
71.65
21
-89.95
0
LINE
8
Black
10
71.15
20
-89.95
11
70.85
21
-89.95
0
LINE
8
Black
10
70.85
20
-89.95
11
70.85
21
-88.45
0
LINE
8
Black
10
70.85
20
-88.45
11
71.15
21
-88.45
0
LINE
8
Black
10
71.15
20
-88.45
11
71.15
21
-89.95
0
LINE
8
Black
10
72.65
20
-89.95
11
72.35
21
-89.95
0
LINE
8
Black
10
72.35
20
-89.95
11
72.35
21
-88.45
0
LINE
8
Black
10
72.35
20
-88.45
11
72.65
21
-88.45
0
LINE
8
Black
10
72.65
20
-88.45
11
72.65
21
-89.95
0
LINE
8
Black
10
73.15
20
-89.95
11
72.85
21
-89.95
0
LINE
8
Black
10
72.85
20
-89.95
11
72.85
21
-88.45
0
LINE
8
Black
10
72.85
20
-88.45
11
73.15
21
-88.45
0
LINE
8
Black
10
73.15
20
-88.45
11
73.15
21
-89.95
0
LINE
8
Black
10
70.65
20
-89.95
11
70.35
21
-89.95
0
LINE
8
Black
10
70.35
20
-89.95
11
70.35
21
-88.45
0
LINE
8
Black
10
70.35
20
-88.45
11
70.65
21
-88.45
0
LINE
8
Black
10
70.65
20
-88.45
11
70.65
21
-89.95
0
LINE
8
Black
10
73.65
20
-89.95
11
73.35
21
-89.95
0
LINE
8
Black
10
73.35
20
-89.95
11
73.35
21
-88.45
0
LINE
8
Black
10
73.35
20
-88.45
11
73.65
21
-88.45
0
LINE
8
Black
10
73.65
20
-88.45
11
73.65
21
-89.95
0
LINE
8
Black
10
70.15
20
-89.95
11
69.85
21
-89.95
0
LINE
8
Black
10
69.85
20
-89.95
11
69.85
21
-88.45
0
LINE
8
Black
10
69.85
20
-88.45
11
70.15
21
-88.45
0
LINE
8
Black
10
70.15
20
-88.45
11
70.15
21
-89.95
0
LINE
8
Black
10
69.65
20
-89.95
11
69.35
21
-89.95
0
LINE
8
Black
10
69.35
20
-89.95
11
69.35
21
-88.45
0
LINE
8
Black
10
69.35
20
-88.45
11
69.65
21
-88.45
0
LINE
8
Black
10
69.65
20
-88.45
11
69.65
21
-89.95
0
LINE
8
Black
10
69.15
20
-89.95
11
68.85
21
-89.95
0
LINE
8
Black
10
68.85
20
-89.95
11
68.85
21
-88.45
0
LINE
8
Black
10
68.85
20
-88.45
11
69.15
21
-88.45
0
LINE
8
Black
10
69.15
20
-88.45
11
69.15
21
-89.95
0
LINE
8
Black
10
68.15
20
-89.95
11
67.85
21
-89.95
0
LINE
8
Black
10
67.85
20
-89.95
11
67.85
21
-88.45
0
LINE
8
Black
10
67.85
20
-88.45
11
68.15
21
-88.45
0
LINE
8
Black
10
68.15
20
-88.45
11
68.15
21
-89.95
0
LINE
8
Black
10
67.65
20
-89.95
11
67.35
21
-89.95
0
LINE
8
Black
10
67.35
20
-89.95
11
67.35
21
-88.45
0
LINE
8
Black
10
67.35
20
-88.45
11
67.65
21
-88.45
0
LINE
8
Black
10
67.65
20
-88.45
11
67.65
21
-89.95
0
LINE
8
Black
10
67.15
20
-89.95
11
66.85
21
-89.95
0
LINE
8
Black
10
66.85
20
-89.95
11
66.85
21
-88.45
0
LINE
8
Black
10
66.85
20
-88.45
11
67.15
21
-88.45
0
LINE
8
Black
10
67.15
20
-88.45
11
67.15
21
-89.95
0
LINE
8
Black
10
66.65
20
-89.95
11
66.35
21
-89.95
0
LINE
8
Black
10
66.35
20
-89.95
11
66.35
21
-88.45
0
LINE
8
Black
10
66.35
20
-88.45
11
66.65
21
-88.45
0
LINE
8
Black
10
66.65
20
-88.45
11
66.65
21
-89.95
0
LINE
8
Black
10
66.15
20
-89.95
11
65.85
21
-89.95
0
LINE
8
Black
10
65.85
20
-89.95
11
65.85
21
-88.45
0
LINE
8
Black
10
65.85
20
-88.45
11
66.15
21
-88.45
0
LINE
8
Black
10
66.15
20
-88.45
11
66.15
21
-89.95
0
LINE
8
Black
10
74.15
20
-89.95
11
73.85
21
-89.95
0
LINE
8
Black
10
73.85
20
-89.95
11
73.85
21
-88.45
0
LINE
8
Black
10
73.85
20
-88.45
11
74.15
21
-88.45
0
LINE
8
Black
10
74.15
20
-88.45
11
74.15
21
-89.95
0
LINE
8
Black
10
74.65
20
-89.95
11
74.35
21
-89.95
0
LINE
8
Black
10
74.35
20
-89.95
11
74.35
21
-88.45
0
LINE
8
Black
10
74.35
20
-88.45
11
74.65
21
-88.45
0
LINE
8
Black
10
74.65
20
-88.45
11
74.65
21
-89.95
0
LINE
8
Black
10
97.1
20
-89.675
11
95.3
21
-89.675
0
LINE
8
Black
10
95.3
20
-89.675
11
95.3
21
-88.525
0
LINE
8
Black
10
95.3
20
-88.525
11
97.1
21
-88.525
0
LINE
8
Black
10
97.1
20
-88.525
11
97.1
21
-89.675
0
LINE
8
Black
10
99.4
20
-89.675
11
97.6
21
-89.675
0
LINE
8
Black
10
97.6
20
-89.675
11
97.6
21
-88.525
0
LINE
8
Black
10
97.6
20
-88.525
11
99.4
21
-88.525
0
LINE
8
Black
10
99.4
20
-88.525
11
99.4
21
-89.675
0
LINE
8
Black
10
56.76
20
-88.66
11
56.24
21
-88.66
0
LINE
8
Black
10
56.24
20
-88.66
11
56.24
21
-88.14
0
LINE
8
Black
10
56.24
20
-88.14
11
56.76
21
-88.14
0
LINE
8
Black
10
56.76
20
-88.14
11
56.76
21
-88.66
0
LINE
8
Black
10
59.16
20
-88.66
11
58.64
21
-88.66
0
LINE
8
Black
10
58.64
20
-88.66
11
58.64
21
-88.14
0
LINE
8
Black
10
58.64
20
-88.14
11
59.16
21
-88.14
0
LINE
8
Black
10
59.16
20
-88.14
11
59.16
21
-88.66
0
LINE
8
Black
10
59.96
20
-88.66
11
59.44
21
-88.66
0
LINE
8
Black
10
59.44
20
-88.66
11
59.44
21
-88.14
0
LINE
8
Black
10
59.44
20
-88.14
11
59.96
21
-88.14
0
LINE
8
Black
10
59.96
20
-88.14
11
59.96
21
-88.66
0
LINE
8
Black
10
58.36
20
-88.66
11
57.84
21
-88.66
0
LINE
8
Black
10
57.84
20
-88.66
11
57.84
21
-88.14
0
LINE
8
Black
10
57.84
20
-88.14
11
58.36
21
-88.14
0
LINE
8
Black
10
58.36
20
-88.14
11
58.36
21
-88.66
0
LINE
8
Black
10
55.16
20
-88.66
11
54.64
21
-88.66
0
LINE
8
Black
10
54.64
20
-88.66
11
54.64
21
-88.14
0
LINE
8
Black
10
54.64
20
-88.14
11
55.16
21
-88.14
0
LINE
8
Black
10
55.16
20
-88.14
11
55.16
21
-88.66
0
LINE
8
Black
10
57.56
20
-88.66
11
57.04
21
-88.66
0
LINE
8
Black
10
57.04
20
-88.66
11
57.04
21
-88.14
0
LINE
8
Black
10
57.04
20
-88.14
11
57.56
21
-88.14
0
LINE
8
Black
10
57.56
20
-88.14
11
57.56
21
-88.66
0
LINE
8
Black
10
54.36
20
-88.66
11
53.84
21
-88.66
0
LINE
8
Black
10
53.84
20
-88.66
11
53.84
21
-88.14
0
LINE
8
Black
10
53.84
20
-88.14
11
54.36
21
-88.14
0
LINE
8
Black
10
54.36
20
-88.14
11
54.36
21
-88.66
0
LINE
8
Black
10
55.96
20
-88.66
11
55.44
21
-88.66
0
LINE
8
Black
10
55.44
20
-88.66
11
55.44
21
-88.14
0
LINE
8
Black
10
55.44
20
-88.14
11
55.96
21
-88.14
0
LINE
8
Black
10
55.96
20
-88.14
11
55.96
21
-88.66
0
LINE
8
Black
10
59.96
20
-87.86
11
59.44
21
-87.86
0
LINE
8
Black
10
59.44
20
-87.86
11
59.44
21
-87.34
0
LINE
8
Black
10
59.44
20
-87.34
11
59.96
21
-87.34
0
LINE
8
Black
10
59.96
20
-87.34
11
59.96
21
-87.86
0
LINE
8
Black
10
58.36
20
-87.86
11
57.84
21
-87.86
0
LINE
8
Black
10
57.84
20
-87.86
11
57.84
21
-87.34
0
LINE
8
Black
10
57.84
20
-87.34
11
58.36
21
-87.34
0
LINE
8
Black
10
58.36
20
-87.34
11
58.36
21
-87.86
0
LINE
8
Black
10
57.56
20
-87.86
11
57.04
21
-87.86
0
LINE
8
Black
10
57.04
20
-87.86
11
57.04
21
-87.34
0
LINE
8
Black
10
57.04
20
-87.34
11
57.56
21
-87.34
0
LINE
8
Black
10
57.56
20
-87.34
11
57.56
21
-87.86
0
LINE
8
Black
10
54.36
20
-87.86
11
53.84
21
-87.86
0
LINE
8
Black
10
53.84
20
-87.86
11
53.84
21
-87.34
0
LINE
8
Black
10
53.84
20
-87.34
11
54.36
21
-87.34
0
LINE
8
Black
10
54.36
20
-87.34
11
54.36
21
-87.86
0
LINE
8
Black
10
55.16
20
-87.86
11
54.64
21
-87.86
0
LINE
8
Black
10
54.64
20
-87.86
11
54.64
21
-87.34
0
LINE
8
Black
10
54.64
20
-87.34
11
55.16
21
-87.34
0
LINE
8
Black
10
55.16
20
-87.34
11
55.16
21
-87.86
0
LINE
8
Black
10
56.76
20
-87.86
11
56.24
21
-87.86
0
LINE
8
Black
10
56.24
20
-87.86
11
56.24
21
-87.34
0
LINE
8
Black
10
56.24
20
-87.34
11
56.76
21
-87.34
0
LINE
8
Black
10
56.76
20
-87.34
11
56.76
21
-87.86
0
LINE
8
Black
10
55.96
20
-87.86
11
55.44
21
-87.86
0
LINE
8
Black
10
55.44
20
-87.86
11
55.44
21
-87.34
0
LINE
8
Black
10
55.44
20
-87.34
11
55.96
21
-87.34
0
LINE
8
Black
10
55.96
20
-87.34
11
55.96
21
-87.86
0
LINE
8
Black
10
59.16
20
-87.86
11
58.64
21
-87.86
0
LINE
8
Black
10
58.64
20
-87.86
11
58.64
21
-87.34
0
LINE
8
Black
10
58.64
20
-87.34
11
59.16
21
-87.34
0
LINE
8
Black
10
59.16
20
-87.34
11
59.16
21
-87.86
0
LINE
8
Black
10
65.05
20
-87.65
11
63.55
21
-87.65
0
LINE
8
Black
10
63.55
20
-87.65
11
63.55
21
-87.35
0
LINE
8
Black
10
63.55
20
-87.35
11
65.05
21
-87.35
0
LINE
8
Black
10
65.05
20
-87.35
11
65.05
21
-87.65
0
LINE
8
Black
10
80.45
20
-87.65
11
78.95
21
-87.65
0
LINE
8
Black
10
78.95
20
-87.65
11
78.95
21
-87.35
0
LINE
8
Black
10
78.95
20
-87.35
11
80.45
21
-87.35
0
LINE
8
Black
10
80.45
20
-87.35
11
80.45
21
-87.65
0
LINE
8
Black
10
65.05
20
-87.15
11
63.55
21
-87.15
0
LINE
8
Black
10
63.55
20
-87.15
11
63.55
21
-86.85
0
LINE
8
Black
10
63.55
20
-86.85
11
65.05
21
-86.85
0
LINE
8
Black
10
65.05
20
-86.85
11
65.05
21
-87.15
0
LINE
8
Black
10
80.45
20
-87.15
11
78.95
21
-87.15
0
LINE
8
Black
10
78.95
20
-87.15
11
78.95
21
-86.85
0
LINE
8
Black
10
78.95
20
-86.85
11
80.45
21
-86.85
0
LINE
8
Black
10
80.45
20
-86.85
11
80.45
21
-87.15
0
LINE
8
Black
10
82.775
20
-86.7
11
81.325
21
-86.7
0
LINE
8
Black
10
81.325
20
-86.7
11
81.325
21
-86.25
0
LINE
8
Black
10
81.325
20
-86.25
11
82.775
21
-86.25
0
LINE
8
Black
10
82.775
20
-86.25
11
82.775
21
-86.7
0
LINE
8
Black
10
87.175
20
-86.7
11
85.725
21
-86.7
0
LINE
8
Black
10
85.725
20
-86.7
11
85.725
21
-86.25
0
LINE
8
Black
10
85.725
20
-86.25
11
87.175
21
-86.25
0
LINE
8
Black
10
87.175
20
-86.25
11
87.175
21
-86.7
0
LINE
8
Black
10
97.1
20
-86.675
11
95.3
21
-86.675
0
LINE
8
Black
10
95.3
20
-86.675
11
95.3
21
-85.525
0
LINE
8
Black
10
95.3
20
-85.525
11
97.1
21
-85.525
0
LINE
8
Black
10
97.1
20
-85.525
11
97.1
21
-86.675
0
LINE
8
Black
10
99.4
20
-86.675
11
97.6
21
-86.675
0
LINE
8
Black
10
97.6
20
-86.675
11
97.6
21
-85.525
0
LINE
8
Black
10
97.6
20
-85.525
11
99.4
21
-85.525
0
LINE
8
Black
10
99.4
20
-85.525
11
99.4
21
-86.675
0
LINE
8
Black
10
80.45
20
-86.65
11
78.95
21
-86.65
0
LINE
8
Black
10
78.95
20
-86.65
11
78.95
21
-86.35
0
LINE
8
Black
10
78.95
20
-86.35
11
80.45
21
-86.35
0
LINE
8
Black
10
80.45
20
-86.35
11
80.45
21
-86.65
0
LINE
8
Black
10
65.05
20
-86.65
11
63.55
21
-86.65
0
LINE
8
Black
10
63.55
20
-86.65
11
63.55
21
-86.35
0
LINE
8
Black
10
63.55
20
-86.35
11
65.05
21
-86.35
0
LINE
8
Black
10
65.05
20
-86.35
11
65.05
21
-86.65
0
LINE
8
Black
10
51.95
20
-86.275
11
51.05
21
-86.275
0
LINE
8
Black
10
51.05
20
-86.275
11
51.05
21
-85.525
0
LINE
8
Black
10
51.05
20
-85.525
11
51.95
21
-85.525
0
LINE
8
Black
10
51.95
20
-85.525
11
51.95
21
-86.275
0
LINE
8
Black
10
80.45
20
-86.15
11
78.95
21
-86.15
0
LINE
8
Black
10
78.95
20
-86.15
11
78.95
21
-85.85
0
LINE
8
Black
10
78.95
20
-85.85
11
80.45
21
-85.85
0
LINE
8
Black
10
80.45
20
-85.85
11
80.45
21
-86.15
0
LINE
8
Black
10
65.05
20
-86.15
11
63.55
21
-86.15
0
LINE
8
Black
10
63.55
20
-86.15
11
63.55
21
-85.85
0
LINE
8
Black
10
63.55
20
-85.85
11
65.05
21
-85.85
0
LINE
8
Black
10
65.05
20
-85.85
11
65.05
21
-86.15
0
LINE
8
Black
10
52.76
20
-86.06
11
52.24
21
-86.06
0
LINE
8
Black
10
52.24
20
-86.06
11
52.24
21
-85.54
0
LINE
8
Black
10
52.24
20
-85.54
11
52.76
21
-85.54
0
LINE
8
Black
10
52.76
20
-85.54
11
52.76
21
-86.06
0
LINE
8
Black
10
82.775
20
-86.05
11
81.325
21
-86.05
0
LINE
8
Black
10
81.325
20
-86.05
11
81.325
21
-85.6
0
LINE
8
Black
10
81.325
20
-85.6
11
82.775
21
-85.6
0
LINE
8
Black
10
82.775
20
-85.6
11
82.775
21
-86.05
0
LINE
8
Black
10
87.175
20
-86.05
11
85.725
21
-86.05
0
LINE
8
Black
10
85.725
20
-86.05
11
85.725
21
-85.6
0
LINE
8
Black
10
85.725
20
-85.6
11
87.175
21
-85.6
0
LINE
8
Black
10
87.175
20
-85.6
11
87.175
21
-86.05
0
LINE
8
Black
10
65.05
20
-85.65
11
63.55
21
-85.65
0
LINE
8
Black
10
63.55
20
-85.65
11
63.55
21
-85.35
0
LINE
8
Black
10
63.55
20
-85.35
11
65.05
21
-85.35
0
LINE
8
Black
10
65.05
20
-85.35
11
65.05
21
-85.65
0
LINE
8
Black
10
80.45
20
-85.65
11
78.95
21
-85.65
0
LINE
8
Black
10
78.95
20
-85.65
11
78.95
21
-85.35
0
LINE
8
Black
10
78.95
20
-85.35
11
80.45
21
-85.35
0
LINE
8
Black
10
80.45
20
-85.35
11
80.45
21
-85.65
0
LINE
8
Black
10
57.5481
20
-85.3679
11
57.5903
21
-85.3923
0
LINE
8
Black
10
57.5903
20
-85.3923
11
57.6217
21
-85.4297
0
LINE
8
Black
10
57.6217
20
-85.4297
11
57.6384
21
-85.4756
0
LINE
8
Black
10
57.6384
20
-85.4756
11
57.6384
21
-85.5244
0
LINE
8
Black
10
57.6384
20
-85.5244
11
57.6217
21
-85.5703
0
LINE
8
Black
10
57.6217
20
-85.5703
11
57.5903
21
-85.6077
0
LINE
8
Black
10
57.5903
20
-85.6077
11
57.5481
21
-85.6321
0
LINE
8
Black
10
57.5481
20
-85.6321
11
57.5
21
-85.6405
0
LINE
8
Black
10
57.5
20
-85.6405
11
57.4519
21
-85.6321
0
LINE
8
Black
10
57.4519
20
-85.6321
11
57.4097
21
-85.6077
0
LINE
8
Black
10
57.4097
20
-85.6077
11
57.3783
21
-85.5703
0
LINE
8
Black
10
57.3783
20
-85.5703
11
57.3616
21
-85.5244
0
LINE
8
Black
10
57.3616
20
-85.5244
11
57.3616
21
-85.4756
0
LINE
8
Black
10
57.3616
20
-85.4756
11
57.3783
21
-85.4297
0
LINE
8
Black
10
57.3783
20
-85.4297
11
57.4097
21
-85.3923
0
LINE
8
Black
10
57.4097
20
-85.3923
11
57.4519
21
-85.3679
0
LINE
8
Black
10
57.4519
20
-85.3679
11
57.5
21
-85.3595
0
LINE
8
Black
10
57.5
20
-85.3595
11
57.5481
21
-85.3679
0
LINE
8
Black
10
57.0481
20
-85.3679
11
57.0903
21
-85.3923
0
LINE
8
Black
10
57.0903
20
-85.3923
11
57.1217
21
-85.4297
0
LINE
8
Black
10
57.1217
20
-85.4297
11
57.1384
21
-85.4756
0
LINE
8
Black
10
57.1384
20
-85.4756
11
57.1384
21
-85.5244
0
LINE
8
Black
10
57.1384
20
-85.5244
11
57.1217
21
-85.5703
0
LINE
8
Black
10
57.1217
20
-85.5703
11
57.0903
21
-85.6077
0
LINE
8
Black
10
57.0903
20
-85.6077
11
57.0481
21
-85.6321
0
LINE
8
Black
10
57.0481
20
-85.6321
11
57
21
-85.6405
0
LINE
8
Black
10
57
20
-85.6405
11
56.9519
21
-85.6321
0
LINE
8
Black
10
56.9519
20
-85.6321
11
56.9097
21
-85.6077
0
LINE
8
Black
10
56.9097
20
-85.6077
11
56.8783
21
-85.5703
0
LINE
8
Black
10
56.8783
20
-85.5703
11
56.8616
21
-85.5244
0
LINE
8
Black
10
56.8616
20
-85.5244
11
56.8616
21
-85.4756
0
LINE
8
Black
10
56.8616
20
-85.4756
11
56.8783
21
-85.4297
0
LINE
8
Black
10
56.8783
20
-85.4297
11
56.9097
21
-85.3923
0
LINE
8
Black
10
56.9097
20
-85.3923
11
56.9519
21
-85.3679
0
LINE
8
Black
10
56.9519
20
-85.3679
11
57
21
-85.3595
0
LINE
8
Black
10
57
20
-85.3595
11
57.0481
21
-85.3679
0
LINE
8
Black
10
56.5481
20
-85.3679
11
56.5903
21
-85.3923
0
LINE
8
Black
10
56.5903
20
-85.3923
11
56.6217
21
-85.4297
0
LINE
8
Black
10
56.6217
20
-85.4297
11
56.6384
21
-85.4756
0
LINE
8
Black
10
56.6384
20
-85.4756
11
56.6384
21
-85.5244
0
LINE
8
Black
10
56.6384
20
-85.5244
11
56.6217
21
-85.5703
0
LINE
8
Black
10
56.6217
20
-85.5703
11
56.5903
21
-85.6077
0
LINE
8
Black
10
56.5903
20
-85.6077
11
56.5481
21
-85.6321
0
LINE
8
Black
10
56.5481
20
-85.6321
11
56.5
21
-85.6405
0
LINE
8
Black
10
56.5
20
-85.6405
11
56.4519
21
-85.6321
0
LINE
8
Black
10
56.4519
20
-85.6321
11
56.4097
21
-85.6077
0
LINE
8
Black
10
56.4097
20
-85.6077
11
56.3783
21
-85.5703
0
LINE
8
Black
10
56.3783
20
-85.5703
11
56.3616
21
-85.5244
0
LINE
8
Black
10
56.3616
20
-85.5244
11
56.3616
21
-85.4756
0
LINE
8
Black
10
56.3616
20
-85.4756
11
56.3783
21
-85.4297
0
LINE
8
Black
10
56.3783
20
-85.4297
11
56.4097
21
-85.3923
0
LINE
8
Black
10
56.4097
20
-85.3923
11
56.4519
21
-85.3679
0
LINE
8
Black
10
56.4519
20
-85.3679
11
56.5
21
-85.3595
0
LINE
8
Black
10
56.5
20
-85.3595
11
56.5481
21
-85.3679
0
LINE
8
Black
10
56.0481
20
-85.3679
11
56.0903
21
-85.3923
0
LINE
8
Black
10
56.0903
20
-85.3923
11
56.1217
21
-85.4297
0
LINE
8
Black
10
56.1217
20
-85.4297
11
56.1384
21
-85.4756
0
LINE
8
Black
10
56.1384
20
-85.4756
11
56.1384
21
-85.5244
0
LINE
8
Black
10
56.1384
20
-85.5244
11
56.1217
21
-85.5703
0
LINE
8
Black
10
56.1217
20
-85.5703
11
56.0903
21
-85.6077
0
LINE
8
Black
10
56.0903
20
-85.6077
11
56.0481
21
-85.6321
0
LINE
8
Black
10
56.0481
20
-85.6321
11
56
21
-85.6405
0
LINE
8
Black
10
56
20
-85.6405
11
55.9519
21
-85.6321
0
LINE
8
Black
10
55.9519
20
-85.6321
11
55.9097
21
-85.6077
0
LINE
8
Black
10
55.9097
20
-85.6077
11
55.8783
21
-85.5703
0
LINE
8
Black
10
55.8783
20
-85.5703
11
55.8616
21
-85.5244
0
LINE
8
Black
10
55.8616
20
-85.5244
11
55.8616
21
-85.4756
0
LINE
8
Black
10
55.8616
20
-85.4756
11
55.8783
21
-85.4297
0
LINE
8
Black
10
55.8783
20
-85.4297
11
55.9097
21
-85.3923
0
LINE
8
Black
10
55.9097
20
-85.3923
11
55.9519
21
-85.3679
0
LINE
8
Black
10
55.9519
20
-85.3679
11
56
21
-85.3595
0
LINE
8
Black
10
56
20
-85.3595
11
56.0481
21
-85.3679
0
LINE
8
Black
10
55.5481
20
-85.3679
11
55.5903
21
-85.3923
0
LINE
8
Black
10
55.5903
20
-85.3923
11
55.6217
21
-85.4297
0
LINE
8
Black
10
55.6217
20
-85.4297
11
55.6384
21
-85.4756
0
LINE
8
Black
10
55.6384
20
-85.4756
11
55.6384
21
-85.5244
0
LINE
8
Black
10
55.6384
20
-85.5244
11
55.6217
21
-85.5703
0
LINE
8
Black
10
55.6217
20
-85.5703
11
55.5903
21
-85.6077
0
LINE
8
Black
10
55.5903
20
-85.6077
11
55.5481
21
-85.6321
0
LINE
8
Black
10
55.5481
20
-85.6321
11
55.5
21
-85.6405
0
LINE
8
Black
10
55.5
20
-85.6405
11
55.4519
21
-85.6321
0
LINE
8
Black
10
55.4519
20
-85.6321
11
55.4097
21
-85.6077
0
LINE
8
Black
10
55.4097
20
-85.6077
11
55.3783
21
-85.5703
0
LINE
8
Black
10
55.3783
20
-85.5703
11
55.3616
21
-85.5244
0
LINE
8
Black
10
55.3616
20
-85.5244
11
55.3616
21
-85.4756
0
LINE
8
Black
10
55.3616
20
-85.4756
11
55.3783
21
-85.4297
0
LINE
8
Black
10
55.3783
20
-85.4297
11
55.4097
21
-85.3923
0
LINE
8
Black
10
55.4097
20
-85.3923
11
55.4519
21
-85.3679
0
LINE
8
Black
10
55.4519
20
-85.3679
11
55.5
21
-85.3595
0
LINE
8
Black
10
55.5
20
-85.3595
11
55.5481
21
-85.3679
0
LINE
8
Black
10
54.5481
20
-85.3679
11
54.5903
21
-85.3923
0
LINE
8
Black
10
54.5903
20
-85.3923
11
54.6217
21
-85.4297
0
LINE
8
Black
10
54.6217
20
-85.4297
11
54.6384
21
-85.4756
0
LINE
8
Black
10
54.6384
20
-85.4756
11
54.6384
21
-85.5244
0
LINE
8
Black
10
54.6384
20
-85.5244
11
54.6217
21
-85.5703
0
LINE
8
Black
10
54.6217
20
-85.5703
11
54.5903
21
-85.6077
0
LINE
8
Black
10
54.5903
20
-85.6077
11
54.5481
21
-85.6321
0
LINE
8
Black
10
54.5481
20
-85.6321
11
54.5
21
-85.6405
0
LINE
8
Black
10
54.5
20
-85.6405
11
54.4519
21
-85.6321
0
LINE
8
Black
10
54.4519
20
-85.6321
11
54.4097
21
-85.6077
0
LINE
8
Black
10
54.4097
20
-85.6077
11
54.3783
21
-85.5703
0
LINE
8
Black
10
54.3783
20
-85.5703
11
54.3616
21
-85.5244
0
LINE
8
Black
10
54.3616
20
-85.5244
11
54.3616
21
-85.4756
0
LINE
8
Black
10
54.3616
20
-85.4756
11
54.3783
21
-85.4297
0
LINE
8
Black
10
54.3783
20
-85.4297
11
54.4097
21
-85.3923
0
LINE
8
Black
10
54.4097
20
-85.3923
11
54.4519
21
-85.3679
0
LINE
8
Black
10
54.4519
20
-85.3679
11
54.5
21
-85.3595
0
LINE
8
Black
10
54.5
20
-85.3595
11
54.5481
21
-85.3679
0
LINE
8
Black
10
58.0481
20
-85.3679
11
58.0903
21
-85.3923
0
LINE
8
Black
10
58.0903
20
-85.3923
11
58.1217
21
-85.4297
0
LINE
8
Black
10
58.1217
20
-85.4297
11
58.1384
21
-85.4756
0
LINE
8
Black
10
58.1384
20
-85.4756
11
58.1384
21
-85.5244
0
LINE
8
Black
10
58.1384
20
-85.5244
11
58.1217
21
-85.5703
0
LINE
8
Black
10
58.1217
20
-85.5703
11
58.0903
21
-85.6077
0
LINE
8
Black
10
58.0903
20
-85.6077
11
58.0481
21
-85.6321
0
LINE
8
Black
10
58.0481
20
-85.6321
11
58
21
-85.6405
0
LINE
8
Black
10
58
20
-85.6405
11
57.9519
21
-85.6321
0
LINE
8
Black
10
57.9519
20
-85.6321
11
57.9097
21
-85.6077
0
LINE
8
Black
10
57.9097
20
-85.6077
11
57.8783
21
-85.5703
0
LINE
8
Black
10
57.8783
20
-85.5703
11
57.8616
21
-85.5244
0
LINE
8
Black
10
57.8616
20
-85.5244
11
57.8616
21
-85.4756
0
LINE
8
Black
10
57.8616
20
-85.4756
11
57.8783
21
-85.4297
0
LINE
8
Black
10
57.8783
20
-85.4297
11
57.9097
21
-85.3923
0
LINE
8
Black
10
57.9097
20
-85.3923
11
57.9519
21
-85.3679
0
LINE
8
Black
10
57.9519
20
-85.3679
11
58
21
-85.3595
0
LINE
8
Black
10
58
20
-85.3595
11
58.0481
21
-85.3679
0
LINE
8
Black
10
55.0481
20
-85.3679
11
55.0903
21
-85.3923
0
LINE
8
Black
10
55.0903
20
-85.3923
11
55.1217
21
-85.4297
0
LINE
8
Black
10
55.1217
20
-85.4297
11
55.1384
21
-85.4756
0
LINE
8
Black
10
55.1384
20
-85.4756
11
55.1384
21
-85.5244
0
LINE
8
Black
10
55.1384
20
-85.5244
11
55.1217
21
-85.5703
0
LINE
8
Black
10
55.1217
20
-85.5703
11
55.0903
21
-85.6077
0
LINE
8
Black
10
55.0903
20
-85.6077
11
55.0481
21
-85.6321
0
LINE
8
Black
10
55.0481
20
-85.6321
11
55
21
-85.6405
0
LINE
8
Black
10
55
20
-85.6405
11
54.9519
21
-85.6321
0
LINE
8
Black
10
54.9519
20
-85.6321
11
54.9097
21
-85.6077
0
LINE
8
Black
10
54.9097
20
-85.6077
11
54.8783
21
-85.5703
0
LINE
8
Black
10
54.8783
20
-85.5703
11
54.8616
21
-85.5244
0
LINE
8
Black
10
54.8616
20
-85.5244
11
54.8616
21
-85.4756
0
LINE
8
Black
10
54.8616
20
-85.4756
11
54.8783
21
-85.4297
0
LINE
8
Black
10
54.8783
20
-85.4297
11
54.9097
21
-85.3923
0
LINE
8
Black
10
54.9097
20
-85.3923
11
54.9519
21
-85.3679
0
LINE
8
Black
10
54.9519
20
-85.3679
11
55
21
-85.3595
0
LINE
8
Black
10
55
20
-85.3595
11
55.0481
21
-85.3679
0
LINE
8
Black
10
87.175
20
-85.4
11
85.725
21
-85.4
0
LINE
8
Black
10
85.725
20
-85.4
11
85.725
21
-84.95
0
LINE
8
Black
10
85.725
20
-84.95
11
87.175
21
-84.95
0
LINE
8
Black
10
87.175
20
-84.95
11
87.175
21
-85.4
0
LINE
8
Black
10
82.775
20
-85.4
11
81.325
21
-85.4
0
LINE
8
Black
10
81.325
20
-85.4
11
81.325
21
-84.95
0
LINE
8
Black
10
81.325
20
-84.95
11
82.775
21
-84.95
0
LINE
8
Black
10
82.775
20
-84.95
11
82.775
21
-85.4
0
LINE
8
Black
10
52.76
20
-85.26
11
52.24
21
-85.26
0
LINE
8
Black
10
52.24
20
-85.26
11
52.24
21
-84.74
0
LINE
8
Black
10
52.24
20
-84.74
11
52.76
21
-84.74
0
LINE
8
Black
10
52.76
20
-84.74
11
52.76
21
-85.26
0
LINE
8
Black
10
65.05
20
-85.15
11
63.55
21
-85.15
0
LINE
8
Black
10
63.55
20
-85.15
11
63.55
21
-84.85
0
LINE
8
Black
10
63.55
20
-84.85
11
65.05
21
-84.85
0
LINE
8
Black
10
65.05
20
-84.85
11
65.05
21
-85.15
0
LINE
8
Black
10
80.45
20
-85.15
11
78.95
21
-85.15
0
LINE
8
Black
10
78.95
20
-85.15
11
78.95
21
-84.85
0
LINE
8
Black
10
78.95
20
-84.85
11
80.45
21
-84.85
0
LINE
8
Black
10
80.45
20
-84.85
11
80.45
21
-85.15
0
LINE
8
Black
10
57.0481
20
-84.8679
11
57.0903
21
-84.8923
0
LINE
8
Black
10
57.0903
20
-84.8923
11
57.1217
21
-84.9297
0
LINE
8
Black
10
57.1217
20
-84.9297
11
57.1384
21
-84.9756
0
LINE
8
Black
10
57.1384
20
-84.9756
11
57.1384
21
-85.0244
0
LINE
8
Black
10
57.1384
20
-85.0244
11
57.1217
21
-85.0703
0
LINE
8
Black
10
57.1217
20
-85.0703
11
57.0903
21
-85.1077
0
LINE
8
Black
10
57.0903
20
-85.1077
11
57.0481
21
-85.1321
0
LINE
8
Black
10
57.0481
20
-85.1321
11
57
21
-85.1405
0
LINE
8
Black
10
57
20
-85.1405
11
56.9519
21
-85.1321
0
LINE
8
Black
10
56.9519
20
-85.1321
11
56.9097
21
-85.1077
0
LINE
8
Black
10
56.9097
20
-85.1077
11
56.8783
21
-85.0703
0
LINE
8
Black
10
56.8783
20
-85.0703
11
56.8616
21
-85.0244
0
LINE
8
Black
10
56.8616
20
-85.0244
11
56.8616
21
-84.9756
0
LINE
8
Black
10
56.8616
20
-84.9756
11
56.8783
21
-84.9297
0
LINE
8
Black
10
56.8783
20
-84.9297
11
56.9097
21
-84.8923
0
LINE
8
Black
10
56.9097
20
-84.8923
11
56.9519
21
-84.8679
0
LINE
8
Black
10
56.9519
20
-84.8679
11
57
21
-84.8595
0
LINE
8
Black
10
57
20
-84.8595
11
57.0481
21
-84.8679
0
LINE
8
Black
10
54.5481
20
-84.8679
11
54.5903
21
-84.8923
0
LINE
8
Black
10
54.5903
20
-84.8923
11
54.6217
21
-84.9297
0
LINE
8
Black
10
54.6217
20
-84.9297
11
54.6384
21
-84.9756
0
LINE
8
Black
10
54.6384
20
-84.9756
11
54.6384
21
-85.0244
0
LINE
8
Black
10
54.6384
20
-85.0244
11
54.6217
21
-85.0703
0
LINE
8
Black
10
54.6217
20
-85.0703
11
54.5903
21
-85.1077
0
LINE
8
Black
10
54.5903
20
-85.1077
11
54.5481
21
-85.1321
0
LINE
8
Black
10
54.5481
20
-85.1321
11
54.5
21
-85.1405
0
LINE
8
Black
10
54.5
20
-85.1405
11
54.4519
21
-85.1321
0
LINE
8
Black
10
54.4519
20
-85.1321
11
54.4097
21
-85.1077
0
LINE
8
Black
10
54.4097
20
-85.1077
11
54.3783
21
-85.0703
0
LINE
8
Black
10
54.3783
20
-85.0703
11
54.3616
21
-85.0244
0
LINE
8
Black
10
54.3616
20
-85.0244
11
54.3616
21
-84.9756
0
LINE
8
Black
10
54.3616
20
-84.9756
11
54.3783
21
-84.9297
0
LINE
8
Black
10
54.3783
20
-84.9297
11
54.4097
21
-84.8923
0
LINE
8
Black
10
54.4097
20
-84.8923
11
54.4519
21
-84.8679
0
LINE
8
Black
10
54.4519
20
-84.8679
11
54.5
21
-84.8595
0
LINE
8
Black
10
54.5
20
-84.8595
11
54.5481
21
-84.8679
0
LINE
8
Black
10
56.5481
20
-84.8679
11
56.5903
21
-84.8923
0
LINE
8
Black
10
56.5903
20
-84.8923
11
56.6217
21
-84.9297
0
LINE
8
Black
10
56.6217
20
-84.9297
11
56.6384
21
-84.9756
0
LINE
8
Black
10
56.6384
20
-84.9756
11
56.6384
21
-85.0244
0
LINE
8
Black
10
56.6384
20
-85.0244
11
56.6217
21
-85.0703
0
LINE
8
Black
10
56.6217
20
-85.0703
11
56.5903
21
-85.1077
0
LINE
8
Black
10
56.5903
20
-85.1077
11
56.5481
21
-85.1321
0
LINE
8
Black
10
56.5481
20
-85.1321
11
56.5
21
-85.1405
0
LINE
8
Black
10
56.5
20
-85.1405
11
56.4519
21
-85.1321
0
LINE
8
Black
10
56.4519
20
-85.1321
11
56.4097
21
-85.1077
0
LINE
8
Black
10
56.4097
20
-85.1077
11
56.3783
21
-85.0703
0
LINE
8
Black
10
56.3783
20
-85.0703
11
56.3616
21
-85.0244
0
LINE
8
Black
10
56.3616
20
-85.0244
11
56.3616
21
-84.9756
0
LINE
8
Black
10
56.3616
20
-84.9756
11
56.3783
21
-84.9297
0
LINE
8
Black
10
56.3783
20
-84.9297
11
56.4097
21
-84.8923
0
LINE
8
Black
10
56.4097
20
-84.8923
11
56.4519
21
-84.8679
0
LINE
8
Black
10
56.4519
20
-84.8679
11
56.5
21
-84.8595
0
LINE
8
Black
10
56.5
20
-84.8595
11
56.5481
21
-84.8679
0
LINE
8
Black
10
57.5481
20
-84.8679
11
57.5903
21
-84.8923
0
LINE
8
Black
10
57.5903
20
-84.8923
11
57.6217
21
-84.9297
0
LINE
8
Black
10
57.6217
20
-84.9297
11
57.6384
21
-84.9756
0
LINE
8
Black
10
57.6384
20
-84.9756
11
57.6384
21
-85.0244
0
LINE
8
Black
10
57.6384
20
-85.0244
11
57.6217
21
-85.0703
0
LINE
8
Black
10
57.6217
20
-85.0703
11
57.5903
21
-85.1077
0
LINE
8
Black
10
57.5903
20
-85.1077
11
57.5481
21
-85.1321
0
LINE
8
Black
10
57.5481
20
-85.1321
11
57.5
21
-85.1405
0
LINE
8
Black
10
57.5
20
-85.1405
11
57.4519
21
-85.1321
0
LINE
8
Black
10
57.4519
20
-85.1321
11
57.4097
21
-85.1077
0
LINE
8
Black
10
57.4097
20
-85.1077
11
57.3783
21
-85.0703
0
LINE
8
Black
10
57.3783
20
-85.0703
11
57.3616
21
-85.0244
0
LINE
8
Black
10
57.3616
20
-85.0244
11
57.3616
21
-84.9756
0
LINE
8
Black
10
57.3616
20
-84.9756
11
57.3783
21
-84.9297
0
LINE
8
Black
10
57.3783
20
-84.9297
11
57.4097
21
-84.8923
0
LINE
8
Black
10
57.4097
20
-84.8923
11
57.4519
21
-84.8679
0
LINE
8
Black
10
57.4519
20
-84.8679
11
57.5
21
-84.8595
0
LINE
8
Black
10
57.5
20
-84.8595
11
57.5481
21
-84.8679
0
LINE
8
Black
10
58.0481
20
-84.8679
11
58.0903
21
-84.8923
0
LINE
8
Black
10
58.0903
20
-84.8923
11
58.1217
21
-84.9297
0
LINE
8
Black
10
58.1217
20
-84.9297
11
58.1384
21
-84.9756
0
LINE
8
Black
10
58.1384
20
-84.9756
11
58.1384
21
-85.0244
0
LINE
8
Black
10
58.1384
20
-85.0244
11
58.1217
21
-85.0703
0
LINE
8
Black
10
58.1217
20
-85.0703
11
58.0903
21
-85.1077
0
LINE
8
Black
10
58.0903
20
-85.1077
11
58.0481
21
-85.1321
0
LINE
8
Black
10
58.0481
20
-85.1321
11
58
21
-85.1405
0
LINE
8
Black
10
58
20
-85.1405
11
57.9519
21
-85.1321
0
LINE
8
Black
10
57.9519
20
-85.1321
11
57.9097
21
-85.1077
0
LINE
8
Black
10
57.9097
20
-85.1077
11
57.8783
21
-85.0703
0
LINE
8
Black
10
57.8783
20
-85.0703
11
57.8616
21
-85.0244
0
LINE
8
Black
10
57.8616
20
-85.0244
11
57.8616
21
-84.9756
0
LINE
8
Black
10
57.8616
20
-84.9756
11
57.8783
21
-84.9297
0
LINE
8
Black
10
57.8783
20
-84.9297
11
57.9097
21
-84.8923
0
LINE
8
Black
10
57.9097
20
-84.8923
11
57.9519
21
-84.8679
0
LINE
8
Black
10
57.9519
20
-84.8679
11
58
21
-84.8595
0
LINE
8
Black
10
58
20
-84.8595
11
58.0481
21
-84.8679
0
LINE
8
Black
10
55.0481
20
-84.8679
11
55.0903
21
-84.8923
0
LINE
8
Black
10
55.0903
20
-84.8923
11
55.1217
21
-84.9297
0
LINE
8
Black
10
55.1217
20
-84.9297
11
55.1384
21
-84.9756
0
LINE
8
Black
10
55.1384
20
-84.9756
11
55.1384
21
-85.0244
0
LINE
8
Black
10
55.1384
20
-85.0244
11
55.1217
21
-85.0703
0
LINE
8
Black
10
55.1217
20
-85.0703
11
55.0903
21
-85.1077
0
LINE
8
Black
10
55.0903
20
-85.1077
11
55.0481
21
-85.1321
0
LINE
8
Black
10
55.0481
20
-85.1321
11
55
21
-85.1405
0
LINE
8
Black
10
55
20
-85.1405
11
54.9519
21
-85.1321
0
LINE
8
Black
10
54.9519
20
-85.1321
11
54.9097
21
-85.1077
0
LINE
8
Black
10
54.9097
20
-85.1077
11
54.8783
21
-85.0703
0
LINE
8
Black
10
54.8783
20
-85.0703
11
54.8616
21
-85.0244
0
LINE
8
Black
10
54.8616
20
-85.0244
11
54.8616
21
-84.9756
0
LINE
8
Black
10
54.8616
20
-84.9756
11
54.8783
21
-84.9297
0
LINE
8
Black
10
54.8783
20
-84.9297
11
54.9097
21
-84.8923
0
LINE
8
Black
10
54.9097
20
-84.8923
11
54.9519
21
-84.8679
0
LINE
8
Black
10
54.9519
20
-84.8679
11
55
21
-84.8595
0
LINE
8
Black
10
55
20
-84.8595
11
55.0481
21
-84.8679
0
LINE
8
Black
10
55.5481
20
-84.8679
11
55.5903
21
-84.8923
0
LINE
8
Black
10
55.5903
20
-84.8923
11
55.6217
21
-84.9297
0
LINE
8
Black
10
55.6217
20
-84.9297
11
55.6384
21
-84.9756
0
LINE
8
Black
10
55.6384
20
-84.9756
11
55.6384
21
-85.0244
0
LINE
8
Black
10
55.6384
20
-85.0244
11
55.6217
21
-85.0703
0
LINE
8
Black
10
55.6217
20
-85.0703
11
55.5903
21
-85.1077
0
LINE
8
Black
10
55.5903
20
-85.1077
11
55.5481
21
-85.1321
0
LINE
8
Black
10
55.5481
20
-85.1321
11
55.5
21
-85.1405
0
LINE
8
Black
10
55.5
20
-85.1405
11
55.4519
21
-85.1321
0
LINE
8
Black
10
55.4519
20
-85.1321
11
55.4097
21
-85.1077
0
LINE
8
Black
10
55.4097
20
-85.1077
11
55.3783
21
-85.0703
0
LINE
8
Black
10
55.3783
20
-85.0703
11
55.3616
21
-85.0244
0
LINE
8
Black
10
55.3616
20
-85.0244
11
55.3616
21
-84.9756
0
LINE
8
Black
10
55.3616
20
-84.9756
11
55.3783
21
-84.9297
0
LINE
8
Black
10
55.3783
20
-84.9297
11
55.4097
21
-84.8923
0
LINE
8
Black
10
55.4097
20
-84.8923
11
55.4519
21
-84.8679
0
LINE
8
Black
10
55.4519
20
-84.8679
11
55.5
21
-84.8595
0
LINE
8
Black
10
55.5
20
-84.8595
11
55.5481
21
-84.8679
0
LINE
8
Black
10
56.0481
20
-84.8679
11
56.0903
21
-84.8923
0
LINE
8
Black
10
56.0903
20
-84.8923
11
56.1217
21
-84.9297
0
LINE
8
Black
10
56.1217
20
-84.9297
11
56.1384
21
-84.9756
0
LINE
8
Black
10
56.1384
20
-84.9756
11
56.1384
21
-85.0244
0
LINE
8
Black
10
56.1384
20
-85.0244
11
56.1217
21
-85.0703
0
LINE
8
Black
10
56.1217
20
-85.0703
11
56.0903
21
-85.1077
0
LINE
8
Black
10
56.0903
20
-85.1077
11
56.0481
21
-85.1321
0
LINE
8
Black
10
56.0481
20
-85.1321
11
56
21
-85.1405
0
LINE
8
Black
10
56
20
-85.1405
11
55.9519
21
-85.1321
0
LINE
8
Black
10
55.9519
20
-85.1321
11
55.9097
21
-85.1077
0
LINE
8
Black
10
55.9097
20
-85.1077
11
55.8783
21
-85.0703
0
LINE
8
Black
10
55.8783
20
-85.0703
11
55.8616
21
-85.0244
0
LINE
8
Black
10
55.8616
20
-85.0244
11
55.8616
21
-84.9756
0
LINE
8
Black
10
55.8616
20
-84.9756
11
55.8783
21
-84.9297
0
LINE
8
Black
10
55.8783
20
-84.9297
11
55.9097
21
-84.8923
0
LINE
8
Black
10
55.9097
20
-84.8923
11
55.9519
21
-84.8679
0
LINE
8
Black
10
55.9519
20
-84.8679
11
56
21
-84.8595
0
LINE
8
Black
10
56
20
-84.8595
11
56.0481
21
-84.8679
0
LINE
8
Black
10
61.45
20
-85.075
11
60.55
21
-85.075
0
LINE
8
Black
10
60.55
20
-85.075
11
60.55
21
-84.325
0
LINE
8
Black
10
60.55
20
-84.325
11
61.45
21
-84.325
0
LINE
8
Black
10
61.45
20
-84.325
11
61.45
21
-85.075
0
LINE
8
Black
10
51.95
20
-84.875
11
51.05
21
-84.875
0
LINE
8
Black
10
51.05
20
-84.875
11
51.05
21
-84.125
0
LINE
8
Black
10
51.05
20
-84.125
11
51.95
21
-84.125
0
LINE
8
Black
10
51.95
20
-84.125
11
51.95
21
-84.875
0
LINE
8
Black
10
82.775
20
-84.75
11
81.325
21
-84.75
0
LINE
8
Black
10
81.325
20
-84.75
11
81.325
21
-84.3
0
LINE
8
Black
10
81.325
20
-84.3
11
82.775
21
-84.3
0
LINE
8
Black
10
82.775
20
-84.3
11
82.775
21
-84.75
0
LINE
8
Black
10
87.175
20
-84.75
11
85.725
21
-84.75
0
LINE
8
Black
10
85.725
20
-84.75
11
85.725
21
-84.3
0
LINE
8
Black
10
85.725
20
-84.3
11
87.175
21
-84.3
0
LINE
8
Black
10
87.175
20
-84.3
11
87.175
21
-84.75
0
LINE
8
Black
10
60.26
20
-84.66
11
59.74
21
-84.66
0
LINE
8
Black
10
59.74
20
-84.66
11
59.74
21
-84.14
0
LINE
8
Black
10
59.74
20
-84.14
11
60.26
21
-84.14
0
LINE
8
Black
10
60.26
20
-84.14
11
60.26
21
-84.66
0
LINE
8
Black
10
80.45
20
-84.65
11
78.95
21
-84.65
0
LINE
8
Black
10
78.95
20
-84.65
11
78.95
21
-84.35
0
LINE
8
Black
10
78.95
20
-84.35
11
80.45
21
-84.35
0
LINE
8
Black
10
80.45
20
-84.35
11
80.45
21
-84.65
0
LINE
8
Black
10
65.05
20
-84.65
11
63.55
21
-84.65
0
LINE
8
Black
10
63.55
20
-84.65
11
63.55
21
-84.35
0
LINE
8
Black
10
63.55
20
-84.35
11
65.05
21
-84.35
0
LINE
8
Black
10
65.05
20
-84.35
11
65.05
21
-84.65
0
LINE
8
Black
10
57.0481
20
-84.3679
11
57.0903
21
-84.3923
0
LINE
8
Black
10
57.0903
20
-84.3923
11
57.1217
21
-84.4297
0
LINE
8
Black
10
57.1217
20
-84.4297
11
57.1384
21
-84.4756
0
LINE
8
Black
10
57.1384
20
-84.4756
11
57.1384
21
-84.5244
0
LINE
8
Black
10
57.1384
20
-84.5244
11
57.1217
21
-84.5703
0
LINE
8
Black
10
57.1217
20
-84.5703
11
57.0903
21
-84.6077
0
LINE
8
Black
10
57.0903
20
-84.6077
11
57.0481
21
-84.6321
0
LINE
8
Black
10
57.0481
20
-84.6321
11
57
21
-84.6405
0
LINE
8
Black
10
57
20
-84.6405
11
56.9519
21
-84.6321
0
LINE
8
Black
10
56.9519
20
-84.6321
11
56.9097
21
-84.6077
0
LINE
8
Black
10
56.9097
20
-84.6077
11
56.8783
21
-84.5703
0
LINE
8
Black
10
56.8783
20
-84.5703
11
56.8616
21
-84.5244
0
LINE
8
Black
10
56.8616
20
-84.5244
11
56.8616
21
-84.4756
0
LINE
8
Black
10
56.8616
20
-84.4756
11
56.8783
21
-84.4297
0
LINE
8
Black
10
56.8783
20
-84.4297
11
56.9097
21
-84.3923
0
LINE
8
Black
10
56.9097
20
-84.3923
11
56.9519
21
-84.3679
0
LINE
8
Black
10
56.9519
20
-84.3679
11
57
21
-84.3595
0
LINE
8
Black
10
57
20
-84.3595
11
57.0481
21
-84.3679
0
LINE
8
Black
10
54.5481
20
-84.3679
11
54.5903
21
-84.3923
0
LINE
8
Black
10
54.5903
20
-84.3923
11
54.6217
21
-84.4297
0
LINE
8
Black
10
54.6217
20
-84.4297
11
54.6384
21
-84.4756
0
LINE
8
Black
10
54.6384
20
-84.4756
11
54.6384
21
-84.5244
0
LINE
8
Black
10
54.6384
20
-84.5244
11
54.6217
21
-84.5703
0
LINE
8
Black
10
54.6217
20
-84.5703
11
54.5903
21
-84.6077
0
LINE
8
Black
10
54.5903
20
-84.6077
11
54.5481
21
-84.6321
0
LINE
8
Black
10
54.5481
20
-84.6321
11
54.5
21
-84.6405
0
LINE
8
Black
10
54.5
20
-84.6405
11
54.4519
21
-84.6321
0
LINE
8
Black
10
54.4519
20
-84.6321
11
54.4097
21
-84.6077
0
LINE
8
Black
10
54.4097
20
-84.6077
11
54.3783
21
-84.5703
0
LINE
8
Black
10
54.3783
20
-84.5703
11
54.3616
21
-84.5244
0
LINE
8
Black
10
54.3616
20
-84.5244
11
54.3616
21
-84.4756
0
LINE
8
Black
10
54.3616
20
-84.4756
11
54.3783
21
-84.4297
0
LINE
8
Black
10
54.3783
20
-84.4297
11
54.4097
21
-84.3923
0
LINE
8
Black
10
54.4097
20
-84.3923
11
54.4519
21
-84.3679
0
LINE
8
Black
10
54.4519
20
-84.3679
11
54.5
21
-84.3595
0
LINE
8
Black
10
54.5
20
-84.3595
11
54.5481
21
-84.3679
0
LINE
8
Black
10
56.5481
20
-84.3679
11
56.5903
21
-84.3923
0
LINE
8
Black
10
56.5903
20
-84.3923
11
56.6217
21
-84.4297
0
LINE
8
Black
10
56.6217
20
-84.4297
11
56.6384
21
-84.4756
0
LINE
8
Black
10
56.6384
20
-84.4756
11
56.6384
21
-84.5244
0
LINE
8
Black
10
56.6384
20
-84.5244
11
56.6217
21
-84.5703
0
LINE
8
Black
10
56.6217
20
-84.5703
11
56.5903
21
-84.6077
0
LINE
8
Black
10
56.5903
20
-84.6077
11
56.5481
21
-84.6321
0
LINE
8
Black
10
56.5481
20
-84.6321
11
56.5
21
-84.6405
0
LINE
8
Black
10
56.5
20
-84.6405
11
56.4519
21
-84.6321
0
LINE
8
Black
10
56.4519
20
-84.6321
11
56.4097
21
-84.6077
0
LINE
8
Black
10
56.4097
20
-84.6077
11
56.3783
21
-84.5703
0
LINE
8
Black
10
56.3783
20
-84.5703
11
56.3616
21
-84.5244
0
LINE
8
Black
10
56.3616
20
-84.5244
11
56.3616
21
-84.4756
0
LINE
8
Black
10
56.3616
20
-84.4756
11
56.3783
21
-84.4297
0
LINE
8
Black
10
56.3783
20
-84.4297
11
56.4097
21
-84.3923
0
LINE
8
Black
10
56.4097
20
-84.3923
11
56.4519
21
-84.3679
0
LINE
8
Black
10
56.4519
20
-84.3679
11
56.5
21
-84.3595
0
LINE
8
Black
10
56.5
20
-84.3595
11
56.5481
21
-84.3679
0
LINE
8
Black
10
55.5481
20
-84.3679
11
55.5903
21
-84.3923
0
LINE
8
Black
10
55.5903
20
-84.3923
11
55.6217
21
-84.4297
0
LINE
8
Black
10
55.6217
20
-84.4297
11
55.6384
21
-84.4756
0
LINE
8
Black
10
55.6384
20
-84.4756
11
55.6384
21
-84.5244
0
LINE
8
Black
10
55.6384
20
-84.5244
11
55.6217
21
-84.5703
0
LINE
8
Black
10
55.6217
20
-84.5703
11
55.5903
21
-84.6077
0
LINE
8
Black
10
55.5903
20
-84.6077
11
55.5481
21
-84.6321
0
LINE
8
Black
10
55.5481
20
-84.6321
11
55.5
21
-84.6405
0
LINE
8
Black
10
55.5
20
-84.6405
11
55.4519
21
-84.6321
0
LINE
8
Black
10
55.4519
20
-84.6321
11
55.4097
21
-84.6077
0
LINE
8
Black
10
55.4097
20
-84.6077
11
55.3783
21
-84.5703
0
LINE
8
Black
10
55.3783
20
-84.5703
11
55.3616
21
-84.5244
0
LINE
8
Black
10
55.3616
20
-84.5244
11
55.3616
21
-84.4756
0
LINE
8
Black
10
55.3616
20
-84.4756
11
55.3783
21
-84.4297
0
LINE
8
Black
10
55.3783
20
-84.4297
11
55.4097
21
-84.3923
0
LINE
8
Black
10
55.4097
20
-84.3923
11
55.4519
21
-84.3679
0
LINE
8
Black
10
55.4519
20
-84.3679
11
55.5
21
-84.3595
0
LINE
8
Black
10
55.5
20
-84.3595
11
55.5481
21
-84.3679
0
LINE
8
Black
10
56.0481
20
-84.3679
11
56.0903
21
-84.3923
0
LINE
8
Black
10
56.0903
20
-84.3923
11
56.1217
21
-84.4297
0
LINE
8
Black
10
56.1217
20
-84.4297
11
56.1384
21
-84.4756
0
LINE
8
Black
10
56.1384
20
-84.4756
11
56.1384
21
-84.5244
0
LINE
8
Black
10
56.1384
20
-84.5244
11
56.1217
21
-84.5703
0
LINE
8
Black
10
56.1217
20
-84.5703
11
56.0903
21
-84.6077
0
LINE
8
Black
10
56.0903
20
-84.6077
11
56.0481
21
-84.6321
0
LINE
8
Black
10
56.0481
20
-84.6321
11
56
21
-84.6405
0
LINE
8
Black
10
56
20
-84.6405
11
55.9519
21
-84.6321
0
LINE
8
Black
10
55.9519
20
-84.6321
11
55.9097
21
-84.6077
0
LINE
8
Black
10
55.9097
20
-84.6077
11
55.8783
21
-84.5703
0
LINE
8
Black
10
55.8783
20
-84.5703
11
55.8616
21
-84.5244
0
LINE
8
Black
10
55.8616
20
-84.5244
11
55.8616
21
-84.4756
0
LINE
8
Black
10
55.8616
20
-84.4756
11
55.8783
21
-84.4297
0
LINE
8
Black
10
55.8783
20
-84.4297
11
55.9097
21
-84.3923
0
LINE
8
Black
10
55.9097
20
-84.3923
11
55.9519
21
-84.3679
0
LINE
8
Black
10
55.9519
20
-84.3679
11
56
21
-84.3595
0
LINE
8
Black
10
56
20
-84.3595
11
56.0481
21
-84.3679
0
LINE
8
Black
10
57.5481
20
-84.3679
11
57.5903
21
-84.3923
0
LINE
8
Black
10
57.5903
20
-84.3923
11
57.6217
21
-84.4297
0
LINE
8
Black
10
57.6217
20
-84.4297
11
57.6384
21
-84.4756
0
LINE
8
Black
10
57.6384
20
-84.4756
11
57.6384
21
-84.5244
0
LINE
8
Black
10
57.6384
20
-84.5244
11
57.6217
21
-84.5703
0
LINE
8
Black
10
57.6217
20
-84.5703
11
57.5903
21
-84.6077
0
LINE
8
Black
10
57.5903
20
-84.6077
11
57.5481
21
-84.6321
0
LINE
8
Black
10
57.5481
20
-84.6321
11
57.5
21
-84.6405
0
LINE
8
Black
10
57.5
20
-84.6405
11
57.4519
21
-84.6321
0
LINE
8
Black
10
57.4519
20
-84.6321
11
57.4097
21
-84.6077
0
LINE
8
Black
10
57.4097
20
-84.6077
11
57.3783
21
-84.5703
0
LINE
8
Black
10
57.3783
20
-84.5703
11
57.3616
21
-84.5244
0
LINE
8
Black
10
57.3616
20
-84.5244
11
57.3616
21
-84.4756
0
LINE
8
Black
10
57.3616
20
-84.4756
11
57.3783
21
-84.4297
0
LINE
8
Black
10
57.3783
20
-84.4297
11
57.4097
21
-84.3923
0
LINE
8
Black
10
57.4097
20
-84.3923
11
57.4519
21
-84.3679
0
LINE
8
Black
10
57.4519
20
-84.3679
11
57.5
21
-84.3595
0
LINE
8
Black
10
57.5
20
-84.3595
11
57.5481
21
-84.3679
0
LINE
8
Black
10
58.0481
20
-84.3679
11
58.0903
21
-84.3923
0
LINE
8
Black
10
58.0903
20
-84.3923
11
58.1217
21
-84.4297
0
LINE
8
Black
10
58.1217
20
-84.4297
11
58.1384
21
-84.4756
0
LINE
8
Black
10
58.1384
20
-84.4756
11
58.1384
21
-84.5244
0
LINE
8
Black
10
58.1384
20
-84.5244
11
58.1217
21
-84.5703
0
LINE
8
Black
10
58.1217
20
-84.5703
11
58.0903
21
-84.6077
0
LINE
8
Black
10
58.0903
20
-84.6077
11
58.0481
21
-84.6321
0
LINE
8
Black
10
58.0481
20
-84.6321
11
58
21
-84.6405
0
LINE
8
Black
10
58
20
-84.6405
11
57.9519
21
-84.6321
0
LINE
8
Black
10
57.9519
20
-84.6321
11
57.9097
21
-84.6077
0
LINE
8
Black
10
57.9097
20
-84.6077
11
57.8783
21
-84.5703
0
LINE
8
Black
10
57.8783
20
-84.5703
11
57.8616
21
-84.5244
0
LINE
8
Black
10
57.8616
20
-84.5244
11
57.8616
21
-84.4756
0
LINE
8
Black
10
57.8616
20
-84.4756
11
57.8783
21
-84.4297
0
LINE
8
Black
10
57.8783
20
-84.4297
11
57.9097
21
-84.3923
0
LINE
8
Black
10
57.9097
20
-84.3923
11
57.9519
21
-84.3679
0
LINE
8
Black
10
57.9519
20
-84.3679
11
58
21
-84.3595
0
LINE
8
Black
10
58
20
-84.3595
11
58.0481
21
-84.3679
0
LINE
8
Black
10
55.0481
20
-84.3679
11
55.0903
21
-84.3923
0
LINE
8
Black
10
55.0903
20
-84.3923
11
55.1217
21
-84.4297
0
LINE
8
Black
10
55.1217
20
-84.4297
11
55.1384
21
-84.4756
0
LINE
8
Black
10
55.1384
20
-84.4756
11
55.1384
21
-84.5244
0
LINE
8
Black
10
55.1384
20
-84.5244
11
55.1217
21
-84.5703
0
LINE
8
Black
10
55.1217
20
-84.5703
11
55.0903
21
-84.6077
0
LINE
8
Black
10
55.0903
20
-84.6077
11
55.0481
21
-84.6321
0
LINE
8
Black
10
55.0481
20
-84.6321
11
55
21
-84.6405
0
LINE
8
Black
10
55
20
-84.6405
11
54.9519
21
-84.6321
0
LINE
8
Black
10
54.9519
20
-84.6321
11
54.9097
21
-84.6077
0
LINE
8
Black
10
54.9097
20
-84.6077
11
54.8783
21
-84.5703
0
LINE
8
Black
10
54.8783
20
-84.5703
11
54.8616
21
-84.5244
0
LINE
8
Black
10
54.8616
20
-84.5244
11
54.8616
21
-84.4756
0
LINE
8
Black
10
54.8616
20
-84.4756
11
54.8783
21
-84.4297
0
LINE
8
Black
10
54.8783
20
-84.4297
11
54.9097
21
-84.3923
0
LINE
8
Black
10
54.9097
20
-84.3923
11
54.9519
21
-84.3679
0
LINE
8
Black
10
54.9519
20
-84.3679
11
55
21
-84.3595
0
LINE
8
Black
10
55
20
-84.3595
11
55.0481
21
-84.3679
0
LINE
8
Black
10
65.05
20
-84.15
11
63.55
21
-84.15
0
LINE
8
Black
10
63.55
20
-84.15
11
63.55
21
-83.85
0
LINE
8
Black
10
63.55
20
-83.85
11
65.05
21
-83.85
0
LINE
8
Black
10
65.05
20
-83.85
11
65.05
21
-84.15
0
LINE
8
Black
10
80.45
20
-84.15
11
78.95
21
-84.15
0
LINE
8
Black
10
78.95
20
-84.15
11
78.95
21
-83.85
0
LINE
8
Black
10
78.95
20
-83.85
11
80.45
21
-83.85
0
LINE
8
Black
10
80.45
20
-83.85
11
80.45
21
-84.15
0
LINE
8
Black
10
57.0481
20
-83.8679
11
57.0903
21
-83.8923
0
LINE
8
Black
10
57.0903
20
-83.8923
11
57.1217
21
-83.9297
0
LINE
8
Black
10
57.1217
20
-83.9297
11
57.1384
21
-83.9756
0
LINE
8
Black
10
57.1384
20
-83.9756
11
57.1384
21
-84.0244
0
LINE
8
Black
10
57.1384
20
-84.0244
11
57.1217
21
-84.0703
0
LINE
8
Black
10
57.1217
20
-84.0703
11
57.0903
21
-84.1077
0
LINE
8
Black
10
57.0903
20
-84.1077
11
57.0481
21
-84.1321
0
LINE
8
Black
10
57.0481
20
-84.1321
11
57
21
-84.1405
0
LINE
8
Black
10
57
20
-84.1405
11
56.9519
21
-84.1321
0
LINE
8
Black
10
56.9519
20
-84.1321
11
56.9097
21
-84.1077
0
LINE
8
Black
10
56.9097
20
-84.1077
11
56.8783
21
-84.0703
0
LINE
8
Black
10
56.8783
20
-84.0703
11
56.8616
21
-84.0244
0
LINE
8
Black
10
56.8616
20
-84.0244
11
56.8616
21
-83.9756
0
LINE
8
Black
10
56.8616
20
-83.9756
11
56.8783
21
-83.9297
0
LINE
8
Black
10
56.8783
20
-83.9297
11
56.9097
21
-83.8923
0
LINE
8
Black
10
56.9097
20
-83.8923
11
56.9519
21
-83.8679
0
LINE
8
Black
10
56.9519
20
-83.8679
11
57
21
-83.8595
0
LINE
8
Black
10
57
20
-83.8595
11
57.0481
21
-83.8679
0
LINE
8
Black
10
58.0481
20
-83.8679
11
58.0903
21
-83.8923
0
LINE
8
Black
10
58.0903
20
-83.8923
11
58.1217
21
-83.9297
0
LINE
8
Black
10
58.1217
20
-83.9297
11
58.1384
21
-83.9756
0
LINE
8
Black
10
58.1384
20
-83.9756
11
58.1384
21
-84.0244
0
LINE
8
Black
10
58.1384
20
-84.0244
11
58.1217
21
-84.0703
0
LINE
8
Black
10
58.1217
20
-84.0703
11
58.0903
21
-84.1077
0
LINE
8
Black
10
58.0903
20
-84.1077
11
58.0481
21
-84.1321
0
LINE
8
Black
10
58.0481
20
-84.1321
11
58
21
-84.1405
0
LINE
8
Black
10
58
20
-84.1405
11
57.9519
21
-84.1321
0
LINE
8
Black
10
57.9519
20
-84.1321
11
57.9097
21
-84.1077
0
LINE
8
Black
10
57.9097
20
-84.1077
11
57.8783
21
-84.0703
0
LINE
8
Black
10
57.8783
20
-84.0703
11
57.8616
21
-84.0244
0
LINE
8
Black
10
57.8616
20
-84.0244
11
57.8616
21
-83.9756
0
LINE
8
Black
10
57.8616
20
-83.9756
11
57.8783
21
-83.9297
0
LINE
8
Black
10
57.8783
20
-83.9297
11
57.9097
21
-83.8923
0
LINE
8
Black
10
57.9097
20
-83.8923
11
57.9519
21
-83.8679
0
LINE
8
Black
10
57.9519
20
-83.8679
11
58
21
-83.8595
0
LINE
8
Black
10
58
20
-83.8595
11
58.0481
21
-83.8679
0
LINE
8
Black
10
55.0481
20
-83.8679
11
55.0903
21
-83.8923
0
LINE
8
Black
10
55.0903
20
-83.8923
11
55.1217
21
-83.9297
0
LINE
8
Black
10
55.1217
20
-83.9297
11
55.1384
21
-83.9756
0
LINE
8
Black
10
55.1384
20
-83.9756
11
55.1384
21
-84.0244
0
LINE
8
Black
10
55.1384
20
-84.0244
11
55.1217
21
-84.0703
0
LINE
8
Black
10
55.1217
20
-84.0703
11
55.0903
21
-84.1077
0
LINE
8
Black
10
55.0903
20
-84.1077
11
55.0481
21
-84.1321
0
LINE
8
Black
10
55.0481
20
-84.1321
11
55
21
-84.1405
0
LINE
8
Black
10
55
20
-84.1405
11
54.9519
21
-84.1321
0
LINE
8
Black
10
54.9519
20
-84.1321
11
54.9097
21
-84.1077
0
LINE
8
Black
10
54.9097
20
-84.1077
11
54.8783
21
-84.0703
0
LINE
8
Black
10
54.8783
20
-84.0703
11
54.8616
21
-84.0244
0
LINE
8
Black
10
54.8616
20
-84.0244
11
54.8616
21
-83.9756
0
LINE
8
Black
10
54.8616
20
-83.9756
11
54.8783
21
-83.9297
0
LINE
8
Black
10
54.8783
20
-83.9297
11
54.9097
21
-83.8923
0
LINE
8
Black
10
54.9097
20
-83.8923
11
54.9519
21
-83.8679
0
LINE
8
Black
10
54.9519
20
-83.8679
11
55
21
-83.8595
0
LINE
8
Black
10
55
20
-83.8595
11
55.0481
21
-83.8679
0
LINE
8
Black
10
55.5481
20
-83.8679
11
55.5903
21
-83.8923
0
LINE
8
Black
10
55.5903
20
-83.8923
11
55.6217
21
-83.9297
0
LINE
8
Black
10
55.6217
20
-83.9297
11
55.6384
21
-83.9756
0
LINE
8
Black
10
55.6384
20
-83.9756
11
55.6384
21
-84.0244
0
LINE
8
Black
10
55.6384
20
-84.0244
11
55.6217
21
-84.0703
0
LINE
8
Black
10
55.6217
20
-84.0703
11
55.5903
21
-84.1077
0
LINE
8
Black
10
55.5903
20
-84.1077
11
55.5481
21
-84.1321
0
LINE
8
Black
10
55.5481
20
-84.1321
11
55.5
21
-84.1405
0
LINE
8
Black
10
55.5
20
-84.1405
11
55.4519
21
-84.1321
0
LINE
8
Black
10
55.4519
20
-84.1321
11
55.4097
21
-84.1077
0
LINE
8
Black
10
55.4097
20
-84.1077
11
55.3783
21
-84.0703
0
LINE
8
Black
10
55.3783
20
-84.0703
11
55.3616
21
-84.0244
0
LINE
8
Black
10
55.3616
20
-84.0244
11
55.3616
21
-83.9756
0
LINE
8
Black
10
55.3616
20
-83.9756
11
55.3783
21
-83.9297
0
LINE
8
Black
10
55.3783
20
-83.9297
11
55.4097
21
-83.8923
0
LINE
8
Black
10
55.4097
20
-83.8923
11
55.4519
21
-83.8679
0
LINE
8
Black
10
55.4519
20
-83.8679
11
55.5
21
-83.8595
0
LINE
8
Black
10
55.5
20
-83.8595
11
55.5481
21
-83.8679
0
LINE
8
Black
10
56.5481
20
-83.8679
11
56.5903
21
-83.8923
0
LINE
8
Black
10
56.5903
20
-83.8923
11
56.6217
21
-83.9297
0
LINE
8
Black
10
56.6217
20
-83.9297
11
56.6384
21
-83.9756
0
LINE
8
Black
10
56.6384
20
-83.9756
11
56.6384
21
-84.0244
0
LINE
8
Black
10
56.6384
20
-84.0244
11
56.6217
21
-84.0703
0
LINE
8
Black
10
56.6217
20
-84.0703
11
56.5903
21
-84.1077
0
LINE
8
Black
10
56.5903
20
-84.1077
11
56.5481
21
-84.1321
0
LINE
8
Black
10
56.5481
20
-84.1321
11
56.5
21
-84.1405
0
LINE
8
Black
10
56.5
20
-84.1405
11
56.4519
21
-84.1321
0
LINE
8
Black
10
56.4519
20
-84.1321
11
56.4097
21
-84.1077
0
LINE
8
Black
10
56.4097
20
-84.1077
11
56.3783
21
-84.0703
0
LINE
8
Black
10
56.3783
20
-84.0703
11
56.3616
21
-84.0244
0
LINE
8
Black
10
56.3616
20
-84.0244
11
56.3616
21
-83.9756
0
LINE
8
Black
10
56.3616
20
-83.9756
11
56.3783
21
-83.9297
0
LINE
8
Black
10
56.3783
20
-83.9297
11
56.4097
21
-83.8923
0
LINE
8
Black
10
56.4097
20
-83.8923
11
56.4519
21
-83.8679
0
LINE
8
Black
10
56.4519
20
-83.8679
11
56.5
21
-83.8595
0
LINE
8
Black
10
56.5
20
-83.8595
11
56.5481
21
-83.8679
0
LINE
8
Black
10
57.5481
20
-83.8679
11
57.5903
21
-83.8923
0
LINE
8
Black
10
57.5903
20
-83.8923
11
57.6217
21
-83.9297
0
LINE
8
Black
10
57.6217
20
-83.9297
11
57.6384
21
-83.9756
0
LINE
8
Black
10
57.6384
20
-83.9756
11
57.6384
21
-84.0244
0
LINE
8
Black
10
57.6384
20
-84.0244
11
57.6217
21
-84.0703
0
LINE
8
Black
10
57.6217
20
-84.0703
11
57.5903
21
-84.1077
0
LINE
8
Black
10
57.5903
20
-84.1077
11
57.5481
21
-84.1321
0
LINE
8
Black
10
57.5481
20
-84.1321
11
57.5
21
-84.1405
0
LINE
8
Black
10
57.5
20
-84.1405
11
57.4519
21
-84.1321
0
LINE
8
Black
10
57.4519
20
-84.1321
11
57.4097
21
-84.1077
0
LINE
8
Black
10
57.4097
20
-84.1077
11
57.3783
21
-84.0703
0
LINE
8
Black
10
57.3783
20
-84.0703
11
57.3616
21
-84.0244
0
LINE
8
Black
10
57.3616
20
-84.0244
11
57.3616
21
-83.9756
0
LINE
8
Black
10
57.3616
20
-83.9756
11
57.3783
21
-83.9297
0
LINE
8
Black
10
57.3783
20
-83.9297
11
57.4097
21
-83.8923
0
LINE
8
Black
10
57.4097
20
-83.8923
11
57.4519
21
-83.8679
0
LINE
8
Black
10
57.4519
20
-83.8679
11
57.5
21
-83.8595
0
LINE
8
Black
10
57.5
20
-83.8595
11
57.5481
21
-83.8679
0
LINE
8
Black
10
54.5481
20
-83.8679
11
54.5903
21
-83.8923
0
LINE
8
Black
10
54.5903
20
-83.8923
11
54.6217
21
-83.9297
0
LINE
8
Black
10
54.6217
20
-83.9297
11
54.6384
21
-83.9756
0
LINE
8
Black
10
54.6384
20
-83.9756
11
54.6384
21
-84.0244
0
LINE
8
Black
10
54.6384
20
-84.0244
11
54.6217
21
-84.0703
0
LINE
8
Black
10
54.6217
20
-84.0703
11
54.5903
21
-84.1077
0
LINE
8
Black
10
54.5903
20
-84.1077
11
54.5481
21
-84.1321
0
LINE
8
Black
10
54.5481
20
-84.1321
11
54.5
21
-84.1405
0
LINE
8
Black
10
54.5
20
-84.1405
11
54.4519
21
-84.1321
0
LINE
8
Black
10
54.4519
20
-84.1321
11
54.4097
21
-84.1077
0
LINE
8
Black
10
54.4097
20
-84.1077
11
54.3783
21
-84.0703
0
LINE
8
Black
10
54.3783
20
-84.0703
11
54.3616
21
-84.0244
0
LINE
8
Black
10
54.3616
20
-84.0244
11
54.3616
21
-83.9756
0
LINE
8
Black
10
54.3616
20
-83.9756
11
54.3783
21
-83.9297
0
LINE
8
Black
10
54.3783
20
-83.9297
11
54.4097
21
-83.8923
0
LINE
8
Black
10
54.4097
20
-83.8923
11
54.4519
21
-83.8679
0
LINE
8
Black
10
54.4519
20
-83.8679
11
54.5
21
-83.8595
0
LINE
8
Black
10
54.5
20
-83.8595
11
54.5481
21
-83.8679
0
LINE
8
Black
10
56.0481
20
-83.8679
11
56.0903
21
-83.8923
0
LINE
8
Black
10
56.0903
20
-83.8923
11
56.1217
21
-83.9297
0
LINE
8
Black
10
56.1217
20
-83.9297
11
56.1384
21
-83.9756
0
LINE
8
Black
10
56.1384
20
-83.9756
11
56.1384
21
-84.0244
0
LINE
8
Black
10
56.1384
20
-84.0244
11
56.1217
21
-84.0703
0
LINE
8
Black
10
56.1217
20
-84.0703
11
56.0903
21
-84.1077
0
LINE
8
Black
10
56.0903
20
-84.1077
11
56.0481
21
-84.1321
0
LINE
8
Black
10
56.0481
20
-84.1321
11
56
21
-84.1405
0
LINE
8
Black
10
56
20
-84.1405
11
55.9519
21
-84.1321
0
LINE
8
Black
10
55.9519
20
-84.1321
11
55.9097
21
-84.1077
0
LINE
8
Black
10
55.9097
20
-84.1077
11
55.8783
21
-84.0703
0
LINE
8
Black
10
55.8783
20
-84.0703
11
55.8616
21
-84.0244
0
LINE
8
Black
10
55.8616
20
-84.0244
11
55.8616
21
-83.9756
0
LINE
8
Black
10
55.8616
20
-83.9756
11
55.8783
21
-83.9297
0
LINE
8
Black
10
55.8783
20
-83.9297
11
55.9097
21
-83.8923
0
LINE
8
Black
10
55.9097
20
-83.8923
11
55.9519
21
-83.8679
0
LINE
8
Black
10
55.9519
20
-83.8679
11
56
21
-83.8595
0
LINE
8
Black
10
56
20
-83.8595
11
56.0481
21
-83.8679
0
LINE
8
Black
10
60.26
20
-83.86
11
59.74
21
-83.86
0
LINE
8
Black
10
59.74
20
-83.86
11
59.74
21
-83.34
0
LINE
8
Black
10
59.74
20
-83.34
11
60.26
21
-83.34
0
LINE
8
Black
10
60.26
20
-83.34
11
60.26
21
-83.86
0
LINE
8
Black
10
61.45
20
-83.675
11
60.55
21
-83.675
0
LINE
8
Black
10
60.55
20
-83.675
11
60.55
21
-82.925
0
LINE
8
Black
10
60.55
20
-82.925
11
61.45
21
-82.925
0
LINE
8
Black
10
61.45
20
-82.925
11
61.45
21
-83.675
0
LINE
8
Black
10
80.45
20
-83.65
11
78.95
21
-83.65
0
LINE
8
Black
10
78.95
20
-83.65
11
78.95
21
-83.35
0
LINE
8
Black
10
78.95
20
-83.35
11
80.45
21
-83.35
0
LINE
8
Black
10
80.45
20
-83.35
11
80.45
21
-83.65
0
LINE
8
Black
10
65.05
20
-83.65
11
63.55
21
-83.65
0
LINE
8
Black
10
63.55
20
-83.65
11
63.55
21
-83.35
0
LINE
8
Black
10
63.55
20
-83.35
11
65.05
21
-83.35
0
LINE
8
Black
10
65.05
20
-83.35
11
65.05
21
-83.65
0
LINE
8
Black
10
56.5481
20
-83.3679
11
56.5903
21
-83.3923
0
LINE
8
Black
10
56.5903
20
-83.3923
11
56.6217
21
-83.4297
0
LINE
8
Black
10
56.6217
20
-83.4297
11
56.6384
21
-83.4756
0
LINE
8
Black
10
56.6384
20
-83.4756
11
56.6384
21
-83.5244
0
LINE
8
Black
10
56.6384
20
-83.5244
11
56.6217
21
-83.5703
0
LINE
8
Black
10
56.6217
20
-83.5703
11
56.5903
21
-83.6077
0
LINE
8
Black
10
56.5903
20
-83.6077
11
56.5481
21
-83.6321
0
LINE
8
Black
10
56.5481
20
-83.6321
11
56.5
21
-83.6405
0
LINE
8
Black
10
56.5
20
-83.6405
11
56.4519
21
-83.6321
0
LINE
8
Black
10
56.4519
20
-83.6321
11
56.4097
21
-83.6077
0
LINE
8
Black
10
56.4097
20
-83.6077
11
56.3783
21
-83.5703
0
LINE
8
Black
10
56.3783
20
-83.5703
11
56.3616
21
-83.5244
0
LINE
8
Black
10
56.3616
20
-83.5244
11
56.3616
21
-83.4756
0
LINE
8
Black
10
56.3616
20
-83.4756
11
56.3783
21
-83.4297
0
LINE
8
Black
10
56.3783
20
-83.4297
11
56.4097
21
-83.3923
0
LINE
8
Black
10
56.4097
20
-83.3923
11
56.4519
21
-83.3679
0
LINE
8
Black
10
56.4519
20
-83.3679
11
56.5
21
-83.3595
0
LINE
8
Black
10
56.5
20
-83.3595
11
56.5481
21
-83.3679
0
LINE
8
Black
10
57.0481
20
-83.3679
11
57.0903
21
-83.3923
0
LINE
8
Black
10
57.0903
20
-83.3923
11
57.1217
21
-83.4297
0
LINE
8
Black
10
57.1217
20
-83.4297
11
57.1384
21
-83.4756
0
LINE
8
Black
10
57.1384
20
-83.4756
11
57.1384
21
-83.5244
0
LINE
8
Black
10
57.1384
20
-83.5244
11
57.1217
21
-83.5703
0
LINE
8
Black
10
57.1217
20
-83.5703
11
57.0903
21
-83.6077
0
LINE
8
Black
10
57.0903
20
-83.6077
11
57.0481
21
-83.6321
0
LINE
8
Black
10
57.0481
20
-83.6321
11
57
21
-83.6405
0
LINE
8
Black
10
57
20
-83.6405
11
56.9519
21
-83.6321
0
LINE
8
Black
10
56.9519
20
-83.6321
11
56.9097
21
-83.6077
0
LINE
8
Black
10
56.9097
20
-83.6077
11
56.8783
21
-83.5703
0
LINE
8
Black
10
56.8783
20
-83.5703
11
56.8616
21
-83.5244
0
LINE
8
Black
10
56.8616
20
-83.5244
11
56.8616
21
-83.4756
0
LINE
8
Black
10
56.8616
20
-83.4756
11
56.8783
21
-83.4297
0
LINE
8
Black
10
56.8783
20
-83.4297
11
56.9097
21
-83.3923
0
LINE
8
Black
10
56.9097
20
-83.3923
11
56.9519
21
-83.3679
0
LINE
8
Black
10
56.9519
20
-83.3679
11
57
21
-83.3595
0
LINE
8
Black
10
57
20
-83.3595
11
57.0481
21
-83.3679
0
LINE
8
Black
10
56.0481
20
-83.3679
11
56.0903
21
-83.3923
0
LINE
8
Black
10
56.0903
20
-83.3923
11
56.1217
21
-83.4297
0
LINE
8
Black
10
56.1217
20
-83.4297
11
56.1384
21
-83.4756
0
LINE
8
Black
10
56.1384
20
-83.4756
11
56.1384
21
-83.5244
0
LINE
8
Black
10
56.1384
20
-83.5244
11
56.1217
21
-83.5703
0
LINE
8
Black
10
56.1217
20
-83.5703
11
56.0903
21
-83.6077
0
LINE
8
Black
10
56.0903
20
-83.6077
11
56.0481
21
-83.6321
0
LINE
8
Black
10
56.0481
20
-83.6321
11
56
21
-83.6405
0
LINE
8
Black
10
56
20
-83.6405
11
55.9519
21
-83.6321
0
LINE
8
Black
10
55.9519
20
-83.6321
11
55.9097
21
-83.6077
0
LINE
8
Black
10
55.9097
20
-83.6077
11
55.8783
21
-83.5703
0
LINE
8
Black
10
55.8783
20
-83.5703
11
55.8616
21
-83.5244
0
LINE
8
Black
10
55.8616
20
-83.5244
11
55.8616
21
-83.4756
0
LINE
8
Black
10
55.8616
20
-83.4756
11
55.8783
21
-83.4297
0
LINE
8
Black
10
55.8783
20
-83.4297
11
55.9097
21
-83.3923
0
LINE
8
Black
10
55.9097
20
-83.3923
11
55.9519
21
-83.3679
0
LINE
8
Black
10
55.9519
20
-83.3679
11
56
21
-83.3595
0
LINE
8
Black
10
56
20
-83.3595
11
56.0481
21
-83.3679
0
LINE
8
Black
10
57.5481
20
-83.3679
11
57.5903
21
-83.3923
0
LINE
8
Black
10
57.5903
20
-83.3923
11
57.6217
21
-83.4297
0
LINE
8
Black
10
57.6217
20
-83.4297
11
57.6384
21
-83.4756
0
LINE
8
Black
10
57.6384
20
-83.4756
11
57.6384
21
-83.5244
0
LINE
8
Black
10
57.6384
20
-83.5244
11
57.6217
21
-83.5703
0
LINE
8
Black
10
57.6217
20
-83.5703
11
57.5903
21
-83.6077
0
LINE
8
Black
10
57.5903
20
-83.6077
11
57.5481
21
-83.6321
0
LINE
8
Black
10
57.5481
20
-83.6321
11
57.5
21
-83.6405
0
LINE
8
Black
10
57.5
20
-83.6405
11
57.4519
21
-83.6321
0
LINE
8
Black
10
57.4519
20
-83.6321
11
57.4097
21
-83.6077
0
LINE
8
Black
10
57.4097
20
-83.6077
11
57.3783
21
-83.5703
0
LINE
8
Black
10
57.3783
20
-83.5703
11
57.3616
21
-83.5244
0
LINE
8
Black
10
57.3616
20
-83.5244
11
57.3616
21
-83.4756
0
LINE
8
Black
10
57.3616
20
-83.4756
11
57.3783
21
-83.4297
0
LINE
8
Black
10
57.3783
20
-83.4297
11
57.4097
21
-83.3923
0
LINE
8
Black
10
57.4097
20
-83.3923
11
57.4519
21
-83.3679
0
LINE
8
Black
10
57.4519
20
-83.3679
11
57.5
21
-83.3595
0
LINE
8
Black
10
57.5
20
-83.3595
11
57.5481
21
-83.3679
0
LINE
8
Black
10
58.0481
20
-83.3679
11
58.0903
21
-83.3923
0
LINE
8
Black
10
58.0903
20
-83.3923
11
58.1217
21
-83.4297
0
LINE
8
Black
10
58.1217
20
-83.4297
11
58.1384
21
-83.4756
0
LINE
8
Black
10
58.1384
20
-83.4756
11
58.1384
21
-83.5244
0
LINE
8
Black
10
58.1384
20
-83.5244
11
58.1217
21
-83.5703
0
LINE
8
Black
10
58.1217
20
-83.5703
11
58.0903
21
-83.6077
0
LINE
8
Black
10
58.0903
20
-83.6077
11
58.0481
21
-83.6321
0
LINE
8
Black
10
58.0481
20
-83.6321
11
58
21
-83.6405
0
LINE
8
Black
10
58
20
-83.6405
11
57.9519
21
-83.6321
0
LINE
8
Black
10
57.9519
20
-83.6321
11
57.9097
21
-83.6077
0
LINE
8
Black
10
57.9097
20
-83.6077
11
57.8783
21
-83.5703
0
LINE
8
Black
10
57.8783
20
-83.5703
11
57.8616
21
-83.5244
0
LINE
8
Black
10
57.8616
20
-83.5244
11
57.8616
21
-83.4756
0
LINE
8
Black
10
57.8616
20
-83.4756
11
57.8783
21
-83.4297
0
LINE
8
Black
10
57.8783
20
-83.4297
11
57.9097
21
-83.3923
0
LINE
8
Black
10
57.9097
20
-83.3923
11
57.9519
21
-83.3679
0
LINE
8
Black
10
57.9519
20
-83.3679
11
58
21
-83.3595
0
LINE
8
Black
10
58
20
-83.3595
11
58.0481
21
-83.3679
0
LINE
8
Black
10
55.5481
20
-83.3679
11
55.5903
21
-83.3923
0
LINE
8
Black
10
55.5903
20
-83.3923
11
55.6217
21
-83.4297
0
LINE
8
Black
10
55.6217
20
-83.4297
11
55.6384
21
-83.4756
0
LINE
8
Black
10
55.6384
20
-83.4756
11
55.6384
21
-83.5244
0
LINE
8
Black
10
55.6384
20
-83.5244
11
55.6217
21
-83.5703
0
LINE
8
Black
10
55.6217
20
-83.5703
11
55.5903
21
-83.6077
0
LINE
8
Black
10
55.5903
20
-83.6077
11
55.5481
21
-83.6321
0
LINE
8
Black
10
55.5481
20
-83.6321
11
55.5
21
-83.6405
0
LINE
8
Black
10
55.5
20
-83.6405
11
55.4519
21
-83.6321
0
LINE
8
Black
10
55.4519
20
-83.6321
11
55.4097
21
-83.6077
0
LINE
8
Black
10
55.4097
20
-83.6077
11
55.3783
21
-83.5703
0
LINE
8
Black
10
55.3783
20
-83.5703
11
55.3616
21
-83.5244
0
LINE
8
Black
10
55.3616
20
-83.5244
11
55.3616
21
-83.4756
0
LINE
8
Black
10
55.3616
20
-83.4756
11
55.3783
21
-83.4297
0
LINE
8
Black
10
55.3783
20
-83.4297
11
55.4097
21
-83.3923
0
LINE
8
Black
10
55.4097
20
-83.3923
11
55.4519
21
-83.3679
0
LINE
8
Black
10
55.4519
20
-83.3679
11
55.5
21
-83.3595
0
LINE
8
Black
10
55.5
20
-83.3595
11
55.5481
21
-83.3679
0
LINE
8
Black
10
54.5481
20
-83.3679
11
54.5903
21
-83.3923
0
LINE
8
Black
10
54.5903
20
-83.3923
11
54.6217
21
-83.4297
0
LINE
8
Black
10
54.6217
20
-83.4297
11
54.6384
21
-83.4756
0
LINE
8
Black
10
54.6384
20
-83.4756
11
54.6384
21
-83.5244
0
LINE
8
Black
10
54.6384
20
-83.5244
11
54.6217
21
-83.5703
0
LINE
8
Black
10
54.6217
20
-83.5703
11
54.5903
21
-83.6077
0
LINE
8
Black
10
54.5903
20
-83.6077
11
54.5481
21
-83.6321
0
LINE
8
Black
10
54.5481
20
-83.6321
11
54.5
21
-83.6405
0
LINE
8
Black
10
54.5
20
-83.6405
11
54.4519
21
-83.6321
0
LINE
8
Black
10
54.4519
20
-83.6321
11
54.4097
21
-83.6077
0
LINE
8
Black
10
54.4097
20
-83.6077
11
54.3783
21
-83.5703
0
LINE
8
Black
10
54.3783
20
-83.5703
11
54.3616
21
-83.5244
0
LINE
8
Black
10
54.3616
20
-83.5244
11
54.3616
21
-83.4756
0
LINE
8
Black
10
54.3616
20
-83.4756
11
54.3783
21
-83.4297
0
LINE
8
Black
10
54.3783
20
-83.4297
11
54.4097
21
-83.3923
0
LINE
8
Black
10
54.4097
20
-83.3923
11
54.4519
21
-83.3679
0
LINE
8
Black
10
54.4519
20
-83.3679
11
54.5
21
-83.3595
0
LINE
8
Black
10
54.5
20
-83.3595
11
54.5481
21
-83.3679
0
LINE
8
Black
10
55.0481
20
-83.3679
11
55.0903
21
-83.3923
0
LINE
8
Black
10
55.0903
20
-83.3923
11
55.1217
21
-83.4297
0
LINE
8
Black
10
55.1217
20
-83.4297
11
55.1384
21
-83.4756
0
LINE
8
Black
10
55.1384
20
-83.4756
11
55.1384
21
-83.5244
0
LINE
8
Black
10
55.1384
20
-83.5244
11
55.1217
21
-83.5703
0
LINE
8
Black
10
55.1217
20
-83.5703
11
55.0903
21
-83.6077
0
LINE
8
Black
10
55.0903
20
-83.6077
11
55.0481
21
-83.6321
0
LINE
8
Black
10
55.0481
20
-83.6321
11
55
21
-83.6405
0
LINE
8
Black
10
55
20
-83.6405
11
54.9519
21
-83.6321
0
LINE
8
Black
10
54.9519
20
-83.6321
11
54.9097
21
-83.6077
0
LINE
8
Black
10
54.9097
20
-83.6077
11
54.8783
21
-83.5703
0
LINE
8
Black
10
54.8783
20
-83.5703
11
54.8616
21
-83.5244
0
LINE
8
Black
10
54.8616
20
-83.5244
11
54.8616
21
-83.4756
0
LINE
8
Black
10
54.8616
20
-83.4756
11
54.8783
21
-83.4297
0
LINE
8
Black
10
54.8783
20
-83.4297
11
54.9097
21
-83.3923
0
LINE
8
Black
10
54.9097
20
-83.3923
11
54.9519
21
-83.3679
0
LINE
8
Black
10
54.9519
20
-83.3679
11
55
21
-83.3595
0
LINE
8
Black
10
55
20
-83.3595
11
55.0481
21
-83.3679
0
LINE
8
Black
10
80.45
20
-83.15
11
78.95
21
-83.15
0
LINE
8
Black
10
78.95
20
-83.15
11
78.95
21
-82.85
0
LINE
8
Black
10
78.95
20
-82.85
11
80.45
21
-82.85
0
LINE
8
Black
10
80.45
20
-82.85
11
80.45
21
-83.15
0
LINE
8
Black
10
65.05
20
-83.15
11
63.55
21
-83.15
0
LINE
8
Black
10
63.55
20
-83.15
11
63.55
21
-82.85
0
LINE
8
Black
10
63.55
20
-82.85
11
65.05
21
-82.85
0
LINE
8
Black
10
65.05
20
-82.85
11
65.05
21
-83.15
0
LINE
8
Black
10
55.5481
20
-82.8679
11
55.5903
21
-82.8923
0
LINE
8
Black
10
55.5903
20
-82.8923
11
55.6217
21
-82.9297
0
LINE
8
Black
10
55.6217
20
-82.9297
11
55.6384
21
-82.9756
0
LINE
8
Black
10
55.6384
20
-82.9756
11
55.6384
21
-83.0244
0
LINE
8
Black
10
55.6384
20
-83.0244
11
55.6217
21
-83.0703
0
LINE
8
Black
10
55.6217
20
-83.0703
11
55.5903
21
-83.1077
0
LINE
8
Black
10
55.5903
20
-83.1077
11
55.5481
21
-83.1321
0
LINE
8
Black
10
55.5481
20
-83.1321
11
55.5
21
-83.1405
0
LINE
8
Black
10
55.5
20
-83.1405
11
55.4519
21
-83.1321
0
LINE
8
Black
10
55.4519
20
-83.1321
11
55.4097
21
-83.1077
0
LINE
8
Black
10
55.4097
20
-83.1077
11
55.3783
21
-83.0703
0
LINE
8
Black
10
55.3783
20
-83.0703
11
55.3616
21
-83.0244
0
LINE
8
Black
10
55.3616
20
-83.0244
11
55.3616
21
-82.9756
0
LINE
8
Black
10
55.3616
20
-82.9756
11
55.3783
21
-82.9297
0
LINE
8
Black
10
55.3783
20
-82.9297
11
55.4097
21
-82.8923
0
LINE
8
Black
10
55.4097
20
-82.8923
11
55.4519
21
-82.8679
0
LINE
8
Black
10
55.4519
20
-82.8679
11
55.5
21
-82.8595
0
LINE
8
Black
10
55.5
20
-82.8595
11
55.5481
21
-82.8679
0
LINE
8
Black
10
55.0481
20
-82.8679
11
55.0903
21
-82.8923
0
LINE
8
Black
10
55.0903
20
-82.8923
11
55.1217
21
-82.9297
0
LINE
8
Black
10
55.1217
20
-82.9297
11
55.1384
21
-82.9756
0
LINE
8
Black
10
55.1384
20
-82.9756
11
55.1384
21
-83.0244
0
LINE
8
Black
10
55.1384
20
-83.0244
11
55.1217
21
-83.0703
0
LINE
8
Black
10
55.1217
20
-83.0703
11
55.0903
21
-83.1077
0
LINE
8
Black
10
55.0903
20
-83.1077
11
55.0481
21
-83.1321
0
LINE
8
Black
10
55.0481
20
-83.1321
11
55
21
-83.1405
0
LINE
8
Black
10
55
20
-83.1405
11
54.9519
21
-83.1321
0
LINE
8
Black
10
54.9519
20
-83.1321
11
54.9097
21
-83.1077
0
LINE
8
Black
10
54.9097
20
-83.1077
11
54.8783
21
-83.0703
0
LINE
8
Black
10
54.8783
20
-83.0703
11
54.8616
21
-83.0244
0
LINE
8
Black
10
54.8616
20
-83.0244
11
54.8616
21
-82.9756
0
LINE
8
Black
10
54.8616
20
-82.9756
11
54.8783
21
-82.9297
0
LINE
8
Black
10
54.8783
20
-82.9297
11
54.9097
21
-82.8923
0
LINE
8
Black
10
54.9097
20
-82.8923
11
54.9519
21
-82.8679
0
LINE
8
Black
10
54.9519
20
-82.8679
11
55
21
-82.8595
0
LINE
8
Black
10
55
20
-82.8595
11
55.0481
21
-82.8679
0
LINE
8
Black
10
58.0481
20
-82.8679
11
58.0903
21
-82.8923
0
LINE
8
Black
10
58.0903
20
-82.8923
11
58.1217
21
-82.9297
0
LINE
8
Black
10
58.1217
20
-82.9297
11
58.1384
21
-82.9756
0
LINE
8
Black
10
58.1384
20
-82.9756
11
58.1384
21
-83.0244
0
LINE
8
Black
10
58.1384
20
-83.0244
11
58.1217
21
-83.0703
0
LINE
8
Black
10
58.1217
20
-83.0703
11
58.0903
21
-83.1077
0
LINE
8
Black
10
58.0903
20
-83.1077
11
58.0481
21
-83.1321
0
LINE
8
Black
10
58.0481
20
-83.1321
11
58
21
-83.1405
0
LINE
8
Black
10
58
20
-83.1405
11
57.9519
21
-83.1321
0
LINE
8
Black
10
57.9519
20
-83.1321
11
57.9097
21
-83.1077
0
LINE
8
Black
10
57.9097
20
-83.1077
11
57.8783
21
-83.0703
0
LINE
8
Black
10
57.8783
20
-83.0703
11
57.8616
21
-83.0244
0
LINE
8
Black
10
57.8616
20
-83.0244
11
57.8616
21
-82.9756
0
LINE
8
Black
10
57.8616
20
-82.9756
11
57.8783
21
-82.9297
0
LINE
8
Black
10
57.8783
20
-82.9297
11
57.9097
21
-82.8923
0
LINE
8
Black
10
57.9097
20
-82.8923
11
57.9519
21
-82.8679
0
LINE
8
Black
10
57.9519
20
-82.8679
11
58
21
-82.8595
0
LINE
8
Black
10
58
20
-82.8595
11
58.0481
21
-82.8679
0
LINE
8
Black
10
54.5481
20
-82.8679
11
54.5903
21
-82.8923
0
LINE
8
Black
10
54.5903
20
-82.8923
11
54.6217
21
-82.9297
0
LINE
8
Black
10
54.6217
20
-82.9297
11
54.6384
21
-82.9756
0
LINE
8
Black
10
54.6384
20
-82.9756
11
54.6384
21
-83.0244
0
LINE
8
Black
10
54.6384
20
-83.0244
11
54.6217
21
-83.0703
0
LINE
8
Black
10
54.6217
20
-83.0703
11
54.5903
21
-83.1077
0
LINE
8
Black
10
54.5903
20
-83.1077
11
54.5481
21
-83.1321
0
LINE
8
Black
10
54.5481
20
-83.1321
11
54.5
21
-83.1405
0
LINE
8
Black
10
54.5
20
-83.1405
11
54.4519
21
-83.1321
0
LINE
8
Black
10
54.4519
20
-83.1321
11
54.4097
21
-83.1077
0
LINE
8
Black
10
54.4097
20
-83.1077
11
54.3783
21
-83.0703
0
LINE
8
Black
10
54.3783
20
-83.0703
11
54.3616
21
-83.0244
0
LINE
8
Black
10
54.3616
20
-83.0244
11
54.3616
21
-82.9756
0
LINE
8
Black
10
54.3616
20
-82.9756
11
54.3783
21
-82.9297
0
LINE
8
Black
10
54.3783
20
-82.9297
11
54.4097
21
-82.8923
0
LINE
8
Black
10
54.4097
20
-82.8923
11
54.4519
21
-82.8679
0
LINE
8
Black
10
54.4519
20
-82.8679
11
54.5
21
-82.8595
0
LINE
8
Black
10
54.5
20
-82.8595
11
54.5481
21
-82.8679
0
LINE
8
Black
10
56.0481
20
-82.8679
11
56.0903
21
-82.8923
0
LINE
8
Black
10
56.0903
20
-82.8923
11
56.1217
21
-82.9297
0
LINE
8
Black
10
56.1217
20
-82.9297
11
56.1384
21
-82.9756
0
LINE
8
Black
10
56.1384
20
-82.9756
11
56.1384
21
-83.0244
0
LINE
8
Black
10
56.1384
20
-83.0244
11
56.1217
21
-83.0703
0
LINE
8
Black
10
56.1217
20
-83.0703
11
56.0903
21
-83.1077
0
LINE
8
Black
10
56.0903
20
-83.1077
11
56.0481
21
-83.1321
0
LINE
8
Black
10
56.0481
20
-83.1321
11
56
21
-83.1405
0
LINE
8
Black
10
56
20
-83.1405
11
55.9519
21
-83.1321
0
LINE
8
Black
10
55.9519
20
-83.1321
11
55.9097
21
-83.1077
0
LINE
8
Black
10
55.9097
20
-83.1077
11
55.8783
21
-83.0703
0
LINE
8
Black
10
55.8783
20
-83.0703
11
55.8616
21
-83.0244
0
LINE
8
Black
10
55.8616
20
-83.0244
11
55.8616
21
-82.9756
0
LINE
8
Black
10
55.8616
20
-82.9756
11
55.8783
21
-82.9297
0
LINE
8
Black
10
55.8783
20
-82.9297
11
55.9097
21
-82.8923
0
LINE
8
Black
10
55.9097
20
-82.8923
11
55.9519
21
-82.8679
0
LINE
8
Black
10
55.9519
20
-82.8679
11
56
21
-82.8595
0
LINE
8
Black
10
56
20
-82.8595
11
56.0481
21
-82.8679
0
LINE
8
Black
10
57.5481
20
-82.8679
11
57.5903
21
-82.8923
0
LINE
8
Black
10
57.5903
20
-82.8923
11
57.6217
21
-82.9297
0
LINE
8
Black
10
57.6217
20
-82.9297
11
57.6384
21
-82.9756
0
LINE
8
Black
10
57.6384
20
-82.9756
11
57.6384
21
-83.0244
0
LINE
8
Black
10
57.6384
20
-83.0244
11
57.6217
21
-83.0703
0
LINE
8
Black
10
57.6217
20
-83.0703
11
57.5903
21
-83.1077
0
LINE
8
Black
10
57.5903
20
-83.1077
11
57.5481
21
-83.1321
0
LINE
8
Black
10
57.5481
20
-83.1321
11
57.5
21
-83.1405
0
LINE
8
Black
10
57.5
20
-83.1405
11
57.4519
21
-83.1321
0
LINE
8
Black
10
57.4519
20
-83.1321
11
57.4097
21
-83.1077
0
LINE
8
Black
10
57.4097
20
-83.1077
11
57.3783
21
-83.0703
0
LINE
8
Black
10
57.3783
20
-83.0703
11
57.3616
21
-83.0244
0
LINE
8
Black
10
57.3616
20
-83.0244
11
57.3616
21
-82.9756
0
LINE
8
Black
10
57.3616
20
-82.9756
11
57.3783
21
-82.9297
0
LINE
8
Black
10
57.3783
20
-82.9297
11
57.4097
21
-82.8923
0
LINE
8
Black
10
57.4097
20
-82.8923
11
57.4519
21
-82.8679
0
LINE
8
Black
10
57.4519
20
-82.8679
11
57.5
21
-82.8595
0
LINE
8
Black
10
57.5
20
-82.8595
11
57.5481
21
-82.8679
0
LINE
8
Black
10
56.5481
20
-82.8679
11
56.5903
21
-82.8923
0
LINE
8
Black
10
56.5903
20
-82.8923
11
56.6217
21
-82.9297
0
LINE
8
Black
10
56.6217
20
-82.9297
11
56.6384
21
-82.9756
0
LINE
8
Black
10
56.6384
20
-82.9756
11
56.6384
21
-83.0244
0
LINE
8
Black
10
56.6384
20
-83.0244
11
56.6217
21
-83.0703
0
LINE
8
Black
10
56.6217
20
-83.0703
11
56.5903
21
-83.1077
0
LINE
8
Black
10
56.5903
20
-83.1077
11
56.5481
21
-83.1321
0
LINE
8
Black
10
56.5481
20
-83.1321
11
56.5
21
-83.1405
0
LINE
8
Black
10
56.5
20
-83.1405
11
56.4519
21
-83.1321
0
LINE
8
Black
10
56.4519
20
-83.1321
11
56.4097
21
-83.1077
0
LINE
8
Black
10
56.4097
20
-83.1077
11
56.3783
21
-83.0703
0
LINE
8
Black
10
56.3783
20
-83.0703
11
56.3616
21
-83.0244
0
LINE
8
Black
10
56.3616
20
-83.0244
11
56.3616
21
-82.9756
0
LINE
8
Black
10
56.3616
20
-82.9756
11
56.3783
21
-82.9297
0
LINE
8
Black
10
56.3783
20
-82.9297
11
56.4097
21
-82.8923
0
LINE
8
Black
10
56.4097
20
-82.8923
11
56.4519
21
-82.8679
0
LINE
8
Black
10
56.4519
20
-82.8679
11
56.5
21
-82.8595
0
LINE
8
Black
10
56.5
20
-82.8595
11
56.5481
21
-82.8679
0
LINE
8
Black
10
57.0481
20
-82.8679
11
57.0903
21
-82.8923
0
LINE
8
Black
10
57.0903
20
-82.8923
11
57.1217
21
-82.9297
0
LINE
8
Black
10
57.1217
20
-82.9297
11
57.1384
21
-82.9756
0
LINE
8
Black
10
57.1384
20
-82.9756
11
57.1384
21
-83.0244
0
LINE
8
Black
10
57.1384
20
-83.0244
11
57.1217
21
-83.0703
0
LINE
8
Black
10
57.1217
20
-83.0703
11
57.0903
21
-83.1077
0
LINE
8
Black
10
57.0903
20
-83.1077
11
57.0481
21
-83.1321
0
LINE
8
Black
10
57.0481
20
-83.1321
11
57
21
-83.1405
0
LINE
8
Black
10
57
20
-83.1405
11
56.9519
21
-83.1321
0
LINE
8
Black
10
56.9519
20
-83.1321
11
56.9097
21
-83.1077
0
LINE
8
Black
10
56.9097
20
-83.1077
11
56.8783
21
-83.0703
0
LINE
8
Black
10
56.8783
20
-83.0703
11
56.8616
21
-83.0244
0
LINE
8
Black
10
56.8616
20
-83.0244
11
56.8616
21
-82.9756
0
LINE
8
Black
10
56.8616
20
-82.9756
11
56.8783
21
-82.9297
0
LINE
8
Black
10
56.8783
20
-82.9297
11
56.9097
21
-82.8923
0
LINE
8
Black
10
56.9097
20
-82.8923
11
56.9519
21
-82.8679
0
LINE
8
Black
10
56.9519
20
-82.8679
11
57
21
-82.8595
0
LINE
8
Black
10
57
20
-82.8595
11
57.0481
21
-82.8679
0
LINE
8
Black
10
51.95
20
-83.075
11
51.05
21
-83.075
0
LINE
8
Black
10
51.05
20
-83.075
11
51.05
21
-82.325
0
LINE
8
Black
10
51.05
20
-82.325
11
51.95
21
-82.325
0
LINE
8
Black
10
51.95
20
-82.325
11
51.95
21
-83.075
0
LINE
8
Black
10
52.76
20
-82.76
11
52.24
21
-82.76
0
LINE
8
Black
10
52.24
20
-82.76
11
52.24
21
-82.24
0
LINE
8
Black
10
52.24
20
-82.24
11
52.76
21
-82.24
0
LINE
8
Black
10
52.76
20
-82.24
11
52.76
21
-82.76
0
LINE
8
Black
10
80.45
20
-82.65
11
78.95
21
-82.65
0
LINE
8
Black
10
78.95
20
-82.65
11
78.95
21
-82.35
0
LINE
8
Black
10
78.95
20
-82.35
11
80.45
21
-82.35
0
LINE
8
Black
10
80.45
20
-82.35
11
80.45
21
-82.65
0
LINE
8
Black
10
65.05
20
-82.65
11
63.55
21
-82.65
0
LINE
8
Black
10
63.55
20
-82.65
11
63.55
21
-82.35
0
LINE
8
Black
10
63.55
20
-82.35
11
65.05
21
-82.35
0
LINE
8
Black
10
65.05
20
-82.35
11
65.05
21
-82.65
0
LINE
8
Black
10
57.0481
20
-82.3679
11
57.0903
21
-82.3923
0
LINE
8
Black
10
57.0903
20
-82.3923
11
57.1217
21
-82.4297
0
LINE
8
Black
10
57.1217
20
-82.4297
11
57.1384
21
-82.4756
0
LINE
8
Black
10
57.1384
20
-82.4756
11
57.1384
21
-82.5244
0
LINE
8
Black
10
57.1384
20
-82.5244
11
57.1217
21
-82.5703
0
LINE
8
Black
10
57.1217
20
-82.5703
11
57.0903
21
-82.6077
0
LINE
8
Black
10
57.0903
20
-82.6077
11
57.0481
21
-82.6321
0
LINE
8
Black
10
57.0481
20
-82.6321
11
57
21
-82.6405
0
LINE
8
Black
10
57
20
-82.6405
11
56.9519
21
-82.6321
0
LINE
8
Black
10
56.9519
20
-82.6321
11
56.9097
21
-82.6077
0
LINE
8
Black
10
56.9097
20
-82.6077
11
56.8783
21
-82.5703
0
LINE
8
Black
10
56.8783
20
-82.5703
11
56.8616
21
-82.5244
0
LINE
8
Black
10
56.8616
20
-82.5244
11
56.8616
21
-82.4756
0
LINE
8
Black
10
56.8616
20
-82.4756
11
56.8783
21
-82.4297
0
LINE
8
Black
10
56.8783
20
-82.4297
11
56.9097
21
-82.3923
0
LINE
8
Black
10
56.9097
20
-82.3923
11
56.9519
21
-82.3679
0
LINE
8
Black
10
56.9519
20
-82.3679
11
57
21
-82.3595
0
LINE
8
Black
10
57
20
-82.3595
11
57.0481
21
-82.3679
0
LINE
8
Black
10
55.0481
20
-82.3679
11
55.0903
21
-82.3923
0
LINE
8
Black
10
55.0903
20
-82.3923
11
55.1217
21
-82.4297
0
LINE
8
Black
10
55.1217
20
-82.4297
11
55.1384
21
-82.4756
0
LINE
8
Black
10
55.1384
20
-82.4756
11
55.1384
21
-82.5244
0
LINE
8
Black
10
55.1384
20
-82.5244
11
55.1217
21
-82.5703
0
LINE
8
Black
10
55.1217
20
-82.5703
11
55.0903
21
-82.6077
0
LINE
8
Black
10
55.0903
20
-82.6077
11
55.0481
21
-82.6321
0
LINE
8
Black
10
55.0481
20
-82.6321
11
55
21
-82.6405
0
LINE
8
Black
10
55
20
-82.6405
11
54.9519
21
-82.6321
0
LINE
8
Black
10
54.9519
20
-82.6321
11
54.9097
21
-82.6077
0
LINE
8
Black
10
54.9097
20
-82.6077
11
54.8783
21
-82.5703
0
LINE
8
Black
10
54.8783
20
-82.5703
11
54.8616
21
-82.5244
0
LINE
8
Black
10
54.8616
20
-82.5244
11
54.8616
21
-82.4756
0
LINE
8
Black
10
54.8616
20
-82.4756
11
54.8783
21
-82.4297
0
LINE
8
Black
10
54.8783
20
-82.4297
11
54.9097
21
-82.3923
0
LINE
8
Black
10
54.9097
20
-82.3923
11
54.9519
21
-82.3679
0
LINE
8
Black
10
54.9519
20
-82.3679
11
55
21
-82.3595
0
LINE
8
Black
10
55
20
-82.3595
11
55.0481
21
-82.3679
0
LINE
8
Black
10
57.5481
20
-82.3679
11
57.5903
21
-82.3923
0
LINE
8
Black
10
57.5903
20
-82.3923
11
57.6217
21
-82.4297
0
LINE
8
Black
10
57.6217
20
-82.4297
11
57.6384
21
-82.4756
0
LINE
8
Black
10
57.6384
20
-82.4756
11
57.6384
21
-82.5244
0
LINE
8
Black
10
57.6384
20
-82.5244
11
57.6217
21
-82.5703
0
LINE
8
Black
10
57.6217
20
-82.5703
11
57.5903
21
-82.6077
0
LINE
8
Black
10
57.5903
20
-82.6077
11
57.5481
21
-82.6321
0
LINE
8
Black
10
57.5481
20
-82.6321
11
57.5
21
-82.6405
0
LINE
8
Black
10
57.5
20
-82.6405
11
57.4519
21
-82.6321
0
LINE
8
Black
10
57.4519
20
-82.6321
11
57.4097
21
-82.6077
0
LINE
8
Black
10
57.4097
20
-82.6077
11
57.3783
21
-82.5703
0
LINE
8
Black
10
57.3783
20
-82.5703
11
57.3616
21
-82.5244
0
LINE
8
Black
10
57.3616
20
-82.5244
11
57.3616
21
-82.4756
0
LINE
8
Black
10
57.3616
20
-82.4756
11
57.3783
21
-82.4297
0
LINE
8
Black
10
57.3783
20
-82.4297
11
57.4097
21
-82.3923
0
LINE
8
Black
10
57.4097
20
-82.3923
11
57.4519
21
-82.3679
0
LINE
8
Black
10
57.4519
20
-82.3679
11
57.5
21
-82.3595
0
LINE
8
Black
10
57.5
20
-82.3595
11
57.5481
21
-82.3679
0
LINE
8
Black
10
56.5481
20
-82.3679
11
56.5903
21
-82.3923
0
LINE
8
Black
10
56.5903
20
-82.3923
11
56.6217
21
-82.4297
0
LINE
8
Black
10
56.6217
20
-82.4297
11
56.6384
21
-82.4756
0
LINE
8
Black
10
56.6384
20
-82.4756
11
56.6384
21
-82.5244
0
LINE
8
Black
10
56.6384
20
-82.5244
11
56.6217
21
-82.5703
0
LINE
8
Black
10
56.6217
20
-82.5703
11
56.5903
21
-82.6077
0
LINE
8
Black
10
56.5903
20
-82.6077
11
56.5481
21
-82.6321
0
LINE
8
Black
10
56.5481
20
-82.6321
11
56.5
21
-82.6405
0
LINE
8
Black
10
56.5
20
-82.6405
11
56.4519
21
-82.6321
0
LINE
8
Black
10
56.4519
20
-82.6321
11
56.4097
21
-82.6077
0
LINE
8
Black
10
56.4097
20
-82.6077
11
56.3783
21
-82.5703
0
LINE
8
Black
10
56.3783
20
-82.5703
11
56.3616
21
-82.5244
0
LINE
8
Black
10
56.3616
20
-82.5244
11
56.3616
21
-82.4756
0
LINE
8
Black
10
56.3616
20
-82.4756
11
56.3783
21
-82.4297
0
LINE
8
Black
10
56.3783
20
-82.4297
11
56.4097
21
-82.3923
0
LINE
8
Black
10
56.4097
20
-82.3923
11
56.4519
21
-82.3679
0
LINE
8
Black
10
56.4519
20
-82.3679
11
56.5
21
-82.3595
0
LINE
8
Black
10
56.5
20
-82.3595
11
56.5481
21
-82.3679
0
LINE
8
Black
10
58.0481
20
-82.3679
11
58.0903
21
-82.3923
0
LINE
8
Black
10
58.0903
20
-82.3923
11
58.1217
21
-82.4297
0
LINE
8
Black
10
58.1217
20
-82.4297
11
58.1384
21
-82.4756
0
LINE
8
Black
10
58.1384
20
-82.4756
11
58.1384
21
-82.5244
0
LINE
8
Black
10
58.1384
20
-82.5244
11
58.1217
21
-82.5703
0
LINE
8
Black
10
58.1217
20
-82.5703
11
58.0903
21
-82.6077
0
LINE
8
Black
10
58.0903
20
-82.6077
11
58.0481
21
-82.6321
0
LINE
8
Black
10
58.0481
20
-82.6321
11
58
21
-82.6405
0
LINE
8
Black
10
58
20
-82.6405
11
57.9519
21
-82.6321
0
LINE
8
Black
10
57.9519
20
-82.6321
11
57.9097
21
-82.6077
0
LINE
8
Black
10
57.9097
20
-82.6077
11
57.8783
21
-82.5703
0
LINE
8
Black
10
57.8783
20
-82.5703
11
57.8616
21
-82.5244
0
LINE
8
Black
10
57.8616
20
-82.5244
11
57.8616
21
-82.4756
0
LINE
8
Black
10
57.8616
20
-82.4756
11
57.8783
21
-82.4297
0
LINE
8
Black
10
57.8783
20
-82.4297
11
57.9097
21
-82.3923
0
LINE
8
Black
10
57.9097
20
-82.3923
11
57.9519
21
-82.3679
0
LINE
8
Black
10
57.9519
20
-82.3679
11
58
21
-82.3595
0
LINE
8
Black
10
58
20
-82.3595
11
58.0481
21
-82.3679
0
LINE
8
Black
10
56.0481
20
-82.3679
11
56.0903
21
-82.3923
0
LINE
8
Black
10
56.0903
20
-82.3923
11
56.1217
21
-82.4297
0
LINE
8
Black
10
56.1217
20
-82.4297
11
56.1384
21
-82.4756
0
LINE
8
Black
10
56.1384
20
-82.4756
11
56.1384
21
-82.5244
0
LINE
8
Black
10
56.1384
20
-82.5244
11
56.1217
21
-82.5703
0
LINE
8
Black
10
56.1217
20
-82.5703
11
56.0903
21
-82.6077
0
LINE
8
Black
10
56.0903
20
-82.6077
11
56.0481
21
-82.6321
0
LINE
8
Black
10
56.0481
20
-82.6321
11
56
21
-82.6405
0
LINE
8
Black
10
56
20
-82.6405
11
55.9519
21
-82.6321
0
LINE
8
Black
10
55.9519
20
-82.6321
11
55.9097
21
-82.6077
0
LINE
8
Black
10
55.9097
20
-82.6077
11
55.8783
21
-82.5703
0
LINE
8
Black
10
55.8783
20
-82.5703
11
55.8616
21
-82.5244
0
LINE
8
Black
10
55.8616
20
-82.5244
11
55.8616
21
-82.4756
0
LINE
8
Black
10
55.8616
20
-82.4756
11
55.8783
21
-82.4297
0
LINE
8
Black
10
55.8783
20
-82.4297
11
55.9097
21
-82.3923
0
LINE
8
Black
10
55.9097
20
-82.3923
11
55.9519
21
-82.3679
0
LINE
8
Black
10
55.9519
20
-82.3679
11
56
21
-82.3595
0
LINE
8
Black
10
56
20
-82.3595
11
56.0481
21
-82.3679
0
LINE
8
Black
10
54.5481
20
-82.3679
11
54.5903
21
-82.3923
0
LINE
8
Black
10
54.5903
20
-82.3923
11
54.6217
21
-82.4297
0
LINE
8
Black
10
54.6217
20
-82.4297
11
54.6384
21
-82.4756
0
LINE
8
Black
10
54.6384
20
-82.4756
11
54.6384
21
-82.5244
0
LINE
8
Black
10
54.6384
20
-82.5244
11
54.6217
21
-82.5703
0
LINE
8
Black
10
54.6217
20
-82.5703
11
54.5903
21
-82.6077
0
LINE
8
Black
10
54.5903
20
-82.6077
11
54.5481
21
-82.6321
0
LINE
8
Black
10
54.5481
20
-82.6321
11
54.5
21
-82.6405
0
LINE
8
Black
10
54.5
20
-82.6405
11
54.4519
21
-82.6321
0
LINE
8
Black
10
54.4519
20
-82.6321
11
54.4097
21
-82.6077
0
LINE
8
Black
10
54.4097
20
-82.6077
11
54.3783
21
-82.5703
0
LINE
8
Black
10
54.3783
20
-82.5703
11
54.3616
21
-82.5244
0
LINE
8
Black
10
54.3616
20
-82.5244
11
54.3616
21
-82.4756
0
LINE
8
Black
10
54.3616
20
-82.4756
11
54.3783
21
-82.4297
0
LINE
8
Black
10
54.3783
20
-82.4297
11
54.4097
21
-82.3923
0
LINE
8
Black
10
54.4097
20
-82.3923
11
54.4519
21
-82.3679
0
LINE
8
Black
10
54.4519
20
-82.3679
11
54.5
21
-82.3595
0
LINE
8
Black
10
54.5
20
-82.3595
11
54.5481
21
-82.3679
0
LINE
8
Black
10
55.5481
20
-82.3679
11
55.5903
21
-82.3923
0
LINE
8
Black
10
55.5903
20
-82.3923
11
55.6217
21
-82.4297
0
LINE
8
Black
10
55.6217
20
-82.4297
11
55.6384
21
-82.4756
0
LINE
8
Black
10
55.6384
20
-82.4756
11
55.6384
21
-82.5244
0
LINE
8
Black
10
55.6384
20
-82.5244
11
55.6217
21
-82.5703
0
LINE
8
Black
10
55.6217
20
-82.5703
11
55.5903
21
-82.6077
0
LINE
8
Black
10
55.5903
20
-82.6077
11
55.5481
21
-82.6321
0
LINE
8
Black
10
55.5481
20
-82.6321
11
55.5
21
-82.6405
0
LINE
8
Black
10
55.5
20
-82.6405
11
55.4519
21
-82.6321
0
LINE
8
Black
10
55.4519
20
-82.6321
11
55.4097
21
-82.6077
0
LINE
8
Black
10
55.4097
20
-82.6077
11
55.3783
21
-82.5703
0
LINE
8
Black
10
55.3783
20
-82.5703
11
55.3616
21
-82.5244
0
LINE
8
Black
10
55.3616
20
-82.5244
11
55.3616
21
-82.4756
0
LINE
8
Black
10
55.3616
20
-82.4756
11
55.3783
21
-82.4297
0
LINE
8
Black
10
55.3783
20
-82.4297
11
55.4097
21
-82.3923
0
LINE
8
Black
10
55.4097
20
-82.3923
11
55.4519
21
-82.3679
0
LINE
8
Black
10
55.4519
20
-82.3679
11
55.5
21
-82.3595
0
LINE
8
Black
10
55.5
20
-82.3595
11
55.5481
21
-82.3679
0
LINE
8
Black
10
80.45
20
-82.15
11
78.95
21
-82.15
0
LINE
8
Black
10
78.95
20
-82.15
11
78.95
21
-81.85
0
LINE
8
Black
10
78.95
20
-81.85
11
80.45
21
-81.85
0
LINE
8
Black
10
80.45
20
-81.85
11
80.45
21
-82.15
0
LINE
8
Black
10
65.05
20
-82.15
11
63.55
21
-82.15
0
LINE
8
Black
10
63.55
20
-82.15
11
63.55
21
-81.85
0
LINE
8
Black
10
63.55
20
-81.85
11
65.05
21
-81.85
0
LINE
8
Black
10
65.05
20
-81.85
11
65.05
21
-82.15
0
LINE
8
Black
10
58.0481
20
-81.8679
11
58.0903
21
-81.8923
0
LINE
8
Black
10
58.0903
20
-81.8923
11
58.1217
21
-81.9297
0
LINE
8
Black
10
58.1217
20
-81.9297
11
58.1384
21
-81.9756
0
LINE
8
Black
10
58.1384
20
-81.9756
11
58.1384
21
-82.0244
0
LINE
8
Black
10
58.1384
20
-82.0244
11
58.1217
21
-82.0703
0
LINE
8
Black
10
58.1217
20
-82.0703
11
58.0903
21
-82.1077
0
LINE
8
Black
10
58.0903
20
-82.1077
11
58.0481
21
-82.1321
0
LINE
8
Black
10
58.0481
20
-82.1321
11
58
21
-82.1405
0
LINE
8
Black
10
58
20
-82.1405
11
57.9519
21
-82.1321
0
LINE
8
Black
10
57.9519
20
-82.1321
11
57.9097
21
-82.1077
0
LINE
8
Black
10
57.9097
20
-82.1077
11
57.8783
21
-82.0703
0
LINE
8
Black
10
57.8783
20
-82.0703
11
57.8616
21
-82.0244
0
LINE
8
Black
10
57.8616
20
-82.0244
11
57.8616
21
-81.9756
0
LINE
8
Black
10
57.8616
20
-81.9756
11
57.8783
21
-81.9297
0
LINE
8
Black
10
57.8783
20
-81.9297
11
57.9097
21
-81.8923
0
LINE
8
Black
10
57.9097
20
-81.8923
11
57.9519
21
-81.8679
0
LINE
8
Black
10
57.9519
20
-81.8679
11
58
21
-81.8595
0
LINE
8
Black
10
58
20
-81.8595
11
58.0481
21
-81.8679
0
LINE
8
Black
10
55.0481
20
-81.8679
11
55.0903
21
-81.8923
0
LINE
8
Black
10
55.0903
20
-81.8923
11
55.1217
21
-81.9297
0
LINE
8
Black
10
55.1217
20
-81.9297
11
55.1384
21
-81.9756
0
LINE
8
Black
10
55.1384
20
-81.9756
11
55.1384
21
-82.0244
0
LINE
8
Black
10
55.1384
20
-82.0244
11
55.1217
21
-82.0703
0
LINE
8
Black
10
55.1217
20
-82.0703
11
55.0903
21
-82.1077
0
LINE
8
Black
10
55.0903
20
-82.1077
11
55.0481
21
-82.1321
0
LINE
8
Black
10
55.0481
20
-82.1321
11
55
21
-82.1405
0
LINE
8
Black
10
55
20
-82.1405
11
54.9519
21
-82.1321
0
LINE
8
Black
10
54.9519
20
-82.1321
11
54.9097
21
-82.1077
0
LINE
8
Black
10
54.9097
20
-82.1077
11
54.8783
21
-82.0703
0
LINE
8
Black
10
54.8783
20
-82.0703
11
54.8616
21
-82.0244
0
LINE
8
Black
10
54.8616
20
-82.0244
11
54.8616
21
-81.9756
0
LINE
8
Black
10
54.8616
20
-81.9756
11
54.8783
21
-81.9297
0
LINE
8
Black
10
54.8783
20
-81.9297
11
54.9097
21
-81.8923
0
LINE
8
Black
10
54.9097
20
-81.8923
11
54.9519
21
-81.8679
0
LINE
8
Black
10
54.9519
20
-81.8679
11
55
21
-81.8595
0
LINE
8
Black
10
55
20
-81.8595
11
55.0481
21
-81.8679
0
LINE
8
Black
10
54.5481
20
-81.8679
11
54.5903
21
-81.8923
0
LINE
8
Black
10
54.5903
20
-81.8923
11
54.6217
21
-81.9297
0
LINE
8
Black
10
54.6217
20
-81.9297
11
54.6384
21
-81.9756
0
LINE
8
Black
10
54.6384
20
-81.9756
11
54.6384
21
-82.0244
0
LINE
8
Black
10
54.6384
20
-82.0244
11
54.6217
21
-82.0703
0
LINE
8
Black
10
54.6217
20
-82.0703
11
54.5903
21
-82.1077
0
LINE
8
Black
10
54.5903
20
-82.1077
11
54.5481
21
-82.1321
0
LINE
8
Black
10
54.5481
20
-82.1321
11
54.5
21
-82.1405
0
LINE
8
Black
10
54.5
20
-82.1405
11
54.4519
21
-82.1321
0
LINE
8
Black
10
54.4519
20
-82.1321
11
54.4097
21
-82.1077
0
LINE
8
Black
10
54.4097
20
-82.1077
11
54.3783
21
-82.0703
0
LINE
8
Black
10
54.3783
20
-82.0703
11
54.3616
21
-82.0244
0
LINE
8
Black
10
54.3616
20
-82.0244
11
54.3616
21
-81.9756
0
LINE
8
Black
10
54.3616
20
-81.9756
11
54.3783
21
-81.9297
0
LINE
8
Black
10
54.3783
20
-81.9297
11
54.4097
21
-81.8923
0
LINE
8
Black
10
54.4097
20
-81.8923
11
54.4519
21
-81.8679
0
LINE
8
Black
10
54.4519
20
-81.8679
11
54.5
21
-81.8595
0
LINE
8
Black
10
54.5
20
-81.8595
11
54.5481
21
-81.8679
0
LINE
8
Black
10
55.5481
20
-81.8679
11
55.5903
21
-81.8923
0
LINE
8
Black
10
55.5903
20
-81.8923
11
55.6217
21
-81.9297
0
LINE
8
Black
10
55.6217
20
-81.9297
11
55.6384
21
-81.9756
0
LINE
8
Black
10
55.6384
20
-81.9756
11
55.6384
21
-82.0244
0
LINE
8
Black
10
55.6384
20
-82.0244
11
55.6217
21
-82.0703
0
LINE
8
Black
10
55.6217
20
-82.0703
11
55.5903
21
-82.1077
0
LINE
8
Black
10
55.5903
20
-82.1077
11
55.5481
21
-82.1321
0
LINE
8
Black
10
55.5481
20
-82.1321
11
55.5
21
-82.1405
0
LINE
8
Black
10
55.5
20
-82.1405
11
55.4519
21
-82.1321
0
LINE
8
Black
10
55.4519
20
-82.1321
11
55.4097
21
-82.1077
0
LINE
8
Black
10
55.4097
20
-82.1077
11
55.3783
21
-82.0703
0
LINE
8
Black
10
55.3783
20
-82.0703
11
55.3616
21
-82.0244
0
LINE
8
Black
10
55.3616
20
-82.0244
11
55.3616
21
-81.9756
0
LINE
8
Black
10
55.3616
20
-81.9756
11
55.3783
21
-81.9297
0
LINE
8
Black
10
55.3783
20
-81.9297
11
55.4097
21
-81.8923
0
LINE
8
Black
10
55.4097
20
-81.8923
11
55.4519
21
-81.8679
0
LINE
8
Black
10
55.4519
20
-81.8679
11
55.5
21
-81.8595
0
LINE
8
Black
10
55.5
20
-81.8595
11
55.5481
21
-81.8679
0
LINE
8
Black
10
56.0481
20
-81.8679
11
56.0903
21
-81.8923
0
LINE
8
Black
10
56.0903
20
-81.8923
11
56.1217
21
-81.9297
0
LINE
8
Black
10
56.1217
20
-81.9297
11
56.1384
21
-81.9756
0
LINE
8
Black
10
56.1384
20
-81.9756
11
56.1384
21
-82.0244
0
LINE
8
Black
10
56.1384
20
-82.0244
11
56.1217
21
-82.0703
0
LINE
8
Black
10
56.1217
20
-82.0703
11
56.0903
21
-82.1077
0
LINE
8
Black
10
56.0903
20
-82.1077
11
56.0481
21
-82.1321
0
LINE
8
Black
10
56.0481
20
-82.1321
11
56
21
-82.1405
0
LINE
8
Black
10
56
20
-82.1405
11
55.9519
21
-82.1321
0
LINE
8
Black
10
55.9519
20
-82.1321
11
55.9097
21
-82.1077
0
LINE
8
Black
10
55.9097
20
-82.1077
11
55.8783
21
-82.0703
0
LINE
8
Black
10
55.8783
20
-82.0703
11
55.8616
21
-82.0244
0
LINE
8
Black
10
55.8616
20
-82.0244
11
55.8616
21
-81.9756
0
LINE
8
Black
10
55.8616
20
-81.9756
11
55.8783
21
-81.9297
0
LINE
8
Black
10
55.8783
20
-81.9297
11
55.9097
21
-81.8923
0
LINE
8
Black
10
55.9097
20
-81.8923
11
55.9519
21
-81.8679
0
LINE
8
Black
10
55.9519
20
-81.8679
11
56
21
-81.8595
0
LINE
8
Black
10
56
20
-81.8595
11
56.0481
21
-81.8679
0
LINE
8
Black
10
57.5481
20
-81.8679
11
57.5903
21
-81.8923
0
LINE
8
Black
10
57.5903
20
-81.8923
11
57.6217
21
-81.9297
0
LINE
8
Black
10
57.6217
20
-81.9297
11
57.6384
21
-81.9756
0
LINE
8
Black
10
57.6384
20
-81.9756
11
57.6384
21
-82.0244
0
LINE
8
Black
10
57.6384
20
-82.0244
11
57.6217
21
-82.0703
0
LINE
8
Black
10
57.6217
20
-82.0703
11
57.5903
21
-82.1077
0
LINE
8
Black
10
57.5903
20
-82.1077
11
57.5481
21
-82.1321
0
LINE
8
Black
10
57.5481
20
-82.1321
11
57.5
21
-82.1405
0
LINE
8
Black
10
57.5
20
-82.1405
11
57.4519
21
-82.1321
0
LINE
8
Black
10
57.4519
20
-82.1321
11
57.4097
21
-82.1077
0
LINE
8
Black
10
57.4097
20
-82.1077
11
57.3783
21
-82.0703
0
LINE
8
Black
10
57.3783
20
-82.0703
11
57.3616
21
-82.0244
0
LINE
8
Black
10
57.3616
20
-82.0244
11
57.3616
21
-81.9756
0
LINE
8
Black
10
57.3616
20
-81.9756
11
57.3783
21
-81.9297
0
LINE
8
Black
10
57.3783
20
-81.9297
11
57.4097
21
-81.8923
0
LINE
8
Black
10
57.4097
20
-81.8923
11
57.4519
21
-81.8679
0
LINE
8
Black
10
57.4519
20
-81.8679
11
57.5
21
-81.8595
0
LINE
8
Black
10
57.5
20
-81.8595
11
57.5481
21
-81.8679
0
LINE
8
Black
10
56.5481
20
-81.8679
11
56.5903
21
-81.8923
0
LINE
8
Black
10
56.5903
20
-81.8923
11
56.6217
21
-81.9297
0
LINE
8
Black
10
56.6217
20
-81.9297
11
56.6384
21
-81.9756
0
LINE
8
Black
10
56.6384
20
-81.9756
11
56.6384
21
-82.0244
0
LINE
8
Black
10
56.6384
20
-82.0244
11
56.6217
21
-82.0703
0
LINE
8
Black
10
56.6217
20
-82.0703
11
56.5903
21
-82.1077
0
LINE
8
Black
10
56.5903
20
-82.1077
11
56.5481
21
-82.1321
0
LINE
8
Black
10
56.5481
20
-82.1321
11
56.5
21
-82.1405
0
LINE
8
Black
10
56.5
20
-82.1405
11
56.4519
21
-82.1321
0
LINE
8
Black
10
56.4519
20
-82.1321
11
56.4097
21
-82.1077
0
LINE
8
Black
10
56.4097
20
-82.1077
11
56.3783
21
-82.0703
0
LINE
8
Black
10
56.3783
20
-82.0703
11
56.3616
21
-82.0244
0
LINE
8
Black
10
56.3616
20
-82.0244
11
56.3616
21
-81.9756
0
LINE
8
Black
10
56.3616
20
-81.9756
11
56.3783
21
-81.9297
0
LINE
8
Black
10
56.3783
20
-81.9297
11
56.4097
21
-81.8923
0
LINE
8
Black
10
56.4097
20
-81.8923
11
56.4519
21
-81.8679
0
LINE
8
Black
10
56.4519
20
-81.8679
11
56.5
21
-81.8595
0
LINE
8
Black
10
56.5
20
-81.8595
11
56.5481
21
-81.8679
0
LINE
8
Black
10
57.0481
20
-81.8679
11
57.0903
21
-81.8923
0
LINE
8
Black
10
57.0903
20
-81.8923
11
57.1217
21
-81.9297
0
LINE
8
Black
10
57.1217
20
-81.9297
11
57.1384
21
-81.9756
0
LINE
8
Black
10
57.1384
20
-81.9756
11
57.1384
21
-82.0244
0
LINE
8
Black
10
57.1384
20
-82.0244
11
57.1217
21
-82.0703
0
LINE
8
Black
10
57.1217
20
-82.0703
11
57.0903
21
-82.1077
0
LINE
8
Black
10
57.0903
20
-82.1077
11
57.0481
21
-82.1321
0
LINE
8
Black
10
57.0481
20
-82.1321
11
57
21
-82.1405
0
LINE
8
Black
10
57
20
-82.1405
11
56.9519
21
-82.1321
0
LINE
8
Black
10
56.9519
20
-82.1321
11
56.9097
21
-82.1077
0
LINE
8
Black
10
56.9097
20
-82.1077
11
56.8783
21
-82.0703
0
LINE
8
Black
10
56.8783
20
-82.0703
11
56.8616
21
-82.0244
0
LINE
8
Black
10
56.8616
20
-82.0244
11
56.8616
21
-81.9756
0
LINE
8
Black
10
56.8616
20
-81.9756
11
56.8783
21
-81.9297
0
LINE
8
Black
10
56.8783
20
-81.9297
11
56.9097
21
-81.8923
0
LINE
8
Black
10
56.9097
20
-81.8923
11
56.9519
21
-81.8679
0
LINE
8
Black
10
56.9519
20
-81.8679
11
57
21
-81.8595
0
LINE
8
Black
10
57
20
-81.8595
11
57.0481
21
-81.8679
0
LINE
8
Black
10
52.76
20
-81.96
11
52.24
21
-81.96
0
LINE
8
Black
10
52.24
20
-81.96
11
52.24
21
-81.44
0
LINE
8
Black
10
52.24
20
-81.44
11
52.76
21
-81.44
0
LINE
8
Black
10
52.76
20
-81.44
11
52.76
21
-81.96
0
LINE
8
Black
10
84.15
20
-81.95
11
83.85
21
-81.95
0
LINE
8
Black
10
83.85
20
-81.95
11
83.85
21
-80.45
0
LINE
8
Black
10
83.85
20
-80.45
11
84.15
21
-80.45
0
LINE
8
Black
10
84.15
20
-80.45
11
84.15
21
-81.95
0
LINE
8
Black
10
83.65
20
-81.95
11
83.35
21
-81.95
0
LINE
8
Black
10
83.35
20
-81.95
11
83.35
21
-80.45
0
LINE
8
Black
10
83.35
20
-80.45
11
83.65
21
-80.45
0
LINE
8
Black
10
83.65
20
-80.45
11
83.65
21
-81.95
0
LINE
8
Black
10
84.65
20
-81.95
11
84.35
21
-81.95
0
LINE
8
Black
10
84.35
20
-81.95
11
84.35
21
-80.45
0
LINE
8
Black
10
84.35
20
-80.45
11
84.65
21
-80.45
0
LINE
8
Black
10
84.65
20
-80.45
11
84.65
21
-81.95
0
LINE
8
Black
10
85.15
20
-81.95
11
84.85
21
-81.95
0
LINE
8
Black
10
84.85
20
-81.95
11
84.85
21
-80.45
0
LINE
8
Black
10
84.85
20
-80.45
11
85.15
21
-80.45
0
LINE
8
Black
10
85.15
20
-80.45
11
85.15
21
-81.95
0
LINE
8
Black
10
85.65
20
-81.95
11
85.35
21
-81.95
0
LINE
8
Black
10
85.35
20
-81.95
11
85.35
21
-80.45
0
LINE
8
Black
10
85.35
20
-80.45
11
85.65
21
-80.45
0
LINE
8
Black
10
85.65
20
-80.45
11
85.65
21
-81.95
0
LINE
8
Black
10
86.15
20
-81.95
11
85.85
21
-81.95
0
LINE
8
Black
10
85.85
20
-81.95
11
85.85
21
-80.45
0
LINE
8
Black
10
85.85
20
-80.45
11
86.15
21
-80.45
0
LINE
8
Black
10
86.15
20
-80.45
11
86.15
21
-81.95
0
LINE
8
Black
10
86.65
20
-81.95
11
86.35
21
-81.95
0
LINE
8
Black
10
86.35
20
-81.95
11
86.35
21
-80.45
0
LINE
8
Black
10
86.35
20
-80.45
11
86.65
21
-80.45
0
LINE
8
Black
10
86.65
20
-80.45
11
86.65
21
-81.95
0
LINE
8
Black
10
87.15
20
-81.95
11
86.85
21
-81.95
0
LINE
8
Black
10
86.85
20
-81.95
11
86.85
21
-80.45
0
LINE
8
Black
10
86.85
20
-80.45
11
87.15
21
-80.45
0
LINE
8
Black
10
87.15
20
-80.45
11
87.15
21
-81.95
0
LINE
8
Black
10
87.65
20
-81.95
11
87.35
21
-81.95
0
LINE
8
Black
10
87.35
20
-81.95
11
87.35
21
-80.45
0
LINE
8
Black
10
87.35
20
-80.45
11
87.65
21
-80.45
0
LINE
8
Black
10
87.65
20
-80.45
11
87.65
21
-81.95
0
LINE
8
Black
10
88.65
20
-81.95
11
88.35
21
-81.95
0
LINE
8
Black
10
88.35
20
-81.95
11
88.35
21
-80.45
0
LINE
8
Black
10
88.35
20
-80.45
11
88.65
21
-80.45
0
LINE
8
Black
10
88.65
20
-80.45
11
88.65
21
-81.95
0
LINE
8
Black
10
89.15
20
-81.95
11
88.85
21
-81.95
0
LINE
8
Black
10
88.85
20
-81.95
11
88.85
21
-80.45
0
LINE
8
Black
10
88.85
20
-80.45
11
89.15
21
-80.45
0
LINE
8
Black
10
89.15
20
-80.45
11
89.15
21
-81.95
0
LINE
8
Black
10
88.15
20
-81.95
11
87.85
21
-81.95
0
LINE
8
Black
10
87.85
20
-81.95
11
87.85
21
-80.45
0
LINE
8
Black
10
87.85
20
-80.45
11
88.15
21
-80.45
0
LINE
8
Black
10
88.15
20
-80.45
11
88.15
21
-81.95
0
LINE
8
Black
10
51.95
20
-81.675
11
51.05
21
-81.675
0
LINE
8
Black
10
51.05
20
-81.675
11
51.05
21
-80.925
0
LINE
8
Black
10
51.05
20
-80.925
11
51.95
21
-80.925
0
LINE
8
Black
10
51.95
20
-80.925
11
51.95
21
-81.675
0
LINE
8
Black
10
80.45
20
-81.65
11
78.95
21
-81.65
0
LINE
8
Black
10
78.95
20
-81.65
11
78.95
21
-81.35
0
LINE
8
Black
10
78.95
20
-81.35
11
80.45
21
-81.35
0
LINE
8
Black
10
80.45
20
-81.35
11
80.45
21
-81.65
0
LINE
8
Black
10
65.05
20
-81.65
11
63.55
21
-81.65
0
LINE
8
Black
10
63.55
20
-81.65
11
63.55
21
-81.35
0
LINE
8
Black
10
63.55
20
-81.35
11
65.05
21
-81.35
0
LINE
8
Black
10
65.05
20
-81.35
11
65.05
21
-81.65
0
LINE
8
Black
10
80.45
20
-81.15
11
78.95
21
-81.15
0
LINE
8
Black
10
78.95
20
-81.15
11
78.95
21
-80.85
0
LINE
8
Black
10
78.95
20
-80.85
11
80.45
21
-80.85
0
LINE
8
Black
10
80.45
20
-80.85
11
80.45
21
-81.15
0
LINE
8
Black
10
65.05
20
-81.15
11
63.55
21
-81.15
0
LINE
8
Black
10
63.55
20
-81.15
11
63.55
21
-80.85
0
LINE
8
Black
10
63.55
20
-80.85
11
65.05
21
-80.85
0
LINE
8
Black
10
65.05
20
-80.85
11
65.05
21
-81.15
0
LINE
8
Black
10
80.45
20
-80.65
11
78.95
21
-80.65
0
LINE
8
Black
10
78.95
20
-80.65
11
78.95
21
-80.35
0
LINE
8
Black
10
78.95
20
-80.35
11
80.45
21
-80.35
0
LINE
8
Black
10
80.45
20
-80.35
11
80.45
21
-80.65
0
LINE
8
Black
10
65.05
20
-80.65
11
63.55
21
-80.65
0
LINE
8
Black
10
63.55
20
-80.65
11
63.55
21
-80.35
0
LINE
8
Black
10
63.55
20
-80.35
11
65.05
21
-80.35
0
LINE
8
Black
10
65.05
20
-80.35
11
65.05
21
-80.65
0
LINE
8
Black
10
80.45
20
-80.15
11
78.95
21
-80.15
0
LINE
8
Black
10
78.95
20
-80.15
11
78.95
21
-79.85
0
LINE
8
Black
10
78.95
20
-79.85
11
80.45
21
-79.85
0
LINE
8
Black
10
80.45
20
-79.85
11
80.45
21
-80.15
0
LINE
8
Black
10
65.05
20
-80.15
11
63.55
21
-80.15
0
LINE
8
Black
10
63.55
20
-80.15
11
63.55
21
-79.85
0
LINE
8
Black
10
63.55
20
-79.85
11
65.05
21
-79.85
0
LINE
8
Black
10
65.05
20
-79.85
11
65.05
21
-80.15
0
LINE
8
Black
10
82.8
20
-79.9
11
81.3
21
-79.9
0
LINE
8
Black
10
81.3
20
-79.9
11
81.3
21
-79.6
0
LINE
8
Black
10
81.3
20
-79.6
11
82.8
21
-79.6
0
LINE
8
Black
10
82.8
20
-79.6
11
82.8
21
-79.9
0
LINE
8
Black
10
91.2
20
-79.9
11
89.7
21
-79.9
0
LINE
8
Black
10
89.7
20
-79.9
11
89.7
21
-79.6
0
LINE
8
Black
10
89.7
20
-79.6
11
91.2
21
-79.6
0
LINE
8
Black
10
91.2
20
-79.6
11
91.2
21
-79.9
0
LINE
8
Black
10
65.05
20
-79.65
11
63.55
21
-79.65
0
LINE
8
Black
10
63.55
20
-79.65
11
63.55
21
-79.35
0
LINE
8
Black
10
63.55
20
-79.35
11
65.05
21
-79.35
0
LINE
8
Black
10
65.05
20
-79.35
11
65.05
21
-79.65
0
LINE
8
Black
10
80.45
20
-79.65
11
78.95
21
-79.65
0
LINE
8
Black
10
78.95
20
-79.65
11
78.95
21
-79.35
0
LINE
8
Black
10
78.95
20
-79.35
11
80.45
21
-79.35
0
LINE
8
Black
10
80.45
20
-79.35
11
80.45
21
-79.65
0
LINE
8
Black
10
95.15
20
-79.4
11
94.85
21
-79.4
0
LINE
8
Black
10
94.85
20
-79.4
11
94.85
21
-78.85
0
LINE
8
Black
10
94.85
20
-78.85
11
95.15
21
-78.85
0
LINE
8
Black
10
95.15
20
-78.85
11
95.15
21
-79.4
0
LINE
8
Black
10
93.15
20
-79.4
11
92.85
21
-79.4
0
LINE
8
Black
10
92.85
20
-79.4
11
92.85
21
-78.85
0
LINE
8
Black
10
92.85
20
-78.85
11
93.15
21
-78.85
0
LINE
8
Black
10
93.15
20
-78.85
11
93.15
21
-79.4
0
LINE
8
Black
10
98.15
20
-79.4
11
97.85
21
-79.4
0
LINE
8
Black
10
97.85
20
-79.4
11
97.85
21
-78.85
0
LINE
8
Black
10
97.85
20
-78.85
11
98.15
21
-78.85
0
LINE
8
Black
10
98.15
20
-78.85
11
98.15
21
-79.4
0
LINE
8
Black
10
98.65
20
-79.4
11
98.35
21
-79.4
0
LINE
8
Black
10
98.35
20
-79.4
11
98.35
21
-78.85
0
LINE
8
Black
10
98.35
20
-78.85
11
98.65
21
-78.85
0
LINE
8
Black
10
98.65
20
-78.85
11
98.65
21
-79.4
0
LINE
8
Black
10
93.65
20
-79.4
11
93.35
21
-79.4
0
LINE
8
Black
10
93.35
20
-79.4
11
93.35
21
-78.85
0
LINE
8
Black
10
93.35
20
-78.85
11
93.65
21
-78.85
0
LINE
8
Black
10
93.65
20
-78.85
11
93.65
21
-79.4
0
LINE
8
Black
10
94.15
20
-79.4
11
93.85
21
-79.4
0
LINE
8
Black
10
93.85
20
-79.4
11
93.85
21
-78.85
0
LINE
8
Black
10
93.85
20
-78.85
11
94.15
21
-78.85
0
LINE
8
Black
10
94.15
20
-78.85
11
94.15
21
-79.4
0
LINE
8
Black
10
91.2
20
-79.4
11
89.7
21
-79.4
0
LINE
8
Black
10
89.7
20
-79.4
11
89.7
21
-79.1
0
LINE
8
Black
10
89.7
20
-79.1
11
91.2
21
-79.1
0
LINE
8
Black
10
91.2
20
-79.1
11
91.2
21
-79.4
0
LINE
8
Black
10
94.65
20
-79.4
11
94.35
21
-79.4
0
LINE
8
Black
10
94.35
20
-79.4
11
94.35
21
-78.85
0
LINE
8
Black
10
94.35
20
-78.85
11
94.65
21
-78.85
0
LINE
8
Black
10
94.65
20
-78.85
11
94.65
21
-79.4
0
LINE
8
Black
10
95.65
20
-79.4
11
95.35
21
-79.4
0
LINE
8
Black
10
95.35
20
-79.4
11
95.35
21
-78.85
0
LINE
8
Black
10
95.35
20
-78.85
11
95.65
21
-78.85
0
LINE
8
Black
10
95.65
20
-78.85
11
95.65
21
-79.4
0
LINE
8
Black
10
96.15
20
-79.4
11
95.85
21
-79.4
0
LINE
8
Black
10
95.85
20
-79.4
11
95.85
21
-78.85
0
LINE
8
Black
10
95.85
20
-78.85
11
96.15
21
-78.85
0
LINE
8
Black
10
96.15
20
-78.85
11
96.15
21
-79.4
0
LINE
8
Black
10
82.8
20
-79.4
11
81.3
21
-79.4
0
LINE
8
Black
10
81.3
20
-79.4
11
81.3
21
-79.1
0
LINE
8
Black
10
81.3
20
-79.1
11
82.8
21
-79.1
0
LINE
8
Black
10
82.8
20
-79.1
11
82.8
21
-79.4
0
LINE
8
Black
10
96.65
20
-79.4
11
96.35
21
-79.4
0
LINE
8
Black
10
96.35
20
-79.4
11
96.35
21
-78.85
0
LINE
8
Black
10
96.35
20
-78.85
11
96.65
21
-78.85
0
LINE
8
Black
10
96.65
20
-78.85
11
96.65
21
-79.4
0
LINE
8
Black
10
97.15
20
-79.4
11
96.85
21
-79.4
0
LINE
8
Black
10
96.85
20
-79.4
11
96.85
21
-78.85
0
LINE
8
Black
10
96.85
20
-78.85
11
97.15
21
-78.85
0
LINE
8
Black
10
97.15
20
-78.85
11
97.15
21
-79.4
0
LINE
8
Black
10
97.65
20
-79.4
11
97.35
21
-79.4
0
LINE
8
Black
10
97.35
20
-79.4
11
97.35
21
-78.85
0
LINE
8
Black
10
97.35
20
-78.85
11
97.65
21
-78.85
0
LINE
8
Black
10
97.65
20
-78.85
11
97.65
21
-79.4
0
LINE
8
Black
10
80.45
20
-79.15
11
78.95
21
-79.15
0
LINE
8
Black
10
78.95
20
-79.15
11
78.95
21
-78.85
0
LINE
8
Black
10
78.95
20
-78.85
11
80.45
21
-78.85
0
LINE
8
Black
10
80.45
20
-78.85
11
80.45
21
-79.15
0
LINE
8
Black
10
65.05
20
-79.15
11
63.55
21
-79.15
0
LINE
8
Black
10
63.55
20
-79.15
11
63.55
21
-78.85
0
LINE
8
Black
10
63.55
20
-78.85
11
65.05
21
-78.85
0
LINE
8
Black
10
65.05
20
-78.85
11
65.05
21
-79.15
0
LINE
8
Black
10
91.2
20
-78.9
11
89.7
21
-78.9
0
LINE
8
Black
10
89.7
20
-78.9
11
89.7
21
-78.6
0
LINE
8
Black
10
89.7
20
-78.6
11
91.2
21
-78.6
0
LINE
8
Black
10
91.2
20
-78.6
11
91.2
21
-78.9
0
LINE
8
Black
10
82.8
20
-78.9
11
81.3
21
-78.9
0
LINE
8
Black
10
81.3
20
-78.9
11
81.3
21
-78.6
0
LINE
8
Black
10
81.3
20
-78.6
11
82.8
21
-78.6
0
LINE
8
Black
10
82.8
20
-78.6
11
82.8
21
-78.9
0
LINE
8
Black
10
92.65
20
-78.65
11
92.1
21
-78.65
0
LINE
8
Black
10
92.1
20
-78.65
11
92.1
21
-78.35
0
LINE
8
Black
10
92.1
20
-78.35
11
92.65
21
-78.35
0
LINE
8
Black
10
92.65
20
-78.35
11
92.65
21
-78.65
0
LINE
8
Black
10
80.45
20
-78.65
11
78.95
21
-78.65
0
LINE
8
Black
10
78.95
20
-78.65
11
78.95
21
-78.35
0
LINE
8
Black
10
78.95
20
-78.35
11
80.45
21
-78.35
0
LINE
8
Black
10
80.45
20
-78.35
11
80.45
21
-78.65
0
LINE
8
Black
10
99.4
20
-78.65
11
98.85
21
-78.65
0
LINE
8
Black
10
98.85
20
-78.65
11
98.85
21
-78.35
0
LINE
8
Black
10
98.85
20
-78.35
11
99.4
21
-78.35
0
LINE
8
Black
10
99.4
20
-78.35
11
99.4
21
-78.65
0
LINE
8
Black
10
65.05
20
-78.65
11
63.55
21
-78.65
0
LINE
8
Black
10
63.55
20
-78.65
11
63.55
21
-78.35
0
LINE
8
Black
10
63.55
20
-78.35
11
65.05
21
-78.35
0
LINE
8
Black
10
65.05
20
-78.35
11
65.05
21
-78.65
0
LINE
8
Black
10
91.2
20
-78.4
11
89.7
21
-78.4
0
LINE
8
Black
10
89.7
20
-78.4
11
89.7
21
-78.1
0
LINE
8
Black
10
89.7
20
-78.1
11
91.2
21
-78.1
0
LINE
8
Black
10
91.2
20
-78.1
11
91.2
21
-78.4
0
LINE
8
Black
10
82.8
20
-78.4
11
81.3
21
-78.4
0
LINE
8
Black
10
81.3
20
-78.4
11
81.3
21
-78.1
0
LINE
8
Black
10
81.3
20
-78.1
11
82.8
21
-78.1
0
LINE
8
Black
10
82.8
20
-78.1
11
82.8
21
-78.4
0
LINE
8
Black
10
99.4
20
-78.15
11
98.85
21
-78.15
0
LINE
8
Black
10
98.85
20
-78.15
11
98.85
21
-77.85
0
LINE
8
Black
10
98.85
20
-77.85
11
99.4
21
-77.85
0
LINE
8
Black
10
99.4
20
-77.85
11
99.4
21
-78.15
0
LINE
8
Black
10
92.65
20
-78.15
11
92.1
21
-78.15
0
LINE
8
Black
10
92.1
20
-78.15
11
92.1
21
-77.85
0
LINE
8
Black
10
92.1
20
-77.85
11
92.65
21
-77.85
0
LINE
8
Black
10
92.65
20
-77.85
11
92.65
21
-78.15
0
LINE
8
Black
10
80.45
20
-78.15
11
78.95
21
-78.15
0
LINE
8
Black
10
78.95
20
-78.15
11
78.95
21
-77.85
0
LINE
8
Black
10
78.95
20
-77.85
11
80.45
21
-77.85
0
LINE
8
Black
10
80.45
20
-77.85
11
80.45
21
-78.15
0
LINE
8
Black
10
65.05
20
-78.15
11
63.55
21
-78.15
0
LINE
8
Black
10
63.55
20
-78.15
11
63.55
21
-77.85
0
LINE
8
Black
10
63.55
20
-77.85
11
65.05
21
-77.85
0
LINE
8
Black
10
65.05
20
-77.85
11
65.05
21
-78.15
0
LINE
8
Black
10
95.501
20
-78.001
11
93.499
21
-78.001
0
LINE
8
Black
10
93.499
20
-78.001
11
93.499
21
-75.999
0
LINE
8
Black
10
93.499
20
-75.999
11
95.501
21
-75.999
0
LINE
8
Black
10
95.501
20
-75.999
11
95.501
21
-78.001
0
LINE
8
Black
10
98.001
20
-78.001
11
95.999
21
-78.001
0
LINE
8
Black
10
95.999
20
-78.001
11
95.999
21
-75.999
0
LINE
8
Black
10
95.999
20
-75.999
11
98.001
21
-75.999
0
LINE
8
Black
10
98.001
20
-75.999
11
98.001
21
-78.001
0
LINE
8
Black
10
91.2
20
-77.9
11
89.7
21
-77.9
0
LINE
8
Black
10
89.7
20
-77.9
11
89.7
21
-77.6
0
LINE
8
Black
10
89.7
20
-77.6
11
91.2
21
-77.6
0
LINE
8
Black
10
91.2
20
-77.6
11
91.2
21
-77.9
0
LINE
8
Black
10
82.8
20
-77.9
11
81.3
21
-77.9
0
LINE
8
Black
10
81.3
20
-77.9
11
81.3
21
-77.6
0
LINE
8
Black
10
81.3
20
-77.6
11
82.8
21
-77.6
0
LINE
8
Black
10
82.8
20
-77.6
11
82.8
21
-77.9
0
LINE
8
Black
10
92.65
20
-77.65
11
92.1
21
-77.65
0
LINE
8
Black
10
92.1
20
-77.65
11
92.1
21
-77.35
0
LINE
8
Black
10
92.1
20
-77.35
11
92.65
21
-77.35
0
LINE
8
Black
10
92.65
20
-77.35
11
92.65
21
-77.65
0
LINE
8
Black
10
80.45
20
-77.65
11
78.95
21
-77.65
0
LINE
8
Black
10
78.95
20
-77.65
11
78.95
21
-77.35
0
LINE
8
Black
10
78.95
20
-77.35
11
80.45
21
-77.35
0
LINE
8
Black
10
80.45
20
-77.35
11
80.45
21
-77.65
0
LINE
8
Black
10
65.05
20
-77.65
11
63.55
21
-77.65
0
LINE
8
Black
10
63.55
20
-77.65
11
63.55
21
-77.35
0
LINE
8
Black
10
63.55
20
-77.35
11
65.05
21
-77.35
0
LINE
8
Black
10
65.05
20
-77.35
11
65.05
21
-77.65
0
LINE
8
Black
10
99.4
20
-77.65
11
98.85
21
-77.65
0
LINE
8
Black
10
98.85
20
-77.65
11
98.85
21
-77.35
0
LINE
8
Black
10
98.85
20
-77.35
11
99.4
21
-77.35
0
LINE
8
Black
10
99.4
20
-77.35
11
99.4
21
-77.65
0
LINE
8
Black
10
91.2
20
-77.4
11
89.7
21
-77.4
0
LINE
8
Black
10
89.7
20
-77.4
11
89.7
21
-77.1
0
LINE
8
Black
10
89.7
20
-77.1
11
91.2
21
-77.1
0
LINE
8
Black
10
91.2
20
-77.1
11
91.2
21
-77.4
0
LINE
8
Black
10
82.8
20
-77.4
11
81.3
21
-77.4
0
LINE
8
Black
10
81.3
20
-77.4
11
81.3
21
-77.1
0
LINE
8
Black
10
81.3
20
-77.1
11
82.8
21
-77.1
0
LINE
8
Black
10
82.8
20
-77.1
11
82.8
21
-77.4
0
LINE
8
Black
10
92.65
20
-77.15
11
92.1
21
-77.15
0
LINE
8
Black
10
92.1
20
-77.15
11
92.1
21
-76.85
0
LINE
8
Black
10
92.1
20
-76.85
11
92.65
21
-76.85
0
LINE
8
Black
10
92.65
20
-76.85
11
92.65
21
-77.15
0
LINE
8
Black
10
80.45
20
-77.15
11
78.95
21
-77.15
0
LINE
8
Black
10
78.95
20
-77.15
11
78.95
21
-76.85
0
LINE
8
Black
10
78.95
20
-76.85
11
80.45
21
-76.85
0
LINE
8
Black
10
80.45
20
-76.85
11
80.45
21
-77.15
0
LINE
8
Black
10
65.05
20
-77.15
11
63.55
21
-77.15
0
LINE
8
Black
10
63.55
20
-77.15
11
63.55
21
-76.85
0
LINE
8
Black
10
63.55
20
-76.85
11
65.05
21
-76.85
0
LINE
8
Black
10
65.05
20
-76.85
11
65.05
21
-77.15
0
LINE
8
Black
10
99.4
20
-77.15
11
98.85
21
-77.15
0
LINE
8
Black
10
98.85
20
-77.15
11
98.85
21
-76.85
0
LINE
8
Black
10
98.85
20
-76.85
11
99.4
21
-76.85
0
LINE
8
Black
10
99.4
20
-76.85
11
99.4
21
-77.15
0
LINE
8
Black
10
82.8
20
-76.9
11
81.3
21
-76.9
0
LINE
8
Black
10
81.3
20
-76.9
11
81.3
21
-76.6
0
LINE
8
Black
10
81.3
20
-76.6
11
82.8
21
-76.6
0
LINE
8
Black
10
82.8
20
-76.6
11
82.8
21
-76.9
0
LINE
8
Black
10
91.2
20
-76.9
11
89.7
21
-76.9
0
LINE
8
Black
10
89.7
20
-76.9
11
89.7
21
-76.6
0
LINE
8
Black
10
89.7
20
-76.6
11
91.2
21
-76.6
0
LINE
8
Black
10
91.2
20
-76.6
11
91.2
21
-76.9
0
LINE
8
Black
10
99.4
20
-76.65
11
98.85
21
-76.65
0
LINE
8
Black
10
98.85
20
-76.65
11
98.85
21
-76.35
0
LINE
8
Black
10
98.85
20
-76.35
11
99.4
21
-76.35
0
LINE
8
Black
10
99.4
20
-76.35
11
99.4
21
-76.65
0
LINE
8
Black
10
65.05
20
-76.65
11
63.55
21
-76.65
0
LINE
8
Black
10
63.55
20
-76.65
11
63.55
21
-76.35
0
LINE
8
Black
10
63.55
20
-76.35
11
65.05
21
-76.35
0
LINE
8
Black
10
65.05
20
-76.35
11
65.05
21
-76.65
0
LINE
8
Black
10
92.65
20
-76.65
11
92.1
21
-76.65
0
LINE
8
Black
10
92.1
20
-76.65
11
92.1
21
-76.35
0
LINE
8
Black
10
92.1
20
-76.35
11
92.65
21
-76.35
0
LINE
8
Black
10
92.65
20
-76.35
11
92.65
21
-76.65
0
LINE
8
Black
10
80.45
20
-76.65
11
78.95
21
-76.65
0
LINE
8
Black
10
78.95
20
-76.65
11
78.95
21
-76.35
0
LINE
8
Black
10
78.95
20
-76.35
11
80.45
21
-76.35
0
LINE
8
Black
10
80.45
20
-76.35
11
80.45
21
-76.65
0
LINE
8
Black
10
82.8
20
-76.4
11
81.3
21
-76.4
0
LINE
8
Black
10
81.3
20
-76.4
11
81.3
21
-76.1
0
LINE
8
Black
10
81.3
20
-76.1
11
82.8
21
-76.1
0
LINE
8
Black
10
82.8
20
-76.1
11
82.8
21
-76.4
0
LINE
8
Black
10
91.2
20
-76.4
11
89.7
21
-76.4
0
LINE
8
Black
10
89.7
20
-76.4
11
89.7
21
-76.1
0
LINE
8
Black
10
89.7
20
-76.1
11
91.2
21
-76.1
0
LINE
8
Black
10
91.2
20
-76.1
11
91.2
21
-76.4
0
LINE
8
Black
10
99.4
20
-76.15
11
98.85
21
-76.15
0
LINE
8
Black
10
98.85
20
-76.15
11
98.85
21
-75.85
0
LINE
8
Black
10
98.85
20
-75.85
11
99.4
21
-75.85
0
LINE
8
Black
10
99.4
20
-75.85
11
99.4
21
-76.15
0
LINE
8
Black
10
92.65
20
-76.15
11
92.1
21
-76.15
0
LINE
8
Black
10
92.1
20
-76.15
11
92.1
21
-75.85
0
LINE
8
Black
10
92.1
20
-75.85
11
92.65
21
-75.85
0
LINE
8
Black
10
92.65
20
-75.85
11
92.65
21
-76.15
0
LINE
8
Black
10
65.05
20
-76.15
11
63.55
21
-76.15
0
LINE
8
Black
10
63.55
20
-76.15
11
63.55
21
-75.85
0
LINE
8
Black
10
63.55
20
-75.85
11
65.05
21
-75.85
0
LINE
8
Black
10
65.05
20
-75.85
11
65.05
21
-76.15
0
LINE
8
Black
10
80.45
20
-76.15
11
78.95
21
-76.15
0
LINE
8
Black
10
78.95
20
-76.15
11
78.95
21
-75.85
0
LINE
8
Black
10
78.95
20
-75.85
11
80.45
21
-75.85
0
LINE
8
Black
10
80.45
20
-75.85
11
80.45
21
-76.15
0
LINE
8
Black
10
82.8
20
-75.9
11
81.3
21
-75.9
0
LINE
8
Black
10
81.3
20
-75.9
11
81.3
21
-75.6
0
LINE
8
Black
10
81.3
20
-75.6
11
82.8
21
-75.6
0
LINE
8
Black
10
82.8
20
-75.6
11
82.8
21
-75.9
0
LINE
8
Black
10
91.2
20
-75.9
11
89.7
21
-75.9
0
LINE
8
Black
10
89.7
20
-75.9
11
89.7
21
-75.6
0
LINE
8
Black
10
89.7
20
-75.6
11
91.2
21
-75.6
0
LINE
8
Black
10
91.2
20
-75.6
11
91.2
21
-75.9
0
LINE
8
Black
10
80.45
20
-75.65
11
78.95
21
-75.65
0
LINE
8
Black
10
78.95
20
-75.65
11
78.95
21
-75.35
0
LINE
8
Black
10
78.95
20
-75.35
11
80.45
21
-75.35
0
LINE
8
Black
10
80.45
20
-75.35
11
80.45
21
-75.65
0
LINE
8
Black
10
65.05
20
-75.65
11
63.55
21
-75.65
0
LINE
8
Black
10
63.55
20
-75.65
11
63.55
21
-75.35
0
LINE
8
Black
10
63.55
20
-75.35
11
65.05
21
-75.35
0
LINE
8
Black
10
65.05
20
-75.35
11
65.05
21
-75.65
0
LINE
8
Black
10
92.65
20
-75.65
11
92.1
21
-75.65
0
LINE
8
Black
10
92.1
20
-75.65
11
92.1
21
-75.35
0
LINE
8
Black
10
92.1
20
-75.35
11
92.65
21
-75.35
0
LINE
8
Black
10
92.65
20
-75.35
11
92.65
21
-75.65
0
LINE
8
Black
10
99.4
20
-75.65
11
98.85
21
-75.65
0
LINE
8
Black
10
98.85
20
-75.65
11
98.85
21
-75.35
0
LINE
8
Black
10
98.85
20
-75.35
11
99.4
21
-75.35
0
LINE
8
Black
10
99.4
20
-75.35
11
99.4
21
-75.65
0
LINE
8
Black
10
98.001
20
-75.501
11
95.999
21
-75.501
0
LINE
8
Black
10
95.999
20
-75.501
11
95.999
21
-73.499
0
LINE
8
Black
10
95.999
20
-73.499
11
98.001
21
-73.499
0
LINE
8
Black
10
98.001
20
-73.499
11
98.001
21
-75.501
0
LINE
8
Black
10
95.501
20
-75.501
11
93.499
21
-75.501
0
LINE
8
Black
10
93.499
20
-75.501
11
93.499
21
-73.499
0
LINE
8
Black
10
93.499
20
-73.499
11
95.501
21
-73.499
0
LINE
8
Black
10
95.501
20
-73.499
11
95.501
21
-75.501
0
LINE
8
Black
10
82.8
20
-75.4
11
81.3
21
-75.4
0
LINE
8
Black
10
81.3
20
-75.4
11
81.3
21
-75.1
0
LINE
8
Black
10
81.3
20
-75.1
11
82.8
21
-75.1
0
LINE
8
Black
10
82.8
20
-75.1
11
82.8
21
-75.4
0
LINE
8
Black
10
91.2
20
-75.4
11
89.7
21
-75.4
0
LINE
8
Black
10
89.7
20
-75.4
11
89.7
21
-75.1
0
LINE
8
Black
10
89.7
20
-75.1
11
91.2
21
-75.1
0
LINE
8
Black
10
91.2
20
-75.1
11
91.2
21
-75.4
0
LINE
8
Black
10
99.4
20
-75.15
11
98.85
21
-75.15
0
LINE
8
Black
10
98.85
20
-75.15
11
98.85
21
-74.85
0
LINE
8
Black
10
98.85
20
-74.85
11
99.4
21
-74.85
0
LINE
8
Black
10
99.4
20
-74.85
11
99.4
21
-75.15
0
LINE
8
Black
10
92.65
20
-75.15
11
92.1
21
-75.15
0
LINE
8
Black
10
92.1
20
-75.15
11
92.1
21
-74.85
0
LINE
8
Black
10
92.1
20
-74.85
11
92.65
21
-74.85
0
LINE
8
Black
10
92.65
20
-74.85
11
92.65
21
-75.15
0
LINE
8
Black
10
91.2
20
-74.9
11
89.7
21
-74.9
0
LINE
8
Black
10
89.7
20
-74.9
11
89.7
21
-74.6
0
LINE
8
Black
10
89.7
20
-74.6
11
91.2
21
-74.6
0
LINE
8
Black
10
91.2
20
-74.6
11
91.2
21
-74.9
0
LINE
8
Black
10
82.8
20
-74.9
11
81.3
21
-74.9
0
LINE
8
Black
10
81.3
20
-74.9
11
81.3
21
-74.6
0
LINE
8
Black
10
81.3
20
-74.6
11
82.8
21
-74.6
0
LINE
8
Black
10
82.8
20
-74.6
11
82.8
21
-74.9
0
LINE
8
Black
10
92.65
20
-74.65
11
92.1
21
-74.65
0
LINE
8
Black
10
92.1
20
-74.65
11
92.1
21
-74.35
0
LINE
8
Black
10
92.1
20
-74.35
11
92.65
21
-74.35
0
LINE
8
Black
10
92.65
20
-74.35
11
92.65
21
-74.65
0
LINE
8
Black
10
99.4
20
-74.65
11
98.85
21
-74.65
0
LINE
8
Black
10
98.85
20
-74.65
11
98.85
21
-74.35
0
LINE
8
Black
10
98.85
20
-74.35
11
99.4
21
-74.35
0
LINE
8
Black
10
99.4
20
-74.35
11
99.4
21
-74.65
0
LINE
8
Black
10
66.65
20
-74.55
11
66.35
21
-74.55
0
LINE
8
Black
10
66.35
20
-74.55
11
66.35
21
-73.05
0
LINE
8
Black
10
66.35
20
-73.05
11
66.65
21
-73.05
0
LINE
8
Black
10
66.65
20
-73.05
11
66.65
21
-74.55
0
LINE
8
Black
10
70.15
20
-74.55
11
69.85
21
-74.55
0
LINE
8
Black
10
69.85
20
-74.55
11
69.85
21
-73.05
0
LINE
8
Black
10
69.85
20
-73.05
11
70.15
21
-73.05
0
LINE
8
Black
10
70.15
20
-73.05
11
70.15
21
-74.55
0
LINE
8
Black
10
66.15
20
-74.55
11
65.85
21
-74.55
0
LINE
8
Black
10
65.85
20
-74.55
11
65.85
21
-73.05
0
LINE
8
Black
10
65.85
20
-73.05
11
66.15
21
-73.05
0
LINE
8
Black
10
66.15
20
-73.05
11
66.15
21
-74.55
0
LINE
8
Black
10
67.15
20
-74.55
11
66.85
21
-74.55
0
LINE
8
Black
10
66.85
20
-74.55
11
66.85
21
-73.05
0
LINE
8
Black
10
66.85
20
-73.05
11
67.15
21
-73.05
0
LINE
8
Black
10
67.15
20
-73.05
11
67.15
21
-74.55
0
LINE
8
Black
10
67.65
20
-74.55
11
67.35
21
-74.55
0
LINE
8
Black
10
67.35
20
-74.55
11
67.35
21
-73.05
0
LINE
8
Black
10
67.35
20
-73.05
11
67.65
21
-73.05
0
LINE
8
Black
10
67.65
20
-73.05
11
67.65
21
-74.55
0
LINE
8
Black
10
75.15
20
-74.55
11
74.85
21
-74.55
0
LINE
8
Black
10
74.85
20
-74.55
11
74.85
21
-73.05
0
LINE
8
Black
10
74.85
20
-73.05
11
75.15
21
-73.05
0
LINE
8
Black
10
75.15
20
-73.05
11
75.15
21
-74.55
0
LINE
8
Black
10
70.65
20
-74.55
11
70.35
21
-74.55
0
LINE
8
Black
10
70.35
20
-74.55
11
70.35
21
-73.05
0
LINE
8
Black
10
70.35
20
-73.05
11
70.65
21
-73.05
0
LINE
8
Black
10
70.65
20
-73.05
11
70.65
21
-74.55
0
LINE
8
Black
10
71.15
20
-74.55
11
70.85
21
-74.55
0
LINE
8
Black
10
70.85
20
-74.55
11
70.85
21
-73.05
0
LINE
8
Black
10
70.85
20
-73.05
11
71.15
21
-73.05
0
LINE
8
Black
10
71.15
20
-73.05
11
71.15
21
-74.55
0
LINE
8
Black
10
71.65
20
-74.55
11
71.35
21
-74.55
0
LINE
8
Black
10
71.35
20
-74.55
11
71.35
21
-73.05
0
LINE
8
Black
10
71.35
20
-73.05
11
71.65
21
-73.05
0
LINE
8
Black
10
71.65
20
-73.05
11
71.65
21
-74.55
0
LINE
8
Black
10
72.15
20
-74.55
11
71.85
21
-74.55
0
LINE
8
Black
10
71.85
20
-74.55
11
71.85
21
-73.05
0
LINE
8
Black
10
71.85
20
-73.05
11
72.15
21
-73.05
0
LINE
8
Black
10
72.15
20
-73.05
11
72.15
21
-74.55
0
LINE
8
Black
10
72.65
20
-74.55
11
72.35
21
-74.55
0
LINE
8
Black
10
72.35
20
-74.55
11
72.35
21
-73.05
0
LINE
8
Black
10
72.35
20
-73.05
11
72.65
21
-73.05
0
LINE
8
Black
10
72.65
20
-73.05
11
72.65
21
-74.55
0
LINE
8
Black
10
73.15
20
-74.55
11
72.85
21
-74.55
0
LINE
8
Black
10
72.85
20
-74.55
11
72.85
21
-73.05
0
LINE
8
Black
10
72.85
20
-73.05
11
73.15
21
-73.05
0
LINE
8
Black
10
73.15
20
-73.05
11
73.15
21
-74.55
0
LINE
8
Black
10
73.65
20
-74.55
11
73.35
21
-74.55
0
LINE
8
Black
10
73.35
20
-74.55
11
73.35
21
-73.05
0
LINE
8
Black
10
73.35
20
-73.05
11
73.65
21
-73.05
0
LINE
8
Black
10
73.65
20
-73.05
11
73.65
21
-74.55
0
LINE
8
Black
10
74.15
20
-74.55
11
73.85
21
-74.55
0
LINE
8
Black
10
73.85
20
-74.55
11
73.85
21
-73.05
0
LINE
8
Black
10
73.85
20
-73.05
11
74.15
21
-73.05
0
LINE
8
Black
10
74.15
20
-73.05
11
74.15
21
-74.55
0
LINE
8
Black
10
74.65
20
-74.55
11
74.35
21
-74.55
0
LINE
8
Black
10
74.35
20
-74.55
11
74.35
21
-73.05
0
LINE
8
Black
10
74.35
20
-73.05
11
74.65
21
-73.05
0
LINE
8
Black
10
74.65
20
-73.05
11
74.65
21
-74.55
0
LINE
8
Black
10
68.15
20
-74.55
11
67.85
21
-74.55
0
LINE
8
Black
10
67.85
20
-74.55
11
67.85
21
-73.05
0
LINE
8
Black
10
67.85
20
-73.05
11
68.15
21
-73.05
0
LINE
8
Black
10
68.15
20
-73.05
11
68.15
21
-74.55
0
LINE
8
Black
10
75.65
20
-74.55
11
75.35
21
-74.55
0
LINE
8
Black
10
75.35
20
-74.55
11
75.35
21
-73.05
0
LINE
8
Black
10
75.35
20
-73.05
11
75.65
21
-73.05
0
LINE
8
Black
10
75.65
20
-73.05
11
75.65
21
-74.55
0
LINE
8
Black
10
76.15
20
-74.55
11
75.85
21
-74.55
0
LINE
8
Black
10
75.85
20
-74.55
11
75.85
21
-73.05
0
LINE
8
Black
10
75.85
20
-73.05
11
76.15
21
-73.05
0
LINE
8
Black
10
76.15
20
-73.05
11
76.15
21
-74.55
0
LINE
8
Black
10
76.65
20
-74.55
11
76.35
21
-74.55
0
LINE
8
Black
10
76.35
20
-74.55
11
76.35
21
-73.05
0
LINE
8
Black
10
76.35
20
-73.05
11
76.65
21
-73.05
0
LINE
8
Black
10
76.65
20
-73.05
11
76.65
21
-74.55
0
LINE
8
Black
10
77.15
20
-74.55
11
76.85
21
-74.55
0
LINE
8
Black
10
76.85
20
-74.55
11
76.85
21
-73.05
0
LINE
8
Black
10
76.85
20
-73.05
11
77.15
21
-73.05
0
LINE
8
Black
10
77.15
20
-73.05
11
77.15
21
-74.55
0
LINE
8
Black
10
77.65
20
-74.55
11
77.35
21
-74.55
0
LINE
8
Black
10
77.35
20
-74.55
11
77.35
21
-73.05
0
LINE
8
Black
10
77.35
20
-73.05
11
77.65
21
-73.05
0
LINE
8
Black
10
77.65
20
-73.05
11
77.65
21
-74.55
0
LINE
8
Black
10
78.15
20
-74.55
11
77.85
21
-74.55
0
LINE
8
Black
10
77.85
20
-74.55
11
77.85
21
-73.05
0
LINE
8
Black
10
77.85
20
-73.05
11
78.15
21
-73.05
0
LINE
8
Black
10
78.15
20
-73.05
11
78.15
21
-74.55
0
LINE
8
Black
10
69.65
20
-74.55
11
69.35
21
-74.55
0
LINE
8
Black
10
69.35
20
-74.55
11
69.35
21
-73.05
0
LINE
8
Black
10
69.35
20
-73.05
11
69.65
21
-73.05
0
LINE
8
Black
10
69.65
20
-73.05
11
69.65
21
-74.55
0
LINE
8
Black
10
69.15
20
-74.55
11
68.85
21
-74.55
0
LINE
8
Black
10
68.85
20
-74.55
11
68.85
21
-73.05
0
LINE
8
Black
10
68.85
20
-73.05
11
69.15
21
-73.05
0
LINE
8
Black
10
69.15
20
-73.05
11
69.15
21
-74.55
0
LINE
8
Black
10
68.65
20
-74.55
11
68.35
21
-74.55
0
LINE
8
Black
10
68.35
20
-74.55
11
68.35
21
-73.05
0
LINE
8
Black
10
68.35
20
-73.05
11
68.65
21
-73.05
0
LINE
8
Black
10
68.65
20
-73.05
11
68.65
21
-74.55
0
LINE
8
Black
10
91.2
20
-74.4
11
89.7
21
-74.4
0
LINE
8
Black
10
89.7
20
-74.4
11
89.7
21
-74.1
0
LINE
8
Black
10
89.7
20
-74.1
11
91.2
21
-74.1
0
LINE
8
Black
10
91.2
20
-74.1
11
91.2
21
-74.4
0
LINE
8
Black
10
82.8
20
-74.4
11
81.3
21
-74.4
0
LINE
8
Black
10
81.3
20
-74.4
11
81.3
21
-74.1
0
LINE
8
Black
10
81.3
20
-74.1
11
82.8
21
-74.1
0
LINE
8
Black
10
82.8
20
-74.1
11
82.8
21
-74.4
0
LINE
8
Black
10
92.65
20
-74.15
11
92.1
21
-74.15
0
LINE
8
Black
10
92.1
20
-74.15
11
92.1
21
-73.85
0
LINE
8
Black
10
92.1
20
-73.85
11
92.65
21
-73.85
0
LINE
8
Black
10
92.65
20
-73.85
11
92.65
21
-74.15
0
LINE
8
Black
10
99.4
20
-74.15
11
98.85
21
-74.15
0
LINE
8
Black
10
98.85
20
-74.15
11
98.85
21
-73.85
0
LINE
8
Black
10
98.85
20
-73.85
11
99.4
21
-73.85
0
LINE
8
Black
10
99.4
20
-73.85
11
99.4
21
-74.15
0
LINE
8
Black
10
99.4
20
-73.65
11
98.85
21
-73.65
0
LINE
8
Black
10
98.85
20
-73.65
11
98.85
21
-73.35
0
LINE
8
Black
10
98.85
20
-73.35
11
99.4
21
-73.35
0
LINE
8
Black
10
99.4
20
-73.35
11
99.4
21
-73.65
0
LINE
8
Black
10
92.65
20
-73.65
11
92.1
21
-73.65
0
LINE
8
Black
10
92.1
20
-73.65
11
92.1
21
-73.35
0
LINE
8
Black
10
92.1
20
-73.35
11
92.65
21
-73.35
0
LINE
8
Black
10
92.65
20
-73.35
11
92.65
21
-73.65
0
LINE
8
Black
10
88.65
20
-73.55
11
88.35
21
-73.55
0
LINE
8
Black
10
88.35
20
-73.55
11
88.35
21
-72.05
0
LINE
8
Black
10
88.35
20
-72.05
11
88.65
21
-72.05
0
LINE
8
Black
10
88.65
20
-72.05
11
88.65
21
-73.55
0
LINE
8
Black
10
83.65
20
-73.55
11
83.35
21
-73.55
0
LINE
8
Black
10
83.35
20
-73.55
11
83.35
21
-72.05
0
LINE
8
Black
10
83.35
20
-72.05
11
83.65
21
-72.05
0
LINE
8
Black
10
83.65
20
-72.05
11
83.65
21
-73.55
0
LINE
8
Black
10
84.15
20
-73.55
11
83.85
21
-73.55
0
LINE
8
Black
10
83.85
20
-73.55
11
83.85
21
-72.05
0
LINE
8
Black
10
83.85
20
-72.05
11
84.15
21
-72.05
0
LINE
8
Black
10
84.15
20
-72.05
11
84.15
21
-73.55
0
LINE
8
Black
10
84.65
20
-73.55
11
84.35
21
-73.55
0
LINE
8
Black
10
84.35
20
-73.55
11
84.35
21
-72.05
0
LINE
8
Black
10
84.35
20
-72.05
11
84.65
21
-72.05
0
LINE
8
Black
10
84.65
20
-72.05
11
84.65
21
-73.55
0
LINE
8
Black
10
85.15
20
-73.55
11
84.85
21
-73.55
0
LINE
8
Black
10
84.85
20
-73.55
11
84.85
21
-72.05
0
LINE
8
Black
10
84.85
20
-72.05
11
85.15
21
-72.05
0
LINE
8
Black
10
85.15
20
-72.05
11
85.15
21
-73.55
0
LINE
8
Black
10
85.65
20
-73.55
11
85.35
21
-73.55
0
LINE
8
Black
10
85.35
20
-73.55
11
85.35
21
-72.05
0
LINE
8
Black
10
85.35
20
-72.05
11
85.65
21
-72.05
0
LINE
8
Black
10
85.65
20
-72.05
11
85.65
21
-73.55
0
LINE
8
Black
10
86.15
20
-73.55
11
85.85
21
-73.55
0
LINE
8
Black
10
85.85
20
-73.55
11
85.85
21
-72.05
0
LINE
8
Black
10
85.85
20
-72.05
11
86.15
21
-72.05
0
LINE
8
Black
10
86.15
20
-72.05
11
86.15
21
-73.55
0
LINE
8
Black
10
86.65
20
-73.55
11
86.35
21
-73.55
0
LINE
8
Black
10
86.35
20
-73.55
11
86.35
21
-72.05
0
LINE
8
Black
10
86.35
20
-72.05
11
86.65
21
-72.05
0
LINE
8
Black
10
86.65
20
-72.05
11
86.65
21
-73.55
0
LINE
8
Black
10
87.15
20
-73.55
11
86.85
21
-73.55
0
LINE
8
Black
10
86.85
20
-73.55
11
86.85
21
-72.05
0
LINE
8
Black
10
86.85
20
-72.05
11
87.15
21
-72.05
0
LINE
8
Black
10
87.15
20
-72.05
11
87.15
21
-73.55
0
LINE
8
Black
10
89.15
20
-73.55
11
88.85
21
-73.55
0
LINE
8
Black
10
88.85
20
-73.55
11
88.85
21
-72.05
0
LINE
8
Black
10
88.85
20
-72.05
11
89.15
21
-72.05
0
LINE
8
Black
10
89.15
20
-72.05
11
89.15
21
-73.55
0
LINE
8
Black
10
88.15
20
-73.55
11
87.85
21
-73.55
0
LINE
8
Black
10
87.85
20
-73.55
11
87.85
21
-72.05
0
LINE
8
Black
10
87.85
20
-72.05
11
88.15
21
-72.05
0
LINE
8
Black
10
88.15
20
-72.05
11
88.15
21
-73.55
0
LINE
8
Black
10
87.65
20
-73.55
11
87.35
21
-73.55
0
LINE
8
Black
10
87.35
20
-73.55
11
87.35
21
-72.05
0
LINE
8
Black
10
87.35
20
-72.05
11
87.65
21
-72.05
0
LINE
8
Black
10
87.65
20
-72.05
11
87.65
21
-73.55
0
LINE
8
Black
10
92.65
20
-73.15
11
92.1
21
-73.15
0
LINE
8
Black
10
92.1
20
-73.15
11
92.1
21
-72.85
0
LINE
8
Black
10
92.1
20
-72.85
11
92.65
21
-72.85
0
LINE
8
Black
10
92.65
20
-72.85
11
92.65
21
-73.15
0
LINE
8
Black
10
99.4
20
-73.15
11
98.85
21
-73.15
0
LINE
8
Black
10
98.85
20
-73.15
11
98.85
21
-72.85
0
LINE
8
Black
10
98.85
20
-72.85
11
99.4
21
-72.85
0
LINE
8
Black
10
99.4
20
-72.85
11
99.4
21
-73.15
0
LINE
8
Black
10
98.65
20
-72.65
11
98.35
21
-72.65
0
LINE
8
Black
10
98.35
20
-72.65
11
98.35
21
-72.1
0
LINE
8
Black
10
98.35
20
-72.1
11
98.65
21
-72.1
0
LINE
8
Black
10
98.65
20
-72.1
11
98.65
21
-72.65
0
LINE
8
Black
10
94.65
20
-72.65
11
94.35
21
-72.65
0
LINE
8
Black
10
94.35
20
-72.65
11
94.35
21
-72.1
0
LINE
8
Black
10
94.35
20
-72.1
11
94.65
21
-72.1
0
LINE
8
Black
10
94.65
20
-72.1
11
94.65
21
-72.65
0
LINE
8
Black
10
94.15
20
-72.65
11
93.85
21
-72.65
0
LINE
8
Black
10
93.85
20
-72.65
11
93.85
21
-72.1
0
LINE
8
Black
10
93.85
20
-72.1
11
94.15
21
-72.1
0
LINE
8
Black
10
94.15
20
-72.1
11
94.15
21
-72.65
0
LINE
8
Black
10
93.65
20
-72.65
11
93.35
21
-72.65
0
LINE
8
Black
10
93.35
20
-72.65
11
93.35
21
-72.1
0
LINE
8
Black
10
93.35
20
-72.1
11
93.65
21
-72.1
0
LINE
8
Black
10
93.65
20
-72.1
11
93.65
21
-72.65
0
LINE
8
Black
10
93.15
20
-72.65
11
92.85
21
-72.65
0
LINE
8
Black
10
92.85
20
-72.65
11
92.85
21
-72.1
0
LINE
8
Black
10
92.85
20
-72.1
11
93.15
21
-72.1
0
LINE
8
Black
10
93.15
20
-72.1
11
93.15
21
-72.65
0
LINE
8
Black
10
98.15
20
-72.65
11
97.85
21
-72.65
0
LINE
8
Black
10
97.85
20
-72.65
11
97.85
21
-72.1
0
LINE
8
Black
10
97.85
20
-72.1
11
98.15
21
-72.1
0
LINE
8
Black
10
98.15
20
-72.1
11
98.15
21
-72.65
0
LINE
8
Black
10
97.65
20
-72.65
11
97.35
21
-72.65
0
LINE
8
Black
10
97.35
20
-72.65
11
97.35
21
-72.1
0
LINE
8
Black
10
97.35
20
-72.1
11
97.65
21
-72.1
0
LINE
8
Black
10
97.65
20
-72.1
11
97.65
21
-72.65
0
LINE
8
Black
10
97.15
20
-72.65
11
96.85
21
-72.65
0
LINE
8
Black
10
96.85
20
-72.65
11
96.85
21
-72.1
0
LINE
8
Black
10
96.85
20
-72.1
11
97.15
21
-72.1
0
LINE
8
Black
10
97.15
20
-72.1
11
97.15
21
-72.65
0
LINE
8
Black
10
96.65
20
-72.65
11
96.35
21
-72.65
0
LINE
8
Black
10
96.35
20
-72.65
11
96.35
21
-72.1
0
LINE
8
Black
10
96.35
20
-72.1
11
96.65
21
-72.1
0
LINE
8
Black
10
96.65
20
-72.1
11
96.65
21
-72.65
0
LINE
8
Black
10
95.15
20
-72.65
11
94.85
21
-72.65
0
LINE
8
Black
10
94.85
20
-72.65
11
94.85
21
-72.1
0
LINE
8
Black
10
94.85
20
-72.1
11
95.15
21
-72.1
0
LINE
8
Black
10
95.15
20
-72.1
11
95.15
21
-72.65
0
LINE
8
Black
10
95.65
20
-72.65
11
95.35
21
-72.65
0
LINE
8
Black
10
95.35
20
-72.65
11
95.35
21
-72.1
0
LINE
8
Black
10
95.35
20
-72.1
11
95.65
21
-72.1
0
LINE
8
Black
10
95.65
20
-72.1
11
95.65
21
-72.65
0
LINE
8
Black
10
96.15
20
-72.65
11
95.85
21
-72.65
0
LINE
8
Black
10
95.85
20
-72.65
11
95.85
21
-72.1
0
LINE
8
Black
10
95.85
20
-72.1
11
96.15
21
-72.1
0
LINE
8
Black
10
96.15
20
-72.1
11
96.15
21
-72.65
0
LINE
8
Black
10
73.975
20
-69.725
11
72.825
21
-69.725
0
LINE
8
Black
10
72.825
20
-69.725
11
72.825
21
-68.275
0
LINE
8
Black
10
72.825
20
-68.275
11
73.975
21
-68.275
0
LINE
8
Black
10
73.975
20
-68.275
11
73.975
21
-69.725
0
LINE
8
Black
10
81.175
20
-69.725
11
80.025
21
-69.725
0
LINE
8
Black
10
80.025
20
-69.725
11
80.025
21
-68.275
0
LINE
8
Black
10
80.025
20
-68.275
11
81.175
21
-68.275
0
LINE
8
Black
10
81.175
20
-68.275
11
81.175
21
-69.725
0
LINE
8
Black
10
72.175
20
-69.725
11
71.025
21
-69.725
0
LINE
8
Black
10
71.025
20
-69.725
11
71.025
21
-68.275
0
LINE
8
Black
10
71.025
20
-68.275
11
72.175
21
-68.275
0
LINE
8
Black
10
72.175
20
-68.275
11
72.175
21
-69.725
0
LINE
8
Black
10
82.975
20
-69.725
11
81.825
21
-69.725
0
LINE
8
Black
10
81.825
20
-69.725
11
81.825
21
-68.275
0
LINE
8
Black
10
81.825
20
-68.275
11
82.975
21
-68.275
0
LINE
8
Black
10
82.975
20
-68.275
11
82.975
21
-69.725
0
LINE
8
Black
10
52.15
20
-67.875
11
50.85
21
-67.875
0
LINE
8
Black
10
50.85
20
-67.875
11
50.85
21
-66.9
0
LINE
8
Black
10
50.85
20
-66.9
11
52.15
21
-66.9
0
LINE
8
Black
10
52.15
20
-66.9
11
52.15
21
-67.875
0
LINE
8
Black
10
80.165
20
-66.975
11
79.565
21
-66.975
0
LINE
8
Black
10
79.565
20
-66.975
11
79.565
21
-65.425
0
LINE
8
Black
10
79.565
20
-65.425
11
80.165
21
-65.425
0
LINE
8
Black
10
80.165
20
-65.425
11
80.165
21
-66.975
0
LINE
8
Black
10
69.935
20
-66.975
11
69.335
21
-66.975
0
LINE
8
Black
10
69.335
20
-66.975
11
69.335
21
-65.425
0
LINE
8
Black
10
69.335
20
-65.425
11
69.935
21
-65.425
0
LINE
8
Black
10
69.935
20
-65.425
11
69.935
21
-66.975
0
LINE
8
Black
10
71.205
20
-66.975
11
70.605
21
-66.975
0
LINE
8
Black
10
70.605
20
-66.975
11
70.605
21
-65.425
0
LINE
8
Black
10
70.605
20
-65.425
11
71.205
21
-65.425
0
LINE
8
Black
10
71.205
20
-65.425
11
71.205
21
-66.975
0
LINE
8
Black
10
72.475
20
-66.975
11
71.875
21
-66.975
0
LINE
8
Black
10
71.875
20
-66.975
11
71.875
21
-65.425
0
LINE
8
Black
10
71.875
20
-65.425
11
72.475
21
-65.425
0
LINE
8
Black
10
72.475
20
-65.425
11
72.475
21
-66.975
0
LINE
8
Black
10
73.745
20
-66.975
11
73.145
21
-66.975
0
LINE
8
Black
10
73.145
20
-66.975
11
73.145
21
-65.425
0
LINE
8
Black
10
73.145
20
-65.425
11
73.745
21
-65.425
0
LINE
8
Black
10
73.745
20
-65.425
11
73.745
21
-66.975
0
LINE
8
Black
10
68.665
20
-66.975
11
68.065
21
-66.975
0
LINE
8
Black
10
68.065
20
-66.975
11
68.065
21
-65.425
0
LINE
8
Black
10
68.065
20
-65.425
11
68.665
21
-65.425
0
LINE
8
Black
10
68.665
20
-65.425
11
68.665
21
-66.975
0
LINE
8
Black
10
78.895
20
-66.975
11
78.295
21
-66.975
0
LINE
8
Black
10
78.295
20
-66.975
11
78.295
21
-65.425
0
LINE
8
Black
10
78.295
20
-65.425
11
78.895
21
-65.425
0
LINE
8
Black
10
78.895
20
-65.425
11
78.895
21
-66.975
0
LINE
8
Black
10
81.435
20
-66.975
11
80.835
21
-66.975
0
LINE
8
Black
10
80.835
20
-66.975
11
80.835
21
-65.425
0
LINE
8
Black
10
80.835
20
-65.425
11
81.435
21
-65.425
0
LINE
8
Black
10
81.435
20
-65.425
11
81.435
21
-66.975
0
LINE
8
Black
10
82.705
20
-66.975
11
82.105
21
-66.975
0
LINE
8
Black
10
82.105
20
-66.975
11
82.105
21
-65.425
0
LINE
8
Black
10
82.105
20
-65.425
11
82.705
21
-65.425
0
LINE
8
Black
10
82.705
20
-65.425
11
82.705
21
-66.975
0
LINE
8
Black
10
67.395
20
-66.975
11
66.795
21
-66.975
0
LINE
8
Black
10
66.795
20
-66.975
11
66.795
21
-65.425
0
LINE
8
Black
10
66.795
20
-65.425
11
67.395
21
-65.425
0
LINE
8
Black
10
67.395
20
-65.425
11
67.395
21
-66.975
0
LINE
8
Black
10
66.125
20
-66.975
11
65.525
21
-66.975
0
LINE
8
Black
10
65.525
20
-66.975
11
65.525
21
-65.425
0
LINE
8
Black
10
65.525
20
-65.425
11
66.125
21
-65.425
0
LINE
8
Black
10
66.125
20
-65.425
11
66.125
21
-66.975
0
LINE
8
Black
10
64.855
20
-66.975
11
64.255
21
-66.975
0
LINE
8
Black
10
64.255
20
-66.975
11
64.255
21
-65.425
0
LINE
8
Black
10
64.255
20
-65.425
11
64.855
21
-65.425
0
LINE
8
Black
10
64.855
20
-65.425
11
64.855
21
-66.975
0
LINE
8
Black
10
52.2
20
-65.8
11
50.8
21
-65.8
0
LINE
8
Black
10
50.8
20
-65.8
11
50.8
21
-64.5
0
LINE
8
Black
10
50.8
20
-64.5
11
52.2
21
-64.5
0
LINE
8
Black
10
52.2
20
-64.5
11
52.2
21
-65.8
0
LINE
8
Black
10
54.85
20
-65.5
11
53.5
21
-65.5
0
LINE
8
Black
10
53.5
20
-65.5
11
53.5
21
-65.1
0
LINE
8
Black
10
53.5
20
-65.1
11
54.85
21
-65.1
0
LINE
8
Black
10
54.85
20
-65.1
11
54.85
21
-65.5
0
LINE
8
Black
10
94.225
20
-64.975
11
92.775
21
-64.975
0
LINE
8
Black
10
92.775
20
-64.975
11
92.775
21
-63.825
0
LINE
8
Black
10
92.775
20
-63.825
11
94.225
21
-63.825
0
LINE
8
Black
10
94.225
20
-63.825
11
94.225
21
-64.975
0
LINE
8
Black
10
89.225
20
-64.975
11
87.775
21
-64.975
0
LINE
8
Black
10
87.775
20
-64.975
11
87.775
21
-63.825
0
LINE
8
Black
10
87.775
20
-63.825
11
89.225
21
-63.825
0
LINE
8
Black
10
89.225
20
-63.825
11
89.225
21
-64.975
0
LINE
8
Black
10
91.725
20
-64.975
11
90.275
21
-64.975
0
LINE
8
Black
10
90.275
20
-64.975
11
90.275
21
-63.825
0
LINE
8
Black
10
90.275
20
-63.825
11
91.725
21
-63.825
0
LINE
8
Black
10
91.725
20
-63.825
11
91.725
21
-64.975
0
LINE
8
Black
10
86.725
20
-64.975
11
85.275
21
-64.975
0
LINE
8
Black
10
85.275
20
-64.975
11
85.275
21
-63.825
0
LINE
8
Black
10
85.275
20
-63.825
11
86.725
21
-63.825
0
LINE
8
Black
10
86.725
20
-63.825
11
86.725
21
-64.975
0
LINE
8
Black
10
54.85
20
-64.85
11
53.5
21
-64.85
0
LINE
8
Black
10
53.5
20
-64.85
11
53.5
21
-64.45
0
LINE
8
Black
10
53.5
20
-64.45
11
54.85
21
-64.45
0
LINE
8
Black
10
54.85
20
-64.45
11
54.85
21
-64.85
0
LINE
8
Black
10
54.85
20
-64.2
11
53.5
21
-64.2
0
LINE
8
Black
10
53.5
20
-64.2
11
53.5
21
-63.8
0
LINE
8
Black
10
53.5
20
-63.8
11
54.85
21
-63.8
0
LINE
8
Black
10
54.85
20
-63.8
11
54.85
21
-64.2
0
LINE
8
Black
10
54.85
20
-63.55
11
53.5
21
-63.55
0
LINE
8
Black
10
53.5
20
-63.55
11
53.5
21
-63.15
0
LINE
8
Black
10
53.5
20
-63.15
11
54.85
21
-63.15
0
LINE
8
Black
10
54.85
20
-63.15
11
54.85
21
-63.55
0
LINE
8
Black
10
52.2
20
-63.5
11
50.8
21
-63.5
0
LINE
8
Black
10
50.8
20
-63.5
11
50.8
21
-62.2
0
LINE
8
Black
10
50.8
20
-62.2
11
52.2
21
-62.2
0
LINE
8
Black
10
52.2
20
-62.2
11
52.2
21
-63.5
0
LINE
8
Black
10
89.225
20
-63.175
11
87.775
21
-63.175
0
LINE
8
Black
10
87.775
20
-63.175
11
87.775
21
-62.025
0
LINE
8
Black
10
87.775
20
-62.025
11
89.225
21
-62.025
0
LINE
8
Black
10
89.225
20
-62.025
11
89.225
21
-63.175
0
LINE
8
Black
10
86.725
20
-63.175
11
85.275
21
-63.175
0
LINE
8
Black
10
85.275
20
-63.175
11
85.275
21
-62.025
0
LINE
8
Black
10
85.275
20
-62.025
11
86.725
21
-62.025
0
LINE
8
Black
10
86.725
20
-62.025
11
86.725
21
-63.175
0
LINE
8
Black
10
94.225
20
-63.175
11
92.775
21
-63.175
0
LINE
8
Black
10
92.775
20
-63.175
11
92.775
21
-62.025
0
LINE
8
Black
10
92.775
20
-62.025
11
94.225
21
-62.025
0
LINE
8
Black
10
94.225
20
-62.025
11
94.225
21
-63.175
0
LINE
8
Black
10
91.725
20
-63.175
11
90.275
21
-63.175
0
LINE
8
Black
10
90.275
20
-63.175
11
90.275
21
-62.025
0
LINE
8
Black
10
90.275
20
-62.025
11
91.725
21
-62.025
0
LINE
8
Black
10
91.725
20
-62.025
11
91.725
21
-63.175
0
LINE
8
Black
10
54.85
20
-62.9
11
53.5
21
-62.9
0
LINE
8
Black
10
53.5
20
-62.9
11
53.5
21
-62.5
0
LINE
8
Black
10
53.5
20
-62.5
11
54.85
21
-62.5
0
LINE
8
Black
10
54.85
20
-62.5
11
54.85
21
-62.9
0
LINE
8
Black
10
57.675
20
-61.725
11
56.525
21
-61.725
0
LINE
8
Black
10
56.525
20
-61.725
11
56.525
21
-60.275
0
LINE
8
Black
10
56.525
20
-60.275
11
57.675
21
-60.275
0
LINE
8
Black
10
57.675
20
-60.275
11
57.675
21
-61.725
0
LINE
8
Black
10
59.475
20
-61.725
11
58.325
21
-61.725
0
LINE
8
Black
10
58.325
20
-61.725
11
58.325
21
-60.275
0
LINE
8
Black
10
58.325
20
-60.275
11
59.475
21
-60.275
0
LINE
8
Black
10
59.475
20
-60.275
11
59.475
21
-61.725
0
LINE
8
Black
10
73.745
20
-61.575
11
73.145
21
-61.575
0
LINE
8
Black
10
73.145
20
-61.575
11
73.145
21
-60.025
0
LINE
8
Black
10
73.145
20
-60.025
11
73.745
21
-60.025
0
LINE
8
Black
10
73.745
20
-60.025
11
73.745
21
-61.575
0
LINE
8
Black
10
78.895
20
-61.575
11
78.295
21
-61.575
0
LINE
8
Black
10
78.295
20
-61.575
11
78.295
21
-60.025
0
LINE
8
Black
10
78.295
20
-60.025
11
78.895
21
-60.025
0
LINE
8
Black
10
78.895
20
-60.025
11
78.895
21
-61.575
0
LINE
8
Black
10
80.165
20
-61.575
11
79.565
21
-61.575
0
LINE
8
Black
10
79.565
20
-61.575
11
79.565
21
-60.025
0
LINE
8
Black
10
79.565
20
-60.025
11
80.165
21
-60.025
0
LINE
8
Black
10
80.165
20
-60.025
11
80.165
21
-61.575
0
LINE
8
Black
10
81.435
20
-61.575
11
80.835
21
-61.575
0
LINE
8
Black
10
80.835
20
-61.575
11
80.835
21
-60.025
0
LINE
8
Black
10
80.835
20
-60.025
11
81.435
21
-60.025
0
LINE
8
Black
10
81.435
20
-60.025
11
81.435
21
-61.575
0
LINE
8
Black
10
82.705
20
-61.575
11
82.105
21
-61.575
0
LINE
8
Black
10
82.105
20
-61.575
11
82.105
21
-60.025
0
LINE
8
Black
10
82.105
20
-60.025
11
82.705
21
-60.025
0
LINE
8
Black
10
82.705
20
-60.025
11
82.705
21
-61.575
0
LINE
8
Black
10
64.855
20
-61.575
11
64.255
21
-61.575
0
LINE
8
Black
10
64.255
20
-61.575
11
64.255
21
-60.025
0
LINE
8
Black
10
64.255
20
-60.025
11
64.855
21
-60.025
0
LINE
8
Black
10
64.855
20
-60.025
11
64.855
21
-61.575
0
LINE
8
Black
10
66.125
20
-61.575
11
65.525
21
-61.575
0
LINE
8
Black
10
65.525
20
-61.575
11
65.525
21
-60.025
0
LINE
8
Black
10
65.525
20
-60.025
11
66.125
21
-60.025
0
LINE
8
Black
10
66.125
20
-60.025
11
66.125
21
-61.575
0
LINE
8
Black
10
67.395
20
-61.575
11
66.795
21
-61.575
0
LINE
8
Black
10
66.795
20
-61.575
11
66.795
21
-60.025
0
LINE
8
Black
10
66.795
20
-60.025
11
67.395
21
-60.025
0
LINE
8
Black
10
67.395
20
-60.025
11
67.395
21
-61.575
0
LINE
8
Black
10
68.665
20
-61.575
11
68.065
21
-61.575
0
LINE
8
Black
10
68.065
20
-61.575
11
68.065
21
-60.025
0
LINE
8
Black
10
68.065
20
-60.025
11
68.665
21
-60.025
0
LINE
8
Black
10
68.665
20
-60.025
11
68.665
21
-61.575
0
LINE
8
Black
10
69.935
20
-61.575
11
69.335
21
-61.575
0
LINE
8
Black
10
69.335
20
-61.575
11
69.335
21
-60.025
0
LINE
8
Black
10
69.335
20
-60.025
11
69.935
21
-60.025
0
LINE
8
Black
10
69.935
20
-60.025
11
69.935
21
-61.575
0
LINE
8
Black
10
71.205
20
-61.575
11
70.605
21
-61.575
0
LINE
8
Black
10
70.605
20
-61.575
11
70.605
21
-60.025
0
LINE
8
Black
10
70.605
20
-60.025
11
71.205
21
-60.025
0
LINE
8
Black
10
71.205
20
-60.025
11
71.205
21
-61.575
0
LINE
8
Black
10
72.475
20
-61.575
11
71.875
21
-61.575
0
LINE
8
Black
10
71.875
20
-61.575
11
71.875
21
-60.025
0
LINE
8
Black
10
71.875
20
-60.025
11
72.475
21
-60.025
0
LINE
8
Black
10
72.475
20
-60.025
11
72.475
21
-61.575
0
LINE
8
Black
10
52.15
20
-61.1
11
50.85
21
-61.1
0
LINE
8
Black
10
50.85
20
-61.1
11
50.85
21
-60.125
0
LINE
8
Black
10
50.85
20
-60.125
11
52.15
21
-60.125
0
LINE
8
Black
10
52.15
20
-60.125
11
52.15
21
-61.1
0
LINE
8
Black
10
74.25
20
-57.25
11
73.75
21
-57.25
0
LINE
8
Black
10
73.75
20
-57.25
11
73.75
21
-56.35
0
LINE
8
Black
10
73.75
20
-56.35
11
74.25
21
-56.35
0
LINE
8
Black
10
74.25
20
-56.35
11
74.25
21
-57.25
0
LINE
8
Black
10
94.25
20
-57.25
11
93.75
21
-57.25
0
LINE
8
Black
10
93.75
20
-57.25
11
93.75
21
-56.35
0
LINE
8
Black
10
93.75
20
-56.35
11
94.25
21
-56.35
0
LINE
8
Black
10
94.25
20
-56.35
11
94.25
21
-57.25
0
LINE
8
Black
10
66.25
20
-57.25
11
65.75
21
-57.25
0
LINE
8
Black
10
65.75
20
-57.25
11
65.75
21
-56.35
0
LINE
8
Black
10
65.75
20
-56.35
11
66.25
21
-56.35
0
LINE
8
Black
10
66.25
20
-56.35
11
66.25
21
-57.25
0
LINE
8
Black
10
78.25
20
-57.25
11
77.75
21
-57.25
0
LINE
8
Black
10
77.75
20
-57.25
11
77.75
21
-56.35
0
LINE
8
Black
10
77.75
20
-56.35
11
78.25
21
-56.35
0
LINE
8
Black
10
78.25
20
-56.35
11
78.25
21
-57.25
0
LINE
8
Black
10
62.25
20
-57.25
11
61.75
21
-57.25
0
LINE
8
Black
10
61.75
20
-57.25
11
61.75
21
-56.35
0
LINE
8
Black
10
61.75
20
-56.35
11
62.25
21
-56.35
0
LINE
8
Black
10
62.25
20
-56.35
11
62.25
21
-57.25
0
LINE
8
Black
10
82.25
20
-57.25
11
81.75
21
-57.25
0
LINE
8
Black
10
81.75
20
-57.25
11
81.75
21
-56.35
0
LINE
8
Black
10
81.75
20
-56.35
11
82.25
21
-56.35
0
LINE
8
Black
10
82.25
20
-56.35
11
82.25
21
-57.25
0
LINE
8
Black
10
58.25
20
-57.25
11
57.75
21
-57.25
0
LINE
8
Black
10
57.75
20
-57.25
11
57.75
21
-56.35
0
LINE
8
Black
10
57.75
20
-56.35
11
58.25
21
-56.35
0
LINE
8
Black
10
58.25
20
-56.35
11
58.25
21
-57.25
0
LINE
8
Black
10
70.25
20
-57.25
11
69.75
21
-57.25
0
LINE
8
Black
10
69.75
20
-57.25
11
69.75
21
-56.35
0
LINE
8
Black
10
69.75
20
-56.35
11
70.25
21
-56.35
0
LINE
8
Black
10
70.25
20
-56.35
11
70.25
21
-57.25
0
LINE
8
Black
10
90.25
20
-57.25
11
89.75
21
-57.25
0
LINE
8
Black
10
89.75
20
-57.25
11
89.75
21
-56.35
0
LINE
8
Black
10
89.75
20
-56.35
11
90.25
21
-56.35
0
LINE
8
Black
10
90.25
20
-56.35
11
90.25
21
-57.25
0
LINE
8
Black
10
86.25
20
-57.25
11
85.75
21
-57.25
0
LINE
8
Black
10
85.75
20
-57.25
11
85.75
21
-56.35
0
LINE
8
Black
10
85.75
20
-56.35
11
86.25
21
-56.35
0
LINE
8
Black
10
86.25
20
-56.35
11
86.25
21
-57.25
0
LINE
8
Black
10
90.25
20
-54.65
11
89.75
21
-54.65
0
LINE
8
Black
10
89.75
20
-54.65
11
89.75
21
-53.75
0
LINE
8
Black
10
89.75
20
-53.75
11
90.25
21
-53.75
0
LINE
8
Black
10
90.25
20
-53.75
11
90.25
21
-54.65
0
LINE
8
Black
10
78.25
20
-54.65
11
77.75
21
-54.65
0
LINE
8
Black
10
77.75
20
-54.65
11
77.75
21
-53.75
0
LINE
8
Black
10
77.75
20
-53.75
11
78.25
21
-53.75
0
LINE
8
Black
10
78.25
20
-53.75
11
78.25
21
-54.65
0
LINE
8
Black
10
82.25
20
-54.65
11
81.75
21
-54.65
0
LINE
8
Black
10
81.75
20
-54.65
11
81.75
21
-53.75
0
LINE
8
Black
10
81.75
20
-53.75
11
82.25
21
-53.75
0
LINE
8
Black
10
82.25
20
-53.75
11
82.25
21
-54.65
0
LINE
8
Black
10
86.25
20
-54.65
11
85.75
21
-54.65
0
LINE
8
Black
10
85.75
20
-54.65
11
85.75
21
-53.75
0
LINE
8
Black
10
85.75
20
-53.75
11
86.25
21
-53.75
0
LINE
8
Black
10
86.25
20
-53.75
11
86.25
21
-54.65
0
LINE
8
Black
10
58.25
20
-54.65
11
57.75
21
-54.65
0
LINE
8
Black
10
57.75
20
-54.65
11
57.75
21
-53.75
0
LINE
8
Black
10
57.75
20
-53.75
11
58.25
21
-53.75
0
LINE
8
Black
10
58.25
20
-53.75
11
58.25
21
-54.65
0
LINE
8
Black
10
62.25
20
-54.65
11
61.75
21
-54.65
0
LINE
8
Black
10
61.75
20
-54.65
11
61.75
21
-53.75
0
LINE
8
Black
10
61.75
20
-53.75
11
62.25
21
-53.75
0
LINE
8
Black
10
62.25
20
-53.75
11
62.25
21
-54.65
0
LINE
8
Black
10
66.25
20
-54.65
11
65.75
21
-54.65
0
LINE
8
Black
10
65.75
20
-54.65
11
65.75
21
-53.75
0
LINE
8
Black
10
65.75
20
-53.75
11
66.25
21
-53.75
0
LINE
8
Black
10
66.25
20
-53.75
11
66.25
21
-54.65
0
LINE
8
Black
10
70.25
20
-54.65
11
69.75
21
-54.65
0
LINE
8
Black
10
69.75
20
-54.65
11
69.75
21
-53.75
0
LINE
8
Black
10
69.75
20
-53.75
11
70.25
21
-53.75
0
LINE
8
Black
10
70.25
20
-53.75
11
70.25
21
-54.65
0
LINE
8
Black
10
74.25
20
-54.65
11
73.75
21
-54.65
0
LINE
8
Black
10
73.75
20
-54.65
11
73.75
21
-53.75
0
LINE
8
Black
10
73.75
20
-53.75
11
74.25
21
-53.75
0
LINE
8
Black
10
74.25
20
-53.75
11
74.25
21
-54.65
0
LINE
8
Black
10
94.25
20
-54.65
11
93.75
21
-54.65
0
LINE
8
Black
10
93.75
20
-54.65
11
93.75
21
-53.75
0
LINE
8
Black
10
93.75
20
-53.75
11
94.25
21
-53.75
0
LINE
8
Black
10
94.25
20
-53.75
11
94.25
21
-54.65
0
LINE
8
Black
10
84.725
20
-53.475
11
83.275
21
-53.475
0
LINE
8
Black
10
83.275
20
-53.475
11
83.275
21
-52.325
0
LINE
8
Black
10
83.275
20
-52.325
11
84.725
21
-52.325
0
LINE
8
Black
10
84.725
20
-52.325
11
84.725
21
-53.475
0
LINE
8
Black
10
94.725
20
-53.475
11
93.275
21
-53.475
0
LINE
8
Black
10
93.275
20
-53.475
11
93.275
21
-52.325
0
LINE
8
Black
10
93.275
20
-52.325
11
94.725
21
-52.325
0
LINE
8
Black
10
94.725
20
-52.325
11
94.725
21
-53.475
0
LINE
8
Black
10
90.725
20
-53.475
11
89.275
21
-53.475
0
LINE
8
Black
10
89.275
20
-53.475
11
89.275
21
-52.325
0
LINE
8
Black
10
89.275
20
-52.325
11
90.725
21
-52.325
0
LINE
8
Black
10
90.725
20
-52.325
11
90.725
21
-53.475
0
LINE
8
Black
10
86.725
20
-53.475
11
85.275
21
-53.475
0
LINE
8
Black
10
85.275
20
-53.475
11
85.275
21
-52.325
0
LINE
8
Black
10
85.275
20
-52.325
11
86.725
21
-52.325
0
LINE
8
Black
10
86.725
20
-52.325
11
86.725
21
-53.475
0
LINE
8
Black
10
82.725
20
-53.475
11
81.275
21
-53.475
0
LINE
8
Black
10
81.275
20
-53.475
11
81.275
21
-52.325
0
LINE
8
Black
10
81.275
20
-52.325
11
82.725
21
-52.325
0
LINE
8
Black
10
82.725
20
-52.325
11
82.725
21
-53.475
0
LINE
8
Black
10
78.725
20
-53.475
11
77.275
21
-53.475
0
LINE
8
Black
10
77.275
20
-53.475
11
77.275
21
-52.325
0
LINE
8
Black
10
77.275
20
-52.325
11
78.725
21
-52.325
0
LINE
8
Black
10
78.725
20
-52.325
11
78.725
21
-53.475
0
LINE
8
Black
10
74.725
20
-53.475
11
73.275
21
-53.475
0
LINE
8
Black
10
73.275
20
-53.475
11
73.275
21
-52.325
0
LINE
8
Black
10
73.275
20
-52.325
11
74.725
21
-52.325
0
LINE
8
Black
10
74.725
20
-52.325
11
74.725
21
-53.475
0
LINE
8
Black
10
70.725
20
-53.475
11
69.275
21
-53.475
0
LINE
8
Black
10
69.275
20
-53.475
11
69.275
21
-52.325
0
LINE
8
Black
10
69.275
20
-52.325
11
70.725
21
-52.325
0
LINE
8
Black
10
70.725
20
-52.325
11
70.725
21
-53.475
0
LINE
8
Black
10
96.725
20
-53.475
11
95.275
21
-53.475
0
LINE
8
Black
10
95.275
20
-53.475
11
95.275
21
-52.325
0
LINE
8
Black
10
95.275
20
-52.325
11
96.725
21
-52.325
0
LINE
8
Black
10
96.725
20
-52.325
11
96.725
21
-53.475
0
LINE
8
Black
10
92.725
20
-53.475
11
91.275
21
-53.475
0
LINE
8
Black
10
91.275
20
-53.475
11
91.275
21
-52.325
0
LINE
8
Black
10
91.275
20
-52.325
11
92.725
21
-52.325
0
LINE
8
Black
10
92.725
20
-52.325
11
92.725
21
-53.475
0
LINE
8
Black
10
88.725
20
-53.475
11
87.275
21
-53.475
0
LINE
8
Black
10
87.275
20
-53.475
11
87.275
21
-52.325
0
LINE
8
Black
10
87.275
20
-52.325
11
88.725
21
-52.325
0
LINE
8
Black
10
88.725
20
-52.325
11
88.725
21
-53.475
0
LINE
8
Black
10
80.725
20
-53.475
11
79.275
21
-53.475
0
LINE
8
Black
10
79.275
20
-53.475
11
79.275
21
-52.325
0
LINE
8
Black
10
79.275
20
-52.325
11
80.725
21
-52.325
0
LINE
8
Black
10
80.725
20
-52.325
11
80.725
21
-53.475
0
LINE
8
Black
10
56.725
20
-53.475
11
55.275
21
-53.475
0
LINE
8
Black
10
55.275
20
-53.475
11
55.275
21
-52.325
0
LINE
8
Black
10
55.275
20
-52.325
11
56.725
21
-52.325
0
LINE
8
Black
10
56.725
20
-52.325
11
56.725
21
-53.475
0
LINE
8
Black
10
76.725
20
-53.475
11
75.275
21
-53.475
0
LINE
8
Black
10
75.275
20
-53.475
11
75.275
21
-52.325
0
LINE
8
Black
10
75.275
20
-52.325
11
76.725
21
-52.325
0
LINE
8
Black
10
76.725
20
-52.325
11
76.725
21
-53.475
0
LINE
8
Black
10
58.725
20
-53.475
11
57.275
21
-53.475
0
LINE
8
Black
10
57.275
20
-53.475
11
57.275
21
-52.325
0
LINE
8
Black
10
57.275
20
-52.325
11
58.725
21
-52.325
0
LINE
8
Black
10
58.725
20
-52.325
11
58.725
21
-53.475
0
LINE
8
Black
10
60.725
20
-53.475
11
59.275
21
-53.475
0
LINE
8
Black
10
59.275
20
-53.475
11
59.275
21
-52.325
0
LINE
8
Black
10
59.275
20
-52.325
11
60.725
21
-52.325
0
LINE
8
Black
10
60.725
20
-52.325
11
60.725
21
-53.475
0
LINE
8
Black
10
64.725
20
-53.475
11
63.275
21
-53.475
0
LINE
8
Black
10
63.275
20
-53.475
11
63.275
21
-52.325
0
LINE
8
Black
10
63.275
20
-52.325
11
64.725
21
-52.325
0
LINE
8
Black
10
64.725
20
-52.325
11
64.725
21
-53.475
0
LINE
8
Black
10
66.725
20
-53.475
11
65.275
21
-53.475
0
LINE
8
Black
10
65.275
20
-53.475
11
65.275
21
-52.325
0
LINE
8
Black
10
65.275
20
-52.325
11
66.725
21
-52.325
0
LINE
8
Black
10
66.725
20
-52.325
11
66.725
21
-53.475
0
LINE
8
Black
10
62.725
20
-53.475
11
61.275
21
-53.475
0
LINE
8
Black
10
61.275
20
-53.475
11
61.275
21
-52.325
0
LINE
8
Black
10
61.275
20
-52.325
11
62.725
21
-52.325
0
LINE
8
Black
10
62.725
20
-52.325
11
62.725
21
-53.475
0
LINE
8
Black
10
54.725
20
-53.475
11
53.275
21
-53.475
0
LINE
8
Black
10
53.275
20
-53.475
11
53.275
21
-52.325
0
LINE
8
Black
10
53.275
20
-52.325
11
54.725
21
-52.325
0
LINE
8
Black
10
54.725
20
-52.325
11
54.725
21
-53.475
0
LINE
8
Black
10
72.725
20
-53.475
11
71.275
21
-53.475
0
LINE
8
Black
10
71.275
20
-53.475
11
71.275
21
-52.325
0
LINE
8
Black
10
71.275
20
-52.325
11
72.725
21
-52.325
0
LINE
8
Black
10
72.725
20
-52.325
11
72.725
21
-53.475
0
LINE
8
Black
10
68.725
20
-53.475
11
67.275
21
-53.475
0
LINE
8
Black
10
67.275
20
-53.475
11
67.275
21
-52.325
0
LINE
8
Black
10
67.275
20
-52.325
11
68.725
21
-52.325
0
LINE
8
Black
10
68.725
20
-52.325
11
68.725
21
-53.475
0
LINE
8
Black
10
74.725
20
-51.675
11
73.275
21
-51.675
0
LINE
8
Black
10
73.275
20
-51.675
11
73.275
21
-50.525
0
LINE
8
Black
10
73.275
20
-50.525
11
74.725
21
-50.525
0
LINE
8
Black
10
74.725
20
-50.525
11
74.725
21
-51.675
0
LINE
8
Black
10
94.725
20
-51.675
11
93.275
21
-51.675
0
LINE
8
Black
10
93.275
20
-51.675
11
93.275
21
-50.525
0
LINE
8
Black
10
93.275
20
-50.525
11
94.725
21
-50.525
0
LINE
8
Black
10
94.725
20
-50.525
11
94.725
21
-51.675
0
LINE
8
Black
10
60.725
20
-51.675
11
59.275
21
-51.675
0
LINE
8
Black
10
59.275
20
-51.675
11
59.275
21
-50.525
0
LINE
8
Black
10
59.275
20
-50.525
11
60.725
21
-50.525
0
LINE
8
Black
10
60.725
20
-50.525
11
60.725
21
-51.675
0
LINE
8
Black
10
90.725
20
-51.675
11
89.275
21
-51.675
0
LINE
8
Black
10
89.275
20
-51.675
11
89.275
21
-50.525
0
LINE
8
Black
10
89.275
20
-50.525
11
90.725
21
-50.525
0
LINE
8
Black
10
90.725
20
-50.525
11
90.725
21
-51.675
0
LINE
8
Black
10
68.725
20
-51.675
11
67.275
21
-51.675
0
LINE
8
Black
10
67.275
20
-51.675
11
67.275
21
-50.525
0
LINE
8
Black
10
67.275
20
-50.525
11
68.725
21
-50.525
0
LINE
8
Black
10
68.725
20
-50.525
11
68.725
21
-51.675
0
LINE
8
Black
10
86.725
20
-51.675
11
85.275
21
-51.675
0
LINE
8
Black
10
85.275
20
-51.675
11
85.275
21
-50.525
0
LINE
8
Black
10
85.275
20
-50.525
11
86.725
21
-50.525
0
LINE
8
Black
10
86.725
20
-50.525
11
86.725
21
-51.675
0
LINE
8
Black
10
82.725
20
-51.675
11
81.275
21
-51.675
0
LINE
8
Black
10
81.275
20
-51.675
11
81.275
21
-50.525
0
LINE
8
Black
10
81.275
20
-50.525
11
82.725
21
-50.525
0
LINE
8
Black
10
82.725
20
-50.525
11
82.725
21
-51.675
0
LINE
8
Black
10
66.725
20
-51.675
11
65.275
21
-51.675
0
LINE
8
Black
10
65.275
20
-51.675
11
65.275
21
-50.525
0
LINE
8
Black
10
65.275
20
-50.525
11
66.725
21
-50.525
0
LINE
8
Black
10
66.725
20
-50.525
11
66.725
21
-51.675
0
LINE
8
Black
10
78.725
20
-51.675
11
77.275
21
-51.675
0
LINE
8
Black
10
77.275
20
-51.675
11
77.275
21
-50.525
0
LINE
8
Black
10
77.275
20
-50.525
11
78.725
21
-50.525
0
LINE
8
Black
10
78.725
20
-50.525
11
78.725
21
-51.675
0
LINE
8
Black
10
76.725
20
-51.675
11
75.275
21
-51.675
0
LINE
8
Black
10
75.275
20
-51.675
11
75.275
21
-50.525
0
LINE
8
Black
10
75.275
20
-50.525
11
76.725
21
-50.525
0
LINE
8
Black
10
76.725
20
-50.525
11
76.725
21
-51.675
0
LINE
8
Black
10
80.725
20
-51.675
11
79.275
21
-51.675
0
LINE
8
Black
10
79.275
20
-51.675
11
79.275
21
-50.525
0
LINE
8
Black
10
79.275
20
-50.525
11
80.725
21
-50.525
0
LINE
8
Black
10
80.725
20
-50.525
11
80.725
21
-51.675
0
LINE
8
Black
10
62.725
20
-51.675
11
61.275
21
-51.675
0
LINE
8
Black
10
61.275
20
-51.675
11
61.275
21
-50.525
0
LINE
8
Black
10
61.275
20
-50.525
11
62.725
21
-50.525
0
LINE
8
Black
10
62.725
20
-50.525
11
62.725
21
-51.675
0
LINE
8
Black
10
70.725
20
-51.675
11
69.275
21
-51.675
0
LINE
8
Black
10
69.275
20
-51.675
11
69.275
21
-50.525
0
LINE
8
Black
10
69.275
20
-50.525
11
70.725
21
-50.525
0
LINE
8
Black
10
70.725
20
-50.525
11
70.725
21
-51.675
0
LINE
8
Black
10
72.725
20
-51.675
11
71.275
21
-51.675
0
LINE
8
Black
10
71.275
20
-51.675
11
71.275
21
-50.525
0
LINE
8
Black
10
71.275
20
-50.525
11
72.725
21
-50.525
0
LINE
8
Black
10
72.725
20
-50.525
11
72.725
21
-51.675
0
LINE
8
Black
10
96.725
20
-51.675
11
95.275
21
-51.675
0
LINE
8
Black
10
95.275
20
-51.675
11
95.275
21
-50.525
0
LINE
8
Black
10
95.275
20
-50.525
11
96.725
21
-50.525
0
LINE
8
Black
10
96.725
20
-50.525
11
96.725
21
-51.675
0
LINE
8
Black
10
58.725
20
-51.675
11
57.275
21
-51.675
0
LINE
8
Black
10
57.275
20
-51.675
11
57.275
21
-50.525
0
LINE
8
Black
10
57.275
20
-50.525
11
58.725
21
-50.525
0
LINE
8
Black
10
58.725
20
-50.525
11
58.725
21
-51.675
0
LINE
8
Black
10
92.725
20
-51.675
11
91.275
21
-51.675
0
LINE
8
Black
10
91.275
20
-51.675
11
91.275
21
-50.525
0
LINE
8
Black
10
91.275
20
-50.525
11
92.725
21
-50.525
0
LINE
8
Black
10
92.725
20
-50.525
11
92.725
21
-51.675
0
LINE
8
Black
10
64.725
20
-51.675
11
63.275
21
-51.675
0
LINE
8
Black
10
63.275
20
-51.675
11
63.275
21
-50.525
0
LINE
8
Black
10
63.275
20
-50.525
11
64.725
21
-50.525
0
LINE
8
Black
10
64.725
20
-50.525
11
64.725
21
-51.675
0
LINE
8
Black
10
88.725
20
-51.675
11
87.275
21
-51.675
0
LINE
8
Black
10
87.275
20
-51.675
11
87.275
21
-50.525
0
LINE
8
Black
10
87.275
20
-50.525
11
88.725
21
-50.525
0
LINE
8
Black
10
88.725
20
-50.525
11
88.725
21
-51.675
0
LINE
8
Black
10
54.725
20
-51.675
11
53.275
21
-51.675
0
LINE
8
Black
10
53.275
20
-51.675
11
53.275
21
-50.525
0
LINE
8
Black
10
53.275
20
-50.525
11
54.725
21
-50.525
0
LINE
8
Black
10
54.725
20
-50.525
11
54.725
21
-51.675
0
LINE
8
Black
10
84.725
20
-51.675
11
83.275
21
-51.675
0
LINE
8
Black
10
83.275
20
-51.675
11
83.275
21
-50.525
0
LINE
8
Black
10
83.275
20
-50.525
11
84.725
21
-50.525
0
LINE
8
Black
10
84.725
20
-50.525
11
84.725
21
-51.675
0
LINE
8
Black
10
56.725
20
-51.675
11
55.275
21
-51.675
0
LINE
8
Black
10
55.275
20
-51.675
11
55.275
21
-50.525
0
LINE
8
Black
10
55.275
20
-50.525
11
56.725
21
-50.525
0
LINE
8
Black
10
56.725
20
-50.525
11
56.725
21
-51.675
  0
ENDSEC
  0
EOF
