G04 #@! TF.FileFunction,Other,Fab,Top*
%FSLAX46Y46*%
G04 Gerber Fmt 4.6, Leading zero omitted, Abs format (unit mm)*
G04 Created by KiCad (PCBNEW 0.201512311516+6410~40~ubuntu14.04.1-stable) date Sun 03 Jan 2016 08:31:07 GMT*
%MOMM*%
G01*
G04 APERTURE LIST*
%ADD10C,0.100000*%
%ADD11C,0.010000*%
%ADD12C,0.150000*%
G04 APERTURE END LIST*
D10*
D11*
X73500000Y-69625000D02*
X71500000Y-69625000D01*
X71500000Y-69625000D02*
X71500000Y-68375000D01*
X71500000Y-68375000D02*
X73500000Y-68375000D01*
X73500000Y-68375000D02*
X73500000Y-69625000D01*
X73000000Y-69625000D02*
X73000000Y-68375000D01*
X72000000Y-69625000D02*
X72000000Y-68375000D01*
X59000000Y-61625000D02*
X57000000Y-61625000D01*
X57000000Y-61625000D02*
X57000000Y-60375000D01*
X57000000Y-60375000D02*
X59000000Y-60375000D01*
X59000000Y-60375000D02*
X59000000Y-61625000D01*
X58500000Y-61625000D02*
X58500000Y-60375000D01*
X57500000Y-61625000D02*
X57500000Y-60375000D01*
X82500000Y-69625000D02*
X80500000Y-69625000D01*
X80500000Y-69625000D02*
X80500000Y-68375000D01*
X80500000Y-68375000D02*
X82500000Y-68375000D01*
X82500000Y-68375000D02*
X82500000Y-69625000D01*
X82000000Y-69625000D02*
X82000000Y-68375000D01*
X81000000Y-69625000D02*
X81000000Y-68375000D01*
X86625000Y-62500000D02*
X86625000Y-64500000D01*
X86625000Y-64500000D02*
X85375000Y-64500000D01*
X85375000Y-64500000D02*
X85375000Y-62500000D01*
X85375000Y-62500000D02*
X86625000Y-62500000D01*
X86625000Y-63000000D02*
X85375000Y-63000000D01*
X86625000Y-64000000D02*
X85375000Y-64000000D01*
X92875000Y-64500000D02*
X92875000Y-62500000D01*
X92875000Y-62500000D02*
X94125000Y-62500000D01*
X94125000Y-62500000D02*
X94125000Y-64500000D01*
X94125000Y-64500000D02*
X92875000Y-64500000D01*
X92875000Y-64000000D02*
X94125000Y-64000000D01*
X92875000Y-63000000D02*
X94125000Y-63000000D01*
X54625000Y-51000000D02*
X54625000Y-53000000D01*
X54625000Y-53000000D02*
X53375000Y-53000000D01*
X53375000Y-53000000D02*
X53375000Y-51000000D01*
X53375000Y-51000000D02*
X54625000Y-51000000D01*
X54625000Y-51500000D02*
X53375000Y-51500000D01*
X54625000Y-52500000D02*
X53375000Y-52500000D01*
X58625000Y-51000000D02*
X58625000Y-53000000D01*
X58625000Y-53000000D02*
X57375000Y-53000000D01*
X57375000Y-53000000D02*
X57375000Y-51000000D01*
X57375000Y-51000000D02*
X58625000Y-51000000D01*
X58625000Y-51500000D02*
X57375000Y-51500000D01*
X58625000Y-52500000D02*
X57375000Y-52500000D01*
X62625000Y-51000000D02*
X62625000Y-53000000D01*
X62625000Y-53000000D02*
X61375000Y-53000000D01*
X61375000Y-53000000D02*
X61375000Y-51000000D01*
X61375000Y-51000000D02*
X62625000Y-51000000D01*
X62625000Y-51500000D02*
X61375000Y-51500000D01*
X62625000Y-52500000D02*
X61375000Y-52500000D01*
X66625000Y-51000000D02*
X66625000Y-53000000D01*
X66625000Y-53000000D02*
X65375000Y-53000000D01*
X65375000Y-53000000D02*
X65375000Y-51000000D01*
X65375000Y-51000000D02*
X66625000Y-51000000D01*
X66625000Y-51500000D02*
X65375000Y-51500000D01*
X66625000Y-52500000D02*
X65375000Y-52500000D01*
X70625000Y-51000000D02*
X70625000Y-53000000D01*
X70625000Y-53000000D02*
X69375000Y-53000000D01*
X69375000Y-53000000D02*
X69375000Y-51000000D01*
X69375000Y-51000000D02*
X70625000Y-51000000D01*
X70625000Y-51500000D02*
X69375000Y-51500000D01*
X70625000Y-52500000D02*
X69375000Y-52500000D01*
X74625000Y-51000000D02*
X74625000Y-53000000D01*
X74625000Y-53000000D02*
X73375000Y-53000000D01*
X73375000Y-53000000D02*
X73375000Y-51000000D01*
X73375000Y-51000000D02*
X74625000Y-51000000D01*
X74625000Y-51500000D02*
X73375000Y-51500000D01*
X74625000Y-52500000D02*
X73375000Y-52500000D01*
X78625000Y-51000000D02*
X78625000Y-53000000D01*
X78625000Y-53000000D02*
X77375000Y-53000000D01*
X77375000Y-53000000D02*
X77375000Y-51000000D01*
X77375000Y-51000000D02*
X78625000Y-51000000D01*
X78625000Y-51500000D02*
X77375000Y-51500000D01*
X78625000Y-52500000D02*
X77375000Y-52500000D01*
X82625000Y-51000000D02*
X82625000Y-53000000D01*
X82625000Y-53000000D02*
X81375000Y-53000000D01*
X81375000Y-53000000D02*
X81375000Y-51000000D01*
X81375000Y-51000000D02*
X82625000Y-51000000D01*
X82625000Y-51500000D02*
X81375000Y-51500000D01*
X82625000Y-52500000D02*
X81375000Y-52500000D01*
X86625000Y-51000000D02*
X86625000Y-53000000D01*
X86625000Y-53000000D02*
X85375000Y-53000000D01*
X85375000Y-53000000D02*
X85375000Y-51000000D01*
X85375000Y-51000000D02*
X86625000Y-51000000D01*
X86625000Y-51500000D02*
X85375000Y-51500000D01*
X86625000Y-52500000D02*
X85375000Y-52500000D01*
X90625000Y-51000000D02*
X90625000Y-53000000D01*
X90625000Y-53000000D02*
X89375000Y-53000000D01*
X89375000Y-53000000D02*
X89375000Y-51000000D01*
X89375000Y-51000000D02*
X90625000Y-51000000D01*
X90625000Y-51500000D02*
X89375000Y-51500000D01*
X90625000Y-52500000D02*
X89375000Y-52500000D01*
X94625000Y-51000000D02*
X94625000Y-53000000D01*
X94625000Y-53000000D02*
X93375000Y-53000000D01*
X93375000Y-53000000D02*
X93375000Y-51000000D01*
X93375000Y-51000000D02*
X94625000Y-51000000D01*
X94625000Y-51500000D02*
X93375000Y-51500000D01*
X94625000Y-52500000D02*
X93375000Y-52500000D01*
X74000000Y-61500000D02*
X74000000Y-65500000D01*
X74000000Y-65500000D02*
X64000000Y-65500000D01*
X64000000Y-65500000D02*
X64000000Y-61500000D01*
X64000000Y-61500000D02*
X74000000Y-61500000D01*
X73600000Y-62300000D02*
G75*
G03X73600000Y-62300000I-400000J0D01*
G01*
X73695000Y-60400000D02*
X73695000Y-61500000D01*
X73195000Y-61500000D02*
X73195000Y-60400000D01*
X73195000Y-60400000D02*
X73695000Y-60400000D01*
X72425000Y-60400000D02*
X72425000Y-61500000D01*
X71925000Y-61500000D02*
X71925000Y-60400000D01*
X71925000Y-60400000D02*
X72425000Y-60400000D01*
X71155000Y-60400000D02*
X71155000Y-61500000D01*
X70655000Y-61500000D02*
X70655000Y-60400000D01*
X70655000Y-60400000D02*
X71155000Y-60400000D01*
X69885000Y-60400000D02*
X69885000Y-61500000D01*
X69385000Y-61500000D02*
X69385000Y-60400000D01*
X69385000Y-60400000D02*
X69885000Y-60400000D01*
X68615000Y-60400000D02*
X68615000Y-61500000D01*
X68115000Y-61500000D02*
X68115000Y-60400000D01*
X68115000Y-60400000D02*
X68615000Y-60400000D01*
X67345000Y-60400000D02*
X67345000Y-61500000D01*
X66845000Y-61500000D02*
X66845000Y-60400000D01*
X66845000Y-60400000D02*
X67345000Y-60400000D01*
X66075000Y-60400000D02*
X66075000Y-61500000D01*
X65575000Y-61500000D02*
X65575000Y-60400000D01*
X65575000Y-60400000D02*
X66075000Y-60400000D01*
X64805000Y-60400000D02*
X64805000Y-61500000D01*
X64305000Y-61500000D02*
X64305000Y-60400000D01*
X64305000Y-60400000D02*
X64805000Y-60400000D01*
X64805000Y-65500000D02*
X64805000Y-66600000D01*
X64805000Y-66600000D02*
X64305000Y-66600000D01*
X64305000Y-66600000D02*
X64305000Y-65500000D01*
X66075000Y-65500000D02*
X66075000Y-66600000D01*
X66075000Y-66600000D02*
X65575000Y-66600000D01*
X65575000Y-66600000D02*
X65575000Y-65500000D01*
X67345000Y-65500000D02*
X67345000Y-66600000D01*
X67345000Y-66600000D02*
X66845000Y-66600000D01*
X66845000Y-66600000D02*
X66845000Y-65500000D01*
X68615000Y-65500000D02*
X68615000Y-66600000D01*
X68615000Y-66600000D02*
X68115000Y-66600000D01*
X68115000Y-66600000D02*
X68115000Y-65500000D01*
X69885000Y-65500000D02*
X69885000Y-66600000D01*
X69885000Y-66600000D02*
X69385000Y-66600000D01*
X69385000Y-66600000D02*
X69385000Y-65500000D01*
X71155000Y-65500000D02*
X71155000Y-66600000D01*
X71155000Y-66600000D02*
X70655000Y-66600000D01*
X70655000Y-66600000D02*
X70655000Y-65500000D01*
X72425000Y-65500000D02*
X72425000Y-66600000D01*
X72425000Y-66600000D02*
X71925000Y-66600000D01*
X71925000Y-66600000D02*
X71925000Y-65500000D01*
X73695000Y-65500000D02*
X73695000Y-66600000D01*
X73695000Y-66600000D02*
X73195000Y-66600000D01*
X73195000Y-66600000D02*
X73195000Y-65500000D01*
X83000000Y-61500000D02*
X83000000Y-65500000D01*
X83000000Y-65500000D02*
X78000000Y-65500000D01*
X78000000Y-65500000D02*
X78000000Y-61500000D01*
X78000000Y-61500000D02*
X83000000Y-61500000D01*
X82600000Y-62300000D02*
G75*
G03X82600000Y-62300000I-400000J0D01*
G01*
X82655000Y-60400000D02*
X82655000Y-61500000D01*
X82155000Y-61500000D02*
X82155000Y-60400000D01*
X82155000Y-60400000D02*
X82655000Y-60400000D01*
X81385000Y-60400000D02*
X81385000Y-61500000D01*
X80885000Y-61500000D02*
X80885000Y-60400000D01*
X80885000Y-60400000D02*
X81385000Y-60400000D01*
X80115000Y-60400000D02*
X80115000Y-61500000D01*
X79615000Y-61500000D02*
X79615000Y-60400000D01*
X79615000Y-60400000D02*
X80115000Y-60400000D01*
X78845000Y-60400000D02*
X78845000Y-61500000D01*
X78345000Y-61500000D02*
X78345000Y-60400000D01*
X78345000Y-60400000D02*
X78845000Y-60400000D01*
X78845000Y-65500000D02*
X78845000Y-66600000D01*
X78845000Y-66600000D02*
X78345000Y-66600000D01*
X78345000Y-66600000D02*
X78345000Y-65500000D01*
X80115000Y-65500000D02*
X80115000Y-66600000D01*
X80115000Y-66600000D02*
X79615000Y-66600000D01*
X79615000Y-66600000D02*
X79615000Y-65500000D01*
X81385000Y-65500000D02*
X81385000Y-66600000D01*
X81385000Y-66600000D02*
X80885000Y-66600000D01*
X80885000Y-66600000D02*
X80885000Y-65500000D01*
X82655000Y-65500000D02*
X82655000Y-66600000D01*
X82655000Y-66600000D02*
X82155000Y-66600000D01*
X82155000Y-66600000D02*
X82155000Y-65500000D01*
X89125000Y-62500000D02*
X89125000Y-64500000D01*
X89125000Y-64500000D02*
X87875000Y-64500000D01*
X87875000Y-64500000D02*
X87875000Y-62500000D01*
X87875000Y-62500000D02*
X89125000Y-62500000D01*
X89125000Y-63000000D02*
X87875000Y-63000000D01*
X89125000Y-64000000D02*
X87875000Y-64000000D01*
X91625000Y-62500000D02*
X91625000Y-64500000D01*
X91625000Y-64500000D02*
X90375000Y-64500000D01*
X90375000Y-64500000D02*
X90375000Y-62500000D01*
X90375000Y-62500000D02*
X91625000Y-62500000D01*
X91625000Y-63000000D02*
X90375000Y-63000000D01*
X91625000Y-64000000D02*
X90375000Y-64000000D01*
X55375000Y-53000000D02*
X55375000Y-51000000D01*
X55375000Y-51000000D02*
X56625000Y-51000000D01*
X56625000Y-51000000D02*
X56625000Y-53000000D01*
X56625000Y-53000000D02*
X55375000Y-53000000D01*
X55375000Y-52500000D02*
X56625000Y-52500000D01*
X55375000Y-51500000D02*
X56625000Y-51500000D01*
X59375000Y-53000000D02*
X59375000Y-51000000D01*
X59375000Y-51000000D02*
X60625000Y-51000000D01*
X60625000Y-51000000D02*
X60625000Y-53000000D01*
X60625000Y-53000000D02*
X59375000Y-53000000D01*
X59375000Y-52500000D02*
X60625000Y-52500000D01*
X59375000Y-51500000D02*
X60625000Y-51500000D01*
X63375000Y-53000000D02*
X63375000Y-51000000D01*
X63375000Y-51000000D02*
X64625000Y-51000000D01*
X64625000Y-51000000D02*
X64625000Y-53000000D01*
X64625000Y-53000000D02*
X63375000Y-53000000D01*
X63375000Y-52500000D02*
X64625000Y-52500000D01*
X63375000Y-51500000D02*
X64625000Y-51500000D01*
X67375000Y-53000000D02*
X67375000Y-51000000D01*
X67375000Y-51000000D02*
X68625000Y-51000000D01*
X68625000Y-51000000D02*
X68625000Y-53000000D01*
X68625000Y-53000000D02*
X67375000Y-53000000D01*
X67375000Y-52500000D02*
X68625000Y-52500000D01*
X67375000Y-51500000D02*
X68625000Y-51500000D01*
X71375000Y-53000000D02*
X71375000Y-51000000D01*
X71375000Y-51000000D02*
X72625000Y-51000000D01*
X72625000Y-51000000D02*
X72625000Y-53000000D01*
X72625000Y-53000000D02*
X71375000Y-53000000D01*
X71375000Y-52500000D02*
X72625000Y-52500000D01*
X71375000Y-51500000D02*
X72625000Y-51500000D01*
X75375000Y-53000000D02*
X75375000Y-51000000D01*
X75375000Y-51000000D02*
X76625000Y-51000000D01*
X76625000Y-51000000D02*
X76625000Y-53000000D01*
X76625000Y-53000000D02*
X75375000Y-53000000D01*
X75375000Y-52500000D02*
X76625000Y-52500000D01*
X75375000Y-51500000D02*
X76625000Y-51500000D01*
X79375000Y-53000000D02*
X79375000Y-51000000D01*
X79375000Y-51000000D02*
X80625000Y-51000000D01*
X80625000Y-51000000D02*
X80625000Y-53000000D01*
X80625000Y-53000000D02*
X79375000Y-53000000D01*
X79375000Y-52500000D02*
X80625000Y-52500000D01*
X79375000Y-51500000D02*
X80625000Y-51500000D01*
X83375000Y-53000000D02*
X83375000Y-51000000D01*
X83375000Y-51000000D02*
X84625000Y-51000000D01*
X84625000Y-51000000D02*
X84625000Y-53000000D01*
X84625000Y-53000000D02*
X83375000Y-53000000D01*
X83375000Y-52500000D02*
X84625000Y-52500000D01*
X83375000Y-51500000D02*
X84625000Y-51500000D01*
X87375000Y-53000000D02*
X87375000Y-51000000D01*
X87375000Y-51000000D02*
X88625000Y-51000000D01*
X88625000Y-51000000D02*
X88625000Y-53000000D01*
X88625000Y-53000000D02*
X87375000Y-53000000D01*
X87375000Y-52500000D02*
X88625000Y-52500000D01*
X87375000Y-51500000D02*
X88625000Y-51500000D01*
X91375000Y-53000000D02*
X91375000Y-51000000D01*
X91375000Y-51000000D02*
X92625000Y-51000000D01*
X92625000Y-51000000D02*
X92625000Y-53000000D01*
X92625000Y-53000000D02*
X91375000Y-53000000D01*
X91375000Y-52500000D02*
X92625000Y-52500000D01*
X91375000Y-51500000D02*
X92625000Y-51500000D01*
X95375000Y-53000000D02*
X95375000Y-51000000D01*
X95375000Y-51000000D02*
X96625000Y-51000000D01*
X96625000Y-51000000D02*
X96625000Y-53000000D01*
X96625000Y-53000000D02*
X95375000Y-53000000D01*
X95375000Y-52500000D02*
X96625000Y-52500000D01*
X95375000Y-51500000D02*
X96625000Y-51500000D01*
X68150000Y-94800000D02*
X68150000Y-95400000D01*
X68150000Y-95400000D02*
X67850000Y-95400000D01*
X67850000Y-95400000D02*
X67850000Y-94800000D01*
X67850000Y-94800000D02*
X68150000Y-94800000D01*
X68150000Y-94950000D02*
X67850000Y-94950000D01*
X68150000Y-95250000D02*
X67850000Y-95250000D01*
X68150000Y-96500000D02*
X68150000Y-97100000D01*
X68150000Y-97100000D02*
X67850000Y-97100000D01*
X67850000Y-97100000D02*
X67850000Y-96500000D01*
X67850000Y-96500000D02*
X68150000Y-96500000D01*
X68150000Y-96650000D02*
X67850000Y-96650000D01*
X68150000Y-96950000D02*
X67850000Y-96950000D01*
X68150000Y-98200000D02*
X68150000Y-98800000D01*
X68150000Y-98800000D02*
X67850000Y-98800000D01*
X67850000Y-98800000D02*
X67850000Y-98200000D01*
X67850000Y-98200000D02*
X68150000Y-98200000D01*
X68150000Y-98350000D02*
X67850000Y-98350000D01*
X68150000Y-98650000D02*
X67850000Y-98650000D01*
X76150000Y-93600000D02*
X76150000Y-94600000D01*
X76150000Y-94600000D02*
X75650000Y-94600000D01*
X75650000Y-94600000D02*
X75650000Y-93600000D01*
X75650000Y-93600000D02*
X76150000Y-93600000D01*
X76150000Y-93900000D02*
X75650000Y-93900000D01*
X76150000Y-94300000D02*
X75650000Y-94300000D01*
X76150000Y-95700000D02*
X76150000Y-96700000D01*
X76150000Y-96700000D02*
X75650000Y-96700000D01*
X75650000Y-96700000D02*
X75650000Y-95700000D01*
X75650000Y-95700000D02*
X76150000Y-95700000D01*
X76150000Y-96000000D02*
X75650000Y-96000000D01*
X76150000Y-96400000D02*
X75650000Y-96400000D01*
X76150000Y-97800000D02*
X76150000Y-98800000D01*
X76150000Y-98800000D02*
X75650000Y-98800000D01*
X75650000Y-98800000D02*
X75650000Y-97800000D01*
X75650000Y-97800000D02*
X76150000Y-97800000D01*
X76150000Y-98100000D02*
X75650000Y-98100000D01*
X76150000Y-98500000D02*
X75650000Y-98500000D01*
X86600000Y-90800000D02*
X86600000Y-92400000D01*
X86600000Y-92400000D02*
X85800000Y-92400000D01*
X85800000Y-92400000D02*
X85800000Y-90800000D01*
X85800000Y-90800000D02*
X86600000Y-90800000D01*
X86600000Y-91150000D02*
X85800000Y-91150000D01*
X86600000Y-92050000D02*
X85800000Y-92050000D01*
X86600000Y-93900000D02*
X86600000Y-95500000D01*
X86600000Y-95500000D02*
X85800000Y-95500000D01*
X85800000Y-95500000D02*
X85800000Y-93900000D01*
X85800000Y-93900000D02*
X86600000Y-93900000D01*
X86600000Y-94250000D02*
X85800000Y-94250000D01*
X86600000Y-95150000D02*
X85800000Y-95150000D01*
X86600000Y-97000000D02*
X86600000Y-98600000D01*
X86600000Y-98600000D02*
X85800000Y-98600000D01*
X85800000Y-98600000D02*
X85800000Y-97000000D01*
X85800000Y-97000000D02*
X86600000Y-97000000D01*
X86600000Y-97350000D02*
X85800000Y-97350000D01*
X86600000Y-98250000D02*
X85800000Y-98250000D01*
X94625000Y-89600000D02*
X94625000Y-91600000D01*
X94625000Y-91600000D02*
X93375000Y-91600000D01*
X93375000Y-91600000D02*
X93375000Y-89600000D01*
X93375000Y-89600000D02*
X94625000Y-89600000D01*
X94625000Y-90100000D02*
X93375000Y-90100000D01*
X94625000Y-91100000D02*
X93375000Y-91100000D01*
X94625000Y-93100000D02*
X94625000Y-95100000D01*
X94625000Y-95100000D02*
X93375000Y-95100000D01*
X93375000Y-95100000D02*
X93375000Y-93100000D01*
X93375000Y-93100000D02*
X94625000Y-93100000D01*
X94625000Y-93600000D02*
X93375000Y-93600000D01*
X94625000Y-94600000D02*
X93375000Y-94600000D01*
X94625000Y-96600000D02*
X94625000Y-98600000D01*
X94625000Y-98600000D02*
X93375000Y-98600000D01*
X93375000Y-98600000D02*
X93375000Y-96600000D01*
X93375000Y-96600000D02*
X94625000Y-96600000D01*
X94625000Y-97100000D02*
X93375000Y-97100000D01*
X94625000Y-98100000D02*
X93375000Y-98100000D01*
X97000000Y-86000000D02*
X97000000Y-89200000D01*
X97000000Y-89200000D02*
X95400000Y-89200000D01*
X95400000Y-89200000D02*
X95400000Y-86000000D01*
X95400000Y-86000000D02*
X97000000Y-86000000D01*
X97000000Y-86600000D02*
X95400000Y-86600000D01*
X97000000Y-88600000D02*
X95400000Y-88600000D01*
X97000000Y-90700000D02*
X97000000Y-93900000D01*
X97000000Y-93900000D02*
X95400000Y-93900000D01*
X95400000Y-93900000D02*
X95400000Y-90700000D01*
X95400000Y-90700000D02*
X97000000Y-90700000D01*
X97000000Y-91300000D02*
X95400000Y-91300000D01*
X97000000Y-93300000D02*
X95400000Y-93300000D01*
X97000000Y-95400000D02*
X97000000Y-98600000D01*
X97000000Y-98600000D02*
X95400000Y-98600000D01*
X95400000Y-98600000D02*
X95400000Y-95400000D01*
X95400000Y-95400000D02*
X97000000Y-95400000D01*
X97000000Y-96000000D02*
X95400000Y-96000000D01*
X97000000Y-98000000D02*
X95400000Y-98000000D01*
X67150000Y-94800000D02*
X67150000Y-95400000D01*
X67150000Y-95400000D02*
X66850000Y-95400000D01*
X66850000Y-95400000D02*
X66850000Y-94800000D01*
X66850000Y-94800000D02*
X67150000Y-94800000D01*
X67150000Y-94950000D02*
X66850000Y-94950000D01*
X67150000Y-95250000D02*
X66850000Y-95250000D01*
X67150000Y-96500000D02*
X67150000Y-97100000D01*
X67150000Y-97100000D02*
X66850000Y-97100000D01*
X66850000Y-97100000D02*
X66850000Y-96500000D01*
X66850000Y-96500000D02*
X67150000Y-96500000D01*
X67150000Y-96650000D02*
X66850000Y-96650000D01*
X67150000Y-96950000D02*
X66850000Y-96950000D01*
X67150000Y-98200000D02*
X67150000Y-98800000D01*
X67150000Y-98800000D02*
X66850000Y-98800000D01*
X66850000Y-98800000D02*
X66850000Y-98200000D01*
X66850000Y-98200000D02*
X67150000Y-98200000D01*
X67150000Y-98350000D02*
X66850000Y-98350000D01*
X67150000Y-98650000D02*
X66850000Y-98650000D01*
X74950000Y-93600000D02*
X74950000Y-94600000D01*
X74950000Y-94600000D02*
X74450000Y-94600000D01*
X74450000Y-94600000D02*
X74450000Y-93600000D01*
X74450000Y-93600000D02*
X74950000Y-93600000D01*
X74950000Y-93900000D02*
X74450000Y-93900000D01*
X74950000Y-94300000D02*
X74450000Y-94300000D01*
X74950000Y-95700000D02*
X74950000Y-96700000D01*
X74950000Y-96700000D02*
X74450000Y-96700000D01*
X74450000Y-96700000D02*
X74450000Y-95700000D01*
X74450000Y-95700000D02*
X74950000Y-95700000D01*
X74950000Y-96000000D02*
X74450000Y-96000000D01*
X74950000Y-96400000D02*
X74450000Y-96400000D01*
X74950000Y-97800000D02*
X74950000Y-98800000D01*
X74950000Y-98800000D02*
X74450000Y-98800000D01*
X74450000Y-98800000D02*
X74450000Y-97800000D01*
X74450000Y-97800000D02*
X74950000Y-97800000D01*
X74950000Y-98100000D02*
X74450000Y-98100000D01*
X74950000Y-98500000D02*
X74450000Y-98500000D01*
X85100000Y-90800000D02*
X85100000Y-92400000D01*
X85100000Y-92400000D02*
X84300000Y-92400000D01*
X84300000Y-92400000D02*
X84300000Y-90800000D01*
X84300000Y-90800000D02*
X85100000Y-90800000D01*
X85100000Y-91150000D02*
X84300000Y-91150000D01*
X85100000Y-92050000D02*
X84300000Y-92050000D01*
X85100000Y-93900000D02*
X85100000Y-95500000D01*
X85100000Y-95500000D02*
X84300000Y-95500000D01*
X84300000Y-95500000D02*
X84300000Y-93900000D01*
X84300000Y-93900000D02*
X85100000Y-93900000D01*
X85100000Y-94250000D02*
X84300000Y-94250000D01*
X85100000Y-95150000D02*
X84300000Y-95150000D01*
X85100000Y-97000000D02*
X85100000Y-98600000D01*
X85100000Y-98600000D02*
X84300000Y-98600000D01*
X84300000Y-98600000D02*
X84300000Y-97000000D01*
X84300000Y-97000000D02*
X85100000Y-97000000D01*
X85100000Y-97350000D02*
X84300000Y-97350000D01*
X85100000Y-98250000D02*
X84300000Y-98250000D01*
X92625000Y-89600000D02*
X92625000Y-91600000D01*
X92625000Y-91600000D02*
X91375000Y-91600000D01*
X91375000Y-91600000D02*
X91375000Y-89600000D01*
X91375000Y-89600000D02*
X92625000Y-89600000D01*
X92625000Y-90100000D02*
X91375000Y-90100000D01*
X92625000Y-91100000D02*
X91375000Y-91100000D01*
X92625000Y-93100000D02*
X92625000Y-95100000D01*
X92625000Y-95100000D02*
X91375000Y-95100000D01*
X91375000Y-95100000D02*
X91375000Y-93100000D01*
X91375000Y-93100000D02*
X92625000Y-93100000D01*
X92625000Y-93600000D02*
X91375000Y-93600000D01*
X92625000Y-94600000D02*
X91375000Y-94600000D01*
X92625000Y-96600000D02*
X92625000Y-98600000D01*
X92625000Y-98600000D02*
X91375000Y-98600000D01*
X91375000Y-98600000D02*
X91375000Y-96600000D01*
X91375000Y-96600000D02*
X92625000Y-96600000D01*
X92625000Y-97100000D02*
X91375000Y-97100000D01*
X92625000Y-98100000D02*
X91375000Y-98100000D01*
X99300000Y-86000000D02*
X99300000Y-89200000D01*
X99300000Y-89200000D02*
X97700000Y-89200000D01*
X97700000Y-89200000D02*
X97700000Y-86000000D01*
X97700000Y-86000000D02*
X99300000Y-86000000D01*
X99300000Y-86600000D02*
X97700000Y-86600000D01*
X99300000Y-88600000D02*
X97700000Y-88600000D01*
X99300000Y-90700000D02*
X99300000Y-93900000D01*
X99300000Y-93900000D02*
X97700000Y-93900000D01*
X97700000Y-93900000D02*
X97700000Y-90700000D01*
X97700000Y-90700000D02*
X99300000Y-90700000D01*
X99300000Y-91300000D02*
X97700000Y-91300000D01*
X99300000Y-93300000D02*
X97700000Y-93300000D01*
X99300000Y-95400000D02*
X99300000Y-98600000D01*
X99300000Y-98600000D02*
X97700000Y-98600000D01*
X97700000Y-98600000D02*
X97700000Y-95400000D01*
X97700000Y-95400000D02*
X99300000Y-95400000D01*
X99300000Y-96000000D02*
X97700000Y-96000000D01*
X99300000Y-98000000D02*
X97700000Y-98000000D01*
X66150000Y-94800000D02*
X66150000Y-95400000D01*
X66150000Y-95400000D02*
X65850000Y-95400000D01*
X65850000Y-95400000D02*
X65850000Y-94800000D01*
X65850000Y-94800000D02*
X66150000Y-94800000D01*
X66150000Y-94950000D02*
X65850000Y-94950000D01*
X66150000Y-95250000D02*
X65850000Y-95250000D01*
X66150000Y-96500000D02*
X66150000Y-97100000D01*
X66150000Y-97100000D02*
X65850000Y-97100000D01*
X65850000Y-97100000D02*
X65850000Y-96500000D01*
X65850000Y-96500000D02*
X66150000Y-96500000D01*
X66150000Y-96650000D02*
X65850000Y-96650000D01*
X66150000Y-96950000D02*
X65850000Y-96950000D01*
X66150000Y-98200000D02*
X66150000Y-98800000D01*
X66150000Y-98800000D02*
X65850000Y-98800000D01*
X65850000Y-98800000D02*
X65850000Y-98200000D01*
X65850000Y-98200000D02*
X66150000Y-98200000D01*
X66150000Y-98350000D02*
X65850000Y-98350000D01*
X66150000Y-98650000D02*
X65850000Y-98650000D01*
X73750000Y-93600000D02*
X73750000Y-94600000D01*
X73750000Y-94600000D02*
X73250000Y-94600000D01*
X73250000Y-94600000D02*
X73250000Y-93600000D01*
X73250000Y-93600000D02*
X73750000Y-93600000D01*
X73750000Y-93900000D02*
X73250000Y-93900000D01*
X73750000Y-94300000D02*
X73250000Y-94300000D01*
X73750000Y-95700000D02*
X73750000Y-96700000D01*
X73750000Y-96700000D02*
X73250000Y-96700000D01*
X73250000Y-96700000D02*
X73250000Y-95700000D01*
X73250000Y-95700000D02*
X73750000Y-95700000D01*
X73750000Y-96000000D02*
X73250000Y-96000000D01*
X73750000Y-96400000D02*
X73250000Y-96400000D01*
X73750000Y-97800000D02*
X73750000Y-98800000D01*
X73750000Y-98800000D02*
X73250000Y-98800000D01*
X73250000Y-98800000D02*
X73250000Y-97800000D01*
X73250000Y-97800000D02*
X73750000Y-97800000D01*
X73750000Y-98100000D02*
X73250000Y-98100000D01*
X73750000Y-98500000D02*
X73250000Y-98500000D01*
X83600000Y-90800000D02*
X83600000Y-92400000D01*
X83600000Y-92400000D02*
X82800000Y-92400000D01*
X82800000Y-92400000D02*
X82800000Y-90800000D01*
X82800000Y-90800000D02*
X83600000Y-90800000D01*
X83600000Y-91150000D02*
X82800000Y-91150000D01*
X83600000Y-92050000D02*
X82800000Y-92050000D01*
X83600000Y-93900000D02*
X83600000Y-95500000D01*
X83600000Y-95500000D02*
X82800000Y-95500000D01*
X82800000Y-95500000D02*
X82800000Y-93900000D01*
X82800000Y-93900000D02*
X83600000Y-93900000D01*
X83600000Y-94250000D02*
X82800000Y-94250000D01*
X83600000Y-95150000D02*
X82800000Y-95150000D01*
X83600000Y-97000000D02*
X83600000Y-98600000D01*
X83600000Y-98600000D02*
X82800000Y-98600000D01*
X82800000Y-98600000D02*
X82800000Y-97000000D01*
X82800000Y-97000000D02*
X83600000Y-97000000D01*
X83600000Y-97350000D02*
X82800000Y-97350000D01*
X83600000Y-98250000D02*
X82800000Y-98250000D01*
X90625000Y-89600000D02*
X90625000Y-91600000D01*
X90625000Y-91600000D02*
X89375000Y-91600000D01*
X89375000Y-91600000D02*
X89375000Y-89600000D01*
X89375000Y-89600000D02*
X90625000Y-89600000D01*
X90625000Y-90100000D02*
X89375000Y-90100000D01*
X90625000Y-91100000D02*
X89375000Y-91100000D01*
X90625000Y-93100000D02*
X90625000Y-95100000D01*
X90625000Y-95100000D02*
X89375000Y-95100000D01*
X89375000Y-95100000D02*
X89375000Y-93100000D01*
X89375000Y-93100000D02*
X90625000Y-93100000D01*
X90625000Y-93600000D02*
X89375000Y-93600000D01*
X90625000Y-94600000D02*
X89375000Y-94600000D01*
X90625000Y-96600000D02*
X90625000Y-98600000D01*
X90625000Y-98600000D02*
X89375000Y-98600000D01*
X89375000Y-98600000D02*
X89375000Y-96600000D01*
X89375000Y-96600000D02*
X90625000Y-96600000D01*
X90625000Y-97100000D02*
X89375000Y-97100000D01*
X90625000Y-98100000D02*
X89375000Y-98100000D01*
X65150000Y-94800000D02*
X65150000Y-95400000D01*
X65150000Y-95400000D02*
X64850000Y-95400000D01*
X64850000Y-95400000D02*
X64850000Y-94800000D01*
X64850000Y-94800000D02*
X65150000Y-94800000D01*
X65150000Y-94950000D02*
X64850000Y-94950000D01*
X65150000Y-95250000D02*
X64850000Y-95250000D01*
X65150000Y-96500000D02*
X65150000Y-97100000D01*
X65150000Y-97100000D02*
X64850000Y-97100000D01*
X64850000Y-97100000D02*
X64850000Y-96500000D01*
X64850000Y-96500000D02*
X65150000Y-96500000D01*
X65150000Y-96650000D02*
X64850000Y-96650000D01*
X65150000Y-96950000D02*
X64850000Y-96950000D01*
X65150000Y-98200000D02*
X65150000Y-98800000D01*
X65150000Y-98800000D02*
X64850000Y-98800000D01*
X64850000Y-98800000D02*
X64850000Y-98200000D01*
X64850000Y-98200000D02*
X65150000Y-98200000D01*
X65150000Y-98350000D02*
X64850000Y-98350000D01*
X65150000Y-98650000D02*
X64850000Y-98650000D01*
X72550000Y-93600000D02*
X72550000Y-94600000D01*
X72550000Y-94600000D02*
X72050000Y-94600000D01*
X72050000Y-94600000D02*
X72050000Y-93600000D01*
X72050000Y-93600000D02*
X72550000Y-93600000D01*
X72550000Y-93900000D02*
X72050000Y-93900000D01*
X72550000Y-94300000D02*
X72050000Y-94300000D01*
X72550000Y-95700000D02*
X72550000Y-96700000D01*
X72550000Y-96700000D02*
X72050000Y-96700000D01*
X72050000Y-96700000D02*
X72050000Y-95700000D01*
X72050000Y-95700000D02*
X72550000Y-95700000D01*
X72550000Y-96000000D02*
X72050000Y-96000000D01*
X72550000Y-96400000D02*
X72050000Y-96400000D01*
X72550000Y-97800000D02*
X72550000Y-98800000D01*
X72550000Y-98800000D02*
X72050000Y-98800000D01*
X72050000Y-98800000D02*
X72050000Y-97800000D01*
X72050000Y-97800000D02*
X72550000Y-97800000D01*
X72550000Y-98100000D02*
X72050000Y-98100000D01*
X72550000Y-98500000D02*
X72050000Y-98500000D01*
X82100000Y-90800000D02*
X82100000Y-92400000D01*
X82100000Y-92400000D02*
X81300000Y-92400000D01*
X81300000Y-92400000D02*
X81300000Y-90800000D01*
X81300000Y-90800000D02*
X82100000Y-90800000D01*
X82100000Y-91150000D02*
X81300000Y-91150000D01*
X82100000Y-92050000D02*
X81300000Y-92050000D01*
X82100000Y-93900000D02*
X82100000Y-95500000D01*
X82100000Y-95500000D02*
X81300000Y-95500000D01*
X81300000Y-95500000D02*
X81300000Y-93900000D01*
X81300000Y-93900000D02*
X82100000Y-93900000D01*
X82100000Y-94250000D02*
X81300000Y-94250000D01*
X82100000Y-95150000D02*
X81300000Y-95150000D01*
X82100000Y-97000000D02*
X82100000Y-98600000D01*
X82100000Y-98600000D02*
X81300000Y-98600000D01*
X81300000Y-98600000D02*
X81300000Y-97000000D01*
X81300000Y-97000000D02*
X82100000Y-97000000D01*
X82100000Y-97350000D02*
X81300000Y-97350000D01*
X82100000Y-98250000D02*
X81300000Y-98250000D01*
X82700000Y-83950000D02*
X85800000Y-83950000D01*
X85800000Y-83950000D02*
X85800000Y-87050000D01*
X85800000Y-87050000D02*
X82700000Y-87050000D01*
X82700000Y-87050000D02*
X82700000Y-83950000D01*
X83900000Y-84750000D02*
G75*
G03X83900000Y-84750000I-400000J0D01*
G01*
X81700000Y-84335000D02*
X82700000Y-84335000D01*
X82700000Y-84715000D02*
X81700000Y-84715000D01*
X81700000Y-84715000D02*
X81700000Y-84335000D01*
X81700000Y-84985000D02*
X82700000Y-84985000D01*
X82700000Y-85365000D02*
X81700000Y-85365000D01*
X81700000Y-85365000D02*
X81700000Y-84985000D01*
X81700000Y-85635000D02*
X82700000Y-85635000D01*
X82700000Y-86015000D02*
X81700000Y-86015000D01*
X81700000Y-86015000D02*
X81700000Y-85635000D01*
X81700000Y-86285000D02*
X82700000Y-86285000D01*
X82700000Y-86665000D02*
X81700000Y-86665000D01*
X81700000Y-86665000D02*
X81700000Y-86285000D01*
X85800000Y-86285000D02*
X86800000Y-86285000D01*
X86800000Y-86285000D02*
X86800000Y-86665000D01*
X86800000Y-86665000D02*
X85800000Y-86665000D01*
X85800000Y-85635000D02*
X86800000Y-85635000D01*
X86800000Y-85635000D02*
X86800000Y-86015000D01*
X86800000Y-86015000D02*
X85800000Y-86015000D01*
X85800000Y-84985000D02*
X86800000Y-84985000D01*
X86800000Y-84985000D02*
X86800000Y-85365000D01*
X86800000Y-85365000D02*
X85800000Y-85365000D01*
X85800000Y-84335000D02*
X86800000Y-84335000D01*
X86800000Y-84335000D02*
X86800000Y-84715000D01*
X86800000Y-84715000D02*
X85800000Y-84715000D01*
X82650000Y-73400000D02*
X89850000Y-73400000D01*
X89850000Y-73400000D02*
X89850000Y-80600000D01*
X89850000Y-80600000D02*
X82650000Y-80600000D01*
X82650000Y-80600000D02*
X82650000Y-73400000D01*
X83850000Y-74200000D02*
G75*
G03X83850000Y-74200000I-400000J0D01*
G01*
X81650000Y-74115000D02*
X82650000Y-74115000D01*
X82650000Y-74385000D02*
X81650000Y-74385000D01*
X81650000Y-74385000D02*
X81650000Y-74115000D01*
X81650000Y-74615000D02*
X82650000Y-74615000D01*
X82650000Y-74885000D02*
X81650000Y-74885000D01*
X81650000Y-74885000D02*
X81650000Y-74615000D01*
X81650000Y-75115000D02*
X82650000Y-75115000D01*
X82650000Y-75385000D02*
X81650000Y-75385000D01*
X81650000Y-75385000D02*
X81650000Y-75115000D01*
X81650000Y-75615000D02*
X82650000Y-75615000D01*
X82650000Y-75885000D02*
X81650000Y-75885000D01*
X81650000Y-75885000D02*
X81650000Y-75615000D01*
X81650000Y-76115000D02*
X82650000Y-76115000D01*
X82650000Y-76385000D02*
X81650000Y-76385000D01*
X81650000Y-76385000D02*
X81650000Y-76115000D01*
X81650000Y-76615000D02*
X82650000Y-76615000D01*
X82650000Y-76885000D02*
X81650000Y-76885000D01*
X81650000Y-76885000D02*
X81650000Y-76615000D01*
X81650000Y-77115000D02*
X82650000Y-77115000D01*
X82650000Y-77385000D02*
X81650000Y-77385000D01*
X81650000Y-77385000D02*
X81650000Y-77115000D01*
X81650000Y-77615000D02*
X82650000Y-77615000D01*
X82650000Y-77885000D02*
X81650000Y-77885000D01*
X81650000Y-77885000D02*
X81650000Y-77615000D01*
X81650000Y-78115000D02*
X82650000Y-78115000D01*
X82650000Y-78385000D02*
X81650000Y-78385000D01*
X81650000Y-78385000D02*
X81650000Y-78115000D01*
X81650000Y-78615000D02*
X82650000Y-78615000D01*
X82650000Y-78885000D02*
X81650000Y-78885000D01*
X81650000Y-78885000D02*
X81650000Y-78615000D01*
X81650000Y-79115000D02*
X82650000Y-79115000D01*
X82650000Y-79385000D02*
X81650000Y-79385000D01*
X81650000Y-79385000D02*
X81650000Y-79115000D01*
X81650000Y-79615000D02*
X82650000Y-79615000D01*
X82650000Y-79885000D02*
X81650000Y-79885000D01*
X81650000Y-79885000D02*
X81650000Y-79615000D01*
X89850000Y-79615000D02*
X90850000Y-79615000D01*
X90850000Y-79615000D02*
X90850000Y-79885000D01*
X90850000Y-79885000D02*
X89850000Y-79885000D01*
X89850000Y-79115000D02*
X90850000Y-79115000D01*
X90850000Y-79115000D02*
X90850000Y-79385000D01*
X90850000Y-79385000D02*
X89850000Y-79385000D01*
X89850000Y-78615000D02*
X90850000Y-78615000D01*
X90850000Y-78615000D02*
X90850000Y-78885000D01*
X90850000Y-78885000D02*
X89850000Y-78885000D01*
X89850000Y-78115000D02*
X90850000Y-78115000D01*
X90850000Y-78115000D02*
X90850000Y-78385000D01*
X90850000Y-78385000D02*
X89850000Y-78385000D01*
X89850000Y-77615000D02*
X90850000Y-77615000D01*
X90850000Y-77615000D02*
X90850000Y-77885000D01*
X90850000Y-77885000D02*
X89850000Y-77885000D01*
X89850000Y-77115000D02*
X90850000Y-77115000D01*
X90850000Y-77115000D02*
X90850000Y-77385000D01*
X90850000Y-77385000D02*
X89850000Y-77385000D01*
X89850000Y-76615000D02*
X90850000Y-76615000D01*
X90850000Y-76615000D02*
X90850000Y-76885000D01*
X90850000Y-76885000D02*
X89850000Y-76885000D01*
X89850000Y-76115000D02*
X90850000Y-76115000D01*
X90850000Y-76115000D02*
X90850000Y-76385000D01*
X90850000Y-76385000D02*
X89850000Y-76385000D01*
X89850000Y-75615000D02*
X90850000Y-75615000D01*
X90850000Y-75615000D02*
X90850000Y-75885000D01*
X90850000Y-75885000D02*
X89850000Y-75885000D01*
X89850000Y-75115000D02*
X90850000Y-75115000D01*
X90850000Y-75115000D02*
X90850000Y-75385000D01*
X90850000Y-75385000D02*
X89850000Y-75385000D01*
X89850000Y-74615000D02*
X90850000Y-74615000D01*
X90850000Y-74615000D02*
X90850000Y-74885000D01*
X90850000Y-74885000D02*
X89850000Y-74885000D01*
X89850000Y-74115000D02*
X90850000Y-74115000D01*
X90850000Y-74115000D02*
X90850000Y-74385000D01*
X90850000Y-74385000D02*
X89850000Y-74385000D01*
X88865000Y-72400000D02*
X89135000Y-72400000D01*
X89135000Y-72400000D02*
X89135000Y-73400000D01*
X88865000Y-73400000D02*
X88865000Y-72400000D01*
X88365000Y-72400000D02*
X88635000Y-72400000D01*
X88635000Y-72400000D02*
X88635000Y-73400000D01*
X88365000Y-73400000D02*
X88365000Y-72400000D01*
X87865000Y-72400000D02*
X88135000Y-72400000D01*
X88135000Y-72400000D02*
X88135000Y-73400000D01*
X87865000Y-73400000D02*
X87865000Y-72400000D01*
X87365000Y-72400000D02*
X87635000Y-72400000D01*
X87635000Y-72400000D02*
X87635000Y-73400000D01*
X87365000Y-73400000D02*
X87365000Y-72400000D01*
X86865000Y-72400000D02*
X87135000Y-72400000D01*
X87135000Y-72400000D02*
X87135000Y-73400000D01*
X86865000Y-73400000D02*
X86865000Y-72400000D01*
X86365000Y-72400000D02*
X86635000Y-72400000D01*
X86635000Y-72400000D02*
X86635000Y-73400000D01*
X86365000Y-73400000D02*
X86365000Y-72400000D01*
X85865000Y-72400000D02*
X86135000Y-72400000D01*
X86135000Y-72400000D02*
X86135000Y-73400000D01*
X85865000Y-73400000D02*
X85865000Y-72400000D01*
X85365000Y-72400000D02*
X85635000Y-72400000D01*
X85635000Y-72400000D02*
X85635000Y-73400000D01*
X85365000Y-73400000D02*
X85365000Y-72400000D01*
X84865000Y-72400000D02*
X85135000Y-72400000D01*
X85135000Y-72400000D02*
X85135000Y-73400000D01*
X84865000Y-73400000D02*
X84865000Y-72400000D01*
X84365000Y-72400000D02*
X84635000Y-72400000D01*
X84635000Y-72400000D02*
X84635000Y-73400000D01*
X84365000Y-73400000D02*
X84365000Y-72400000D01*
X83865000Y-72400000D02*
X84135000Y-72400000D01*
X84135000Y-72400000D02*
X84135000Y-73400000D01*
X83865000Y-73400000D02*
X83865000Y-72400000D01*
X83365000Y-72400000D02*
X83635000Y-72400000D01*
X83635000Y-72400000D02*
X83635000Y-73400000D01*
X83365000Y-73400000D02*
X83365000Y-72400000D01*
X83635000Y-80600000D02*
X83635000Y-81600000D01*
X83635000Y-81600000D02*
X83365000Y-81600000D01*
X83365000Y-81600000D02*
X83365000Y-80600000D01*
X84135000Y-80600000D02*
X84135000Y-81600000D01*
X84135000Y-81600000D02*
X83865000Y-81600000D01*
X83865000Y-81600000D02*
X83865000Y-80600000D01*
X84635000Y-80600000D02*
X84635000Y-81600000D01*
X84635000Y-81600000D02*
X84365000Y-81600000D01*
X84365000Y-81600000D02*
X84365000Y-80600000D01*
X85135000Y-80600000D02*
X85135000Y-81600000D01*
X85135000Y-81600000D02*
X84865000Y-81600000D01*
X84865000Y-81600000D02*
X84865000Y-80600000D01*
X85635000Y-80600000D02*
X85635000Y-81600000D01*
X85635000Y-81600000D02*
X85365000Y-81600000D01*
X85365000Y-81600000D02*
X85365000Y-80600000D01*
X86135000Y-80600000D02*
X86135000Y-81600000D01*
X86135000Y-81600000D02*
X85865000Y-81600000D01*
X85865000Y-81600000D02*
X85865000Y-80600000D01*
X86635000Y-80600000D02*
X86635000Y-81600000D01*
X86635000Y-81600000D02*
X86365000Y-81600000D01*
X86365000Y-81600000D02*
X86365000Y-80600000D01*
X87135000Y-80600000D02*
X87135000Y-81600000D01*
X87135000Y-81600000D02*
X86865000Y-81600000D01*
X86865000Y-81600000D02*
X86865000Y-80600000D01*
X87635000Y-80600000D02*
X87635000Y-81600000D01*
X87635000Y-81600000D02*
X87365000Y-81600000D01*
X87365000Y-81600000D02*
X87365000Y-80600000D01*
X88135000Y-80600000D02*
X88135000Y-81600000D01*
X88135000Y-81600000D02*
X87865000Y-81600000D01*
X87865000Y-81600000D02*
X87865000Y-80600000D01*
X88635000Y-80600000D02*
X88635000Y-81600000D01*
X88635000Y-81600000D02*
X88365000Y-81600000D01*
X88365000Y-81600000D02*
X88365000Y-80600000D01*
X89135000Y-80600000D02*
X89135000Y-81600000D01*
X89135000Y-81600000D02*
X88865000Y-81600000D01*
X88865000Y-81600000D02*
X88865000Y-80600000D01*
X64900000Y-74400000D02*
X79100000Y-74400000D01*
X79100000Y-74400000D02*
X79100000Y-88600000D01*
X79100000Y-88600000D02*
X64900000Y-88600000D01*
X64900000Y-88600000D02*
X64900000Y-74400000D01*
X66100000Y-75200000D02*
G75*
G03X66100000Y-75200000I-400000J0D01*
G01*
X63900000Y-75365000D02*
X64900000Y-75365000D01*
X64900000Y-75635000D02*
X63900000Y-75635000D01*
X63900000Y-75635000D02*
X63900000Y-75365000D01*
X63900000Y-75865000D02*
X64900000Y-75865000D01*
X64900000Y-76135000D02*
X63900000Y-76135000D01*
X63900000Y-76135000D02*
X63900000Y-75865000D01*
X63900000Y-76365000D02*
X64900000Y-76365000D01*
X64900000Y-76635000D02*
X63900000Y-76635000D01*
X63900000Y-76635000D02*
X63900000Y-76365000D01*
X63900000Y-76865000D02*
X64900000Y-76865000D01*
X64900000Y-77135000D02*
X63900000Y-77135000D01*
X63900000Y-77135000D02*
X63900000Y-76865000D01*
X63900000Y-77365000D02*
X64900000Y-77365000D01*
X64900000Y-77635000D02*
X63900000Y-77635000D01*
X63900000Y-77635000D02*
X63900000Y-77365000D01*
X63900000Y-77865000D02*
X64900000Y-77865000D01*
X64900000Y-78135000D02*
X63900000Y-78135000D01*
X63900000Y-78135000D02*
X63900000Y-77865000D01*
X63900000Y-78365000D02*
X64900000Y-78365000D01*
X64900000Y-78635000D02*
X63900000Y-78635000D01*
X63900000Y-78635000D02*
X63900000Y-78365000D01*
X63900000Y-78865000D02*
X64900000Y-78865000D01*
X64900000Y-79135000D02*
X63900000Y-79135000D01*
X63900000Y-79135000D02*
X63900000Y-78865000D01*
X63900000Y-79365000D02*
X64900000Y-79365000D01*
X64900000Y-79635000D02*
X63900000Y-79635000D01*
X63900000Y-79635000D02*
X63900000Y-79365000D01*
X63900000Y-79865000D02*
X64900000Y-79865000D01*
X64900000Y-80135000D02*
X63900000Y-80135000D01*
X63900000Y-80135000D02*
X63900000Y-79865000D01*
X63900000Y-80365000D02*
X64900000Y-80365000D01*
X64900000Y-80635000D02*
X63900000Y-80635000D01*
X63900000Y-80635000D02*
X63900000Y-80365000D01*
X63900000Y-80865000D02*
X64900000Y-80865000D01*
X64900000Y-81135000D02*
X63900000Y-81135000D01*
X63900000Y-81135000D02*
X63900000Y-80865000D01*
X63900000Y-81365000D02*
X64900000Y-81365000D01*
X64900000Y-81635000D02*
X63900000Y-81635000D01*
X63900000Y-81635000D02*
X63900000Y-81365000D01*
X63900000Y-81865000D02*
X64900000Y-81865000D01*
X64900000Y-82135000D02*
X63900000Y-82135000D01*
X63900000Y-82135000D02*
X63900000Y-81865000D01*
X63900000Y-82365000D02*
X64900000Y-82365000D01*
X64900000Y-82635000D02*
X63900000Y-82635000D01*
X63900000Y-82635000D02*
X63900000Y-82365000D01*
X63900000Y-82865000D02*
X64900000Y-82865000D01*
X64900000Y-83135000D02*
X63900000Y-83135000D01*
X63900000Y-83135000D02*
X63900000Y-82865000D01*
X63900000Y-83365000D02*
X64900000Y-83365000D01*
X64900000Y-83635000D02*
X63900000Y-83635000D01*
X63900000Y-83635000D02*
X63900000Y-83365000D01*
X63900000Y-83865000D02*
X64900000Y-83865000D01*
X64900000Y-84135000D02*
X63900000Y-84135000D01*
X63900000Y-84135000D02*
X63900000Y-83865000D01*
X63900000Y-84365000D02*
X64900000Y-84365000D01*
X64900000Y-84635000D02*
X63900000Y-84635000D01*
X63900000Y-84635000D02*
X63900000Y-84365000D01*
X63900000Y-84865000D02*
X64900000Y-84865000D01*
X64900000Y-85135000D02*
X63900000Y-85135000D01*
X63900000Y-85135000D02*
X63900000Y-84865000D01*
X63900000Y-85365000D02*
X64900000Y-85365000D01*
X64900000Y-85635000D02*
X63900000Y-85635000D01*
X63900000Y-85635000D02*
X63900000Y-85365000D01*
X63900000Y-85865000D02*
X64900000Y-85865000D01*
X64900000Y-86135000D02*
X63900000Y-86135000D01*
X63900000Y-86135000D02*
X63900000Y-85865000D01*
X63900000Y-86365000D02*
X64900000Y-86365000D01*
X64900000Y-86635000D02*
X63900000Y-86635000D01*
X63900000Y-86635000D02*
X63900000Y-86365000D01*
X63900000Y-86865000D02*
X64900000Y-86865000D01*
X64900000Y-87135000D02*
X63900000Y-87135000D01*
X63900000Y-87135000D02*
X63900000Y-86865000D01*
X63900000Y-87365000D02*
X64900000Y-87365000D01*
X64900000Y-87635000D02*
X63900000Y-87635000D01*
X63900000Y-87635000D02*
X63900000Y-87365000D01*
X79100000Y-87365000D02*
X80100000Y-87365000D01*
X80100000Y-87365000D02*
X80100000Y-87635000D01*
X80100000Y-87635000D02*
X79100000Y-87635000D01*
X79100000Y-86865000D02*
X80100000Y-86865000D01*
X80100000Y-86865000D02*
X80100000Y-87135000D01*
X80100000Y-87135000D02*
X79100000Y-87135000D01*
X79100000Y-86365000D02*
X80100000Y-86365000D01*
X80100000Y-86365000D02*
X80100000Y-86635000D01*
X80100000Y-86635000D02*
X79100000Y-86635000D01*
X79100000Y-85865000D02*
X80100000Y-85865000D01*
X80100000Y-85865000D02*
X80100000Y-86135000D01*
X80100000Y-86135000D02*
X79100000Y-86135000D01*
X79100000Y-85365000D02*
X80100000Y-85365000D01*
X80100000Y-85365000D02*
X80100000Y-85635000D01*
X80100000Y-85635000D02*
X79100000Y-85635000D01*
X79100000Y-84865000D02*
X80100000Y-84865000D01*
X80100000Y-84865000D02*
X80100000Y-85135000D01*
X80100000Y-85135000D02*
X79100000Y-85135000D01*
X79100000Y-84365000D02*
X80100000Y-84365000D01*
X80100000Y-84365000D02*
X80100000Y-84635000D01*
X80100000Y-84635000D02*
X79100000Y-84635000D01*
X79100000Y-83865000D02*
X80100000Y-83865000D01*
X80100000Y-83865000D02*
X80100000Y-84135000D01*
X80100000Y-84135000D02*
X79100000Y-84135000D01*
X79100000Y-83365000D02*
X80100000Y-83365000D01*
X80100000Y-83365000D02*
X80100000Y-83635000D01*
X80100000Y-83635000D02*
X79100000Y-83635000D01*
X79100000Y-82865000D02*
X80100000Y-82865000D01*
X80100000Y-82865000D02*
X80100000Y-83135000D01*
X80100000Y-83135000D02*
X79100000Y-83135000D01*
X79100000Y-82365000D02*
X80100000Y-82365000D01*
X80100000Y-82365000D02*
X80100000Y-82635000D01*
X80100000Y-82635000D02*
X79100000Y-82635000D01*
X79100000Y-81865000D02*
X80100000Y-81865000D01*
X80100000Y-81865000D02*
X80100000Y-82135000D01*
X80100000Y-82135000D02*
X79100000Y-82135000D01*
X79100000Y-81365000D02*
X80100000Y-81365000D01*
X80100000Y-81365000D02*
X80100000Y-81635000D01*
X80100000Y-81635000D02*
X79100000Y-81635000D01*
X79100000Y-80865000D02*
X80100000Y-80865000D01*
X80100000Y-80865000D02*
X80100000Y-81135000D01*
X80100000Y-81135000D02*
X79100000Y-81135000D01*
X79100000Y-80365000D02*
X80100000Y-80365000D01*
X80100000Y-80365000D02*
X80100000Y-80635000D01*
X80100000Y-80635000D02*
X79100000Y-80635000D01*
X79100000Y-79865000D02*
X80100000Y-79865000D01*
X80100000Y-79865000D02*
X80100000Y-80135000D01*
X80100000Y-80135000D02*
X79100000Y-80135000D01*
X79100000Y-79365000D02*
X80100000Y-79365000D01*
X80100000Y-79365000D02*
X80100000Y-79635000D01*
X80100000Y-79635000D02*
X79100000Y-79635000D01*
X79100000Y-78865000D02*
X80100000Y-78865000D01*
X80100000Y-78865000D02*
X80100000Y-79135000D01*
X80100000Y-79135000D02*
X79100000Y-79135000D01*
X79100000Y-78365000D02*
X80100000Y-78365000D01*
X80100000Y-78365000D02*
X80100000Y-78635000D01*
X80100000Y-78635000D02*
X79100000Y-78635000D01*
X79100000Y-77865000D02*
X80100000Y-77865000D01*
X80100000Y-77865000D02*
X80100000Y-78135000D01*
X80100000Y-78135000D02*
X79100000Y-78135000D01*
X79100000Y-77365000D02*
X80100000Y-77365000D01*
X80100000Y-77365000D02*
X80100000Y-77635000D01*
X80100000Y-77635000D02*
X79100000Y-77635000D01*
X79100000Y-76865000D02*
X80100000Y-76865000D01*
X80100000Y-76865000D02*
X80100000Y-77135000D01*
X80100000Y-77135000D02*
X79100000Y-77135000D01*
X79100000Y-76365000D02*
X80100000Y-76365000D01*
X80100000Y-76365000D02*
X80100000Y-76635000D01*
X80100000Y-76635000D02*
X79100000Y-76635000D01*
X79100000Y-75865000D02*
X80100000Y-75865000D01*
X80100000Y-75865000D02*
X80100000Y-76135000D01*
X80100000Y-76135000D02*
X79100000Y-76135000D01*
X79100000Y-75365000D02*
X80100000Y-75365000D01*
X80100000Y-75365000D02*
X80100000Y-75635000D01*
X80100000Y-75635000D02*
X79100000Y-75635000D01*
X77865000Y-73400000D02*
X78135000Y-73400000D01*
X78135000Y-73400000D02*
X78135000Y-74400000D01*
X77865000Y-74400000D02*
X77865000Y-73400000D01*
X77365000Y-73400000D02*
X77635000Y-73400000D01*
X77635000Y-73400000D02*
X77635000Y-74400000D01*
X77365000Y-74400000D02*
X77365000Y-73400000D01*
X76865000Y-73400000D02*
X77135000Y-73400000D01*
X77135000Y-73400000D02*
X77135000Y-74400000D01*
X76865000Y-74400000D02*
X76865000Y-73400000D01*
X76365000Y-73400000D02*
X76635000Y-73400000D01*
X76635000Y-73400000D02*
X76635000Y-74400000D01*
X76365000Y-74400000D02*
X76365000Y-73400000D01*
X75865000Y-73400000D02*
X76135000Y-73400000D01*
X76135000Y-73400000D02*
X76135000Y-74400000D01*
X75865000Y-74400000D02*
X75865000Y-73400000D01*
X75365000Y-73400000D02*
X75635000Y-73400000D01*
X75635000Y-73400000D02*
X75635000Y-74400000D01*
X75365000Y-74400000D02*
X75365000Y-73400000D01*
X74865000Y-73400000D02*
X75135000Y-73400000D01*
X75135000Y-73400000D02*
X75135000Y-74400000D01*
X74865000Y-74400000D02*
X74865000Y-73400000D01*
X74365000Y-73400000D02*
X74635000Y-73400000D01*
X74635000Y-73400000D02*
X74635000Y-74400000D01*
X74365000Y-74400000D02*
X74365000Y-73400000D01*
X73865000Y-73400000D02*
X74135000Y-73400000D01*
X74135000Y-73400000D02*
X74135000Y-74400000D01*
X73865000Y-74400000D02*
X73865000Y-73400000D01*
X73365000Y-73400000D02*
X73635000Y-73400000D01*
X73635000Y-73400000D02*
X73635000Y-74400000D01*
X73365000Y-74400000D02*
X73365000Y-73400000D01*
X72865000Y-73400000D02*
X73135000Y-73400000D01*
X73135000Y-73400000D02*
X73135000Y-74400000D01*
X72865000Y-74400000D02*
X72865000Y-73400000D01*
X72365000Y-73400000D02*
X72635000Y-73400000D01*
X72635000Y-73400000D02*
X72635000Y-74400000D01*
X72365000Y-74400000D02*
X72365000Y-73400000D01*
X71865000Y-73400000D02*
X72135000Y-73400000D01*
X72135000Y-73400000D02*
X72135000Y-74400000D01*
X71865000Y-74400000D02*
X71865000Y-73400000D01*
X71365000Y-73400000D02*
X71635000Y-73400000D01*
X71635000Y-73400000D02*
X71635000Y-74400000D01*
X71365000Y-74400000D02*
X71365000Y-73400000D01*
X70865000Y-73400000D02*
X71135000Y-73400000D01*
X71135000Y-73400000D02*
X71135000Y-74400000D01*
X70865000Y-74400000D02*
X70865000Y-73400000D01*
X70365000Y-73400000D02*
X70635000Y-73400000D01*
X70635000Y-73400000D02*
X70635000Y-74400000D01*
X70365000Y-74400000D02*
X70365000Y-73400000D01*
X69865000Y-73400000D02*
X70135000Y-73400000D01*
X70135000Y-73400000D02*
X70135000Y-74400000D01*
X69865000Y-74400000D02*
X69865000Y-73400000D01*
X69365000Y-73400000D02*
X69635000Y-73400000D01*
X69635000Y-73400000D02*
X69635000Y-74400000D01*
X69365000Y-74400000D02*
X69365000Y-73400000D01*
X68865000Y-73400000D02*
X69135000Y-73400000D01*
X69135000Y-73400000D02*
X69135000Y-74400000D01*
X68865000Y-74400000D02*
X68865000Y-73400000D01*
X68365000Y-73400000D02*
X68635000Y-73400000D01*
X68635000Y-73400000D02*
X68635000Y-74400000D01*
X68365000Y-74400000D02*
X68365000Y-73400000D01*
X67865000Y-73400000D02*
X68135000Y-73400000D01*
X68135000Y-73400000D02*
X68135000Y-74400000D01*
X67865000Y-74400000D02*
X67865000Y-73400000D01*
X67365000Y-73400000D02*
X67635000Y-73400000D01*
X67635000Y-73400000D02*
X67635000Y-74400000D01*
X67365000Y-74400000D02*
X67365000Y-73400000D01*
X66865000Y-73400000D02*
X67135000Y-73400000D01*
X67135000Y-73400000D02*
X67135000Y-74400000D01*
X66865000Y-74400000D02*
X66865000Y-73400000D01*
X66365000Y-73400000D02*
X66635000Y-73400000D01*
X66635000Y-73400000D02*
X66635000Y-74400000D01*
X66365000Y-74400000D02*
X66365000Y-73400000D01*
X65865000Y-73400000D02*
X66135000Y-73400000D01*
X66135000Y-73400000D02*
X66135000Y-74400000D01*
X65865000Y-74400000D02*
X65865000Y-73400000D01*
X66135000Y-88600000D02*
X66135000Y-89600000D01*
X66135000Y-89600000D02*
X65865000Y-89600000D01*
X65865000Y-89600000D02*
X65865000Y-88600000D01*
X66635000Y-88600000D02*
X66635000Y-89600000D01*
X66635000Y-89600000D02*
X66365000Y-89600000D01*
X66365000Y-89600000D02*
X66365000Y-88600000D01*
X67135000Y-88600000D02*
X67135000Y-89600000D01*
X67135000Y-89600000D02*
X66865000Y-89600000D01*
X66865000Y-89600000D02*
X66865000Y-88600000D01*
X67635000Y-88600000D02*
X67635000Y-89600000D01*
X67635000Y-89600000D02*
X67365000Y-89600000D01*
X67365000Y-89600000D02*
X67365000Y-88600000D01*
X68135000Y-88600000D02*
X68135000Y-89600000D01*
X68135000Y-89600000D02*
X67865000Y-89600000D01*
X67865000Y-89600000D02*
X67865000Y-88600000D01*
X68635000Y-88600000D02*
X68635000Y-89600000D01*
X68635000Y-89600000D02*
X68365000Y-89600000D01*
X68365000Y-89600000D02*
X68365000Y-88600000D01*
X69135000Y-88600000D02*
X69135000Y-89600000D01*
X69135000Y-89600000D02*
X68865000Y-89600000D01*
X68865000Y-89600000D02*
X68865000Y-88600000D01*
X69635000Y-88600000D02*
X69635000Y-89600000D01*
X69635000Y-89600000D02*
X69365000Y-89600000D01*
X69365000Y-89600000D02*
X69365000Y-88600000D01*
X70135000Y-88600000D02*
X70135000Y-89600000D01*
X70135000Y-89600000D02*
X69865000Y-89600000D01*
X69865000Y-89600000D02*
X69865000Y-88600000D01*
X70635000Y-88600000D02*
X70635000Y-89600000D01*
X70635000Y-89600000D02*
X70365000Y-89600000D01*
X70365000Y-89600000D02*
X70365000Y-88600000D01*
X71135000Y-88600000D02*
X71135000Y-89600000D01*
X71135000Y-89600000D02*
X70865000Y-89600000D01*
X70865000Y-89600000D02*
X70865000Y-88600000D01*
X71635000Y-88600000D02*
X71635000Y-89600000D01*
X71635000Y-89600000D02*
X71365000Y-89600000D01*
X71365000Y-89600000D02*
X71365000Y-88600000D01*
X72135000Y-88600000D02*
X72135000Y-89600000D01*
X72135000Y-89600000D02*
X71865000Y-89600000D01*
X71865000Y-89600000D02*
X71865000Y-88600000D01*
X72635000Y-88600000D02*
X72635000Y-89600000D01*
X72635000Y-89600000D02*
X72365000Y-89600000D01*
X72365000Y-89600000D02*
X72365000Y-88600000D01*
X73135000Y-88600000D02*
X73135000Y-89600000D01*
X73135000Y-89600000D02*
X72865000Y-89600000D01*
X72865000Y-89600000D02*
X72865000Y-88600000D01*
X73635000Y-88600000D02*
X73635000Y-89600000D01*
X73635000Y-89600000D02*
X73365000Y-89600000D01*
X73365000Y-89600000D02*
X73365000Y-88600000D01*
X74135000Y-88600000D02*
X74135000Y-89600000D01*
X74135000Y-89600000D02*
X73865000Y-89600000D01*
X73865000Y-89600000D02*
X73865000Y-88600000D01*
X74635000Y-88600000D02*
X74635000Y-89600000D01*
X74635000Y-89600000D02*
X74365000Y-89600000D01*
X74365000Y-89600000D02*
X74365000Y-88600000D01*
X75135000Y-88600000D02*
X75135000Y-89600000D01*
X75135000Y-89600000D02*
X74865000Y-89600000D01*
X74865000Y-89600000D02*
X74865000Y-88600000D01*
X75635000Y-88600000D02*
X75635000Y-89600000D01*
X75635000Y-89600000D02*
X75365000Y-89600000D01*
X75365000Y-89600000D02*
X75365000Y-88600000D01*
X76135000Y-88600000D02*
X76135000Y-89600000D01*
X76135000Y-89600000D02*
X75865000Y-89600000D01*
X75865000Y-89600000D02*
X75865000Y-88600000D01*
X76635000Y-88600000D02*
X76635000Y-89600000D01*
X76635000Y-89600000D02*
X76365000Y-89600000D01*
X76365000Y-89600000D02*
X76365000Y-88600000D01*
X77135000Y-88600000D02*
X77135000Y-89600000D01*
X77135000Y-89600000D02*
X76865000Y-89600000D01*
X76865000Y-89600000D02*
X76865000Y-88600000D01*
X77635000Y-88600000D02*
X77635000Y-89600000D01*
X77635000Y-89600000D02*
X77365000Y-89600000D01*
X77365000Y-89600000D02*
X77365000Y-88600000D01*
X78135000Y-88600000D02*
X78135000Y-89600000D01*
X78135000Y-89600000D02*
X77865000Y-89600000D01*
X77865000Y-89600000D02*
X77865000Y-88600000D01*
X70675000Y-54600000D02*
X70675000Y-56400000D01*
X70675000Y-56400000D02*
X69325000Y-56400000D01*
X69325000Y-56400000D02*
X69325000Y-54600000D01*
X69325000Y-54600000D02*
X70675000Y-54600000D01*
X70675000Y-55050000D02*
X69325000Y-55050000D01*
X70200000Y-54150000D02*
X69800000Y-54150000D01*
X70200000Y-54150000D02*
X70200000Y-54600000D01*
X69800000Y-54150000D02*
X69800000Y-54600000D01*
X70200000Y-56850000D02*
X69800000Y-56850000D01*
X70200000Y-56850000D02*
X70200000Y-56400000D01*
X69800000Y-56850000D02*
X69800000Y-56400000D01*
X66675000Y-54600000D02*
X66675000Y-56400000D01*
X66675000Y-56400000D02*
X65325000Y-56400000D01*
X65325000Y-56400000D02*
X65325000Y-54600000D01*
X65325000Y-54600000D02*
X66675000Y-54600000D01*
X66675000Y-55050000D02*
X65325000Y-55050000D01*
X66200000Y-54150000D02*
X65800000Y-54150000D01*
X66200000Y-54150000D02*
X66200000Y-54600000D01*
X65800000Y-54150000D02*
X65800000Y-54600000D01*
X66200000Y-56850000D02*
X65800000Y-56850000D01*
X66200000Y-56850000D02*
X66200000Y-56400000D01*
X65800000Y-56850000D02*
X65800000Y-56400000D01*
X62675000Y-54600000D02*
X62675000Y-56400000D01*
X62675000Y-56400000D02*
X61325000Y-56400000D01*
X61325000Y-56400000D02*
X61325000Y-54600000D01*
X61325000Y-54600000D02*
X62675000Y-54600000D01*
X62675000Y-55050000D02*
X61325000Y-55050000D01*
X62200000Y-54150000D02*
X61800000Y-54150000D01*
X62200000Y-54150000D02*
X62200000Y-54600000D01*
X61800000Y-54150000D02*
X61800000Y-54600000D01*
X62200000Y-56850000D02*
X61800000Y-56850000D01*
X62200000Y-56850000D02*
X62200000Y-56400000D01*
X61800000Y-56850000D02*
X61800000Y-56400000D01*
X58675000Y-54600000D02*
X58675000Y-56400000D01*
X58675000Y-56400000D02*
X57325000Y-56400000D01*
X57325000Y-56400000D02*
X57325000Y-54600000D01*
X57325000Y-54600000D02*
X58675000Y-54600000D01*
X58675000Y-55050000D02*
X57325000Y-55050000D01*
X58200000Y-54150000D02*
X57800000Y-54150000D01*
X58200000Y-54150000D02*
X58200000Y-54600000D01*
X57800000Y-54150000D02*
X57800000Y-54600000D01*
X58200000Y-56850000D02*
X57800000Y-56850000D01*
X58200000Y-56850000D02*
X58200000Y-56400000D01*
X57800000Y-56850000D02*
X57800000Y-56400000D01*
X90675000Y-54600000D02*
X90675000Y-56400000D01*
X90675000Y-56400000D02*
X89325000Y-56400000D01*
X89325000Y-56400000D02*
X89325000Y-54600000D01*
X89325000Y-54600000D02*
X90675000Y-54600000D01*
X90675000Y-55050000D02*
X89325000Y-55050000D01*
X90200000Y-54150000D02*
X89800000Y-54150000D01*
X90200000Y-54150000D02*
X90200000Y-54600000D01*
X89800000Y-54150000D02*
X89800000Y-54600000D01*
X90200000Y-56850000D02*
X89800000Y-56850000D01*
X90200000Y-56850000D02*
X90200000Y-56400000D01*
X89800000Y-56850000D02*
X89800000Y-56400000D01*
X86675000Y-54600000D02*
X86675000Y-56400000D01*
X86675000Y-56400000D02*
X85325000Y-56400000D01*
X85325000Y-56400000D02*
X85325000Y-54600000D01*
X85325000Y-54600000D02*
X86675000Y-54600000D01*
X86675000Y-55050000D02*
X85325000Y-55050000D01*
X86200000Y-54150000D02*
X85800000Y-54150000D01*
X86200000Y-54150000D02*
X86200000Y-54600000D01*
X85800000Y-54150000D02*
X85800000Y-54600000D01*
X86200000Y-56850000D02*
X85800000Y-56850000D01*
X86200000Y-56850000D02*
X86200000Y-56400000D01*
X85800000Y-56850000D02*
X85800000Y-56400000D01*
X82675000Y-54600000D02*
X82675000Y-56400000D01*
X82675000Y-56400000D02*
X81325000Y-56400000D01*
X81325000Y-56400000D02*
X81325000Y-54600000D01*
X81325000Y-54600000D02*
X82675000Y-54600000D01*
X82675000Y-55050000D02*
X81325000Y-55050000D01*
X82200000Y-54150000D02*
X81800000Y-54150000D01*
X82200000Y-54150000D02*
X82200000Y-54600000D01*
X81800000Y-54150000D02*
X81800000Y-54600000D01*
X82200000Y-56850000D02*
X81800000Y-56850000D01*
X82200000Y-56850000D02*
X82200000Y-56400000D01*
X81800000Y-56850000D02*
X81800000Y-56400000D01*
X78675000Y-54600000D02*
X78675000Y-56400000D01*
X78675000Y-56400000D02*
X77325000Y-56400000D01*
X77325000Y-56400000D02*
X77325000Y-54600000D01*
X77325000Y-54600000D02*
X78675000Y-54600000D01*
X78675000Y-55050000D02*
X77325000Y-55050000D01*
X78200000Y-54150000D02*
X77800000Y-54150000D01*
X78200000Y-54150000D02*
X78200000Y-54600000D01*
X77800000Y-54150000D02*
X77800000Y-54600000D01*
X78200000Y-56850000D02*
X77800000Y-56850000D01*
X78200000Y-56850000D02*
X78200000Y-56400000D01*
X77800000Y-56850000D02*
X77800000Y-56400000D01*
X77500000Y-97300000D02*
X77500000Y-98900000D01*
X77500000Y-98900000D02*
X76700000Y-98900000D01*
X76700000Y-98900000D02*
X76700000Y-97300000D01*
X76700000Y-97300000D02*
X77500000Y-97300000D01*
X77500000Y-97650000D02*
X76700000Y-97650000D01*
X77500000Y-98550000D02*
X76700000Y-98550000D01*
X77500000Y-94900000D02*
X77500000Y-96500000D01*
X77500000Y-96500000D02*
X76700000Y-96500000D01*
X76700000Y-96500000D02*
X76700000Y-94900000D01*
X76700000Y-94900000D02*
X77500000Y-94900000D01*
X77500000Y-95250000D02*
X76700000Y-95250000D01*
X77500000Y-96150000D02*
X76700000Y-96150000D01*
X77500000Y-92500000D02*
X77500000Y-94100000D01*
X77500000Y-94100000D02*
X76700000Y-94100000D01*
X76700000Y-94100000D02*
X76700000Y-92500000D01*
X76700000Y-92500000D02*
X77500000Y-92500000D01*
X77500000Y-92850000D02*
X76700000Y-92850000D01*
X77500000Y-93750000D02*
X76700000Y-93750000D01*
X78600000Y-97300000D02*
X78600000Y-98900000D01*
X78600000Y-98900000D02*
X77800000Y-98900000D01*
X77800000Y-98900000D02*
X77800000Y-97300000D01*
X77800000Y-97300000D02*
X78600000Y-97300000D01*
X78600000Y-97650000D02*
X77800000Y-97650000D01*
X78600000Y-98550000D02*
X77800000Y-98550000D01*
X78600000Y-94900000D02*
X78600000Y-96500000D01*
X78600000Y-96500000D02*
X77800000Y-96500000D01*
X77800000Y-96500000D02*
X77800000Y-94900000D01*
X77800000Y-94900000D02*
X78600000Y-94900000D01*
X78600000Y-95250000D02*
X77800000Y-95250000D01*
X78600000Y-96150000D02*
X77800000Y-96150000D01*
X78600000Y-92500000D02*
X78600000Y-94100000D01*
X78600000Y-94100000D02*
X77800000Y-94100000D01*
X77800000Y-94100000D02*
X77800000Y-92500000D01*
X77800000Y-92500000D02*
X78600000Y-92500000D01*
X78600000Y-92850000D02*
X77800000Y-92850000D01*
X78600000Y-93750000D02*
X77800000Y-93750000D01*
X79700000Y-97300000D02*
X79700000Y-98900000D01*
X79700000Y-98900000D02*
X78900000Y-98900000D01*
X78900000Y-98900000D02*
X78900000Y-97300000D01*
X78900000Y-97300000D02*
X79700000Y-97300000D01*
X79700000Y-97650000D02*
X78900000Y-97650000D01*
X79700000Y-98550000D02*
X78900000Y-98550000D01*
X79700000Y-94900000D02*
X79700000Y-96500000D01*
X79700000Y-96500000D02*
X78900000Y-96500000D01*
X78900000Y-96500000D02*
X78900000Y-94900000D01*
X78900000Y-94900000D02*
X79700000Y-94900000D01*
X79700000Y-95250000D02*
X78900000Y-95250000D01*
X79700000Y-96150000D02*
X78900000Y-96150000D01*
X79700000Y-92500000D02*
X79700000Y-94100000D01*
X79700000Y-94100000D02*
X78900000Y-94100000D01*
X78900000Y-94100000D02*
X78900000Y-92500000D01*
X78900000Y-92500000D02*
X79700000Y-92500000D01*
X79700000Y-92850000D02*
X78900000Y-92850000D01*
X79700000Y-93750000D02*
X78900000Y-93750000D01*
X80800000Y-97300000D02*
X80800000Y-98900000D01*
X80800000Y-98900000D02*
X80000000Y-98900000D01*
X80000000Y-98900000D02*
X80000000Y-97300000D01*
X80000000Y-97300000D02*
X80800000Y-97300000D01*
X80800000Y-97650000D02*
X80000000Y-97650000D01*
X80800000Y-98550000D02*
X80000000Y-98550000D01*
X80800000Y-94900000D02*
X80800000Y-96500000D01*
X80800000Y-96500000D02*
X80000000Y-96500000D01*
X80000000Y-96500000D02*
X80000000Y-94900000D01*
X80000000Y-94900000D02*
X80800000Y-94900000D01*
X80800000Y-95250000D02*
X80000000Y-95250000D01*
X80800000Y-96150000D02*
X80000000Y-96150000D01*
X80800000Y-92500000D02*
X80800000Y-94100000D01*
X80800000Y-94100000D02*
X80000000Y-94100000D01*
X80000000Y-94100000D02*
X80000000Y-92500000D01*
X80000000Y-92500000D02*
X80800000Y-92500000D01*
X80800000Y-92850000D02*
X80000000Y-92850000D01*
X80800000Y-93750000D02*
X80000000Y-93750000D01*
X69150000Y-98000000D02*
X69150000Y-99000000D01*
X69150000Y-99000000D02*
X68650000Y-99000000D01*
X68650000Y-99000000D02*
X68650000Y-98000000D01*
X68650000Y-98000000D02*
X69150000Y-98000000D01*
X69150000Y-98300000D02*
X68650000Y-98300000D01*
X69150000Y-98700000D02*
X68650000Y-98700000D01*
X69150000Y-96400000D02*
X69150000Y-97400000D01*
X69150000Y-97400000D02*
X68650000Y-97400000D01*
X68650000Y-97400000D02*
X68650000Y-96400000D01*
X68650000Y-96400000D02*
X69150000Y-96400000D01*
X69150000Y-96700000D02*
X68650000Y-96700000D01*
X69150000Y-97100000D02*
X68650000Y-97100000D01*
X69150000Y-94800000D02*
X69150000Y-95800000D01*
X69150000Y-95800000D02*
X68650000Y-95800000D01*
X68650000Y-95800000D02*
X68650000Y-94800000D01*
X68650000Y-94800000D02*
X69150000Y-94800000D01*
X69150000Y-95100000D02*
X68650000Y-95100000D01*
X69150000Y-95500000D02*
X68650000Y-95500000D01*
X69950000Y-98000000D02*
X69950000Y-99000000D01*
X69950000Y-99000000D02*
X69450000Y-99000000D01*
X69450000Y-99000000D02*
X69450000Y-98000000D01*
X69450000Y-98000000D02*
X69950000Y-98000000D01*
X69950000Y-98300000D02*
X69450000Y-98300000D01*
X69950000Y-98700000D02*
X69450000Y-98700000D01*
X69950000Y-96400000D02*
X69950000Y-97400000D01*
X69950000Y-97400000D02*
X69450000Y-97400000D01*
X69450000Y-97400000D02*
X69450000Y-96400000D01*
X69450000Y-96400000D02*
X69950000Y-96400000D01*
X69950000Y-96700000D02*
X69450000Y-96700000D01*
X69950000Y-97100000D02*
X69450000Y-97100000D01*
X69950000Y-94800000D02*
X69950000Y-95800000D01*
X69950000Y-95800000D02*
X69450000Y-95800000D01*
X69450000Y-95800000D02*
X69450000Y-94800000D01*
X69450000Y-94800000D02*
X69950000Y-94800000D01*
X69950000Y-95100000D02*
X69450000Y-95100000D01*
X69950000Y-95500000D02*
X69450000Y-95500000D01*
X71550000Y-98000000D02*
X71550000Y-99000000D01*
X71550000Y-99000000D02*
X71050000Y-99000000D01*
X71050000Y-99000000D02*
X71050000Y-98000000D01*
X71050000Y-98000000D02*
X71550000Y-98000000D01*
X71550000Y-98300000D02*
X71050000Y-98300000D01*
X71550000Y-98700000D02*
X71050000Y-98700000D01*
X71550000Y-96400000D02*
X71550000Y-97400000D01*
X71550000Y-97400000D02*
X71050000Y-97400000D01*
X71050000Y-97400000D02*
X71050000Y-96400000D01*
X71050000Y-96400000D02*
X71550000Y-96400000D01*
X71550000Y-96700000D02*
X71050000Y-96700000D01*
X71550000Y-97100000D02*
X71050000Y-97100000D01*
X71550000Y-94800000D02*
X71550000Y-95800000D01*
X71550000Y-95800000D02*
X71050000Y-95800000D01*
X71050000Y-95800000D02*
X71050000Y-94800000D01*
X71050000Y-94800000D02*
X71550000Y-94800000D01*
X71550000Y-95100000D02*
X71050000Y-95100000D01*
X71550000Y-95500000D02*
X71050000Y-95500000D01*
X70750000Y-98000000D02*
X70750000Y-99000000D01*
X70750000Y-99000000D02*
X70250000Y-99000000D01*
X70250000Y-99000000D02*
X70250000Y-98000000D01*
X70250000Y-98000000D02*
X70750000Y-98000000D01*
X70750000Y-98300000D02*
X70250000Y-98300000D01*
X70750000Y-98700000D02*
X70250000Y-98700000D01*
X70750000Y-96400000D02*
X70750000Y-97400000D01*
X70750000Y-97400000D02*
X70250000Y-97400000D01*
X70250000Y-97400000D02*
X70250000Y-96400000D01*
X70250000Y-96400000D02*
X70750000Y-96400000D01*
X70750000Y-96700000D02*
X70250000Y-96700000D01*
X70750000Y-97100000D02*
X70250000Y-97100000D01*
X70750000Y-94800000D02*
X70750000Y-95800000D01*
X70750000Y-95800000D02*
X70250000Y-95800000D01*
X70250000Y-95800000D02*
X70250000Y-94800000D01*
X70250000Y-94800000D02*
X70750000Y-94800000D01*
X70750000Y-95100000D02*
X70250000Y-95100000D01*
X70750000Y-95500000D02*
X70250000Y-95500000D01*
X88625000Y-89600000D02*
X88625000Y-91600000D01*
X88625000Y-91600000D02*
X87375000Y-91600000D01*
X87375000Y-91600000D02*
X87375000Y-89600000D01*
X87375000Y-89600000D02*
X88625000Y-89600000D01*
X88625000Y-90100000D02*
X87375000Y-90100000D01*
X88625000Y-91100000D02*
X87375000Y-91100000D01*
X88625000Y-93100000D02*
X88625000Y-95100000D01*
X88625000Y-95100000D02*
X87375000Y-95100000D01*
X87375000Y-95100000D02*
X87375000Y-93100000D01*
X87375000Y-93100000D02*
X88625000Y-93100000D01*
X88625000Y-93600000D02*
X87375000Y-93600000D01*
X88625000Y-94600000D02*
X87375000Y-94600000D01*
X88625000Y-96600000D02*
X88625000Y-98600000D01*
X88625000Y-98600000D02*
X87375000Y-98600000D01*
X87375000Y-98600000D02*
X87375000Y-96600000D01*
X87375000Y-96600000D02*
X88625000Y-96600000D01*
X88625000Y-97100000D02*
X87375000Y-97100000D01*
X88625000Y-98100000D02*
X87375000Y-98100000D01*
X62550000Y-96000000D02*
X62550000Y-96600000D01*
X62550000Y-96600000D02*
X62250000Y-96600000D01*
X62250000Y-96600000D02*
X62250000Y-96000000D01*
X62250000Y-96000000D02*
X62550000Y-96000000D01*
X62550000Y-96150000D02*
X62250000Y-96150000D01*
X62550000Y-96450000D02*
X62250000Y-96450000D01*
X62550000Y-97200000D02*
X62550000Y-97800000D01*
X62550000Y-97800000D02*
X62250000Y-97800000D01*
X62250000Y-97800000D02*
X62250000Y-97200000D01*
X62250000Y-97200000D02*
X62550000Y-97200000D01*
X62550000Y-97350000D02*
X62250000Y-97350000D01*
X62550000Y-97650000D02*
X62250000Y-97650000D01*
X62550000Y-98400000D02*
X62550000Y-99000000D01*
X62550000Y-99000000D02*
X62250000Y-99000000D01*
X62250000Y-99000000D02*
X62250000Y-98400000D01*
X62250000Y-98400000D02*
X62550000Y-98400000D01*
X62550000Y-98550000D02*
X62250000Y-98550000D01*
X62550000Y-98850000D02*
X62250000Y-98850000D01*
X63150000Y-96000000D02*
X63150000Y-96600000D01*
X63150000Y-96600000D02*
X62850000Y-96600000D01*
X62850000Y-96600000D02*
X62850000Y-96000000D01*
X62850000Y-96000000D02*
X63150000Y-96000000D01*
X63150000Y-96150000D02*
X62850000Y-96150000D01*
X63150000Y-96450000D02*
X62850000Y-96450000D01*
X63150000Y-97200000D02*
X63150000Y-97800000D01*
X63150000Y-97800000D02*
X62850000Y-97800000D01*
X62850000Y-97800000D02*
X62850000Y-97200000D01*
X62850000Y-97200000D02*
X63150000Y-97200000D01*
X63150000Y-97350000D02*
X62850000Y-97350000D01*
X63150000Y-97650000D02*
X62850000Y-97650000D01*
X63150000Y-98400000D02*
X63150000Y-99000000D01*
X63150000Y-99000000D02*
X62850000Y-99000000D01*
X62850000Y-99000000D02*
X62850000Y-98400000D01*
X62850000Y-98400000D02*
X63150000Y-98400000D01*
X63150000Y-98550000D02*
X62850000Y-98550000D01*
X63150000Y-98850000D02*
X62850000Y-98850000D01*
X63750000Y-96000000D02*
X63750000Y-96600000D01*
X63750000Y-96600000D02*
X63450000Y-96600000D01*
X63450000Y-96600000D02*
X63450000Y-96000000D01*
X63450000Y-96000000D02*
X63750000Y-96000000D01*
X63750000Y-96150000D02*
X63450000Y-96150000D01*
X63750000Y-96450000D02*
X63450000Y-96450000D01*
X63750000Y-97200000D02*
X63750000Y-97800000D01*
X63750000Y-97800000D02*
X63450000Y-97800000D01*
X63450000Y-97800000D02*
X63450000Y-97200000D01*
X63450000Y-97200000D02*
X63750000Y-97200000D01*
X63750000Y-97350000D02*
X63450000Y-97350000D01*
X63750000Y-97650000D02*
X63450000Y-97650000D01*
X63750000Y-98400000D02*
X63750000Y-99000000D01*
X63750000Y-99000000D02*
X63450000Y-99000000D01*
X63450000Y-99000000D02*
X63450000Y-98400000D01*
X63450000Y-98400000D02*
X63750000Y-98400000D01*
X63750000Y-98550000D02*
X63450000Y-98550000D01*
X63750000Y-98850000D02*
X63450000Y-98850000D01*
X64350000Y-96000000D02*
X64350000Y-96600000D01*
X64350000Y-96600000D02*
X64050000Y-96600000D01*
X64050000Y-96600000D02*
X64050000Y-96000000D01*
X64050000Y-96000000D02*
X64350000Y-96000000D01*
X64350000Y-96150000D02*
X64050000Y-96150000D01*
X64350000Y-96450000D02*
X64050000Y-96450000D01*
X64350000Y-97200000D02*
X64350000Y-97800000D01*
X64350000Y-97800000D02*
X64050000Y-97800000D01*
X64050000Y-97800000D02*
X64050000Y-97200000D01*
X64050000Y-97200000D02*
X64350000Y-97200000D01*
X64350000Y-97350000D02*
X64050000Y-97350000D01*
X64350000Y-97650000D02*
X64050000Y-97650000D01*
X64350000Y-98400000D02*
X64350000Y-99000000D01*
X64350000Y-99000000D02*
X64050000Y-99000000D01*
X64050000Y-99000000D02*
X64050000Y-98400000D01*
X64050000Y-98400000D02*
X64350000Y-98400000D01*
X64350000Y-98550000D02*
X64050000Y-98550000D01*
X64350000Y-98850000D02*
X64050000Y-98850000D01*
X51100000Y-82800000D02*
X51100000Y-81200000D01*
X51100000Y-81200000D02*
X51900000Y-81200000D01*
X51900000Y-81200000D02*
X51900000Y-82800000D01*
X51900000Y-82800000D02*
X51100000Y-82800000D01*
X51100000Y-82450000D02*
X51900000Y-82450000D01*
X51100000Y-81550000D02*
X51900000Y-81550000D01*
X60600000Y-84800000D02*
X60600000Y-83200000D01*
X60600000Y-83200000D02*
X61400000Y-83200000D01*
X61400000Y-83200000D02*
X61400000Y-84800000D01*
X61400000Y-84800000D02*
X60600000Y-84800000D01*
X60600000Y-84450000D02*
X61400000Y-84450000D01*
X60600000Y-83550000D02*
X61400000Y-83550000D01*
X51100000Y-86000000D02*
X51100000Y-84400000D01*
X51100000Y-84400000D02*
X51900000Y-84400000D01*
X51900000Y-84400000D02*
X51900000Y-86000000D01*
X51900000Y-86000000D02*
X51100000Y-86000000D01*
X51100000Y-85650000D02*
X51900000Y-85650000D01*
X51100000Y-84750000D02*
X51900000Y-84750000D01*
X59750000Y-84500000D02*
X59750000Y-83500000D01*
X59750000Y-83500000D02*
X60250000Y-83500000D01*
X60250000Y-83500000D02*
X60250000Y-84500000D01*
X60250000Y-84500000D02*
X59750000Y-84500000D01*
X59750000Y-84200000D02*
X60250000Y-84200000D01*
X59750000Y-83800000D02*
X60250000Y-83800000D01*
X52250000Y-82600000D02*
X52250000Y-81600000D01*
X52250000Y-81600000D02*
X52750000Y-81600000D01*
X52750000Y-81600000D02*
X52750000Y-82600000D01*
X52750000Y-82600000D02*
X52250000Y-82600000D01*
X52250000Y-82300000D02*
X52750000Y-82300000D01*
X52250000Y-81900000D02*
X52750000Y-81900000D01*
X52250000Y-85900000D02*
X52250000Y-84900000D01*
X52250000Y-84900000D02*
X52750000Y-84900000D01*
X52750000Y-84900000D02*
X52750000Y-85900000D01*
X52750000Y-85900000D02*
X52250000Y-85900000D01*
X52250000Y-85600000D02*
X52750000Y-85600000D01*
X52250000Y-85200000D02*
X52750000Y-85200000D01*
X51200000Y-91700000D02*
X51200000Y-90100000D01*
X51200000Y-90100000D02*
X52000000Y-90100000D01*
X52000000Y-90100000D02*
X52000000Y-91700000D01*
X52000000Y-91700000D02*
X51200000Y-91700000D01*
X51200000Y-91300000D02*
X52000000Y-91300000D01*
X51200000Y-91450000D02*
X52000000Y-91450000D01*
X51200000Y-90350000D02*
X52000000Y-90350000D01*
X52700000Y-91700000D02*
X52700000Y-90100000D01*
X52700000Y-90100000D02*
X53500000Y-90100000D01*
X53500000Y-90100000D02*
X53500000Y-91700000D01*
X53500000Y-91700000D02*
X52700000Y-91700000D01*
X52700000Y-91300000D02*
X53500000Y-91300000D01*
X52700000Y-91450000D02*
X53500000Y-91450000D01*
X52700000Y-90350000D02*
X53500000Y-90350000D01*
X54200000Y-91700000D02*
X54200000Y-90100000D01*
X54200000Y-90100000D02*
X55000000Y-90100000D01*
X55000000Y-90100000D02*
X55000000Y-91700000D01*
X55000000Y-91700000D02*
X54200000Y-91700000D01*
X54200000Y-91300000D02*
X55000000Y-91300000D01*
X54200000Y-91450000D02*
X55000000Y-91450000D01*
X54200000Y-90350000D02*
X55000000Y-90350000D01*
X54350000Y-87500000D02*
X54350000Y-88500000D01*
X54350000Y-88500000D02*
X53850000Y-88500000D01*
X53850000Y-88500000D02*
X53850000Y-87500000D01*
X53850000Y-87500000D02*
X54350000Y-87500000D01*
X54350000Y-87800000D02*
X53850000Y-87800000D01*
X54350000Y-88200000D02*
X53850000Y-88200000D01*
X55150000Y-87500000D02*
X55150000Y-88500000D01*
X55150000Y-88500000D02*
X54650000Y-88500000D01*
X54650000Y-88500000D02*
X54650000Y-87500000D01*
X54650000Y-87500000D02*
X55150000Y-87500000D01*
X55150000Y-87800000D02*
X54650000Y-87800000D01*
X55150000Y-88200000D02*
X54650000Y-88200000D01*
X55950000Y-87500000D02*
X55950000Y-88500000D01*
X55950000Y-88500000D02*
X55450000Y-88500000D01*
X55450000Y-88500000D02*
X55450000Y-87500000D01*
X55450000Y-87500000D02*
X55950000Y-87500000D01*
X55950000Y-87800000D02*
X55450000Y-87800000D01*
X55950000Y-88200000D02*
X55450000Y-88200000D01*
X55700000Y-91700000D02*
X55700000Y-90100000D01*
X55700000Y-90100000D02*
X56500000Y-90100000D01*
X56500000Y-90100000D02*
X56500000Y-91700000D01*
X56500000Y-91700000D02*
X55700000Y-91700000D01*
X55700000Y-91300000D02*
X56500000Y-91300000D01*
X55700000Y-91450000D02*
X56500000Y-91450000D01*
X55700000Y-90350000D02*
X56500000Y-90350000D01*
X57200000Y-91700000D02*
X57200000Y-90100000D01*
X57200000Y-90100000D02*
X58000000Y-90100000D01*
X58000000Y-90100000D02*
X58000000Y-91700000D01*
X58000000Y-91700000D02*
X57200000Y-91700000D01*
X57200000Y-91300000D02*
X58000000Y-91300000D01*
X57200000Y-91450000D02*
X58000000Y-91450000D01*
X57200000Y-90350000D02*
X58000000Y-90350000D01*
X58700000Y-91700000D02*
X58700000Y-90100000D01*
X58700000Y-90100000D02*
X59500000Y-90100000D01*
X59500000Y-90100000D02*
X59500000Y-91700000D01*
X59500000Y-91700000D02*
X58700000Y-91700000D01*
X58700000Y-91300000D02*
X59500000Y-91300000D01*
X58700000Y-91450000D02*
X59500000Y-91450000D01*
X58700000Y-90350000D02*
X59500000Y-90350000D01*
X60200000Y-91700000D02*
X60200000Y-90100000D01*
X60200000Y-90100000D02*
X61000000Y-90100000D01*
X61000000Y-90100000D02*
X61000000Y-91700000D01*
X61000000Y-91700000D02*
X60200000Y-91700000D01*
X60200000Y-91300000D02*
X61000000Y-91300000D01*
X60200000Y-91450000D02*
X61000000Y-91450000D01*
X60200000Y-90350000D02*
X61000000Y-90350000D01*
X56750000Y-87500000D02*
X56750000Y-88500000D01*
X56750000Y-88500000D02*
X56250000Y-88500000D01*
X56250000Y-88500000D02*
X56250000Y-87500000D01*
X56250000Y-87500000D02*
X56750000Y-87500000D01*
X56750000Y-87800000D02*
X56250000Y-87800000D01*
X56750000Y-88200000D02*
X56250000Y-88200000D01*
X57550000Y-87500000D02*
X57550000Y-88500000D01*
X57550000Y-88500000D02*
X57050000Y-88500000D01*
X57050000Y-88500000D02*
X57050000Y-87500000D01*
X57050000Y-87500000D02*
X57550000Y-87500000D01*
X57550000Y-87800000D02*
X57050000Y-87800000D01*
X57550000Y-88200000D02*
X57050000Y-88200000D01*
X58350000Y-87500000D02*
X58350000Y-88500000D01*
X58350000Y-88500000D02*
X57850000Y-88500000D01*
X57850000Y-88500000D02*
X57850000Y-87500000D01*
X57850000Y-87500000D02*
X58350000Y-87500000D01*
X58350000Y-87800000D02*
X57850000Y-87800000D01*
X58350000Y-88200000D02*
X57850000Y-88200000D01*
X61700000Y-91700000D02*
X61700000Y-90100000D01*
X61700000Y-90100000D02*
X62500000Y-90100000D01*
X62500000Y-90100000D02*
X62500000Y-91700000D01*
X62500000Y-91700000D02*
X61700000Y-91700000D01*
X61700000Y-91300000D02*
X62500000Y-91300000D01*
X61700000Y-91450000D02*
X62500000Y-91450000D01*
X61700000Y-90350000D02*
X62500000Y-90350000D01*
X59950000Y-87500000D02*
X59950000Y-88500000D01*
X59950000Y-88500000D02*
X59450000Y-88500000D01*
X59450000Y-88500000D02*
X59450000Y-87500000D01*
X59450000Y-87500000D02*
X59950000Y-87500000D01*
X59950000Y-87800000D02*
X59450000Y-87800000D01*
X59950000Y-88200000D02*
X59450000Y-88200000D01*
X59150000Y-87500000D02*
X59150000Y-88500000D01*
X59150000Y-88500000D02*
X58650000Y-88500000D01*
X58650000Y-88500000D02*
X58650000Y-87500000D01*
X58650000Y-87500000D02*
X59150000Y-87500000D01*
X59150000Y-87800000D02*
X58650000Y-87800000D01*
X59150000Y-88200000D02*
X58650000Y-88200000D01*
X74675000Y-54600000D02*
X74675000Y-56400000D01*
X74675000Y-56400000D02*
X73325000Y-56400000D01*
X73325000Y-56400000D02*
X73325000Y-54600000D01*
X73325000Y-54600000D02*
X74675000Y-54600000D01*
X74675000Y-55050000D02*
X73325000Y-55050000D01*
X74200000Y-54150000D02*
X73800000Y-54150000D01*
X74200000Y-54150000D02*
X74200000Y-54600000D01*
X73800000Y-54150000D02*
X73800000Y-54600000D01*
X74200000Y-56850000D02*
X73800000Y-56850000D01*
X74200000Y-56850000D02*
X74200000Y-56400000D01*
X73800000Y-56850000D02*
X73800000Y-56400000D01*
X94675000Y-54600000D02*
X94675000Y-56400000D01*
X94675000Y-56400000D02*
X93325000Y-56400000D01*
X93325000Y-56400000D02*
X93325000Y-54600000D01*
X93325000Y-54600000D02*
X94675000Y-54600000D01*
X94675000Y-55050000D02*
X93325000Y-55050000D01*
X94200000Y-54150000D02*
X93800000Y-54150000D01*
X94200000Y-54150000D02*
X94200000Y-54600000D01*
X93800000Y-54150000D02*
X93800000Y-54600000D01*
X94200000Y-56850000D02*
X93800000Y-56850000D01*
X94200000Y-56850000D02*
X94200000Y-56400000D01*
X93800000Y-56850000D02*
X93800000Y-56400000D01*
X53700000Y-62830000D02*
X54350000Y-62830000D01*
X53700000Y-62570000D02*
X53700000Y-62830000D01*
X54350000Y-62570000D02*
X53700000Y-62570000D01*
X53700000Y-63480000D02*
X54350000Y-63480000D01*
X53700000Y-63220000D02*
X53700000Y-63480000D01*
X54350000Y-63220000D02*
X53700000Y-63220000D01*
X53700000Y-65430000D02*
X54350000Y-65430000D01*
X53700000Y-65170000D02*
X53700000Y-65430000D01*
X54350000Y-65170000D02*
X53700000Y-65170000D01*
X53700000Y-64780000D02*
X54350000Y-64780000D01*
X53700000Y-64520000D02*
X53700000Y-64780000D01*
X54350000Y-64520000D02*
X53700000Y-64520000D01*
X53700000Y-63870000D02*
X54350000Y-63870000D01*
X53700000Y-64130000D02*
X53700000Y-63870000D01*
X54350000Y-64130000D02*
X53700000Y-64130000D01*
X54650000Y-61550000D02*
X54350000Y-61550000D01*
X54650000Y-62000000D02*
X54650000Y-61550000D01*
X54350000Y-62000000D02*
X54650000Y-62000000D01*
X54650000Y-66450000D02*
X54350000Y-66450000D01*
X54650000Y-66000000D02*
X54650000Y-66450000D01*
X54350000Y-66000000D02*
X54650000Y-66000000D01*
X51950000Y-59970000D02*
X51050000Y-59970000D01*
X51050000Y-68030000D02*
X51050000Y-68030000D01*
X51950000Y-68030000D02*
X51050000Y-68030000D01*
X51950000Y-68330000D02*
X51950000Y-67750000D01*
X51050000Y-68330000D02*
X51950000Y-68330000D01*
X51050000Y-67750000D02*
X51050000Y-68330000D01*
X54350000Y-67750000D02*
X48750000Y-67750000D01*
X54350000Y-60250000D02*
X54350000Y-67750000D01*
X48750000Y-60250000D02*
X54350000Y-60250000D01*
X48750000Y-60050000D02*
X49350000Y-60250000D01*
X48750000Y-59900000D02*
X48750000Y-60050000D01*
X48750000Y-67950000D02*
X49350000Y-67750000D01*
X48750000Y-68100000D02*
X48750000Y-67950000D01*
X49350000Y-67900000D02*
X49350000Y-60100000D01*
X48750000Y-68100000D02*
X49350000Y-67900000D01*
X50050000Y-59325000D02*
X50050000Y-68675000D01*
X48750000Y-60250000D02*
X48750000Y-67750000D01*
X48750000Y-59900000D02*
X49350000Y-60100000D01*
X51950000Y-59670000D02*
X51950000Y-60250000D01*
X51050000Y-59670000D02*
X51950000Y-59670000D01*
X51050000Y-60250000D02*
X51050000Y-59670000D01*
X92200000Y-72200000D02*
X99300000Y-72200000D01*
X99300000Y-72200000D02*
X99300000Y-79300000D01*
X99300000Y-79300000D02*
X92200000Y-79300000D01*
X92200000Y-79300000D02*
X92200000Y-72200000D01*
X93400000Y-73000000D02*
G75*
G03X93400000Y-73000000I-400000J0D01*
G01*
X92700000Y-72850000D02*
X92200000Y-72850000D01*
X92200000Y-73150000D02*
X92700000Y-73150000D01*
X92700000Y-73150000D02*
X92700000Y-72850000D01*
X92700000Y-73350000D02*
X92200000Y-73350000D01*
X92200000Y-73650000D02*
X92700000Y-73650000D01*
X92700000Y-73650000D02*
X92700000Y-73350000D01*
X92700000Y-73850000D02*
X92200000Y-73850000D01*
X92200000Y-74150000D02*
X92700000Y-74150000D01*
X92700000Y-74150000D02*
X92700000Y-73850000D01*
X92700000Y-74350000D02*
X92200000Y-74350000D01*
X92200000Y-74650000D02*
X92700000Y-74650000D01*
X92700000Y-74650000D02*
X92700000Y-74350000D01*
X92700000Y-74850000D02*
X92200000Y-74850000D01*
X92200000Y-75150000D02*
X92700000Y-75150000D01*
X92700000Y-75150000D02*
X92700000Y-74850000D01*
X92700000Y-75350000D02*
X92200000Y-75350000D01*
X92200000Y-75650000D02*
X92700000Y-75650000D01*
X92700000Y-75650000D02*
X92700000Y-75350000D01*
X92700000Y-75850000D02*
X92200000Y-75850000D01*
X92200000Y-76150000D02*
X92700000Y-76150000D01*
X92700000Y-76150000D02*
X92700000Y-75850000D01*
X92700000Y-76350000D02*
X92200000Y-76350000D01*
X92200000Y-76650000D02*
X92700000Y-76650000D01*
X92700000Y-76650000D02*
X92700000Y-76350000D01*
X92700000Y-76850000D02*
X92200000Y-76850000D01*
X92200000Y-77150000D02*
X92700000Y-77150000D01*
X92700000Y-77150000D02*
X92700000Y-76850000D01*
X92700000Y-77350000D02*
X92200000Y-77350000D01*
X92200000Y-77650000D02*
X92700000Y-77650000D01*
X92700000Y-77650000D02*
X92700000Y-77350000D01*
X92700000Y-77850000D02*
X92200000Y-77850000D01*
X92200000Y-78150000D02*
X92700000Y-78150000D01*
X92700000Y-78150000D02*
X92700000Y-77850000D01*
X92700000Y-78350000D02*
X92200000Y-78350000D01*
X92200000Y-78650000D02*
X92700000Y-78650000D01*
X92700000Y-78650000D02*
X92700000Y-78350000D01*
X99300000Y-78350000D02*
X98800000Y-78350000D01*
X98800000Y-78350000D02*
X98800000Y-78650000D01*
X98800000Y-78650000D02*
X99300000Y-78650000D01*
X99300000Y-77850000D02*
X98800000Y-77850000D01*
X98800000Y-77850000D02*
X98800000Y-78150000D01*
X98800000Y-78150000D02*
X99300000Y-78150000D01*
X99300000Y-77350000D02*
X98800000Y-77350000D01*
X98800000Y-77350000D02*
X98800000Y-77650000D01*
X98800000Y-77650000D02*
X99300000Y-77650000D01*
X99300000Y-76850000D02*
X98800000Y-76850000D01*
X98800000Y-76850000D02*
X98800000Y-77150000D01*
X98800000Y-77150000D02*
X99300000Y-77150000D01*
X99300000Y-76350000D02*
X98800000Y-76350000D01*
X98800000Y-76350000D02*
X98800000Y-76650000D01*
X98800000Y-76650000D02*
X99300000Y-76650000D01*
X99300000Y-75850000D02*
X98800000Y-75850000D01*
X98800000Y-75850000D02*
X98800000Y-76150000D01*
X98800000Y-76150000D02*
X99300000Y-76150000D01*
X99300000Y-75350000D02*
X98800000Y-75350000D01*
X98800000Y-75350000D02*
X98800000Y-75650000D01*
X98800000Y-75650000D02*
X99300000Y-75650000D01*
X99300000Y-74850000D02*
X98800000Y-74850000D01*
X98800000Y-74850000D02*
X98800000Y-75150000D01*
X98800000Y-75150000D02*
X99300000Y-75150000D01*
X99300000Y-74350000D02*
X98800000Y-74350000D01*
X98800000Y-74350000D02*
X98800000Y-74650000D01*
X98800000Y-74650000D02*
X99300000Y-74650000D01*
X99300000Y-73850000D02*
X98800000Y-73850000D01*
X98800000Y-73850000D02*
X98800000Y-74150000D01*
X98800000Y-74150000D02*
X99300000Y-74150000D01*
X99300000Y-73350000D02*
X98800000Y-73350000D01*
X98800000Y-73350000D02*
X98800000Y-73650000D01*
X98800000Y-73650000D02*
X99300000Y-73650000D01*
X99300000Y-72850000D02*
X98800000Y-72850000D01*
X98800000Y-72850000D02*
X98800000Y-73150000D01*
X98800000Y-73150000D02*
X99300000Y-73150000D01*
X98350000Y-72700000D02*
X98650000Y-72700000D01*
X98650000Y-72700000D02*
X98650000Y-72200000D01*
X98350000Y-72200000D02*
X98350000Y-72700000D01*
X97850000Y-72700000D02*
X98150000Y-72700000D01*
X98150000Y-72700000D02*
X98150000Y-72200000D01*
X97850000Y-72200000D02*
X97850000Y-72700000D01*
X97350000Y-72700000D02*
X97650000Y-72700000D01*
X97650000Y-72700000D02*
X97650000Y-72200000D01*
X97350000Y-72200000D02*
X97350000Y-72700000D01*
X96850000Y-72700000D02*
X97150000Y-72700000D01*
X97150000Y-72700000D02*
X97150000Y-72200000D01*
X96850000Y-72200000D02*
X96850000Y-72700000D01*
X96350000Y-72700000D02*
X96650000Y-72700000D01*
X96650000Y-72700000D02*
X96650000Y-72200000D01*
X96350000Y-72200000D02*
X96350000Y-72700000D01*
X95850000Y-72700000D02*
X96150000Y-72700000D01*
X96150000Y-72700000D02*
X96150000Y-72200000D01*
X95850000Y-72200000D02*
X95850000Y-72700000D01*
X95350000Y-72700000D02*
X95650000Y-72700000D01*
X95650000Y-72700000D02*
X95650000Y-72200000D01*
X95350000Y-72200000D02*
X95350000Y-72700000D01*
X94850000Y-72700000D02*
X95150000Y-72700000D01*
X95150000Y-72700000D02*
X95150000Y-72200000D01*
X94850000Y-72200000D02*
X94850000Y-72700000D01*
X94350000Y-72700000D02*
X94650000Y-72700000D01*
X94650000Y-72700000D02*
X94650000Y-72200000D01*
X94350000Y-72200000D02*
X94350000Y-72700000D01*
X93850000Y-72700000D02*
X94150000Y-72700000D01*
X94150000Y-72700000D02*
X94150000Y-72200000D01*
X93850000Y-72200000D02*
X93850000Y-72700000D01*
X93350000Y-72700000D02*
X93650000Y-72700000D01*
X93650000Y-72700000D02*
X93650000Y-72200000D01*
X93350000Y-72200000D02*
X93350000Y-72700000D01*
X92850000Y-72700000D02*
X93150000Y-72700000D01*
X93150000Y-72700000D02*
X93150000Y-72200000D01*
X92850000Y-72200000D02*
X92850000Y-72700000D01*
X93150000Y-79300000D02*
X93150000Y-78800000D01*
X93150000Y-78800000D02*
X92850000Y-78800000D01*
X92850000Y-78800000D02*
X92850000Y-79300000D01*
X93650000Y-79300000D02*
X93650000Y-78800000D01*
X93650000Y-78800000D02*
X93350000Y-78800000D01*
X93350000Y-78800000D02*
X93350000Y-79300000D01*
X94150000Y-79300000D02*
X94150000Y-78800000D01*
X94150000Y-78800000D02*
X93850000Y-78800000D01*
X93850000Y-78800000D02*
X93850000Y-79300000D01*
X94650000Y-79300000D02*
X94650000Y-78800000D01*
X94650000Y-78800000D02*
X94350000Y-78800000D01*
X94350000Y-78800000D02*
X94350000Y-79300000D01*
X95150000Y-79300000D02*
X95150000Y-78800000D01*
X95150000Y-78800000D02*
X94850000Y-78800000D01*
X94850000Y-78800000D02*
X94850000Y-79300000D01*
X95650000Y-79300000D02*
X95650000Y-78800000D01*
X95650000Y-78800000D02*
X95350000Y-78800000D01*
X95350000Y-78800000D02*
X95350000Y-79300000D01*
X96150000Y-79300000D02*
X96150000Y-78800000D01*
X96150000Y-78800000D02*
X95850000Y-78800000D01*
X95850000Y-78800000D02*
X95850000Y-79300000D01*
X96650000Y-79300000D02*
X96650000Y-78800000D01*
X96650000Y-78800000D02*
X96350000Y-78800000D01*
X96350000Y-78800000D02*
X96350000Y-79300000D01*
X97150000Y-79300000D02*
X97150000Y-78800000D01*
X97150000Y-78800000D02*
X96850000Y-78800000D01*
X96850000Y-78800000D02*
X96850000Y-79300000D01*
X97650000Y-79300000D02*
X97650000Y-78800000D01*
X97650000Y-78800000D02*
X97350000Y-78800000D01*
X97350000Y-78800000D02*
X97350000Y-79300000D01*
X98150000Y-79300000D02*
X98150000Y-78800000D01*
X98150000Y-78800000D02*
X97850000Y-78800000D01*
X97850000Y-78800000D02*
X97850000Y-79300000D01*
X98650000Y-79300000D02*
X98650000Y-78800000D01*
X98650000Y-78800000D02*
X98350000Y-78800000D01*
X98350000Y-78800000D02*
X98350000Y-79300000D01*
D12*
M02*
