G04 #@! TF.FileFunction,Legend,Top*
%FSLAX46Y46*%
G04 Gerber Fmt 4.6, Leading zero omitted, Abs format (unit mm)*
G04 Created by KiCad (PCBNEW 0.201512311516+6410~40~ubuntu14.04.1-stable) date Sun 03 Jan 2016 08:31:07 GMT*
%MOMM*%
G01*
G04 APERTURE LIST*
%ADD10C,0.100000*%
%ADD11C,0.150000*%
%ADD12C,0.200000*%
%ADD13R,1.150000X1.450000*%
%ADD14R,1.450000X1.150000*%
%ADD15R,0.600000X1.550000*%
%ADD16R,0.420000X0.460000*%
%ADD17R,0.620000X0.620000*%
%ADD18R,1.000000X0.950000*%
%ADD19R,1.800000X1.150000*%
%ADD20R,1.450000X0.450000*%
%ADD21R,1.500000X0.300000*%
%ADD22R,0.300000X1.500000*%
%ADD23R,0.500000X0.900000*%
%ADD24R,0.900000X0.750000*%
%ADD25R,0.520000X0.520000*%
%ADD26R,0.320000X0.360000*%
%ADD27C,0.370000*%
%ADD28C,0.787000*%
%ADD29C,1.000000*%
%ADD30C,3.000000*%
%ADD31R,1.350000X0.400000*%
%ADD32O,1.250000X1.000000*%
%ADD33R,1.900000X1.800000*%
%ADD34R,1.900000X1.575000*%
%ADD35O,1.900000X1.000000*%
%ADD36R,0.550000X0.300000*%
%ADD37R,0.300000X0.550000*%
%ADD38R,2.002000X2.002000*%
G04 APERTURE END LIST*
D10*
D11*
X55247619Y-74761905D02*
X55742857Y-74761905D01*
X55476190Y-75066667D01*
X55590476Y-75066667D01*
X55666666Y-75104762D01*
X55704762Y-75142857D01*
X55742857Y-75219048D01*
X55742857Y-75409524D01*
X55704762Y-75485714D01*
X55666666Y-75523810D01*
X55590476Y-75561905D01*
X55361904Y-75561905D01*
X55285714Y-75523810D01*
X55247619Y-75485714D01*
X56009524Y-75028571D02*
X56200000Y-75561905D01*
X56390476Y-75028571D01*
X56619048Y-74761905D02*
X57114286Y-74761905D01*
X56847619Y-75066667D01*
X56961905Y-75066667D01*
X57038095Y-75104762D01*
X57076191Y-75142857D01*
X57114286Y-75219048D01*
X57114286Y-75409524D01*
X57076191Y-75485714D01*
X57038095Y-75523810D01*
X56961905Y-75561905D01*
X56733333Y-75561905D01*
X56657143Y-75523810D01*
X56619048Y-75485714D01*
X51590477Y-74800000D02*
X51514286Y-74761905D01*
X51400001Y-74761905D01*
X51285715Y-74800000D01*
X51209524Y-74876190D01*
X51171429Y-74952381D01*
X51133334Y-75104762D01*
X51133334Y-75219048D01*
X51171429Y-75371429D01*
X51209524Y-75447619D01*
X51285715Y-75523810D01*
X51400001Y-75561905D01*
X51476191Y-75561905D01*
X51590477Y-75523810D01*
X51628572Y-75485714D01*
X51628572Y-75219048D01*
X51476191Y-75219048D01*
X51971429Y-75561905D02*
X51971429Y-74761905D01*
X52428572Y-75561905D01*
X52428572Y-74761905D01*
X52809524Y-75561905D02*
X52809524Y-74761905D01*
X53000000Y-74761905D01*
X53114286Y-74800000D01*
X53190477Y-74876190D01*
X53228572Y-74952381D01*
X53266667Y-75104762D01*
X53266667Y-75219048D01*
X53228572Y-75371429D01*
X53190477Y-75447619D01*
X53114286Y-75523810D01*
X53000000Y-75561905D01*
X52809524Y-75561905D01*
X61161905Y-67100000D02*
X61066667Y-67052381D01*
X60923810Y-67052381D01*
X60780952Y-67100000D01*
X60685714Y-67195238D01*
X60638095Y-67290476D01*
X60590476Y-67480952D01*
X60590476Y-67623810D01*
X60638095Y-67814286D01*
X60685714Y-67909524D01*
X60780952Y-68004762D01*
X60923810Y-68052381D01*
X61019048Y-68052381D01*
X61161905Y-68004762D01*
X61209524Y-67957143D01*
X61209524Y-67623810D01*
X61019048Y-67623810D01*
X61638095Y-68052381D02*
X61638095Y-67052381D01*
X62209524Y-68052381D01*
X62209524Y-67052381D01*
X62685714Y-68052381D02*
X62685714Y-67052381D01*
X62923809Y-67052381D01*
X63066667Y-67100000D01*
X63161905Y-67195238D01*
X63209524Y-67290476D01*
X63257143Y-67480952D01*
X63257143Y-67623810D01*
X63209524Y-67814286D01*
X63161905Y-67909524D01*
X63066667Y-68004762D01*
X62923809Y-68052381D01*
X62685714Y-68052381D01*
X61114286Y-65452381D02*
X60638095Y-65452381D01*
X60590476Y-65928571D01*
X60638095Y-65880952D01*
X60733333Y-65833333D01*
X60971429Y-65833333D01*
X61066667Y-65880952D01*
X61114286Y-65928571D01*
X61161905Y-66023810D01*
X61161905Y-66261905D01*
X61114286Y-66357143D01*
X61066667Y-66404762D01*
X60971429Y-66452381D01*
X60733333Y-66452381D01*
X60638095Y-66404762D01*
X60590476Y-66357143D01*
X61447619Y-65452381D02*
X61780952Y-66452381D01*
X62114286Y-65452381D01*
D12*
X92800000Y-54000000D02*
X93200000Y-53600000D01*
X92800000Y-58600000D02*
X92800000Y-54000000D01*
X72800000Y-54000000D02*
X73200000Y-53600000D01*
X72800000Y-58800000D02*
X72800000Y-54000000D01*
D11*
X68425000Y-92500000D02*
X68425000Y-100000000D01*
D12*
X63000000Y-92500000D02*
X68400000Y-92500000D01*
X63488095Y-72452381D02*
X63488095Y-71452381D01*
X63821429Y-72166667D01*
X64154762Y-71452381D01*
X64154762Y-72452381D01*
X64630952Y-71928571D02*
X64964286Y-71928571D01*
X65107143Y-72452381D02*
X64630952Y-72452381D01*
X64630952Y-71452381D01*
X65107143Y-71452381D01*
X65535714Y-72452381D02*
X65535714Y-71452381D01*
X65773809Y-71452381D01*
X65916667Y-71500000D01*
X66011905Y-71595238D01*
X66059524Y-71690476D01*
X66107143Y-71880952D01*
X66107143Y-72023810D01*
X66059524Y-72214286D01*
X66011905Y-72309524D01*
X65916667Y-72404762D01*
X65773809Y-72452381D01*
X65535714Y-72452381D01*
X66535714Y-72452381D02*
X66535714Y-71452381D01*
X67011904Y-71452381D02*
X67011904Y-72261905D01*
X67059523Y-72357143D01*
X67107142Y-72404762D01*
X67202380Y-72452381D01*
X67392857Y-72452381D01*
X67488095Y-72404762D01*
X67535714Y-72357143D01*
X67583333Y-72261905D01*
X67583333Y-71452381D01*
X68059523Y-72452381D02*
X68059523Y-71452381D01*
X68392857Y-72166667D01*
X68726190Y-71452381D01*
X68726190Y-72452381D01*
X60952381Y-69928571D02*
X61285715Y-69928571D01*
X61428572Y-70452381D02*
X60952381Y-70452381D01*
X60952381Y-69452381D01*
X61428572Y-69452381D01*
X61809524Y-70166667D02*
X62285715Y-70166667D01*
X61714286Y-70452381D02*
X62047619Y-69452381D01*
X62380953Y-70452381D01*
X62666667Y-70404762D02*
X62809524Y-70452381D01*
X63047620Y-70452381D01*
X63142858Y-70404762D01*
X63190477Y-70357143D01*
X63238096Y-70261905D01*
X63238096Y-70166667D01*
X63190477Y-70071429D01*
X63142858Y-70023810D01*
X63047620Y-69976190D01*
X62857143Y-69928571D01*
X62761905Y-69880952D01*
X62714286Y-69833333D01*
X62666667Y-69738095D01*
X62666667Y-69642857D01*
X62714286Y-69547619D01*
X62761905Y-69500000D01*
X62857143Y-69452381D01*
X63095239Y-69452381D01*
X63238096Y-69500000D01*
X63857143Y-69976190D02*
X63857143Y-70452381D01*
X63523810Y-69452381D02*
X63857143Y-69976190D01*
X64190477Y-69452381D01*
X59083333Y-72452381D02*
X59083333Y-71452381D01*
X59083333Y-71928571D02*
X59654762Y-71928571D01*
X59654762Y-72452381D02*
X59654762Y-71452381D01*
X60083333Y-72166667D02*
X60559524Y-72166667D01*
X59988095Y-72452381D02*
X60321428Y-71452381D01*
X60654762Y-72452381D01*
X61559524Y-72452381D02*
X61226190Y-71976190D01*
X60988095Y-72452381D02*
X60988095Y-71452381D01*
X61369048Y-71452381D01*
X61464286Y-71500000D01*
X61511905Y-71547619D01*
X61559524Y-71642857D01*
X61559524Y-71785714D01*
X61511905Y-71880952D01*
X61464286Y-71928571D01*
X61369048Y-71976190D01*
X60988095Y-71976190D01*
X61988095Y-72452381D02*
X61988095Y-71452381D01*
X62226190Y-71452381D01*
X62369048Y-71500000D01*
X62464286Y-71595238D01*
X62511905Y-71690476D01*
X62559524Y-71880952D01*
X62559524Y-72023810D01*
X62511905Y-72214286D01*
X62464286Y-72309524D01*
X62369048Y-72404762D01*
X62226190Y-72452381D01*
X61988095Y-72452381D01*
X63000000Y-71000000D02*
X63000000Y-92500000D01*
D11*
X51309524Y-94627381D02*
X50976190Y-94151190D01*
X50738095Y-94627381D02*
X50738095Y-93627381D01*
X51119048Y-93627381D01*
X51214286Y-93675000D01*
X51261905Y-93722619D01*
X51309524Y-93817857D01*
X51309524Y-93960714D01*
X51261905Y-94055952D01*
X51214286Y-94103571D01*
X51119048Y-94151190D01*
X50738095Y-94151190D01*
X52119048Y-94579762D02*
X52023810Y-94627381D01*
X51833333Y-94627381D01*
X51738095Y-94579762D01*
X51690476Y-94484524D01*
X51690476Y-94103571D01*
X51738095Y-94008333D01*
X51833333Y-93960714D01*
X52023810Y-93960714D01*
X52119048Y-94008333D01*
X52166667Y-94103571D01*
X52166667Y-94198810D01*
X51690476Y-94294048D01*
X52452381Y-93960714D02*
X52833333Y-93960714D01*
X52595238Y-94627381D02*
X52595238Y-93770238D01*
X52642857Y-93675000D01*
X52738095Y-93627381D01*
X52833333Y-93627381D01*
X53309524Y-94627381D02*
X53214286Y-94579762D01*
X53166667Y-94484524D01*
X53166667Y-93627381D01*
X53833334Y-94627381D02*
X53738096Y-94579762D01*
X53690477Y-94532143D01*
X53642858Y-94436905D01*
X53642858Y-94151190D01*
X53690477Y-94055952D01*
X53738096Y-94008333D01*
X53833334Y-93960714D01*
X53976192Y-93960714D01*
X54071430Y-94008333D01*
X54119049Y-94055952D01*
X54166668Y-94151190D01*
X54166668Y-94436905D01*
X54119049Y-94532143D01*
X54071430Y-94579762D01*
X53976192Y-94627381D01*
X53833334Y-94627381D01*
X54500001Y-93960714D02*
X54690477Y-94627381D01*
X54880954Y-94151190D01*
X55071430Y-94627381D01*
X55261906Y-93960714D01*
X56357144Y-94579762D02*
X56500001Y-94627381D01*
X56738097Y-94627381D01*
X56833335Y-94579762D01*
X56880954Y-94532143D01*
X56928573Y-94436905D01*
X56928573Y-94341667D01*
X56880954Y-94246429D01*
X56833335Y-94198810D01*
X56738097Y-94151190D01*
X56547620Y-94103571D01*
X56452382Y-94055952D01*
X56404763Y-94008333D01*
X56357144Y-93913095D01*
X56357144Y-93817857D01*
X56404763Y-93722619D01*
X56452382Y-93675000D01*
X56547620Y-93627381D01*
X56785716Y-93627381D01*
X56928573Y-93675000D01*
X57500001Y-94627381D02*
X57404763Y-94579762D01*
X57357144Y-94532143D01*
X57309525Y-94436905D01*
X57309525Y-94151190D01*
X57357144Y-94055952D01*
X57404763Y-94008333D01*
X57500001Y-93960714D01*
X57642859Y-93960714D01*
X57738097Y-94008333D01*
X57785716Y-94055952D01*
X57833335Y-94151190D01*
X57833335Y-94436905D01*
X57785716Y-94532143D01*
X57738097Y-94579762D01*
X57642859Y-94627381D01*
X57500001Y-94627381D01*
X58404763Y-94627381D02*
X58309525Y-94579762D01*
X58261906Y-94484524D01*
X58261906Y-93627381D01*
X59214288Y-94627381D02*
X59214288Y-93627381D01*
X59214288Y-94579762D02*
X59119050Y-94627381D01*
X58928573Y-94627381D01*
X58833335Y-94579762D01*
X58785716Y-94532143D01*
X58738097Y-94436905D01*
X58738097Y-94151190D01*
X58785716Y-94055952D01*
X58833335Y-94008333D01*
X58928573Y-93960714D01*
X59119050Y-93960714D01*
X59214288Y-94008333D01*
X60071431Y-94579762D02*
X59976193Y-94627381D01*
X59785716Y-94627381D01*
X59690478Y-94579762D01*
X59642859Y-94484524D01*
X59642859Y-94103571D01*
X59690478Y-94008333D01*
X59785716Y-93960714D01*
X59976193Y-93960714D01*
X60071431Y-94008333D01*
X60119050Y-94103571D01*
X60119050Y-94198810D01*
X59642859Y-94294048D01*
X60547621Y-94627381D02*
X60547621Y-93960714D01*
X60547621Y-94151190D02*
X60595240Y-94055952D01*
X60642859Y-94008333D01*
X60738097Y-93960714D01*
X60833336Y-93960714D01*
X50595238Y-95177381D02*
X51166667Y-95177381D01*
X50880952Y-96177381D02*
X50880952Y-95177381D01*
X51880953Y-96129762D02*
X51785715Y-96177381D01*
X51595238Y-96177381D01*
X51500000Y-96129762D01*
X51452381Y-96034524D01*
X51452381Y-95653571D01*
X51500000Y-95558333D01*
X51595238Y-95510714D01*
X51785715Y-95510714D01*
X51880953Y-95558333D01*
X51928572Y-95653571D01*
X51928572Y-95748810D01*
X51452381Y-95844048D01*
X52309524Y-96129762D02*
X52404762Y-96177381D01*
X52595238Y-96177381D01*
X52690477Y-96129762D01*
X52738096Y-96034524D01*
X52738096Y-95986905D01*
X52690477Y-95891667D01*
X52595238Y-95844048D01*
X52452381Y-95844048D01*
X52357143Y-95796429D01*
X52309524Y-95701190D01*
X52309524Y-95653571D01*
X52357143Y-95558333D01*
X52452381Y-95510714D01*
X52595238Y-95510714D01*
X52690477Y-95558333D01*
X53023810Y-95510714D02*
X53404762Y-95510714D01*
X53166667Y-95177381D02*
X53166667Y-96034524D01*
X53214286Y-96129762D01*
X53309524Y-96177381D01*
X53404762Y-96177381D01*
X54833335Y-95653571D02*
X54976192Y-95701190D01*
X55023811Y-95748810D01*
X55071430Y-95844048D01*
X55071430Y-95986905D01*
X55023811Y-96082143D01*
X54976192Y-96129762D01*
X54880954Y-96177381D01*
X54500001Y-96177381D01*
X54500001Y-95177381D01*
X54833335Y-95177381D01*
X54928573Y-95225000D01*
X54976192Y-95272619D01*
X55023811Y-95367857D01*
X55023811Y-95463095D01*
X54976192Y-95558333D01*
X54928573Y-95605952D01*
X54833335Y-95653571D01*
X54500001Y-95653571D01*
X55642858Y-96177381D02*
X55547620Y-96129762D01*
X55500001Y-96082143D01*
X55452382Y-95986905D01*
X55452382Y-95701190D01*
X55500001Y-95605952D01*
X55547620Y-95558333D01*
X55642858Y-95510714D01*
X55785716Y-95510714D01*
X55880954Y-95558333D01*
X55928573Y-95605952D01*
X55976192Y-95701190D01*
X55976192Y-95986905D01*
X55928573Y-96082143D01*
X55880954Y-96129762D01*
X55785716Y-96177381D01*
X55642858Y-96177381D01*
X56833335Y-96177381D02*
X56833335Y-95653571D01*
X56785716Y-95558333D01*
X56690478Y-95510714D01*
X56500001Y-95510714D01*
X56404763Y-95558333D01*
X56833335Y-96129762D02*
X56738097Y-96177381D01*
X56500001Y-96177381D01*
X56404763Y-96129762D01*
X56357144Y-96034524D01*
X56357144Y-95939286D01*
X56404763Y-95844048D01*
X56500001Y-95796429D01*
X56738097Y-95796429D01*
X56833335Y-95748810D01*
X57309525Y-96177381D02*
X57309525Y-95510714D01*
X57309525Y-95701190D02*
X57357144Y-95605952D01*
X57404763Y-95558333D01*
X57500001Y-95510714D01*
X57595240Y-95510714D01*
X58357145Y-96177381D02*
X58357145Y-95177381D01*
X58357145Y-96129762D02*
X58261907Y-96177381D01*
X58071430Y-96177381D01*
X57976192Y-96129762D01*
X57928573Y-96082143D01*
X57880954Y-95986905D01*
X57880954Y-95701190D01*
X57928573Y-95605952D01*
X57976192Y-95558333D01*
X58071430Y-95510714D01*
X58261907Y-95510714D01*
X58357145Y-95558333D01*
X59595240Y-96177381D02*
X59595240Y-95510714D01*
X59595240Y-95701190D02*
X59642859Y-95605952D01*
X59690478Y-95558333D01*
X59785716Y-95510714D01*
X59880955Y-95510714D01*
X60738098Y-96177381D02*
X60166669Y-96177381D01*
X60452383Y-96177381D02*
X60452383Y-95177381D01*
X60357145Y-95320238D01*
X60261907Y-95415476D01*
X60166669Y-95463095D01*
X50690476Y-97441667D02*
X51166667Y-97441667D01*
X50595238Y-97727381D02*
X50928571Y-96727381D01*
X51261905Y-97727381D01*
X52023810Y-97727381D02*
X52023810Y-96727381D01*
X52023810Y-97679762D02*
X51928572Y-97727381D01*
X51738095Y-97727381D01*
X51642857Y-97679762D01*
X51595238Y-97632143D01*
X51547619Y-97536905D01*
X51547619Y-97251190D01*
X51595238Y-97155952D01*
X51642857Y-97108333D01*
X51738095Y-97060714D01*
X51928572Y-97060714D01*
X52023810Y-97108333D01*
X52928572Y-97727381D02*
X52928572Y-97203571D01*
X52880953Y-97108333D01*
X52785715Y-97060714D01*
X52595238Y-97060714D01*
X52500000Y-97108333D01*
X52928572Y-97679762D02*
X52833334Y-97727381D01*
X52595238Y-97727381D01*
X52500000Y-97679762D01*
X52452381Y-97584524D01*
X52452381Y-97489286D01*
X52500000Y-97394048D01*
X52595238Y-97346429D01*
X52833334Y-97346429D01*
X52928572Y-97298810D01*
X53404762Y-97727381D02*
X53404762Y-97060714D01*
X53404762Y-97155952D02*
X53452381Y-97108333D01*
X53547619Y-97060714D01*
X53690477Y-97060714D01*
X53785715Y-97108333D01*
X53833334Y-97203571D01*
X53833334Y-97727381D01*
X53833334Y-97203571D02*
X53880953Y-97108333D01*
X53976191Y-97060714D01*
X54119048Y-97060714D01*
X54214286Y-97108333D01*
X54261905Y-97203571D01*
X54261905Y-97727381D01*
X56023810Y-96775000D02*
X55928572Y-96727381D01*
X55785715Y-96727381D01*
X55642857Y-96775000D01*
X55547619Y-96870238D01*
X55500000Y-96965476D01*
X55452381Y-97155952D01*
X55452381Y-97298810D01*
X55500000Y-97489286D01*
X55547619Y-97584524D01*
X55642857Y-97679762D01*
X55785715Y-97727381D01*
X55880953Y-97727381D01*
X56023810Y-97679762D01*
X56071429Y-97632143D01*
X56071429Y-97298810D01*
X55880953Y-97298810D01*
X56500000Y-97727381D02*
X56500000Y-97060714D01*
X56500000Y-97251190D02*
X56547619Y-97155952D01*
X56595238Y-97108333D01*
X56690476Y-97060714D01*
X56785715Y-97060714D01*
X57500001Y-97679762D02*
X57404763Y-97727381D01*
X57214286Y-97727381D01*
X57119048Y-97679762D01*
X57071429Y-97584524D01*
X57071429Y-97203571D01*
X57119048Y-97108333D01*
X57214286Y-97060714D01*
X57404763Y-97060714D01*
X57500001Y-97108333D01*
X57547620Y-97203571D01*
X57547620Y-97298810D01*
X57071429Y-97394048D01*
X57976191Y-97727381D02*
X57976191Y-97060714D01*
X57976191Y-96727381D02*
X57928572Y-96775000D01*
X57976191Y-96822619D01*
X58023810Y-96775000D01*
X57976191Y-96727381D01*
X57976191Y-96822619D01*
X58880953Y-97060714D02*
X58880953Y-97870238D01*
X58833334Y-97965476D01*
X58785715Y-98013095D01*
X58690476Y-98060714D01*
X58547619Y-98060714D01*
X58452381Y-98013095D01*
X58880953Y-97679762D02*
X58785715Y-97727381D01*
X58595238Y-97727381D01*
X58500000Y-97679762D01*
X58452381Y-97632143D01*
X58404762Y-97536905D01*
X58404762Y-97251190D01*
X58452381Y-97155952D01*
X58500000Y-97108333D01*
X58595238Y-97060714D01*
X58785715Y-97060714D01*
X58880953Y-97108333D01*
X50738095Y-99277381D02*
X50738095Y-98277381D01*
X50976190Y-98277381D01*
X51119048Y-98325000D01*
X51214286Y-98420238D01*
X51261905Y-98515476D01*
X51309524Y-98705952D01*
X51309524Y-98848810D01*
X51261905Y-99039286D01*
X51214286Y-99134524D01*
X51119048Y-99229762D01*
X50976190Y-99277381D01*
X50738095Y-99277381D01*
X52119048Y-99229762D02*
X52023810Y-99277381D01*
X51833333Y-99277381D01*
X51738095Y-99229762D01*
X51690476Y-99134524D01*
X51690476Y-98753571D01*
X51738095Y-98658333D01*
X51833333Y-98610714D01*
X52023810Y-98610714D01*
X52119048Y-98658333D01*
X52166667Y-98753571D01*
X52166667Y-98848810D01*
X51690476Y-98944048D01*
X53023810Y-99229762D02*
X52928572Y-99277381D01*
X52738095Y-99277381D01*
X52642857Y-99229762D01*
X52595238Y-99182143D01*
X52547619Y-99086905D01*
X52547619Y-98801190D01*
X52595238Y-98705952D01*
X52642857Y-98658333D01*
X52738095Y-98610714D01*
X52928572Y-98610714D01*
X53023810Y-98658333D01*
X54166667Y-98372619D02*
X54214286Y-98325000D01*
X54309524Y-98277381D01*
X54547620Y-98277381D01*
X54642858Y-98325000D01*
X54690477Y-98372619D01*
X54738096Y-98467857D01*
X54738096Y-98563095D01*
X54690477Y-98705952D01*
X54119048Y-99277381D01*
X54738096Y-99277381D01*
X55357143Y-98277381D02*
X55452382Y-98277381D01*
X55547620Y-98325000D01*
X55595239Y-98372619D01*
X55642858Y-98467857D01*
X55690477Y-98658333D01*
X55690477Y-98896429D01*
X55642858Y-99086905D01*
X55595239Y-99182143D01*
X55547620Y-99229762D01*
X55452382Y-99277381D01*
X55357143Y-99277381D01*
X55261905Y-99229762D01*
X55214286Y-99182143D01*
X55166667Y-99086905D01*
X55119048Y-98896429D01*
X55119048Y-98658333D01*
X55166667Y-98467857D01*
X55214286Y-98372619D01*
X55261905Y-98325000D01*
X55357143Y-98277381D01*
X56642858Y-99277381D02*
X56071429Y-99277381D01*
X56357143Y-99277381D02*
X56357143Y-98277381D01*
X56261905Y-98420238D01*
X56166667Y-98515476D01*
X56071429Y-98563095D01*
X57547620Y-98277381D02*
X57071429Y-98277381D01*
X57023810Y-98753571D01*
X57071429Y-98705952D01*
X57166667Y-98658333D01*
X57404763Y-98658333D01*
X57500001Y-98705952D01*
X57547620Y-98753571D01*
X57595239Y-98848810D01*
X57595239Y-99086905D01*
X57547620Y-99182143D01*
X57500001Y-99229762D01*
X57404763Y-99277381D01*
X57166667Y-99277381D01*
X57071429Y-99229762D01*
X57023810Y-99182143D01*
X61683333Y-94816667D02*
X61750000Y-94816667D01*
X61816666Y-94850000D01*
X61850000Y-94883333D01*
X61883333Y-94950000D01*
X61916666Y-95083333D01*
X61916666Y-95250000D01*
X61883333Y-95383333D01*
X61850000Y-95450000D01*
X61816666Y-95483333D01*
X61750000Y-95516667D01*
X61683333Y-95516667D01*
X61616666Y-95483333D01*
X61583333Y-95450000D01*
X61550000Y-95383333D01*
X61516666Y-95250000D01*
X61516666Y-95083333D01*
X61550000Y-94950000D01*
X61583333Y-94883333D01*
X61616666Y-94850000D01*
X61683333Y-94816667D01*
X62183333Y-94883333D02*
X62216667Y-94850000D01*
X62283333Y-94816667D01*
X62450000Y-94816667D01*
X62516667Y-94850000D01*
X62550000Y-94883333D01*
X62583333Y-94950000D01*
X62583333Y-95016667D01*
X62550000Y-95116667D01*
X62150000Y-95516667D01*
X62583333Y-95516667D01*
X63016667Y-94816667D02*
X63083334Y-94816667D01*
X63150000Y-94850000D01*
X63183334Y-94883333D01*
X63216667Y-94950000D01*
X63250000Y-95083333D01*
X63250000Y-95250000D01*
X63216667Y-95383333D01*
X63183334Y-95450000D01*
X63150000Y-95483333D01*
X63083334Y-95516667D01*
X63016667Y-95516667D01*
X62950000Y-95483333D01*
X62916667Y-95450000D01*
X62883334Y-95383333D01*
X62850000Y-95250000D01*
X62850000Y-95083333D01*
X62883334Y-94950000D01*
X62916667Y-94883333D01*
X62950000Y-94850000D01*
X63016667Y-94816667D01*
X63916667Y-95516667D02*
X63516667Y-95516667D01*
X63716667Y-95516667D02*
X63716667Y-94816667D01*
X63650001Y-94916667D01*
X63583334Y-94983333D01*
X63516667Y-95016667D01*
X64550001Y-95516667D02*
X64216668Y-95516667D01*
X64216668Y-94816667D01*
X65100000Y-93416667D02*
X65166667Y-93416667D01*
X65233333Y-93450000D01*
X65266667Y-93483333D01*
X65300000Y-93550000D01*
X65333333Y-93683333D01*
X65333333Y-93850000D01*
X65300000Y-93983333D01*
X65266667Y-94050000D01*
X65233333Y-94083333D01*
X65166667Y-94116667D01*
X65100000Y-94116667D01*
X65033333Y-94083333D01*
X65000000Y-94050000D01*
X64966667Y-93983333D01*
X64933333Y-93850000D01*
X64933333Y-93683333D01*
X64966667Y-93550000D01*
X65000000Y-93483333D01*
X65033333Y-93450000D01*
X65100000Y-93416667D01*
X65600000Y-93483333D02*
X65633334Y-93450000D01*
X65700000Y-93416667D01*
X65866667Y-93416667D01*
X65933334Y-93450000D01*
X65966667Y-93483333D01*
X66000000Y-93550000D01*
X66000000Y-93616667D01*
X65966667Y-93716667D01*
X65566667Y-94116667D01*
X66000000Y-94116667D01*
X66433334Y-93416667D02*
X66500001Y-93416667D01*
X66566667Y-93450000D01*
X66600001Y-93483333D01*
X66633334Y-93550000D01*
X66666667Y-93683333D01*
X66666667Y-93850000D01*
X66633334Y-93983333D01*
X66600001Y-94050000D01*
X66566667Y-94083333D01*
X66500001Y-94116667D01*
X66433334Y-94116667D01*
X66366667Y-94083333D01*
X66333334Y-94050000D01*
X66300001Y-93983333D01*
X66266667Y-93850000D01*
X66266667Y-93683333D01*
X66300001Y-93550000D01*
X66333334Y-93483333D01*
X66366667Y-93450000D01*
X66433334Y-93416667D01*
X67333334Y-94116667D02*
X66933334Y-94116667D01*
X67133334Y-94116667D02*
X67133334Y-93416667D01*
X67066668Y-93516667D01*
X67000001Y-93583333D01*
X66933334Y-93616667D01*
X67633335Y-94116667D02*
X67633335Y-93416667D01*
X68033335Y-94116667D01*
X68033335Y-93416667D01*
X72100000Y-91927381D02*
X72195239Y-91927381D01*
X72290477Y-91975000D01*
X72338096Y-92022619D01*
X72385715Y-92117857D01*
X72433334Y-92308333D01*
X72433334Y-92546429D01*
X72385715Y-92736905D01*
X72338096Y-92832143D01*
X72290477Y-92879762D01*
X72195239Y-92927381D01*
X72100000Y-92927381D01*
X72004762Y-92879762D01*
X71957143Y-92832143D01*
X71909524Y-92736905D01*
X71861905Y-92546429D01*
X71861905Y-92308333D01*
X71909524Y-92117857D01*
X71957143Y-92022619D01*
X72004762Y-91975000D01*
X72100000Y-91927381D01*
X73290477Y-92260714D02*
X73290477Y-92927381D01*
X73052381Y-91879762D02*
X72814286Y-92594048D01*
X73433334Y-92594048D01*
X74004762Y-91927381D02*
X74100001Y-91927381D01*
X74195239Y-91975000D01*
X74242858Y-92022619D01*
X74290477Y-92117857D01*
X74338096Y-92308333D01*
X74338096Y-92546429D01*
X74290477Y-92736905D01*
X74242858Y-92832143D01*
X74195239Y-92879762D01*
X74100001Y-92927381D01*
X74004762Y-92927381D01*
X73909524Y-92879762D01*
X73861905Y-92832143D01*
X73814286Y-92736905D01*
X73766667Y-92546429D01*
X73766667Y-92308333D01*
X73814286Y-92117857D01*
X73861905Y-92022619D01*
X73909524Y-91975000D01*
X74004762Y-91927381D01*
X74719048Y-92022619D02*
X74766667Y-91975000D01*
X74861905Y-91927381D01*
X75100001Y-91927381D01*
X75195239Y-91975000D01*
X75242858Y-92022619D01*
X75290477Y-92117857D01*
X75290477Y-92213095D01*
X75242858Y-92355952D01*
X74671429Y-92927381D01*
X75290477Y-92927381D01*
X75719048Y-92927381D02*
X75719048Y-91927381D01*
X76290477Y-92927381D01*
X76290477Y-91927381D01*
X68933333Y-93366667D02*
X69000000Y-93366667D01*
X69066666Y-93400000D01*
X69100000Y-93433333D01*
X69133333Y-93500000D01*
X69166666Y-93633333D01*
X69166666Y-93800000D01*
X69133333Y-93933333D01*
X69100000Y-94000000D01*
X69066666Y-94033333D01*
X69000000Y-94066667D01*
X68933333Y-94066667D01*
X68866666Y-94033333D01*
X68833333Y-94000000D01*
X68800000Y-93933333D01*
X68766666Y-93800000D01*
X68766666Y-93633333D01*
X68800000Y-93500000D01*
X68833333Y-93433333D01*
X68866666Y-93400000D01*
X68933333Y-93366667D01*
X69766667Y-93600000D02*
X69766667Y-94066667D01*
X69600000Y-93333333D02*
X69433333Y-93833333D01*
X69866667Y-93833333D01*
X70266667Y-93366667D02*
X70333334Y-93366667D01*
X70400000Y-93400000D01*
X70433334Y-93433333D01*
X70466667Y-93500000D01*
X70500000Y-93633333D01*
X70500000Y-93800000D01*
X70466667Y-93933333D01*
X70433334Y-94000000D01*
X70400000Y-94033333D01*
X70333334Y-94066667D01*
X70266667Y-94066667D01*
X70200000Y-94033333D01*
X70166667Y-94000000D01*
X70133334Y-93933333D01*
X70100000Y-93800000D01*
X70100000Y-93633333D01*
X70133334Y-93500000D01*
X70166667Y-93433333D01*
X70200000Y-93400000D01*
X70266667Y-93366667D01*
X70766667Y-93433333D02*
X70800001Y-93400000D01*
X70866667Y-93366667D01*
X71033334Y-93366667D01*
X71100001Y-93400000D01*
X71133334Y-93433333D01*
X71166667Y-93500000D01*
X71166667Y-93566667D01*
X71133334Y-93666667D01*
X70733334Y-94066667D01*
X71166667Y-94066667D01*
X71800001Y-94066667D02*
X71466668Y-94066667D01*
X71466668Y-93366667D01*
X96402381Y-69940476D02*
X95926190Y-70273810D01*
X96402381Y-70511905D02*
X95402381Y-70511905D01*
X95402381Y-70130952D01*
X95450000Y-70035714D01*
X95497619Y-69988095D01*
X95592857Y-69940476D01*
X95735714Y-69940476D01*
X95830952Y-69988095D01*
X95878571Y-70035714D01*
X95926190Y-70130952D01*
X95926190Y-70511905D01*
X95402381Y-69607143D02*
X95402381Y-68988095D01*
X95783333Y-69321429D01*
X95783333Y-69178571D01*
X95830952Y-69083333D01*
X95878571Y-69035714D01*
X95973810Y-68988095D01*
X96211905Y-68988095D01*
X96307143Y-69035714D01*
X96354762Y-69083333D01*
X96402381Y-69178571D01*
X96402381Y-69464286D01*
X96354762Y-69559524D01*
X96307143Y-69607143D01*
X96021429Y-68559524D02*
X96021429Y-67797619D01*
X96402381Y-66750000D02*
X95926190Y-67083334D01*
X96402381Y-67321429D02*
X95402381Y-67321429D01*
X95402381Y-66940476D01*
X95450000Y-66845238D01*
X95497619Y-66797619D01*
X95592857Y-66750000D01*
X95735714Y-66750000D01*
X95830952Y-66797619D01*
X95878571Y-66845238D01*
X95926190Y-66940476D01*
X95926190Y-67321429D01*
X96402381Y-65797619D02*
X96402381Y-66369048D01*
X96402381Y-66083334D02*
X95402381Y-66083334D01*
X95545238Y-66178572D01*
X95640476Y-66273810D01*
X95688095Y-66369048D01*
X95402381Y-65464286D02*
X95402381Y-64845238D01*
X95783333Y-65178572D01*
X95783333Y-65035714D01*
X95830952Y-64940476D01*
X95878571Y-64892857D01*
X95973810Y-64845238D01*
X96211905Y-64845238D01*
X96307143Y-64892857D01*
X96354762Y-64940476D01*
X96402381Y-65035714D01*
X96402381Y-65321429D01*
X96354762Y-65416667D01*
X96307143Y-65464286D01*
X96402381Y-63130952D02*
X96402381Y-63702381D01*
X96402381Y-63416667D02*
X95402381Y-63416667D01*
X95545238Y-63511905D01*
X95640476Y-63607143D01*
X95688095Y-63702381D01*
X95402381Y-62511905D02*
X95402381Y-62416666D01*
X95450000Y-62321428D01*
X95497619Y-62273809D01*
X95592857Y-62226190D01*
X95783333Y-62178571D01*
X96021429Y-62178571D01*
X96211905Y-62226190D01*
X96307143Y-62273809D01*
X96354762Y-62321428D01*
X96402381Y-62416666D01*
X96402381Y-62511905D01*
X96354762Y-62607143D01*
X96307143Y-62654762D01*
X96211905Y-62702381D01*
X96021429Y-62750000D01*
X95783333Y-62750000D01*
X95592857Y-62702381D01*
X95497619Y-62654762D01*
X95450000Y-62607143D01*
X95402381Y-62511905D01*
X95402381Y-61559524D02*
X95402381Y-61464285D01*
X95450000Y-61369047D01*
X95497619Y-61321428D01*
X95592857Y-61273809D01*
X95783333Y-61226190D01*
X96021429Y-61226190D01*
X96211905Y-61273809D01*
X96307143Y-61321428D01*
X96354762Y-61369047D01*
X96402381Y-61464285D01*
X96402381Y-61559524D01*
X96354762Y-61654762D01*
X96307143Y-61702381D01*
X96211905Y-61750000D01*
X96021429Y-61797619D01*
X95783333Y-61797619D01*
X95592857Y-61750000D01*
X95497619Y-61702381D01*
X95450000Y-61654762D01*
X95402381Y-61559524D01*
X96402381Y-60845238D02*
X96402381Y-60607143D01*
X96211905Y-60607143D01*
X96164286Y-60702381D01*
X96069048Y-60797619D01*
X95926190Y-60845238D01*
X95688095Y-60845238D01*
X95545238Y-60797619D01*
X95450000Y-60702381D01*
X95402381Y-60559524D01*
X95402381Y-60369047D01*
X95450000Y-60226190D01*
X95545238Y-60130952D01*
X95688095Y-60083333D01*
X95926190Y-60083333D01*
X96069048Y-60130952D01*
X96164286Y-60226190D01*
X96211905Y-60321428D01*
X96402381Y-60321428D01*
X96402381Y-60083333D01*
X97952381Y-70511905D02*
X96952381Y-70511905D01*
X96952381Y-70273810D01*
X97000000Y-70130952D01*
X97095238Y-70035714D01*
X97190476Y-69988095D01*
X97380952Y-69940476D01*
X97523810Y-69940476D01*
X97714286Y-69988095D01*
X97809524Y-70035714D01*
X97904762Y-70130952D01*
X97952381Y-70273810D01*
X97952381Y-70511905D01*
X97952381Y-68988095D02*
X97952381Y-69559524D01*
X97952381Y-69273810D02*
X96952381Y-69273810D01*
X97095238Y-69369048D01*
X97190476Y-69464286D01*
X97238095Y-69559524D01*
X97952381Y-68035714D02*
X97952381Y-68607143D01*
X97952381Y-68321429D02*
X96952381Y-68321429D01*
X97095238Y-68416667D01*
X97190476Y-68511905D01*
X97238095Y-68607143D01*
X97571429Y-67607143D02*
X97571429Y-66845238D01*
X97952381Y-66369048D02*
X96952381Y-66369048D01*
X96952381Y-66130953D01*
X97000000Y-65988095D01*
X97095238Y-65892857D01*
X97190476Y-65845238D01*
X97380952Y-65797619D01*
X97523810Y-65797619D01*
X97714286Y-65845238D01*
X97809524Y-65892857D01*
X97904762Y-65988095D01*
X97952381Y-66130953D01*
X97952381Y-66369048D01*
X97047619Y-65416667D02*
X97000000Y-65369048D01*
X96952381Y-65273810D01*
X96952381Y-65035714D01*
X97000000Y-64940476D01*
X97047619Y-64892857D01*
X97142857Y-64845238D01*
X97238095Y-64845238D01*
X97380952Y-64892857D01*
X97952381Y-65464286D01*
X97952381Y-64845238D01*
X97952381Y-63892857D02*
X97952381Y-64464286D01*
X97952381Y-64178572D02*
X96952381Y-64178572D01*
X97095238Y-64273810D01*
X97190476Y-64369048D01*
X97238095Y-64464286D01*
X97952381Y-62226190D02*
X97952381Y-62702381D01*
X96952381Y-62702381D01*
X97428571Y-61892857D02*
X97428571Y-61559523D01*
X97952381Y-61416666D02*
X97952381Y-61892857D01*
X96952381Y-61892857D01*
X96952381Y-61416666D01*
X97952381Y-60988095D02*
X96952381Y-60988095D01*
X96952381Y-60750000D01*
X97000000Y-60607142D01*
X97095238Y-60511904D01*
X97190476Y-60464285D01*
X97380952Y-60416666D01*
X97523810Y-60416666D01*
X97714286Y-60464285D01*
X97809524Y-60511904D01*
X97904762Y-60607142D01*
X97952381Y-60750000D01*
X97952381Y-60988095D01*
X97904762Y-60035714D02*
X97952381Y-59940476D01*
X97952381Y-59750000D01*
X97904762Y-59654761D01*
X97809524Y-59607142D01*
X97761905Y-59607142D01*
X97666667Y-59654761D01*
X97619048Y-59750000D01*
X97619048Y-59892857D01*
X97571429Y-59988095D01*
X97476190Y-60035714D01*
X97428571Y-60035714D01*
X97333333Y-59988095D01*
X97285714Y-59892857D01*
X97285714Y-59750000D01*
X97333333Y-59654761D01*
X99502381Y-70511905D02*
X98502381Y-70511905D01*
X98502381Y-70273810D01*
X98550000Y-70130952D01*
X98645238Y-70035714D01*
X98740476Y-69988095D01*
X98930952Y-69940476D01*
X99073810Y-69940476D01*
X99264286Y-69988095D01*
X99359524Y-70035714D01*
X99454762Y-70130952D01*
X99502381Y-70273810D01*
X99502381Y-70511905D01*
X99502381Y-68988095D02*
X99502381Y-69559524D01*
X99502381Y-69273810D02*
X98502381Y-69273810D01*
X98645238Y-69369048D01*
X98740476Y-69464286D01*
X98788095Y-69559524D01*
X99121429Y-68559524D02*
X99121429Y-67797619D01*
X99502381Y-67321429D02*
X98502381Y-67321429D01*
X98502381Y-67083334D01*
X98550000Y-66940476D01*
X98645238Y-66845238D01*
X98740476Y-66797619D01*
X98930952Y-66750000D01*
X99073810Y-66750000D01*
X99264286Y-66797619D01*
X99359524Y-66845238D01*
X99454762Y-66940476D01*
X99502381Y-67083334D01*
X99502381Y-67321429D01*
X99502381Y-65797619D02*
X99502381Y-66369048D01*
X99502381Y-66083334D02*
X98502381Y-66083334D01*
X98645238Y-66178572D01*
X98740476Y-66273810D01*
X98788095Y-66369048D01*
X98502381Y-65178572D02*
X98502381Y-65083333D01*
X98550000Y-64988095D01*
X98597619Y-64940476D01*
X98692857Y-64892857D01*
X98883333Y-64845238D01*
X99121429Y-64845238D01*
X99311905Y-64892857D01*
X99407143Y-64940476D01*
X99454762Y-64988095D01*
X99502381Y-65083333D01*
X99502381Y-65178572D01*
X99454762Y-65273810D01*
X99407143Y-65321429D01*
X99311905Y-65369048D01*
X99121429Y-65416667D01*
X98883333Y-65416667D01*
X98692857Y-65369048D01*
X98597619Y-65321429D01*
X98550000Y-65273810D01*
X98502381Y-65178572D01*
X99502381Y-62369047D02*
X99502381Y-62940476D01*
X99502381Y-62654762D02*
X98502381Y-62654762D01*
X98645238Y-62750000D01*
X98740476Y-62845238D01*
X98788095Y-62940476D01*
X99502381Y-61940476D02*
X98502381Y-61940476D01*
X99502381Y-61369047D01*
X98502381Y-61369047D01*
X98835714Y-60464285D02*
X99502381Y-60464285D01*
X98454762Y-60702381D02*
X99169048Y-60940476D01*
X99169048Y-60321428D01*
X99502381Y-59416666D02*
X99502381Y-59988095D01*
X99502381Y-59702381D02*
X98502381Y-59702381D01*
X98645238Y-59797619D01*
X98740476Y-59892857D01*
X98788095Y-59988095D01*
X98835714Y-58559523D02*
X99502381Y-58559523D01*
X98454762Y-58797619D02*
X99169048Y-59035714D01*
X99169048Y-58416666D01*
X98930952Y-57892857D02*
X98883333Y-57988095D01*
X98835714Y-58035714D01*
X98740476Y-58083333D01*
X98692857Y-58083333D01*
X98597619Y-58035714D01*
X98550000Y-57988095D01*
X98502381Y-57892857D01*
X98502381Y-57702380D01*
X98550000Y-57607142D01*
X98597619Y-57559523D01*
X98692857Y-57511904D01*
X98740476Y-57511904D01*
X98835714Y-57559523D01*
X98883333Y-57607142D01*
X98930952Y-57702380D01*
X98930952Y-57892857D01*
X98978571Y-57988095D01*
X99026190Y-58035714D01*
X99121429Y-58083333D01*
X99311905Y-58083333D01*
X99407143Y-58035714D01*
X99454762Y-57988095D01*
X99502381Y-57892857D01*
X99502381Y-57702380D01*
X99454762Y-57607142D01*
X99407143Y-57559523D01*
X99311905Y-57511904D01*
X99121429Y-57511904D01*
X99026190Y-57559523D01*
X98978571Y-57607142D01*
X98930952Y-57702380D01*
X98502381Y-57178571D02*
X99502381Y-56940476D01*
X98788095Y-56749999D01*
X99502381Y-56559523D01*
X98502381Y-56321428D01*
X99454762Y-55988095D02*
X99502381Y-55845238D01*
X99502381Y-55607142D01*
X99454762Y-55511904D01*
X99407143Y-55464285D01*
X99311905Y-55416666D01*
X99216667Y-55416666D01*
X99121429Y-55464285D01*
X99073810Y-55511904D01*
X99026190Y-55607142D01*
X98978571Y-55797619D01*
X98930952Y-55892857D01*
X98883333Y-55940476D01*
X98788095Y-55988095D01*
X98692857Y-55988095D01*
X98597619Y-55940476D01*
X98550000Y-55892857D01*
X98502381Y-55797619D01*
X98502381Y-55559523D01*
X98550000Y-55416666D01*
X81900000Y-88952381D02*
X81995239Y-88952381D01*
X82090477Y-89000000D01*
X82138096Y-89047619D01*
X82185715Y-89142857D01*
X82233334Y-89333333D01*
X82233334Y-89571429D01*
X82185715Y-89761905D01*
X82138096Y-89857143D01*
X82090477Y-89904762D01*
X81995239Y-89952381D01*
X81900000Y-89952381D01*
X81804762Y-89904762D01*
X81757143Y-89857143D01*
X81709524Y-89761905D01*
X81661905Y-89571429D01*
X81661905Y-89333333D01*
X81709524Y-89142857D01*
X81757143Y-89047619D01*
X81804762Y-89000000D01*
X81900000Y-88952381D01*
X83090477Y-88952381D02*
X82900000Y-88952381D01*
X82804762Y-89000000D01*
X82757143Y-89047619D01*
X82661905Y-89190476D01*
X82614286Y-89380952D01*
X82614286Y-89761905D01*
X82661905Y-89857143D01*
X82709524Y-89904762D01*
X82804762Y-89952381D01*
X82995239Y-89952381D01*
X83090477Y-89904762D01*
X83138096Y-89857143D01*
X83185715Y-89761905D01*
X83185715Y-89523810D01*
X83138096Y-89428571D01*
X83090477Y-89380952D01*
X82995239Y-89333333D01*
X82804762Y-89333333D01*
X82709524Y-89380952D01*
X82661905Y-89428571D01*
X82614286Y-89523810D01*
X83804762Y-88952381D02*
X83900001Y-88952381D01*
X83995239Y-89000000D01*
X84042858Y-89047619D01*
X84090477Y-89142857D01*
X84138096Y-89333333D01*
X84138096Y-89571429D01*
X84090477Y-89761905D01*
X84042858Y-89857143D01*
X83995239Y-89904762D01*
X83900001Y-89952381D01*
X83804762Y-89952381D01*
X83709524Y-89904762D01*
X83661905Y-89857143D01*
X83614286Y-89761905D01*
X83566667Y-89571429D01*
X83566667Y-89333333D01*
X83614286Y-89142857D01*
X83661905Y-89047619D01*
X83709524Y-89000000D01*
X83804762Y-88952381D01*
X84471429Y-88952381D02*
X85090477Y-88952381D01*
X84757143Y-89333333D01*
X84900001Y-89333333D01*
X84995239Y-89380952D01*
X85042858Y-89428571D01*
X85090477Y-89523810D01*
X85090477Y-89761905D01*
X85042858Y-89857143D01*
X84995239Y-89904762D01*
X84900001Y-89952381D01*
X84614286Y-89952381D01*
X84519048Y-89904762D01*
X84471429Y-89857143D01*
X85519048Y-89952381D02*
X85519048Y-88952381D01*
X86090477Y-89952381D01*
X86090477Y-88952381D01*
X76819047Y-90952381D02*
X76914286Y-90952381D01*
X77009524Y-91000000D01*
X77057143Y-91047619D01*
X77104762Y-91142857D01*
X77152381Y-91333333D01*
X77152381Y-91571429D01*
X77104762Y-91761905D01*
X77057143Y-91857143D01*
X77009524Y-91904762D01*
X76914286Y-91952381D01*
X76819047Y-91952381D01*
X76723809Y-91904762D01*
X76676190Y-91857143D01*
X76628571Y-91761905D01*
X76580952Y-91571429D01*
X76580952Y-91333333D01*
X76628571Y-91142857D01*
X76676190Y-91047619D01*
X76723809Y-91000000D01*
X76819047Y-90952381D01*
X78009524Y-90952381D02*
X77819047Y-90952381D01*
X77723809Y-91000000D01*
X77676190Y-91047619D01*
X77580952Y-91190476D01*
X77533333Y-91380952D01*
X77533333Y-91761905D01*
X77580952Y-91857143D01*
X77628571Y-91904762D01*
X77723809Y-91952381D01*
X77914286Y-91952381D01*
X78009524Y-91904762D01*
X78057143Y-91857143D01*
X78104762Y-91761905D01*
X78104762Y-91523810D01*
X78057143Y-91428571D01*
X78009524Y-91380952D01*
X77914286Y-91333333D01*
X77723809Y-91333333D01*
X77628571Y-91380952D01*
X77580952Y-91428571D01*
X77533333Y-91523810D01*
X78723809Y-90952381D02*
X78819048Y-90952381D01*
X78914286Y-91000000D01*
X78961905Y-91047619D01*
X79009524Y-91142857D01*
X79057143Y-91333333D01*
X79057143Y-91571429D01*
X79009524Y-91761905D01*
X78961905Y-91857143D01*
X78914286Y-91904762D01*
X78819048Y-91952381D01*
X78723809Y-91952381D01*
X78628571Y-91904762D01*
X78580952Y-91857143D01*
X78533333Y-91761905D01*
X78485714Y-91571429D01*
X78485714Y-91333333D01*
X78533333Y-91142857D01*
X78580952Y-91047619D01*
X78628571Y-91000000D01*
X78723809Y-90952381D01*
X79390476Y-90952381D02*
X80009524Y-90952381D01*
X79676190Y-91333333D01*
X79819048Y-91333333D01*
X79914286Y-91380952D01*
X79961905Y-91428571D01*
X80009524Y-91523810D01*
X80009524Y-91761905D01*
X79961905Y-91857143D01*
X79914286Y-91904762D01*
X79819048Y-91952381D01*
X79533333Y-91952381D01*
X79438095Y-91904762D01*
X79390476Y-91857143D01*
X80914286Y-91952381D02*
X80438095Y-91952381D01*
X80438095Y-90952381D01*
X95633334Y-85152381D02*
X95061905Y-85152381D01*
X95347619Y-85152381D02*
X95347619Y-84152381D01*
X95252381Y-84295238D01*
X95157143Y-84390476D01*
X95061905Y-84438095D01*
X96014286Y-84247619D02*
X96061905Y-84200000D01*
X96157143Y-84152381D01*
X96395239Y-84152381D01*
X96490477Y-84200000D01*
X96538096Y-84247619D01*
X96585715Y-84342857D01*
X96585715Y-84438095D01*
X96538096Y-84580952D01*
X95966667Y-85152381D01*
X96585715Y-85152381D01*
X97204762Y-84152381D02*
X97300001Y-84152381D01*
X97395239Y-84200000D01*
X97442858Y-84247619D01*
X97490477Y-84342857D01*
X97538096Y-84533333D01*
X97538096Y-84771429D01*
X97490477Y-84961905D01*
X97442858Y-85057143D01*
X97395239Y-85104762D01*
X97300001Y-85152381D01*
X97204762Y-85152381D01*
X97109524Y-85104762D01*
X97061905Y-85057143D01*
X97014286Y-84961905D01*
X96966667Y-84771429D01*
X96966667Y-84533333D01*
X97014286Y-84342857D01*
X97061905Y-84247619D01*
X97109524Y-84200000D01*
X97204762Y-84152381D01*
X98395239Y-84152381D02*
X98204762Y-84152381D01*
X98109524Y-84200000D01*
X98061905Y-84247619D01*
X97966667Y-84390476D01*
X97919048Y-84580952D01*
X97919048Y-84961905D01*
X97966667Y-85057143D01*
X98014286Y-85104762D01*
X98109524Y-85152381D01*
X98300001Y-85152381D01*
X98395239Y-85104762D01*
X98442858Y-85057143D01*
X98490477Y-84961905D01*
X98490477Y-84723810D01*
X98442858Y-84628571D01*
X98395239Y-84580952D01*
X98300001Y-84533333D01*
X98109524Y-84533333D01*
X98014286Y-84580952D01*
X97966667Y-84628571D01*
X97919048Y-84723810D01*
X98919048Y-85152381D02*
X98919048Y-84152381D01*
X99490477Y-85152381D01*
X99490477Y-84152381D01*
X89000000Y-87752381D02*
X89095239Y-87752381D01*
X89190477Y-87800000D01*
X89238096Y-87847619D01*
X89285715Y-87942857D01*
X89333334Y-88133333D01*
X89333334Y-88371429D01*
X89285715Y-88561905D01*
X89238096Y-88657143D01*
X89190477Y-88704762D01*
X89095239Y-88752381D01*
X89000000Y-88752381D01*
X88904762Y-88704762D01*
X88857143Y-88657143D01*
X88809524Y-88561905D01*
X88761905Y-88371429D01*
X88761905Y-88133333D01*
X88809524Y-87942857D01*
X88857143Y-87847619D01*
X88904762Y-87800000D01*
X89000000Y-87752381D01*
X89904762Y-88180952D02*
X89809524Y-88133333D01*
X89761905Y-88085714D01*
X89714286Y-87990476D01*
X89714286Y-87942857D01*
X89761905Y-87847619D01*
X89809524Y-87800000D01*
X89904762Y-87752381D01*
X90095239Y-87752381D01*
X90190477Y-87800000D01*
X90238096Y-87847619D01*
X90285715Y-87942857D01*
X90285715Y-87990476D01*
X90238096Y-88085714D01*
X90190477Y-88133333D01*
X90095239Y-88180952D01*
X89904762Y-88180952D01*
X89809524Y-88228571D01*
X89761905Y-88276190D01*
X89714286Y-88371429D01*
X89714286Y-88561905D01*
X89761905Y-88657143D01*
X89809524Y-88704762D01*
X89904762Y-88752381D01*
X90095239Y-88752381D01*
X90190477Y-88704762D01*
X90238096Y-88657143D01*
X90285715Y-88561905D01*
X90285715Y-88371429D01*
X90238096Y-88276190D01*
X90190477Y-88228571D01*
X90095239Y-88180952D01*
X90904762Y-87752381D02*
X91000001Y-87752381D01*
X91095239Y-87800000D01*
X91142858Y-87847619D01*
X91190477Y-87942857D01*
X91238096Y-88133333D01*
X91238096Y-88371429D01*
X91190477Y-88561905D01*
X91142858Y-88657143D01*
X91095239Y-88704762D01*
X91000001Y-88752381D01*
X90904762Y-88752381D01*
X90809524Y-88704762D01*
X90761905Y-88657143D01*
X90714286Y-88561905D01*
X90666667Y-88371429D01*
X90666667Y-88133333D01*
X90714286Y-87942857D01*
X90761905Y-87847619D01*
X90809524Y-87800000D01*
X90904762Y-87752381D01*
X92142858Y-87752381D02*
X91666667Y-87752381D01*
X91619048Y-88228571D01*
X91666667Y-88180952D01*
X91761905Y-88133333D01*
X92000001Y-88133333D01*
X92095239Y-88180952D01*
X92142858Y-88228571D01*
X92190477Y-88323810D01*
X92190477Y-88561905D01*
X92142858Y-88657143D01*
X92095239Y-88704762D01*
X92000001Y-88752381D01*
X91761905Y-88752381D01*
X91666667Y-88704762D01*
X91619048Y-88657143D01*
X92619048Y-88752381D02*
X92619048Y-87752381D01*
X93190477Y-88752381D01*
X93190477Y-87752381D01*
D12*
X88800000Y-54000000D02*
X89200000Y-53600000D01*
X88800000Y-58600000D02*
X88800000Y-54000000D01*
X84800000Y-54000000D02*
X85200000Y-53600000D01*
X84800000Y-58600000D02*
X84800000Y-54000000D01*
X80800000Y-54000000D02*
X81200000Y-53600000D01*
X80800000Y-58600000D02*
X80800000Y-54000000D01*
X76800000Y-54000000D02*
X77200000Y-53600000D01*
X76800000Y-58600000D02*
X76800000Y-54000000D01*
X68800000Y-54000000D02*
X69200000Y-53600000D01*
X68800000Y-58600000D02*
X68800000Y-54000000D01*
X64800000Y-54000000D02*
X65200000Y-53600000D01*
X64800000Y-58600000D02*
X64800000Y-54000000D01*
X60800000Y-54000000D02*
X61200000Y-53600000D01*
X60800000Y-58600000D02*
X60800000Y-54000000D01*
X56800000Y-54000000D02*
X57200000Y-53600000D01*
X56800000Y-58600000D02*
X56800000Y-54000000D01*
X50000000Y-71000000D02*
X100000000Y-71000000D01*
D11*
X72625000Y-69550000D02*
X72375000Y-69550000D01*
X72375000Y-69550000D02*
X72375000Y-68450000D01*
X72375000Y-68450000D02*
X72625000Y-68450000D01*
X72625000Y-68450000D02*
X72625000Y-69550000D01*
X58125000Y-61550000D02*
X57875000Y-61550000D01*
X57875000Y-61550000D02*
X57875000Y-60450000D01*
X57875000Y-60450000D02*
X58125000Y-60450000D01*
X58125000Y-60450000D02*
X58125000Y-61550000D01*
X81625000Y-69550000D02*
X81375000Y-69550000D01*
X81375000Y-69550000D02*
X81375000Y-68450000D01*
X81375000Y-68450000D02*
X81625000Y-68450000D01*
X81625000Y-68450000D02*
X81625000Y-69550000D01*
X86550000Y-63375000D02*
X86550000Y-63625000D01*
X86550000Y-63625000D02*
X85450000Y-63625000D01*
X85450000Y-63625000D02*
X85450000Y-63375000D01*
X85450000Y-63375000D02*
X86550000Y-63375000D01*
X92950000Y-63625000D02*
X92950000Y-63375000D01*
X92950000Y-63375000D02*
X94050000Y-63375000D01*
X94050000Y-63375000D02*
X94050000Y-63625000D01*
X94050000Y-63625000D02*
X92950000Y-63625000D01*
X54000000Y-51875000D02*
X54550000Y-52125000D01*
X54000000Y-51875000D02*
X53450000Y-52125000D01*
X54550000Y-52125000D02*
X53450000Y-52125000D01*
X58000000Y-51875000D02*
X58550000Y-52125000D01*
X58000000Y-51875000D02*
X57450000Y-52125000D01*
X58550000Y-52125000D02*
X57450000Y-52125000D01*
X62000000Y-51875000D02*
X62550000Y-52125000D01*
X62000000Y-51875000D02*
X61450000Y-52125000D01*
X62550000Y-52125000D02*
X61450000Y-52125000D01*
X66000000Y-51875000D02*
X66550000Y-52125000D01*
X66000000Y-51875000D02*
X65450000Y-52125000D01*
X66550000Y-52125000D02*
X65450000Y-52125000D01*
X70000000Y-51875000D02*
X70550000Y-52125000D01*
X70000000Y-51875000D02*
X69450000Y-52125000D01*
X70550000Y-52125000D02*
X69450000Y-52125000D01*
X74000000Y-51875000D02*
X74550000Y-52125000D01*
X74000000Y-51875000D02*
X73450000Y-52125000D01*
X74550000Y-52125000D02*
X73450000Y-52125000D01*
X78000000Y-51875000D02*
X78550000Y-52125000D01*
X78000000Y-51875000D02*
X77450000Y-52125000D01*
X78550000Y-52125000D02*
X77450000Y-52125000D01*
X82000000Y-51875000D02*
X82550000Y-52125000D01*
X82000000Y-51875000D02*
X81450000Y-52125000D01*
X82550000Y-52125000D02*
X81450000Y-52125000D01*
X86000000Y-51875000D02*
X86550000Y-52125000D01*
X86000000Y-51875000D02*
X85450000Y-52125000D01*
X86550000Y-52125000D02*
X85450000Y-52125000D01*
X90000000Y-51875000D02*
X90550000Y-52125000D01*
X90000000Y-51875000D02*
X89450000Y-52125000D01*
X90550000Y-52125000D02*
X89450000Y-52125000D01*
X94000000Y-51875000D02*
X94550000Y-52125000D01*
X94000000Y-51875000D02*
X93450000Y-52125000D01*
X94550000Y-52125000D02*
X93450000Y-52125000D01*
X73445000Y-62675000D02*
X73445000Y-64925000D01*
X73445000Y-64925000D02*
X64555000Y-64925000D01*
X64555000Y-64925000D02*
X64555000Y-62075000D01*
X64555000Y-62075000D02*
X72845000Y-62075000D01*
X72845000Y-62075000D02*
X73445000Y-62675000D01*
X82405000Y-62675000D02*
X82405000Y-64925000D01*
X82405000Y-64925000D02*
X78595000Y-64925000D01*
X78595000Y-64925000D02*
X78595000Y-62075000D01*
X78595000Y-62075000D02*
X81805000Y-62075000D01*
X81805000Y-62075000D02*
X82405000Y-62675000D01*
X89050000Y-63375000D02*
X89050000Y-63625000D01*
X89050000Y-63625000D02*
X87950000Y-63625000D01*
X87950000Y-63625000D02*
X87950000Y-63375000D01*
X87950000Y-63375000D02*
X89050000Y-63375000D01*
X91550000Y-63375000D02*
X91550000Y-63625000D01*
X91550000Y-63625000D02*
X90450000Y-63625000D01*
X90450000Y-63625000D02*
X90450000Y-63375000D01*
X90450000Y-63375000D02*
X91550000Y-63375000D01*
X55450000Y-52125000D02*
X55450000Y-51875000D01*
X55450000Y-51875000D02*
X56550000Y-51875000D01*
X56550000Y-51875000D02*
X56550000Y-52125000D01*
X56550000Y-52125000D02*
X55450000Y-52125000D01*
X59450000Y-52125000D02*
X59450000Y-51875000D01*
X59450000Y-51875000D02*
X60550000Y-51875000D01*
X60550000Y-51875000D02*
X60550000Y-52125000D01*
X60550000Y-52125000D02*
X59450000Y-52125000D01*
X63450000Y-52125000D02*
X63450000Y-51875000D01*
X63450000Y-51875000D02*
X64550000Y-51875000D01*
X64550000Y-51875000D02*
X64550000Y-52125000D01*
X64550000Y-52125000D02*
X63450000Y-52125000D01*
X67450000Y-52125000D02*
X67450000Y-51875000D01*
X67450000Y-51875000D02*
X68550000Y-51875000D01*
X68550000Y-51875000D02*
X68550000Y-52125000D01*
X68550000Y-52125000D02*
X67450000Y-52125000D01*
X71450000Y-52125000D02*
X71450000Y-51875000D01*
X71450000Y-51875000D02*
X72550000Y-51875000D01*
X72550000Y-51875000D02*
X72550000Y-52125000D01*
X72550000Y-52125000D02*
X71450000Y-52125000D01*
X75450000Y-52125000D02*
X75450000Y-51875000D01*
X75450000Y-51875000D02*
X76550000Y-51875000D01*
X76550000Y-51875000D02*
X76550000Y-52125000D01*
X76550000Y-52125000D02*
X75450000Y-52125000D01*
X79450000Y-52125000D02*
X79450000Y-51875000D01*
X79450000Y-51875000D02*
X80550000Y-51875000D01*
X80550000Y-51875000D02*
X80550000Y-52125000D01*
X80550000Y-52125000D02*
X79450000Y-52125000D01*
X83450000Y-52125000D02*
X83450000Y-51875000D01*
X83450000Y-51875000D02*
X84550000Y-51875000D01*
X84550000Y-51875000D02*
X84550000Y-52125000D01*
X84550000Y-52125000D02*
X83450000Y-52125000D01*
X87450000Y-52125000D02*
X87450000Y-51875000D01*
X87450000Y-51875000D02*
X88550000Y-51875000D01*
X88550000Y-51875000D02*
X88550000Y-52125000D01*
X88550000Y-52125000D02*
X87450000Y-52125000D01*
X91450000Y-52125000D02*
X91450000Y-51875000D01*
X91450000Y-51875000D02*
X92550000Y-51875000D01*
X92550000Y-51875000D02*
X92550000Y-52125000D01*
X92550000Y-52125000D02*
X91450000Y-52125000D01*
X95450000Y-52125000D02*
X95450000Y-51875000D01*
X95450000Y-51875000D02*
X96550000Y-51875000D01*
X96550000Y-51875000D02*
X96550000Y-52125000D01*
X96550000Y-52125000D02*
X95450000Y-52125000D01*
X86525000Y-91475000D02*
X86525000Y-91725000D01*
X86525000Y-91725000D02*
X85875000Y-91725000D01*
X85875000Y-91725000D02*
X85875000Y-91475000D01*
X85875000Y-91475000D02*
X86525000Y-91475000D01*
X86525000Y-94575000D02*
X86525000Y-94825000D01*
X86525000Y-94825000D02*
X85875000Y-94825000D01*
X85875000Y-94825000D02*
X85875000Y-94575000D01*
X85875000Y-94575000D02*
X86525000Y-94575000D01*
X86525000Y-97675000D02*
X86525000Y-97925000D01*
X86525000Y-97925000D02*
X85875000Y-97925000D01*
X85875000Y-97925000D02*
X85875000Y-97675000D01*
X85875000Y-97675000D02*
X86525000Y-97675000D01*
X94550000Y-90475000D02*
X94550000Y-90725000D01*
X94550000Y-90725000D02*
X93450000Y-90725000D01*
X93450000Y-90725000D02*
X93450000Y-90475000D01*
X93450000Y-90475000D02*
X94550000Y-90475000D01*
X94550000Y-93975000D02*
X94550000Y-94225000D01*
X94550000Y-94225000D02*
X93450000Y-94225000D01*
X93450000Y-94225000D02*
X93450000Y-93975000D01*
X93450000Y-93975000D02*
X94550000Y-93975000D01*
X94550000Y-97475000D02*
X94550000Y-97725000D01*
X94550000Y-97725000D02*
X93450000Y-97725000D01*
X93450000Y-97725000D02*
X93450000Y-97475000D01*
X93450000Y-97475000D02*
X94550000Y-97475000D01*
X96925000Y-86875000D02*
X96925000Y-88325000D01*
X96925000Y-88325000D02*
X95475000Y-88325000D01*
X95475000Y-88325000D02*
X95475000Y-86875000D01*
X95475000Y-86875000D02*
X96925000Y-86875000D01*
X96925000Y-91575000D02*
X96925000Y-93025000D01*
X96925000Y-93025000D02*
X95475000Y-93025000D01*
X95475000Y-93025000D02*
X95475000Y-91575000D01*
X95475000Y-91575000D02*
X96925000Y-91575000D01*
X96925000Y-96275000D02*
X96925000Y-97725000D01*
X96925000Y-97725000D02*
X95475000Y-97725000D01*
X95475000Y-97725000D02*
X95475000Y-96275000D01*
X95475000Y-96275000D02*
X96925000Y-96275000D01*
X85025000Y-91475000D02*
X85025000Y-91725000D01*
X85025000Y-91725000D02*
X84375000Y-91725000D01*
X84375000Y-91725000D02*
X84375000Y-91475000D01*
X84375000Y-91475000D02*
X85025000Y-91475000D01*
X85025000Y-94575000D02*
X85025000Y-94825000D01*
X85025000Y-94825000D02*
X84375000Y-94825000D01*
X84375000Y-94825000D02*
X84375000Y-94575000D01*
X84375000Y-94575000D02*
X85025000Y-94575000D01*
X85025000Y-97675000D02*
X85025000Y-97925000D01*
X85025000Y-97925000D02*
X84375000Y-97925000D01*
X84375000Y-97925000D02*
X84375000Y-97675000D01*
X84375000Y-97675000D02*
X85025000Y-97675000D01*
X92550000Y-90475000D02*
X92550000Y-90725000D01*
X92550000Y-90725000D02*
X91450000Y-90725000D01*
X91450000Y-90725000D02*
X91450000Y-90475000D01*
X91450000Y-90475000D02*
X92550000Y-90475000D01*
X92550000Y-93975000D02*
X92550000Y-94225000D01*
X92550000Y-94225000D02*
X91450000Y-94225000D01*
X91450000Y-94225000D02*
X91450000Y-93975000D01*
X91450000Y-93975000D02*
X92550000Y-93975000D01*
X92550000Y-97475000D02*
X92550000Y-97725000D01*
X92550000Y-97725000D02*
X91450000Y-97725000D01*
X91450000Y-97725000D02*
X91450000Y-97475000D01*
X91450000Y-97475000D02*
X92550000Y-97475000D01*
X99225000Y-86875000D02*
X99225000Y-88325000D01*
X99225000Y-88325000D02*
X97775000Y-88325000D01*
X97775000Y-88325000D02*
X97775000Y-86875000D01*
X97775000Y-86875000D02*
X99225000Y-86875000D01*
X99225000Y-91575000D02*
X99225000Y-93025000D01*
X99225000Y-93025000D02*
X97775000Y-93025000D01*
X97775000Y-93025000D02*
X97775000Y-91575000D01*
X97775000Y-91575000D02*
X99225000Y-91575000D01*
X99225000Y-96275000D02*
X99225000Y-97725000D01*
X99225000Y-97725000D02*
X97775000Y-97725000D01*
X97775000Y-97725000D02*
X97775000Y-96275000D01*
X97775000Y-96275000D02*
X99225000Y-96275000D01*
X83525000Y-91475000D02*
X83525000Y-91725000D01*
X83525000Y-91725000D02*
X82875000Y-91725000D01*
X82875000Y-91725000D02*
X82875000Y-91475000D01*
X82875000Y-91475000D02*
X83525000Y-91475000D01*
X83525000Y-94575000D02*
X83525000Y-94825000D01*
X83525000Y-94825000D02*
X82875000Y-94825000D01*
X82875000Y-94825000D02*
X82875000Y-94575000D01*
X82875000Y-94575000D02*
X83525000Y-94575000D01*
X83525000Y-97675000D02*
X83525000Y-97925000D01*
X83525000Y-97925000D02*
X82875000Y-97925000D01*
X82875000Y-97925000D02*
X82875000Y-97675000D01*
X82875000Y-97675000D02*
X83525000Y-97675000D01*
X90550000Y-90475000D02*
X90550000Y-90725000D01*
X90550000Y-90725000D02*
X89450000Y-90725000D01*
X89450000Y-90725000D02*
X89450000Y-90475000D01*
X89450000Y-90475000D02*
X90550000Y-90475000D01*
X90550000Y-93975000D02*
X90550000Y-94225000D01*
X90550000Y-94225000D02*
X89450000Y-94225000D01*
X89450000Y-94225000D02*
X89450000Y-93975000D01*
X89450000Y-93975000D02*
X90550000Y-93975000D01*
X90550000Y-97475000D02*
X90550000Y-97725000D01*
X90550000Y-97725000D02*
X89450000Y-97725000D01*
X89450000Y-97725000D02*
X89450000Y-97475000D01*
X89450000Y-97475000D02*
X90550000Y-97475000D01*
X82025000Y-91475000D02*
X82025000Y-91725000D01*
X82025000Y-91725000D02*
X81375000Y-91725000D01*
X81375000Y-91725000D02*
X81375000Y-91475000D01*
X81375000Y-91475000D02*
X82025000Y-91475000D01*
X82025000Y-94575000D02*
X82025000Y-94825000D01*
X82025000Y-94825000D02*
X81375000Y-94825000D01*
X81375000Y-94825000D02*
X81375000Y-94575000D01*
X81375000Y-94575000D02*
X82025000Y-94575000D01*
X82025000Y-97675000D02*
X82025000Y-97925000D01*
X82025000Y-97925000D02*
X81375000Y-97925000D01*
X81375000Y-97925000D02*
X81375000Y-97675000D01*
X81375000Y-97675000D02*
X82025000Y-97675000D01*
X83875000Y-84525000D02*
X85225000Y-84525000D01*
X85225000Y-84525000D02*
X85225000Y-86475000D01*
X85225000Y-86475000D02*
X83275000Y-86475000D01*
X83275000Y-86475000D02*
X83275000Y-85125000D01*
X83275000Y-85125000D02*
X83875000Y-84525000D01*
X83900000Y-74050000D02*
X89200000Y-74050000D01*
X89200000Y-74050000D02*
X89200000Y-79950000D01*
X89200000Y-79950000D02*
X83300000Y-79950000D01*
X83300000Y-79950000D02*
X83300000Y-74650000D01*
X83300000Y-74650000D02*
X83900000Y-74050000D01*
X66150000Y-75050000D02*
X78450000Y-75050000D01*
X78450000Y-75050000D02*
X78450000Y-87950000D01*
X78450000Y-87950000D02*
X65550000Y-87950000D01*
X65550000Y-87950000D02*
X65550000Y-75650000D01*
X65550000Y-75650000D02*
X66150000Y-75050000D01*
X70600000Y-54850000D02*
X70600000Y-56150000D01*
X70600000Y-56150000D02*
X69400000Y-56150000D01*
X69400000Y-56150000D02*
X69400000Y-54850000D01*
X69400000Y-54850000D02*
X70600000Y-54850000D01*
X70600000Y-55175000D02*
X69400000Y-55175000D01*
X66600000Y-54850000D02*
X66600000Y-56150000D01*
X66600000Y-56150000D02*
X65400000Y-56150000D01*
X65400000Y-56150000D02*
X65400000Y-54850000D01*
X65400000Y-54850000D02*
X66600000Y-54850000D01*
X66600000Y-55175000D02*
X65400000Y-55175000D01*
X62600000Y-54850000D02*
X62600000Y-56150000D01*
X62600000Y-56150000D02*
X61400000Y-56150000D01*
X61400000Y-56150000D02*
X61400000Y-54850000D01*
X61400000Y-54850000D02*
X62600000Y-54850000D01*
X62600000Y-55175000D02*
X61400000Y-55175000D01*
X58600000Y-54850000D02*
X58600000Y-56150000D01*
X58600000Y-56150000D02*
X57400000Y-56150000D01*
X57400000Y-56150000D02*
X57400000Y-54850000D01*
X57400000Y-54850000D02*
X58600000Y-54850000D01*
X58600000Y-55175000D02*
X57400000Y-55175000D01*
X90600000Y-54850000D02*
X90600000Y-56150000D01*
X90600000Y-56150000D02*
X89400000Y-56150000D01*
X89400000Y-56150000D02*
X89400000Y-54850000D01*
X89400000Y-54850000D02*
X90600000Y-54850000D01*
X90600000Y-55175000D02*
X89400000Y-55175000D01*
X86600000Y-54850000D02*
X86600000Y-56150000D01*
X86600000Y-56150000D02*
X85400000Y-56150000D01*
X85400000Y-56150000D02*
X85400000Y-54850000D01*
X85400000Y-54850000D02*
X86600000Y-54850000D01*
X86600000Y-55175000D02*
X85400000Y-55175000D01*
X82600000Y-54850000D02*
X82600000Y-56150000D01*
X82600000Y-56150000D02*
X81400000Y-56150000D01*
X81400000Y-56150000D02*
X81400000Y-54850000D01*
X81400000Y-54850000D02*
X82600000Y-54850000D01*
X82600000Y-55175000D02*
X81400000Y-55175000D01*
X78600000Y-54850000D02*
X78600000Y-56150000D01*
X78600000Y-56150000D02*
X77400000Y-56150000D01*
X77400000Y-56150000D02*
X77400000Y-54850000D01*
X77400000Y-54850000D02*
X78600000Y-54850000D01*
X78600000Y-55175000D02*
X77400000Y-55175000D01*
X77425000Y-97975000D02*
X77425000Y-98225000D01*
X77425000Y-98225000D02*
X76775000Y-98225000D01*
X76775000Y-98225000D02*
X76775000Y-97975000D01*
X76775000Y-97975000D02*
X77425000Y-97975000D01*
X77425000Y-95575000D02*
X77425000Y-95825000D01*
X77425000Y-95825000D02*
X76775000Y-95825000D01*
X76775000Y-95825000D02*
X76775000Y-95575000D01*
X76775000Y-95575000D02*
X77425000Y-95575000D01*
X77425000Y-93175000D02*
X77425000Y-93425000D01*
X77425000Y-93425000D02*
X76775000Y-93425000D01*
X76775000Y-93425000D02*
X76775000Y-93175000D01*
X76775000Y-93175000D02*
X77425000Y-93175000D01*
X78525000Y-97975000D02*
X78525000Y-98225000D01*
X78525000Y-98225000D02*
X77875000Y-98225000D01*
X77875000Y-98225000D02*
X77875000Y-97975000D01*
X77875000Y-97975000D02*
X78525000Y-97975000D01*
X78525000Y-95575000D02*
X78525000Y-95825000D01*
X78525000Y-95825000D02*
X77875000Y-95825000D01*
X77875000Y-95825000D02*
X77875000Y-95575000D01*
X77875000Y-95575000D02*
X78525000Y-95575000D01*
X78525000Y-93175000D02*
X78525000Y-93425000D01*
X78525000Y-93425000D02*
X77875000Y-93425000D01*
X77875000Y-93425000D02*
X77875000Y-93175000D01*
X77875000Y-93175000D02*
X78525000Y-93175000D01*
X79625000Y-97975000D02*
X79625000Y-98225000D01*
X79625000Y-98225000D02*
X78975000Y-98225000D01*
X78975000Y-98225000D02*
X78975000Y-97975000D01*
X78975000Y-97975000D02*
X79625000Y-97975000D01*
X79625000Y-95575000D02*
X79625000Y-95825000D01*
X79625000Y-95825000D02*
X78975000Y-95825000D01*
X78975000Y-95825000D02*
X78975000Y-95575000D01*
X78975000Y-95575000D02*
X79625000Y-95575000D01*
X79625000Y-93175000D02*
X79625000Y-93425000D01*
X79625000Y-93425000D02*
X78975000Y-93425000D01*
X78975000Y-93425000D02*
X78975000Y-93175000D01*
X78975000Y-93175000D02*
X79625000Y-93175000D01*
X80725000Y-97975000D02*
X80725000Y-98225000D01*
X80725000Y-98225000D02*
X80075000Y-98225000D01*
X80075000Y-98225000D02*
X80075000Y-97975000D01*
X80075000Y-97975000D02*
X80725000Y-97975000D01*
X80725000Y-95575000D02*
X80725000Y-95825000D01*
X80725000Y-95825000D02*
X80075000Y-95825000D01*
X80075000Y-95825000D02*
X80075000Y-95575000D01*
X80075000Y-95575000D02*
X80725000Y-95575000D01*
X80725000Y-93175000D02*
X80725000Y-93425000D01*
X80725000Y-93425000D02*
X80075000Y-93425000D01*
X80075000Y-93425000D02*
X80075000Y-93175000D01*
X80075000Y-93175000D02*
X80725000Y-93175000D01*
X88550000Y-90475000D02*
X88550000Y-90725000D01*
X88550000Y-90725000D02*
X87450000Y-90725000D01*
X87450000Y-90725000D02*
X87450000Y-90475000D01*
X87450000Y-90475000D02*
X88550000Y-90475000D01*
X88550000Y-93975000D02*
X88550000Y-94225000D01*
X88550000Y-94225000D02*
X87450000Y-94225000D01*
X87450000Y-94225000D02*
X87450000Y-93975000D01*
X87450000Y-93975000D02*
X88550000Y-93975000D01*
X88550000Y-97475000D02*
X88550000Y-97725000D01*
X88550000Y-97725000D02*
X87450000Y-97725000D01*
X87450000Y-97725000D02*
X87450000Y-97475000D01*
X87450000Y-97475000D02*
X88550000Y-97475000D01*
X51175000Y-82125000D02*
X51175000Y-81875000D01*
X51175000Y-81875000D02*
X51825000Y-81875000D01*
X51825000Y-81875000D02*
X51825000Y-82125000D01*
X51825000Y-82125000D02*
X51175000Y-82125000D01*
X60675000Y-84125000D02*
X60675000Y-83875000D01*
X60675000Y-83875000D02*
X61325000Y-83875000D01*
X61325000Y-83875000D02*
X61325000Y-84125000D01*
X61325000Y-84125000D02*
X60675000Y-84125000D01*
X51175000Y-85325000D02*
X51175000Y-85075000D01*
X51175000Y-85075000D02*
X51825000Y-85075000D01*
X51825000Y-85075000D02*
X51825000Y-85325000D01*
X51825000Y-85325000D02*
X51175000Y-85325000D01*
X51600000Y-91025000D02*
X51275000Y-90775000D01*
X51600000Y-91025000D02*
X51925000Y-90775000D01*
X51275000Y-90775000D02*
X51925000Y-90775000D01*
X53100000Y-91025000D02*
X52775000Y-90775000D01*
X53100000Y-91025000D02*
X53425000Y-90775000D01*
X52775000Y-90775000D02*
X53425000Y-90775000D01*
X54600000Y-91025000D02*
X54275000Y-90775000D01*
X54600000Y-91025000D02*
X54925000Y-90775000D01*
X54275000Y-90775000D02*
X54925000Y-90775000D01*
X54500000Y-81250000D02*
X53750000Y-82000000D01*
X53750000Y-82000000D02*
X53750000Y-86250000D01*
X53750000Y-86250000D02*
X58750000Y-86250000D01*
X58750000Y-86250000D02*
X58750000Y-81250000D01*
X58750000Y-81250000D02*
X54500000Y-81250000D01*
X56100000Y-91025000D02*
X55775000Y-90775000D01*
X56100000Y-91025000D02*
X56425000Y-90775000D01*
X55775000Y-90775000D02*
X56425000Y-90775000D01*
X57600000Y-91025000D02*
X57275000Y-90775000D01*
X57600000Y-91025000D02*
X57925000Y-90775000D01*
X57275000Y-90775000D02*
X57925000Y-90775000D01*
X59100000Y-91025000D02*
X58775000Y-90775000D01*
X59100000Y-91025000D02*
X59425000Y-90775000D01*
X58775000Y-90775000D02*
X59425000Y-90775000D01*
X60600000Y-91025000D02*
X60275000Y-90775000D01*
X60600000Y-91025000D02*
X60925000Y-90775000D01*
X60275000Y-90775000D02*
X60925000Y-90775000D01*
X62100000Y-91025000D02*
X61775000Y-90775000D01*
X62100000Y-91025000D02*
X62425000Y-90775000D01*
X61775000Y-90775000D02*
X62425000Y-90775000D01*
X74600000Y-54850000D02*
X74600000Y-56150000D01*
X74600000Y-56150000D02*
X73400000Y-56150000D01*
X73400000Y-56150000D02*
X73400000Y-54850000D01*
X73400000Y-54850000D02*
X74600000Y-54850000D01*
X74600000Y-55175000D02*
X73400000Y-55175000D01*
X94600000Y-54850000D02*
X94600000Y-56150000D01*
X94600000Y-56150000D02*
X93400000Y-56150000D01*
X93400000Y-56150000D02*
X93400000Y-54850000D01*
X93400000Y-54850000D02*
X94600000Y-54850000D01*
X94600000Y-55175000D02*
X93400000Y-55175000D01*
X54300000Y-60300000D02*
X52600000Y-60300000D01*
X54300000Y-61100000D02*
X54300000Y-60300000D01*
X54300000Y-67700000D02*
X54300000Y-66850000D01*
X52600000Y-67700000D02*
X54300000Y-67700000D01*
X92200000Y-72600000D02*
X92600000Y-72200000D01*
X98900000Y-72200000D02*
X99300000Y-72200000D01*
X99300000Y-72200000D02*
X99300000Y-72600000D01*
X98900000Y-79300000D02*
X99300000Y-79300000D01*
X99300000Y-79300000D02*
X99300000Y-78900000D01*
X92600000Y-79300000D02*
X92200000Y-79300000D01*
X92200000Y-79300000D02*
X92200000Y-78900000D01*
X75282143Y-69166666D02*
X75329762Y-69214285D01*
X75377381Y-69357142D01*
X75377381Y-69452380D01*
X75329762Y-69595238D01*
X75234524Y-69690476D01*
X75139286Y-69738095D01*
X74948810Y-69785714D01*
X74805952Y-69785714D01*
X74615476Y-69738095D01*
X74520238Y-69690476D01*
X74425000Y-69595238D01*
X74377381Y-69452380D01*
X74377381Y-69357142D01*
X74425000Y-69214285D01*
X74472619Y-69166666D01*
X75377381Y-68214285D02*
X75377381Y-68785714D01*
X75377381Y-68500000D02*
X74377381Y-68500000D01*
X74520238Y-68595238D01*
X74615476Y-68690476D01*
X74663095Y-68785714D01*
X71380953Y-70852381D02*
X70809524Y-70852381D01*
X71095238Y-70852381D02*
X71095238Y-69852381D01*
X71000000Y-69995238D01*
X70904762Y-70090476D01*
X70809524Y-70138095D01*
X72000000Y-69852381D02*
X72095239Y-69852381D01*
X72190477Y-69900000D01*
X72238096Y-69947619D01*
X72285715Y-70042857D01*
X72333334Y-70233333D01*
X72333334Y-70471429D01*
X72285715Y-70661905D01*
X72238096Y-70757143D01*
X72190477Y-70804762D01*
X72095239Y-70852381D01*
X72000000Y-70852381D01*
X71904762Y-70804762D01*
X71857143Y-70757143D01*
X71809524Y-70661905D01*
X71761905Y-70471429D01*
X71761905Y-70233333D01*
X71809524Y-70042857D01*
X71857143Y-69947619D01*
X71904762Y-69900000D01*
X72000000Y-69852381D01*
X72952381Y-69852381D02*
X73047620Y-69852381D01*
X73142858Y-69900000D01*
X73190477Y-69947619D01*
X73238096Y-70042857D01*
X73285715Y-70233333D01*
X73285715Y-70471429D01*
X73238096Y-70661905D01*
X73190477Y-70757143D01*
X73142858Y-70804762D01*
X73047620Y-70852381D01*
X72952381Y-70852381D01*
X72857143Y-70804762D01*
X72809524Y-70757143D01*
X72761905Y-70661905D01*
X72714286Y-70471429D01*
X72714286Y-70233333D01*
X72761905Y-70042857D01*
X72809524Y-69947619D01*
X72857143Y-69900000D01*
X72952381Y-69852381D01*
X73714286Y-70185714D02*
X73714286Y-70852381D01*
X73714286Y-70280952D02*
X73761905Y-70233333D01*
X73857143Y-70185714D01*
X74000001Y-70185714D01*
X74095239Y-70233333D01*
X74142858Y-70328571D01*
X74142858Y-70852381D01*
X60333334Y-61357143D02*
X60285715Y-61404762D01*
X60142858Y-61452381D01*
X60047620Y-61452381D01*
X59904762Y-61404762D01*
X59809524Y-61309524D01*
X59761905Y-61214286D01*
X59714286Y-61023810D01*
X59714286Y-60880952D01*
X59761905Y-60690476D01*
X59809524Y-60595238D01*
X59904762Y-60500000D01*
X60047620Y-60452381D01*
X60142858Y-60452381D01*
X60285715Y-60500000D01*
X60333334Y-60547619D01*
X60714286Y-60547619D02*
X60761905Y-60500000D01*
X60857143Y-60452381D01*
X61095239Y-60452381D01*
X61190477Y-60500000D01*
X61238096Y-60547619D01*
X61285715Y-60642857D01*
X61285715Y-60738095D01*
X61238096Y-60880952D01*
X60666667Y-61452381D01*
X61285715Y-61452381D01*
X56880953Y-62952381D02*
X56309524Y-62952381D01*
X56595238Y-62952381D02*
X56595238Y-61952381D01*
X56500000Y-62095238D01*
X56404762Y-62190476D01*
X56309524Y-62238095D01*
X57500000Y-61952381D02*
X57595239Y-61952381D01*
X57690477Y-62000000D01*
X57738096Y-62047619D01*
X57785715Y-62142857D01*
X57833334Y-62333333D01*
X57833334Y-62571429D01*
X57785715Y-62761905D01*
X57738096Y-62857143D01*
X57690477Y-62904762D01*
X57595239Y-62952381D01*
X57500000Y-62952381D01*
X57404762Y-62904762D01*
X57357143Y-62857143D01*
X57309524Y-62761905D01*
X57261905Y-62571429D01*
X57261905Y-62333333D01*
X57309524Y-62142857D01*
X57357143Y-62047619D01*
X57404762Y-62000000D01*
X57500000Y-61952381D01*
X58452381Y-61952381D02*
X58547620Y-61952381D01*
X58642858Y-62000000D01*
X58690477Y-62047619D01*
X58738096Y-62142857D01*
X58785715Y-62333333D01*
X58785715Y-62571429D01*
X58738096Y-62761905D01*
X58690477Y-62857143D01*
X58642858Y-62904762D01*
X58547620Y-62952381D01*
X58452381Y-62952381D01*
X58357143Y-62904762D01*
X58309524Y-62857143D01*
X58261905Y-62761905D01*
X58214286Y-62571429D01*
X58214286Y-62333333D01*
X58261905Y-62142857D01*
X58309524Y-62047619D01*
X58357143Y-62000000D01*
X58452381Y-61952381D01*
X59214286Y-62285714D02*
X59214286Y-62952381D01*
X59214286Y-62380952D02*
X59261905Y-62333333D01*
X59357143Y-62285714D01*
X59500001Y-62285714D01*
X59595239Y-62333333D01*
X59642858Y-62428571D01*
X59642858Y-62952381D01*
X84282143Y-69166666D02*
X84329762Y-69214285D01*
X84377381Y-69357142D01*
X84377381Y-69452380D01*
X84329762Y-69595238D01*
X84234524Y-69690476D01*
X84139286Y-69738095D01*
X83948810Y-69785714D01*
X83805952Y-69785714D01*
X83615476Y-69738095D01*
X83520238Y-69690476D01*
X83425000Y-69595238D01*
X83377381Y-69452380D01*
X83377381Y-69357142D01*
X83425000Y-69214285D01*
X83472619Y-69166666D01*
X83377381Y-68833333D02*
X83377381Y-68214285D01*
X83758333Y-68547619D01*
X83758333Y-68404761D01*
X83805952Y-68309523D01*
X83853571Y-68261904D01*
X83948810Y-68214285D01*
X84186905Y-68214285D01*
X84282143Y-68261904D01*
X84329762Y-68309523D01*
X84377381Y-68404761D01*
X84377381Y-68690476D01*
X84329762Y-68785714D01*
X84282143Y-68833333D01*
X80380953Y-70852381D02*
X79809524Y-70852381D01*
X80095238Y-70852381D02*
X80095238Y-69852381D01*
X80000000Y-69995238D01*
X79904762Y-70090476D01*
X79809524Y-70138095D01*
X81000000Y-69852381D02*
X81095239Y-69852381D01*
X81190477Y-69900000D01*
X81238096Y-69947619D01*
X81285715Y-70042857D01*
X81333334Y-70233333D01*
X81333334Y-70471429D01*
X81285715Y-70661905D01*
X81238096Y-70757143D01*
X81190477Y-70804762D01*
X81095239Y-70852381D01*
X81000000Y-70852381D01*
X80904762Y-70804762D01*
X80857143Y-70757143D01*
X80809524Y-70661905D01*
X80761905Y-70471429D01*
X80761905Y-70233333D01*
X80809524Y-70042857D01*
X80857143Y-69947619D01*
X80904762Y-69900000D01*
X81000000Y-69852381D01*
X81952381Y-69852381D02*
X82047620Y-69852381D01*
X82142858Y-69900000D01*
X82190477Y-69947619D01*
X82238096Y-70042857D01*
X82285715Y-70233333D01*
X82285715Y-70471429D01*
X82238096Y-70661905D01*
X82190477Y-70757143D01*
X82142858Y-70804762D01*
X82047620Y-70852381D01*
X81952381Y-70852381D01*
X81857143Y-70804762D01*
X81809524Y-70757143D01*
X81761905Y-70661905D01*
X81714286Y-70471429D01*
X81714286Y-70233333D01*
X81761905Y-70042857D01*
X81809524Y-69947619D01*
X81857143Y-69900000D01*
X81952381Y-69852381D01*
X82714286Y-70185714D02*
X82714286Y-70852381D01*
X82714286Y-70280952D02*
X82761905Y-70233333D01*
X82857143Y-70185714D01*
X83000001Y-70185714D01*
X83095239Y-70233333D01*
X83142858Y-70328571D01*
X83142858Y-70852381D01*
X86357143Y-66666666D02*
X86404762Y-66714285D01*
X86452381Y-66857142D01*
X86452381Y-66952380D01*
X86404762Y-67095238D01*
X86309524Y-67190476D01*
X86214286Y-67238095D01*
X86023810Y-67285714D01*
X85880952Y-67285714D01*
X85690476Y-67238095D01*
X85595238Y-67190476D01*
X85500000Y-67095238D01*
X85452381Y-66952380D01*
X85452381Y-66857142D01*
X85500000Y-66714285D01*
X85547619Y-66666666D01*
X85785714Y-65809523D02*
X86452381Y-65809523D01*
X85404762Y-66047619D02*
X86119048Y-66285714D01*
X86119048Y-65666666D01*
X84880953Y-61952381D02*
X84309524Y-61952381D01*
X84595238Y-61952381D02*
X84595238Y-60952381D01*
X84500000Y-61095238D01*
X84404762Y-61190476D01*
X84309524Y-61238095D01*
X85500000Y-60952381D02*
X85595239Y-60952381D01*
X85690477Y-61000000D01*
X85738096Y-61047619D01*
X85785715Y-61142857D01*
X85833334Y-61333333D01*
X85833334Y-61571429D01*
X85785715Y-61761905D01*
X85738096Y-61857143D01*
X85690477Y-61904762D01*
X85595239Y-61952381D01*
X85500000Y-61952381D01*
X85404762Y-61904762D01*
X85357143Y-61857143D01*
X85309524Y-61761905D01*
X85261905Y-61571429D01*
X85261905Y-61333333D01*
X85309524Y-61142857D01*
X85357143Y-61047619D01*
X85404762Y-61000000D01*
X85500000Y-60952381D01*
X86452381Y-60952381D02*
X86547620Y-60952381D01*
X86642858Y-61000000D01*
X86690477Y-61047619D01*
X86738096Y-61142857D01*
X86785715Y-61333333D01*
X86785715Y-61571429D01*
X86738096Y-61761905D01*
X86690477Y-61857143D01*
X86642858Y-61904762D01*
X86547620Y-61952381D01*
X86452381Y-61952381D01*
X86357143Y-61904762D01*
X86309524Y-61857143D01*
X86261905Y-61761905D01*
X86214286Y-61571429D01*
X86214286Y-61333333D01*
X86261905Y-61142857D01*
X86309524Y-61047619D01*
X86357143Y-61000000D01*
X86452381Y-60952381D01*
X87214286Y-61285714D02*
X87214286Y-61952381D01*
X87214286Y-61380952D02*
X87261905Y-61333333D01*
X87357143Y-61285714D01*
X87500001Y-61285714D01*
X87595239Y-61333333D01*
X87642858Y-61428571D01*
X87642858Y-61952381D01*
X93857143Y-66666666D02*
X93904762Y-66714285D01*
X93952381Y-66857142D01*
X93952381Y-66952380D01*
X93904762Y-67095238D01*
X93809524Y-67190476D01*
X93714286Y-67238095D01*
X93523810Y-67285714D01*
X93380952Y-67285714D01*
X93190476Y-67238095D01*
X93095238Y-67190476D01*
X93000000Y-67095238D01*
X92952381Y-66952380D01*
X92952381Y-66857142D01*
X93000000Y-66714285D01*
X93047619Y-66666666D01*
X92952381Y-65761904D02*
X92952381Y-66238095D01*
X93428571Y-66285714D01*
X93380952Y-66238095D01*
X93333333Y-66142857D01*
X93333333Y-65904761D01*
X93380952Y-65809523D01*
X93428571Y-65761904D01*
X93523810Y-65714285D01*
X93761905Y-65714285D01*
X93857143Y-65761904D01*
X93904762Y-65809523D01*
X93952381Y-65904761D01*
X93952381Y-66142857D01*
X93904762Y-66238095D01*
X93857143Y-66285714D01*
X93261905Y-60952381D02*
X92690476Y-60952381D01*
X92976190Y-60952381D02*
X92976190Y-59952381D01*
X92880952Y-60095238D01*
X92785714Y-60190476D01*
X92690476Y-60238095D01*
X93690476Y-60285714D02*
X93690476Y-61285714D01*
X94166667Y-60809524D02*
X94214286Y-60904762D01*
X94309524Y-60952381D01*
X93690476Y-60809524D02*
X93738095Y-60904762D01*
X93833333Y-60952381D01*
X94023810Y-60952381D01*
X94119048Y-60904762D01*
X94166667Y-60809524D01*
X94166667Y-60285714D01*
X54452381Y-56214286D02*
X53452381Y-56214286D01*
X53452381Y-55976191D01*
X53500000Y-55833333D01*
X53595238Y-55738095D01*
X53690476Y-55690476D01*
X53880952Y-55642857D01*
X54023810Y-55642857D01*
X54214286Y-55690476D01*
X54309524Y-55738095D01*
X54404762Y-55833333D01*
X54452381Y-55976191D01*
X54452381Y-56214286D01*
X54452381Y-54690476D02*
X54452381Y-55261905D01*
X54452381Y-54976191D02*
X53452381Y-54976191D01*
X53595238Y-55071429D01*
X53690476Y-55166667D01*
X53738095Y-55261905D01*
X54452381Y-53738095D02*
X54452381Y-54309524D01*
X54452381Y-54023810D02*
X53452381Y-54023810D01*
X53595238Y-54119048D01*
X53690476Y-54214286D01*
X53738095Y-54309524D01*
X56452381Y-59214286D02*
X55452381Y-59214286D01*
X55452381Y-58976191D01*
X55500000Y-58833333D01*
X55595238Y-58738095D01*
X55690476Y-58690476D01*
X55880952Y-58642857D01*
X56023810Y-58642857D01*
X56214286Y-58690476D01*
X56309524Y-58738095D01*
X56404762Y-58833333D01*
X56452381Y-58976191D01*
X56452381Y-59214286D01*
X56452381Y-57690476D02*
X56452381Y-58261905D01*
X56452381Y-57976191D02*
X55452381Y-57976191D01*
X55595238Y-58071429D01*
X55690476Y-58166667D01*
X55738095Y-58261905D01*
X55547619Y-57309524D02*
X55500000Y-57261905D01*
X55452381Y-57166667D01*
X55452381Y-56928571D01*
X55500000Y-56833333D01*
X55547619Y-56785714D01*
X55642857Y-56738095D01*
X55738095Y-56738095D01*
X55880952Y-56785714D01*
X56452381Y-57357143D01*
X56452381Y-56738095D01*
X60452381Y-59214286D02*
X59452381Y-59214286D01*
X59452381Y-58976191D01*
X59500000Y-58833333D01*
X59595238Y-58738095D01*
X59690476Y-58690476D01*
X59880952Y-58642857D01*
X60023810Y-58642857D01*
X60214286Y-58690476D01*
X60309524Y-58738095D01*
X60404762Y-58833333D01*
X60452381Y-58976191D01*
X60452381Y-59214286D01*
X60452381Y-57690476D02*
X60452381Y-58261905D01*
X60452381Y-57976191D02*
X59452381Y-57976191D01*
X59595238Y-58071429D01*
X59690476Y-58166667D01*
X59738095Y-58261905D01*
X59452381Y-57357143D02*
X59452381Y-56738095D01*
X59833333Y-57071429D01*
X59833333Y-56928571D01*
X59880952Y-56833333D01*
X59928571Y-56785714D01*
X60023810Y-56738095D01*
X60261905Y-56738095D01*
X60357143Y-56785714D01*
X60404762Y-56833333D01*
X60452381Y-56928571D01*
X60452381Y-57214286D01*
X60404762Y-57309524D01*
X60357143Y-57357143D01*
X64452381Y-59214286D02*
X63452381Y-59214286D01*
X63452381Y-58976191D01*
X63500000Y-58833333D01*
X63595238Y-58738095D01*
X63690476Y-58690476D01*
X63880952Y-58642857D01*
X64023810Y-58642857D01*
X64214286Y-58690476D01*
X64309524Y-58738095D01*
X64404762Y-58833333D01*
X64452381Y-58976191D01*
X64452381Y-59214286D01*
X64452381Y-57690476D02*
X64452381Y-58261905D01*
X64452381Y-57976191D02*
X63452381Y-57976191D01*
X63595238Y-58071429D01*
X63690476Y-58166667D01*
X63738095Y-58261905D01*
X63785714Y-56833333D02*
X64452381Y-56833333D01*
X63404762Y-57071429D02*
X64119048Y-57309524D01*
X64119048Y-56690476D01*
X68452381Y-59214286D02*
X67452381Y-59214286D01*
X67452381Y-58976191D01*
X67500000Y-58833333D01*
X67595238Y-58738095D01*
X67690476Y-58690476D01*
X67880952Y-58642857D01*
X68023810Y-58642857D01*
X68214286Y-58690476D01*
X68309524Y-58738095D01*
X68404762Y-58833333D01*
X68452381Y-58976191D01*
X68452381Y-59214286D01*
X68452381Y-57690476D02*
X68452381Y-58261905D01*
X68452381Y-57976191D02*
X67452381Y-57976191D01*
X67595238Y-58071429D01*
X67690476Y-58166667D01*
X67738095Y-58261905D01*
X67452381Y-56785714D02*
X67452381Y-57261905D01*
X67928571Y-57309524D01*
X67880952Y-57261905D01*
X67833333Y-57166667D01*
X67833333Y-56928571D01*
X67880952Y-56833333D01*
X67928571Y-56785714D01*
X68023810Y-56738095D01*
X68261905Y-56738095D01*
X68357143Y-56785714D01*
X68404762Y-56833333D01*
X68452381Y-56928571D01*
X68452381Y-57166667D01*
X68404762Y-57261905D01*
X68357143Y-57309524D01*
X72452381Y-59214286D02*
X71452381Y-59214286D01*
X71452381Y-58976191D01*
X71500000Y-58833333D01*
X71595238Y-58738095D01*
X71690476Y-58690476D01*
X71880952Y-58642857D01*
X72023810Y-58642857D01*
X72214286Y-58690476D01*
X72309524Y-58738095D01*
X72404762Y-58833333D01*
X72452381Y-58976191D01*
X72452381Y-59214286D01*
X72452381Y-57690476D02*
X72452381Y-58261905D01*
X72452381Y-57976191D02*
X71452381Y-57976191D01*
X71595238Y-58071429D01*
X71690476Y-58166667D01*
X71738095Y-58261905D01*
X71452381Y-56833333D02*
X71452381Y-57023810D01*
X71500000Y-57119048D01*
X71547619Y-57166667D01*
X71690476Y-57261905D01*
X71880952Y-57309524D01*
X72261905Y-57309524D01*
X72357143Y-57261905D01*
X72404762Y-57214286D01*
X72452381Y-57119048D01*
X72452381Y-56928571D01*
X72404762Y-56833333D01*
X72357143Y-56785714D01*
X72261905Y-56738095D01*
X72023810Y-56738095D01*
X71928571Y-56785714D01*
X71880952Y-56833333D01*
X71833333Y-56928571D01*
X71833333Y-57119048D01*
X71880952Y-57214286D01*
X71928571Y-57261905D01*
X72023810Y-57309524D01*
X76452381Y-59214286D02*
X75452381Y-59214286D01*
X75452381Y-58976191D01*
X75500000Y-58833333D01*
X75595238Y-58738095D01*
X75690476Y-58690476D01*
X75880952Y-58642857D01*
X76023810Y-58642857D01*
X76214286Y-58690476D01*
X76309524Y-58738095D01*
X76404762Y-58833333D01*
X76452381Y-58976191D01*
X76452381Y-59214286D01*
X76452381Y-57690476D02*
X76452381Y-58261905D01*
X76452381Y-57976191D02*
X75452381Y-57976191D01*
X75595238Y-58071429D01*
X75690476Y-58166667D01*
X75738095Y-58261905D01*
X75452381Y-57357143D02*
X75452381Y-56690476D01*
X76452381Y-57119048D01*
X80452381Y-59214286D02*
X79452381Y-59214286D01*
X79452381Y-58976191D01*
X79500000Y-58833333D01*
X79595238Y-58738095D01*
X79690476Y-58690476D01*
X79880952Y-58642857D01*
X80023810Y-58642857D01*
X80214286Y-58690476D01*
X80309524Y-58738095D01*
X80404762Y-58833333D01*
X80452381Y-58976191D01*
X80452381Y-59214286D01*
X80452381Y-57690476D02*
X80452381Y-58261905D01*
X80452381Y-57976191D02*
X79452381Y-57976191D01*
X79595238Y-58071429D01*
X79690476Y-58166667D01*
X79738095Y-58261905D01*
X79880952Y-57119048D02*
X79833333Y-57214286D01*
X79785714Y-57261905D01*
X79690476Y-57309524D01*
X79642857Y-57309524D01*
X79547619Y-57261905D01*
X79500000Y-57214286D01*
X79452381Y-57119048D01*
X79452381Y-56928571D01*
X79500000Y-56833333D01*
X79547619Y-56785714D01*
X79642857Y-56738095D01*
X79690476Y-56738095D01*
X79785714Y-56785714D01*
X79833333Y-56833333D01*
X79880952Y-56928571D01*
X79880952Y-57119048D01*
X79928571Y-57214286D01*
X79976190Y-57261905D01*
X80071429Y-57309524D01*
X80261905Y-57309524D01*
X80357143Y-57261905D01*
X80404762Y-57214286D01*
X80452381Y-57119048D01*
X80452381Y-56928571D01*
X80404762Y-56833333D01*
X80357143Y-56785714D01*
X80261905Y-56738095D01*
X80071429Y-56738095D01*
X79976190Y-56785714D01*
X79928571Y-56833333D01*
X79880952Y-56928571D01*
X84452381Y-59214286D02*
X83452381Y-59214286D01*
X83452381Y-58976191D01*
X83500000Y-58833333D01*
X83595238Y-58738095D01*
X83690476Y-58690476D01*
X83880952Y-58642857D01*
X84023810Y-58642857D01*
X84214286Y-58690476D01*
X84309524Y-58738095D01*
X84404762Y-58833333D01*
X84452381Y-58976191D01*
X84452381Y-59214286D01*
X84452381Y-57690476D02*
X84452381Y-58261905D01*
X84452381Y-57976191D02*
X83452381Y-57976191D01*
X83595238Y-58071429D01*
X83690476Y-58166667D01*
X83738095Y-58261905D01*
X84452381Y-57214286D02*
X84452381Y-57023810D01*
X84404762Y-56928571D01*
X84357143Y-56880952D01*
X84214286Y-56785714D01*
X84023810Y-56738095D01*
X83642857Y-56738095D01*
X83547619Y-56785714D01*
X83500000Y-56833333D01*
X83452381Y-56928571D01*
X83452381Y-57119048D01*
X83500000Y-57214286D01*
X83547619Y-57261905D01*
X83642857Y-57309524D01*
X83880952Y-57309524D01*
X83976190Y-57261905D01*
X84023810Y-57214286D01*
X84071429Y-57119048D01*
X84071429Y-56928571D01*
X84023810Y-56833333D01*
X83976190Y-56785714D01*
X83880952Y-56738095D01*
X88452381Y-59214286D02*
X87452381Y-59214286D01*
X87452381Y-58976191D01*
X87500000Y-58833333D01*
X87595238Y-58738095D01*
X87690476Y-58690476D01*
X87880952Y-58642857D01*
X88023810Y-58642857D01*
X88214286Y-58690476D01*
X88309524Y-58738095D01*
X88404762Y-58833333D01*
X88452381Y-58976191D01*
X88452381Y-59214286D01*
X87547619Y-58261905D02*
X87500000Y-58214286D01*
X87452381Y-58119048D01*
X87452381Y-57880952D01*
X87500000Y-57785714D01*
X87547619Y-57738095D01*
X87642857Y-57690476D01*
X87738095Y-57690476D01*
X87880952Y-57738095D01*
X88452381Y-58309524D01*
X88452381Y-57690476D01*
X87452381Y-57071429D02*
X87452381Y-56976190D01*
X87500000Y-56880952D01*
X87547619Y-56833333D01*
X87642857Y-56785714D01*
X87833333Y-56738095D01*
X88071429Y-56738095D01*
X88261905Y-56785714D01*
X88357143Y-56833333D01*
X88404762Y-56880952D01*
X88452381Y-56976190D01*
X88452381Y-57071429D01*
X88404762Y-57166667D01*
X88357143Y-57214286D01*
X88261905Y-57261905D01*
X88071429Y-57309524D01*
X87833333Y-57309524D01*
X87642857Y-57261905D01*
X87547619Y-57214286D01*
X87500000Y-57166667D01*
X87452381Y-57071429D01*
X92452381Y-59214286D02*
X91452381Y-59214286D01*
X91452381Y-58976191D01*
X91500000Y-58833333D01*
X91595238Y-58738095D01*
X91690476Y-58690476D01*
X91880952Y-58642857D01*
X92023810Y-58642857D01*
X92214286Y-58690476D01*
X92309524Y-58738095D01*
X92404762Y-58833333D01*
X92452381Y-58976191D01*
X92452381Y-59214286D01*
X91547619Y-58261905D02*
X91500000Y-58214286D01*
X91452381Y-58119048D01*
X91452381Y-57880952D01*
X91500000Y-57785714D01*
X91547619Y-57738095D01*
X91642857Y-57690476D01*
X91738095Y-57690476D01*
X91880952Y-57738095D01*
X92452381Y-58309524D01*
X92452381Y-57690476D01*
X92452381Y-56738095D02*
X92452381Y-57309524D01*
X92452381Y-57023810D02*
X91452381Y-57023810D01*
X91595238Y-57119048D01*
X91690476Y-57214286D01*
X91738095Y-57309524D01*
X75402381Y-64476190D02*
X74402381Y-64476190D01*
X75307143Y-63428571D02*
X75354762Y-63476190D01*
X75402381Y-63619047D01*
X75402381Y-63714285D01*
X75354762Y-63857143D01*
X75259524Y-63952381D01*
X75164286Y-64000000D01*
X74973810Y-64047619D01*
X74830952Y-64047619D01*
X74640476Y-64000000D01*
X74545238Y-63952381D01*
X74450000Y-63857143D01*
X74402381Y-63714285D01*
X74402381Y-63619047D01*
X74450000Y-63476190D01*
X74497619Y-63428571D01*
X75402381Y-62476190D02*
X75402381Y-63047619D01*
X75402381Y-62761905D02*
X74402381Y-62761905D01*
X74545238Y-62857143D01*
X74640476Y-62952381D01*
X74688095Y-63047619D01*
X62835714Y-64738095D02*
X63502381Y-64738095D01*
X62454762Y-64976191D02*
X63169048Y-65214286D01*
X63169048Y-64595238D01*
X62502381Y-64023810D02*
X62502381Y-63928571D01*
X62550000Y-63833333D01*
X62597619Y-63785714D01*
X62692857Y-63738095D01*
X62883333Y-63690476D01*
X63121429Y-63690476D01*
X63311905Y-63738095D01*
X63407143Y-63785714D01*
X63454762Y-63833333D01*
X63502381Y-63928571D01*
X63502381Y-64023810D01*
X63454762Y-64119048D01*
X63407143Y-64166667D01*
X63311905Y-64214286D01*
X63121429Y-64261905D01*
X62883333Y-64261905D01*
X62692857Y-64214286D01*
X62597619Y-64166667D01*
X62550000Y-64119048D01*
X62502381Y-64023810D01*
X63502381Y-62738095D02*
X63502381Y-63309524D01*
X63502381Y-63023810D02*
X62502381Y-63023810D01*
X62645238Y-63119048D01*
X62740476Y-63214286D01*
X62788095Y-63309524D01*
X62502381Y-62404762D02*
X62502381Y-61738095D01*
X63502381Y-62166667D01*
X84402381Y-64476190D02*
X83402381Y-64476190D01*
X84307143Y-63428571D02*
X84354762Y-63476190D01*
X84402381Y-63619047D01*
X84402381Y-63714285D01*
X84354762Y-63857143D01*
X84259524Y-63952381D01*
X84164286Y-64000000D01*
X83973810Y-64047619D01*
X83830952Y-64047619D01*
X83640476Y-64000000D01*
X83545238Y-63952381D01*
X83450000Y-63857143D01*
X83402381Y-63714285D01*
X83402381Y-63619047D01*
X83450000Y-63476190D01*
X83497619Y-63428571D01*
X83497619Y-63047619D02*
X83450000Y-63000000D01*
X83402381Y-62904762D01*
X83402381Y-62666666D01*
X83450000Y-62571428D01*
X83497619Y-62523809D01*
X83592857Y-62476190D01*
X83688095Y-62476190D01*
X83830952Y-62523809D01*
X84402381Y-63095238D01*
X84402381Y-62476190D01*
X76502381Y-64214285D02*
X76502381Y-64690476D01*
X76978571Y-64738095D01*
X76930952Y-64690476D01*
X76883333Y-64595238D01*
X76883333Y-64357142D01*
X76930952Y-64261904D01*
X76978571Y-64214285D01*
X77073810Y-64166666D01*
X77311905Y-64166666D01*
X77407143Y-64214285D01*
X77454762Y-64261904D01*
X77502381Y-64357142D01*
X77502381Y-64595238D01*
X77454762Y-64690476D01*
X77407143Y-64738095D01*
X76502381Y-63261904D02*
X76502381Y-63738095D01*
X76978571Y-63785714D01*
X76930952Y-63738095D01*
X76883333Y-63642857D01*
X76883333Y-63404761D01*
X76930952Y-63309523D01*
X76978571Y-63261904D01*
X77073810Y-63214285D01*
X77311905Y-63214285D01*
X77407143Y-63261904D01*
X77454762Y-63309523D01*
X77502381Y-63404761D01*
X77502381Y-63642857D01*
X77454762Y-63738095D01*
X77407143Y-63785714D01*
X76502381Y-62309523D02*
X76502381Y-62785714D01*
X76978571Y-62833333D01*
X76930952Y-62785714D01*
X76883333Y-62690476D01*
X76883333Y-62452380D01*
X76930952Y-62357142D01*
X76978571Y-62309523D01*
X77073810Y-62261904D01*
X77311905Y-62261904D01*
X77407143Y-62309523D01*
X77454762Y-62357142D01*
X77502381Y-62452380D01*
X77502381Y-62690476D01*
X77454762Y-62785714D01*
X77407143Y-62833333D01*
X88952381Y-66666666D02*
X88476190Y-67000000D01*
X88952381Y-67238095D02*
X87952381Y-67238095D01*
X87952381Y-66857142D01*
X88000000Y-66761904D01*
X88047619Y-66714285D01*
X88142857Y-66666666D01*
X88285714Y-66666666D01*
X88380952Y-66714285D01*
X88428571Y-66761904D01*
X88476190Y-66857142D01*
X88476190Y-67238095D01*
X88952381Y-65714285D02*
X88952381Y-66285714D01*
X88952381Y-66000000D02*
X87952381Y-66000000D01*
X88095238Y-66095238D01*
X88190476Y-66190476D01*
X88238095Y-66285714D01*
X87428572Y-60952381D02*
X86857143Y-60952381D01*
X87142857Y-60952381D02*
X87142857Y-59952381D01*
X87047619Y-60095238D01*
X86952381Y-60190476D01*
X86857143Y-60238095D01*
X88047619Y-59952381D02*
X88142858Y-59952381D01*
X88238096Y-60000000D01*
X88285715Y-60047619D01*
X88333334Y-60142857D01*
X88380953Y-60333333D01*
X88380953Y-60571429D01*
X88333334Y-60761905D01*
X88285715Y-60857143D01*
X88238096Y-60904762D01*
X88142858Y-60952381D01*
X88047619Y-60952381D01*
X87952381Y-60904762D01*
X87904762Y-60857143D01*
X87857143Y-60761905D01*
X87809524Y-60571429D01*
X87809524Y-60333333D01*
X87857143Y-60142857D01*
X87904762Y-60047619D01*
X87952381Y-60000000D01*
X88047619Y-59952381D01*
X89000000Y-59952381D02*
X89095239Y-59952381D01*
X89190477Y-60000000D01*
X89238096Y-60047619D01*
X89285715Y-60142857D01*
X89333334Y-60333333D01*
X89333334Y-60571429D01*
X89285715Y-60761905D01*
X89238096Y-60857143D01*
X89190477Y-60904762D01*
X89095239Y-60952381D01*
X89000000Y-60952381D01*
X88904762Y-60904762D01*
X88857143Y-60857143D01*
X88809524Y-60761905D01*
X88761905Y-60571429D01*
X88761905Y-60333333D01*
X88809524Y-60142857D01*
X88857143Y-60047619D01*
X88904762Y-60000000D01*
X89000000Y-59952381D01*
X89761905Y-60952381D02*
X89761905Y-59952381D01*
X89857143Y-60571429D02*
X90142858Y-60952381D01*
X90142858Y-60285714D02*
X89761905Y-60666667D01*
X91452381Y-66666666D02*
X90976190Y-67000000D01*
X91452381Y-67238095D02*
X90452381Y-67238095D01*
X90452381Y-66857142D01*
X90500000Y-66761904D01*
X90547619Y-66714285D01*
X90642857Y-66666666D01*
X90785714Y-66666666D01*
X90880952Y-66714285D01*
X90928571Y-66761904D01*
X90976190Y-66857142D01*
X90976190Y-67238095D01*
X90547619Y-66285714D02*
X90500000Y-66238095D01*
X90452381Y-66142857D01*
X90452381Y-65904761D01*
X90500000Y-65809523D01*
X90547619Y-65761904D01*
X90642857Y-65714285D01*
X90738095Y-65714285D01*
X90880952Y-65761904D01*
X91452381Y-66333333D01*
X91452381Y-65714285D01*
X89928572Y-61952381D02*
X89357143Y-61952381D01*
X89642857Y-61952381D02*
X89642857Y-60952381D01*
X89547619Y-61095238D01*
X89452381Y-61190476D01*
X89357143Y-61238095D01*
X90547619Y-60952381D02*
X90642858Y-60952381D01*
X90738096Y-61000000D01*
X90785715Y-61047619D01*
X90833334Y-61142857D01*
X90880953Y-61333333D01*
X90880953Y-61571429D01*
X90833334Y-61761905D01*
X90785715Y-61857143D01*
X90738096Y-61904762D01*
X90642858Y-61952381D01*
X90547619Y-61952381D01*
X90452381Y-61904762D01*
X90404762Y-61857143D01*
X90357143Y-61761905D01*
X90309524Y-61571429D01*
X90309524Y-61333333D01*
X90357143Y-61142857D01*
X90404762Y-61047619D01*
X90452381Y-61000000D01*
X90547619Y-60952381D01*
X91500000Y-60952381D02*
X91595239Y-60952381D01*
X91690477Y-61000000D01*
X91738096Y-61047619D01*
X91785715Y-61142857D01*
X91833334Y-61333333D01*
X91833334Y-61571429D01*
X91785715Y-61761905D01*
X91738096Y-61857143D01*
X91690477Y-61904762D01*
X91595239Y-61952381D01*
X91500000Y-61952381D01*
X91404762Y-61904762D01*
X91357143Y-61857143D01*
X91309524Y-61761905D01*
X91261905Y-61571429D01*
X91261905Y-61333333D01*
X91309524Y-61142857D01*
X91357143Y-61047619D01*
X91404762Y-61000000D01*
X91500000Y-60952381D01*
X92261905Y-61952381D02*
X92261905Y-60952381D01*
X92357143Y-61571429D02*
X92642858Y-61952381D01*
X92642858Y-61285714D02*
X92261905Y-61666667D01*
X56452381Y-54591666D02*
X55976190Y-54925000D01*
X56452381Y-55163095D02*
X55452381Y-55163095D01*
X55452381Y-54782142D01*
X55500000Y-54686904D01*
X55547619Y-54639285D01*
X55642857Y-54591666D01*
X55785714Y-54591666D01*
X55880952Y-54639285D01*
X55928571Y-54686904D01*
X55976190Y-54782142D01*
X55976190Y-55163095D01*
X55452381Y-54258333D02*
X55452381Y-53639285D01*
X55833333Y-53972619D01*
X55833333Y-53829761D01*
X55880952Y-53734523D01*
X55928571Y-53686904D01*
X56023810Y-53639285D01*
X56261905Y-53639285D01*
X56357143Y-53686904D01*
X56404762Y-53734523D01*
X56452381Y-53829761D01*
X56452381Y-54115476D01*
X56404762Y-54210714D01*
X56357143Y-54258333D01*
X60452381Y-54591666D02*
X59976190Y-54925000D01*
X60452381Y-55163095D02*
X59452381Y-55163095D01*
X59452381Y-54782142D01*
X59500000Y-54686904D01*
X59547619Y-54639285D01*
X59642857Y-54591666D01*
X59785714Y-54591666D01*
X59880952Y-54639285D01*
X59928571Y-54686904D01*
X59976190Y-54782142D01*
X59976190Y-55163095D01*
X59785714Y-53734523D02*
X60452381Y-53734523D01*
X59404762Y-53972619D02*
X60119048Y-54210714D01*
X60119048Y-53591666D01*
X64452381Y-54591666D02*
X63976190Y-54925000D01*
X64452381Y-55163095D02*
X63452381Y-55163095D01*
X63452381Y-54782142D01*
X63500000Y-54686904D01*
X63547619Y-54639285D01*
X63642857Y-54591666D01*
X63785714Y-54591666D01*
X63880952Y-54639285D01*
X63928571Y-54686904D01*
X63976190Y-54782142D01*
X63976190Y-55163095D01*
X63452381Y-53686904D02*
X63452381Y-54163095D01*
X63928571Y-54210714D01*
X63880952Y-54163095D01*
X63833333Y-54067857D01*
X63833333Y-53829761D01*
X63880952Y-53734523D01*
X63928571Y-53686904D01*
X64023810Y-53639285D01*
X64261905Y-53639285D01*
X64357143Y-53686904D01*
X64404762Y-53734523D01*
X64452381Y-53829761D01*
X64452381Y-54067857D01*
X64404762Y-54163095D01*
X64357143Y-54210714D01*
X68452381Y-54591666D02*
X67976190Y-54925000D01*
X68452381Y-55163095D02*
X67452381Y-55163095D01*
X67452381Y-54782142D01*
X67500000Y-54686904D01*
X67547619Y-54639285D01*
X67642857Y-54591666D01*
X67785714Y-54591666D01*
X67880952Y-54639285D01*
X67928571Y-54686904D01*
X67976190Y-54782142D01*
X67976190Y-55163095D01*
X67452381Y-53734523D02*
X67452381Y-53925000D01*
X67500000Y-54020238D01*
X67547619Y-54067857D01*
X67690476Y-54163095D01*
X67880952Y-54210714D01*
X68261905Y-54210714D01*
X68357143Y-54163095D01*
X68404762Y-54115476D01*
X68452381Y-54020238D01*
X68452381Y-53829761D01*
X68404762Y-53734523D01*
X68357143Y-53686904D01*
X68261905Y-53639285D01*
X68023810Y-53639285D01*
X67928571Y-53686904D01*
X67880952Y-53734523D01*
X67833333Y-53829761D01*
X67833333Y-54020238D01*
X67880952Y-54115476D01*
X67928571Y-54163095D01*
X68023810Y-54210714D01*
X72452381Y-54591666D02*
X71976190Y-54925000D01*
X72452381Y-55163095D02*
X71452381Y-55163095D01*
X71452381Y-54782142D01*
X71500000Y-54686904D01*
X71547619Y-54639285D01*
X71642857Y-54591666D01*
X71785714Y-54591666D01*
X71880952Y-54639285D01*
X71928571Y-54686904D01*
X71976190Y-54782142D01*
X71976190Y-55163095D01*
X71452381Y-54258333D02*
X71452381Y-53591666D01*
X72452381Y-54020238D01*
X76452381Y-54591666D02*
X75976190Y-54925000D01*
X76452381Y-55163095D02*
X75452381Y-55163095D01*
X75452381Y-54782142D01*
X75500000Y-54686904D01*
X75547619Y-54639285D01*
X75642857Y-54591666D01*
X75785714Y-54591666D01*
X75880952Y-54639285D01*
X75928571Y-54686904D01*
X75976190Y-54782142D01*
X75976190Y-55163095D01*
X75880952Y-54020238D02*
X75833333Y-54115476D01*
X75785714Y-54163095D01*
X75690476Y-54210714D01*
X75642857Y-54210714D01*
X75547619Y-54163095D01*
X75500000Y-54115476D01*
X75452381Y-54020238D01*
X75452381Y-53829761D01*
X75500000Y-53734523D01*
X75547619Y-53686904D01*
X75642857Y-53639285D01*
X75690476Y-53639285D01*
X75785714Y-53686904D01*
X75833333Y-53734523D01*
X75880952Y-53829761D01*
X75880952Y-54020238D01*
X75928571Y-54115476D01*
X75976190Y-54163095D01*
X76071429Y-54210714D01*
X76261905Y-54210714D01*
X76357143Y-54163095D01*
X76404762Y-54115476D01*
X76452381Y-54020238D01*
X76452381Y-53829761D01*
X76404762Y-53734523D01*
X76357143Y-53686904D01*
X76261905Y-53639285D01*
X76071429Y-53639285D01*
X75976190Y-53686904D01*
X75928571Y-53734523D01*
X75880952Y-53829761D01*
X80452381Y-54591666D02*
X79976190Y-54925000D01*
X80452381Y-55163095D02*
X79452381Y-55163095D01*
X79452381Y-54782142D01*
X79500000Y-54686904D01*
X79547619Y-54639285D01*
X79642857Y-54591666D01*
X79785714Y-54591666D01*
X79880952Y-54639285D01*
X79928571Y-54686904D01*
X79976190Y-54782142D01*
X79976190Y-55163095D01*
X80452381Y-54115476D02*
X80452381Y-53925000D01*
X80404762Y-53829761D01*
X80357143Y-53782142D01*
X80214286Y-53686904D01*
X80023810Y-53639285D01*
X79642857Y-53639285D01*
X79547619Y-53686904D01*
X79500000Y-53734523D01*
X79452381Y-53829761D01*
X79452381Y-54020238D01*
X79500000Y-54115476D01*
X79547619Y-54163095D01*
X79642857Y-54210714D01*
X79880952Y-54210714D01*
X79976190Y-54163095D01*
X80023810Y-54115476D01*
X80071429Y-54020238D01*
X80071429Y-53829761D01*
X80023810Y-53734523D01*
X79976190Y-53686904D01*
X79880952Y-53639285D01*
X84452381Y-55642857D02*
X83976190Y-55976191D01*
X84452381Y-56214286D02*
X83452381Y-56214286D01*
X83452381Y-55833333D01*
X83500000Y-55738095D01*
X83547619Y-55690476D01*
X83642857Y-55642857D01*
X83785714Y-55642857D01*
X83880952Y-55690476D01*
X83928571Y-55738095D01*
X83976190Y-55833333D01*
X83976190Y-56214286D01*
X84452381Y-54690476D02*
X84452381Y-55261905D01*
X84452381Y-54976191D02*
X83452381Y-54976191D01*
X83595238Y-55071429D01*
X83690476Y-55166667D01*
X83738095Y-55261905D01*
X83452381Y-54071429D02*
X83452381Y-53976190D01*
X83500000Y-53880952D01*
X83547619Y-53833333D01*
X83642857Y-53785714D01*
X83833333Y-53738095D01*
X84071429Y-53738095D01*
X84261905Y-53785714D01*
X84357143Y-53833333D01*
X84404762Y-53880952D01*
X84452381Y-53976190D01*
X84452381Y-54071429D01*
X84404762Y-54166667D01*
X84357143Y-54214286D01*
X84261905Y-54261905D01*
X84071429Y-54309524D01*
X83833333Y-54309524D01*
X83642857Y-54261905D01*
X83547619Y-54214286D01*
X83500000Y-54166667D01*
X83452381Y-54071429D01*
X88452381Y-55642857D02*
X87976190Y-55976191D01*
X88452381Y-56214286D02*
X87452381Y-56214286D01*
X87452381Y-55833333D01*
X87500000Y-55738095D01*
X87547619Y-55690476D01*
X87642857Y-55642857D01*
X87785714Y-55642857D01*
X87880952Y-55690476D01*
X87928571Y-55738095D01*
X87976190Y-55833333D01*
X87976190Y-56214286D01*
X88452381Y-54690476D02*
X88452381Y-55261905D01*
X88452381Y-54976191D02*
X87452381Y-54976191D01*
X87595238Y-55071429D01*
X87690476Y-55166667D01*
X87738095Y-55261905D01*
X88452381Y-53738095D02*
X88452381Y-54309524D01*
X88452381Y-54023810D02*
X87452381Y-54023810D01*
X87595238Y-54119048D01*
X87690476Y-54214286D01*
X87738095Y-54309524D01*
X92452381Y-55642857D02*
X91976190Y-55976191D01*
X92452381Y-56214286D02*
X91452381Y-56214286D01*
X91452381Y-55833333D01*
X91500000Y-55738095D01*
X91547619Y-55690476D01*
X91642857Y-55642857D01*
X91785714Y-55642857D01*
X91880952Y-55690476D01*
X91928571Y-55738095D01*
X91976190Y-55833333D01*
X91976190Y-56214286D01*
X92452381Y-54690476D02*
X92452381Y-55261905D01*
X92452381Y-54976191D02*
X91452381Y-54976191D01*
X91595238Y-55071429D01*
X91690476Y-55166667D01*
X91738095Y-55261905D01*
X91547619Y-54309524D02*
X91500000Y-54261905D01*
X91452381Y-54166667D01*
X91452381Y-53928571D01*
X91500000Y-53833333D01*
X91547619Y-53785714D01*
X91642857Y-53738095D01*
X91738095Y-53738095D01*
X91880952Y-53785714D01*
X92452381Y-54357143D01*
X92452381Y-53738095D01*
X96452381Y-55642857D02*
X95976190Y-55976191D01*
X96452381Y-56214286D02*
X95452381Y-56214286D01*
X95452381Y-55833333D01*
X95500000Y-55738095D01*
X95547619Y-55690476D01*
X95642857Y-55642857D01*
X95785714Y-55642857D01*
X95880952Y-55690476D01*
X95928571Y-55738095D01*
X95976190Y-55833333D01*
X95976190Y-56214286D01*
X96452381Y-54690476D02*
X96452381Y-55261905D01*
X96452381Y-54976191D02*
X95452381Y-54976191D01*
X95595238Y-55071429D01*
X95690476Y-55166667D01*
X95738095Y-55261905D01*
X95452381Y-54357143D02*
X95452381Y-53738095D01*
X95833333Y-54071429D01*
X95833333Y-53928571D01*
X95880952Y-53833333D01*
X95928571Y-53785714D01*
X96023810Y-53738095D01*
X96261905Y-53738095D01*
X96357143Y-53785714D01*
X96404762Y-53833333D01*
X96452381Y-53928571D01*
X96452381Y-54214286D01*
X96404762Y-54309524D01*
X96357143Y-54357143D01*
X81321429Y-88452381D02*
X81321429Y-87452381D01*
X81654763Y-88166667D01*
X81988096Y-87452381D01*
X81988096Y-88452381D01*
X82416667Y-88404762D02*
X82559524Y-88452381D01*
X82797620Y-88452381D01*
X82892858Y-88404762D01*
X82940477Y-88357143D01*
X82988096Y-88261905D01*
X82988096Y-88166667D01*
X82940477Y-88071429D01*
X82892858Y-88023810D01*
X82797620Y-87976190D01*
X82607143Y-87928571D01*
X82511905Y-87880952D01*
X82464286Y-87833333D01*
X82416667Y-87738095D01*
X82416667Y-87642857D01*
X82464286Y-87547619D01*
X82511905Y-87500000D01*
X82607143Y-87452381D01*
X82845239Y-87452381D01*
X82988096Y-87500000D01*
X83607143Y-87452381D02*
X83797620Y-87452381D01*
X83892858Y-87500000D01*
X83988096Y-87595238D01*
X84035715Y-87785714D01*
X84035715Y-88119048D01*
X83988096Y-88309524D01*
X83892858Y-88404762D01*
X83797620Y-88452381D01*
X83607143Y-88452381D01*
X83511905Y-88404762D01*
X83416667Y-88309524D01*
X83369048Y-88119048D01*
X83369048Y-87785714D01*
X83416667Y-87595238D01*
X83511905Y-87500000D01*
X83607143Y-87452381D01*
X84464286Y-88452381D02*
X84464286Y-87452381D01*
X84845239Y-87452381D01*
X84940477Y-87500000D01*
X84988096Y-87547619D01*
X85035715Y-87642857D01*
X85035715Y-87785714D01*
X84988096Y-87880952D01*
X84940477Y-87928571D01*
X84845239Y-87976190D01*
X84464286Y-87976190D01*
X85464286Y-88071429D02*
X86226191Y-88071429D01*
X86845238Y-87880952D02*
X86750000Y-87833333D01*
X86702381Y-87785714D01*
X86654762Y-87690476D01*
X86654762Y-87642857D01*
X86702381Y-87547619D01*
X86750000Y-87500000D01*
X86845238Y-87452381D01*
X87035715Y-87452381D01*
X87130953Y-87500000D01*
X87178572Y-87547619D01*
X87226191Y-87642857D01*
X87226191Y-87690476D01*
X87178572Y-87785714D01*
X87130953Y-87833333D01*
X87035715Y-87880952D01*
X86845238Y-87880952D01*
X86750000Y-87928571D01*
X86702381Y-87976190D01*
X86654762Y-88071429D01*
X86654762Y-88261905D01*
X86702381Y-88357143D01*
X86750000Y-88404762D01*
X86845238Y-88452381D01*
X87035715Y-88452381D01*
X87130953Y-88404762D01*
X87178572Y-88357143D01*
X87226191Y-88261905D01*
X87226191Y-88071429D01*
X87178572Y-87976190D01*
X87130953Y-87928571D01*
X87035715Y-87880952D01*
X83535715Y-83352381D02*
X83059524Y-83352381D01*
X83059524Y-82352381D01*
X84535715Y-83447619D02*
X84440477Y-83400000D01*
X84345239Y-83304762D01*
X84202382Y-83161905D01*
X84107143Y-83114286D01*
X84011905Y-83114286D01*
X84059524Y-83352381D02*
X83964286Y-83304762D01*
X83869048Y-83209524D01*
X83821429Y-83019048D01*
X83821429Y-82685714D01*
X83869048Y-82495238D01*
X83964286Y-82400000D01*
X84059524Y-82352381D01*
X84250001Y-82352381D01*
X84345239Y-82400000D01*
X84440477Y-82495238D01*
X84488096Y-82685714D01*
X84488096Y-83019048D01*
X84440477Y-83209524D01*
X84345239Y-83304762D01*
X84250001Y-83352381D01*
X84059524Y-83352381D01*
X85250001Y-82828571D02*
X84916667Y-82828571D01*
X84916667Y-83352381D02*
X84916667Y-82352381D01*
X85392858Y-82352381D01*
X85773810Y-83352381D02*
X85773810Y-82352381D01*
X86154763Y-82352381D01*
X86250001Y-82400000D01*
X86297620Y-82447619D01*
X86345239Y-82542857D01*
X86345239Y-82685714D01*
X86297620Y-82780952D01*
X86250001Y-82828571D01*
X86154763Y-82876190D01*
X85773810Y-82876190D01*
X86773810Y-82971429D02*
X87535715Y-82971429D01*
X88440477Y-82685714D02*
X88440477Y-83352381D01*
X88202381Y-82304762D02*
X87964286Y-83019048D01*
X88583334Y-83019048D01*
X89107143Y-82780952D02*
X89011905Y-82733333D01*
X88964286Y-82685714D01*
X88916667Y-82590476D01*
X88916667Y-82542857D01*
X88964286Y-82447619D01*
X89011905Y-82400000D01*
X89107143Y-82352381D01*
X89297620Y-82352381D01*
X89392858Y-82400000D01*
X89440477Y-82447619D01*
X89488096Y-82542857D01*
X89488096Y-82590476D01*
X89440477Y-82685714D01*
X89392858Y-82733333D01*
X89297620Y-82780952D01*
X89107143Y-82780952D01*
X89011905Y-82828571D01*
X88964286Y-82876190D01*
X88916667Y-82971429D01*
X88916667Y-83161905D01*
X88964286Y-83257143D01*
X89011905Y-83304762D01*
X89107143Y-83352381D01*
X89297620Y-83352381D01*
X89392858Y-83304762D01*
X89440477Y-83257143D01*
X89488096Y-83161905D01*
X89488096Y-82971429D01*
X89440477Y-82876190D01*
X89392858Y-82828571D01*
X89297620Y-82780952D01*
X68809524Y-91352381D02*
X68333333Y-91352381D01*
X68333333Y-90352381D01*
X69809524Y-91447619D02*
X69714286Y-91400000D01*
X69619048Y-91304762D01*
X69476191Y-91161905D01*
X69380952Y-91114286D01*
X69285714Y-91114286D01*
X69333333Y-91352381D02*
X69238095Y-91304762D01*
X69142857Y-91209524D01*
X69095238Y-91019048D01*
X69095238Y-90685714D01*
X69142857Y-90495238D01*
X69238095Y-90400000D01*
X69333333Y-90352381D01*
X69523810Y-90352381D01*
X69619048Y-90400000D01*
X69714286Y-90495238D01*
X69761905Y-90685714D01*
X69761905Y-91019048D01*
X69714286Y-91209524D01*
X69619048Y-91304762D01*
X69523810Y-91352381D01*
X69333333Y-91352381D01*
X70523810Y-90828571D02*
X70190476Y-90828571D01*
X70190476Y-91352381D02*
X70190476Y-90352381D01*
X70666667Y-90352381D01*
X71047619Y-91352381D02*
X71047619Y-90352381D01*
X71428572Y-90352381D01*
X71523810Y-90400000D01*
X71571429Y-90447619D01*
X71619048Y-90542857D01*
X71619048Y-90685714D01*
X71571429Y-90780952D01*
X71523810Y-90828571D01*
X71428572Y-90876190D01*
X71047619Y-90876190D01*
X72047619Y-90971429D02*
X72809524Y-90971429D01*
X73809524Y-91352381D02*
X73238095Y-91352381D01*
X73523809Y-91352381D02*
X73523809Y-90352381D01*
X73428571Y-90495238D01*
X73333333Y-90590476D01*
X73238095Y-90638095D01*
X74428571Y-90352381D02*
X74523810Y-90352381D01*
X74619048Y-90400000D01*
X74666667Y-90447619D01*
X74714286Y-90542857D01*
X74761905Y-90733333D01*
X74761905Y-90971429D01*
X74714286Y-91161905D01*
X74666667Y-91257143D01*
X74619048Y-91304762D01*
X74523810Y-91352381D01*
X74428571Y-91352381D01*
X74333333Y-91304762D01*
X74285714Y-91257143D01*
X74238095Y-91161905D01*
X74190476Y-90971429D01*
X74190476Y-90733333D01*
X74238095Y-90542857D01*
X74285714Y-90447619D01*
X74333333Y-90400000D01*
X74428571Y-90352381D01*
X75380952Y-90352381D02*
X75476191Y-90352381D01*
X75571429Y-90400000D01*
X75619048Y-90447619D01*
X75666667Y-90542857D01*
X75714286Y-90733333D01*
X75714286Y-90971429D01*
X75666667Y-91161905D01*
X75619048Y-91257143D01*
X75571429Y-91304762D01*
X75476191Y-91352381D01*
X75380952Y-91352381D01*
X75285714Y-91304762D01*
X75238095Y-91257143D01*
X75190476Y-91161905D01*
X75142857Y-90971429D01*
X75142857Y-90733333D01*
X75190476Y-90542857D01*
X75238095Y-90447619D01*
X75285714Y-90400000D01*
X75380952Y-90352381D01*
X70452381Y-59238095D02*
X69452381Y-59238095D01*
X69452381Y-59000000D01*
X69500000Y-58857142D01*
X69595238Y-58761904D01*
X69690476Y-58714285D01*
X69880952Y-58666666D01*
X70023810Y-58666666D01*
X70214286Y-58714285D01*
X70309524Y-58761904D01*
X70404762Y-58857142D01*
X70452381Y-59000000D01*
X70452381Y-59238095D01*
X69547619Y-58285714D02*
X69500000Y-58238095D01*
X69452381Y-58142857D01*
X69452381Y-57904761D01*
X69500000Y-57809523D01*
X69547619Y-57761904D01*
X69642857Y-57714285D01*
X69738095Y-57714285D01*
X69880952Y-57761904D01*
X70452381Y-58333333D01*
X70452381Y-57714285D01*
X66452381Y-59238095D02*
X65452381Y-59238095D01*
X65452381Y-59000000D01*
X65500000Y-58857142D01*
X65595238Y-58761904D01*
X65690476Y-58714285D01*
X65880952Y-58666666D01*
X66023810Y-58666666D01*
X66214286Y-58714285D01*
X66309524Y-58761904D01*
X66404762Y-58857142D01*
X66452381Y-59000000D01*
X66452381Y-59238095D01*
X65452381Y-58333333D02*
X65452381Y-57714285D01*
X65833333Y-58047619D01*
X65833333Y-57904761D01*
X65880952Y-57809523D01*
X65928571Y-57761904D01*
X66023810Y-57714285D01*
X66261905Y-57714285D01*
X66357143Y-57761904D01*
X66404762Y-57809523D01*
X66452381Y-57904761D01*
X66452381Y-58190476D01*
X66404762Y-58285714D01*
X66357143Y-58333333D01*
X62452381Y-59238095D02*
X61452381Y-59238095D01*
X61452381Y-59000000D01*
X61500000Y-58857142D01*
X61595238Y-58761904D01*
X61690476Y-58714285D01*
X61880952Y-58666666D01*
X62023810Y-58666666D01*
X62214286Y-58714285D01*
X62309524Y-58761904D01*
X62404762Y-58857142D01*
X62452381Y-59000000D01*
X62452381Y-59238095D01*
X61785714Y-57809523D02*
X62452381Y-57809523D01*
X61404762Y-58047619D02*
X62119048Y-58285714D01*
X62119048Y-57666666D01*
X58452381Y-59238095D02*
X57452381Y-59238095D01*
X57452381Y-59000000D01*
X57500000Y-58857142D01*
X57595238Y-58761904D01*
X57690476Y-58714285D01*
X57880952Y-58666666D01*
X58023810Y-58666666D01*
X58214286Y-58714285D01*
X58309524Y-58761904D01*
X58404762Y-58857142D01*
X58452381Y-59000000D01*
X58452381Y-59238095D01*
X57452381Y-57761904D02*
X57452381Y-58238095D01*
X57928571Y-58285714D01*
X57880952Y-58238095D01*
X57833333Y-58142857D01*
X57833333Y-57904761D01*
X57880952Y-57809523D01*
X57928571Y-57761904D01*
X58023810Y-57714285D01*
X58261905Y-57714285D01*
X58357143Y-57761904D01*
X58404762Y-57809523D01*
X58452381Y-57904761D01*
X58452381Y-58142857D01*
X58404762Y-58238095D01*
X58357143Y-58285714D01*
X90452381Y-59238095D02*
X89452381Y-59238095D01*
X89452381Y-59000000D01*
X89500000Y-58857142D01*
X89595238Y-58761904D01*
X89690476Y-58714285D01*
X89880952Y-58666666D01*
X90023810Y-58666666D01*
X90214286Y-58714285D01*
X90309524Y-58761904D01*
X90404762Y-58857142D01*
X90452381Y-59000000D01*
X90452381Y-59238095D01*
X89452381Y-58333333D02*
X89452381Y-57666666D01*
X90452381Y-58095238D01*
X86452381Y-59238095D02*
X85452381Y-59238095D01*
X85452381Y-59000000D01*
X85500000Y-58857142D01*
X85595238Y-58761904D01*
X85690476Y-58714285D01*
X85880952Y-58666666D01*
X86023810Y-58666666D01*
X86214286Y-58714285D01*
X86309524Y-58761904D01*
X86404762Y-58857142D01*
X86452381Y-59000000D01*
X86452381Y-59238095D01*
X85880952Y-58095238D02*
X85833333Y-58190476D01*
X85785714Y-58238095D01*
X85690476Y-58285714D01*
X85642857Y-58285714D01*
X85547619Y-58238095D01*
X85500000Y-58190476D01*
X85452381Y-58095238D01*
X85452381Y-57904761D01*
X85500000Y-57809523D01*
X85547619Y-57761904D01*
X85642857Y-57714285D01*
X85690476Y-57714285D01*
X85785714Y-57761904D01*
X85833333Y-57809523D01*
X85880952Y-57904761D01*
X85880952Y-58095238D01*
X85928571Y-58190476D01*
X85976190Y-58238095D01*
X86071429Y-58285714D01*
X86261905Y-58285714D01*
X86357143Y-58238095D01*
X86404762Y-58190476D01*
X86452381Y-58095238D01*
X86452381Y-57904761D01*
X86404762Y-57809523D01*
X86357143Y-57761904D01*
X86261905Y-57714285D01*
X86071429Y-57714285D01*
X85976190Y-57761904D01*
X85928571Y-57809523D01*
X85880952Y-57904761D01*
X82452381Y-59238095D02*
X81452381Y-59238095D01*
X81452381Y-59000000D01*
X81500000Y-58857142D01*
X81595238Y-58761904D01*
X81690476Y-58714285D01*
X81880952Y-58666666D01*
X82023810Y-58666666D01*
X82214286Y-58714285D01*
X82309524Y-58761904D01*
X82404762Y-58857142D01*
X82452381Y-59000000D01*
X82452381Y-59238095D01*
X82452381Y-58190476D02*
X82452381Y-58000000D01*
X82404762Y-57904761D01*
X82357143Y-57857142D01*
X82214286Y-57761904D01*
X82023810Y-57714285D01*
X81642857Y-57714285D01*
X81547619Y-57761904D01*
X81500000Y-57809523D01*
X81452381Y-57904761D01*
X81452381Y-58095238D01*
X81500000Y-58190476D01*
X81547619Y-58238095D01*
X81642857Y-58285714D01*
X81880952Y-58285714D01*
X81976190Y-58238095D01*
X82023810Y-58190476D01*
X82071429Y-58095238D01*
X82071429Y-57904761D01*
X82023810Y-57809523D01*
X81976190Y-57761904D01*
X81880952Y-57714285D01*
X78452381Y-59214286D02*
X77452381Y-59214286D01*
X77452381Y-58976191D01*
X77500000Y-58833333D01*
X77595238Y-58738095D01*
X77690476Y-58690476D01*
X77880952Y-58642857D01*
X78023810Y-58642857D01*
X78214286Y-58690476D01*
X78309524Y-58738095D01*
X78404762Y-58833333D01*
X78452381Y-58976191D01*
X78452381Y-59214286D01*
X78452381Y-57690476D02*
X78452381Y-58261905D01*
X78452381Y-57976191D02*
X77452381Y-57976191D01*
X77595238Y-58071429D01*
X77690476Y-58166667D01*
X77738095Y-58261905D01*
X77452381Y-57071429D02*
X77452381Y-56976190D01*
X77500000Y-56880952D01*
X77547619Y-56833333D01*
X77642857Y-56785714D01*
X77833333Y-56738095D01*
X78071429Y-56738095D01*
X78261905Y-56785714D01*
X78357143Y-56833333D01*
X78404762Y-56880952D01*
X78452381Y-56976190D01*
X78452381Y-57071429D01*
X78404762Y-57166667D01*
X78357143Y-57214286D01*
X78261905Y-57261905D01*
X78071429Y-57309524D01*
X77833333Y-57309524D01*
X77642857Y-57261905D01*
X77547619Y-57214286D01*
X77500000Y-57166667D01*
X77452381Y-57071429D01*
X74452381Y-59238095D02*
X73452381Y-59238095D01*
X73452381Y-59000000D01*
X73500000Y-58857142D01*
X73595238Y-58761904D01*
X73690476Y-58714285D01*
X73880952Y-58666666D01*
X74023810Y-58666666D01*
X74214286Y-58714285D01*
X74309524Y-58761904D01*
X74404762Y-58857142D01*
X74452381Y-59000000D01*
X74452381Y-59238095D01*
X74452381Y-57714285D02*
X74452381Y-58285714D01*
X74452381Y-58000000D02*
X73452381Y-58000000D01*
X73595238Y-58095238D01*
X73690476Y-58190476D01*
X73738095Y-58285714D01*
X94452382Y-59238095D02*
X93452382Y-59238095D01*
X93452382Y-59000000D01*
X93500001Y-58857142D01*
X93595239Y-58761904D01*
X93690477Y-58714285D01*
X93880953Y-58666666D01*
X94023811Y-58666666D01*
X94214287Y-58714285D01*
X94309525Y-58761904D01*
X94404763Y-58857142D01*
X94452382Y-59000000D01*
X94452382Y-59238095D01*
X93452382Y-57809523D02*
X93452382Y-58000000D01*
X93500001Y-58095238D01*
X93547620Y-58142857D01*
X93690477Y-58238095D01*
X93880953Y-58285714D01*
X94261906Y-58285714D01*
X94357144Y-58238095D01*
X94404763Y-58190476D01*
X94452382Y-58095238D01*
X94452382Y-57904761D01*
X94404763Y-57809523D01*
X94357144Y-57761904D01*
X94261906Y-57714285D01*
X94023811Y-57714285D01*
X93928572Y-57761904D01*
X93880953Y-57809523D01*
X93833334Y-57904761D01*
X93833334Y-58095238D01*
X93880953Y-58190476D01*
X93928572Y-58238095D01*
X94023811Y-58285714D01*
X53166667Y-68052381D02*
X53166667Y-68766667D01*
X53119047Y-68909524D01*
X53023809Y-69004762D01*
X52880952Y-69052381D01*
X52785714Y-69052381D01*
X54166667Y-69052381D02*
X53595238Y-69052381D01*
X53880952Y-69052381D02*
X53880952Y-68052381D01*
X53785714Y-68195238D01*
X53690476Y-68290476D01*
X53595238Y-68338095D01*
X93607143Y-80897619D02*
X93511905Y-80850000D01*
X93416667Y-80754762D01*
X93273810Y-80611905D01*
X93178571Y-80564286D01*
X93083333Y-80564286D01*
X93130952Y-80802381D02*
X93035714Y-80754762D01*
X92940476Y-80659524D01*
X92892857Y-80469048D01*
X92892857Y-80135714D01*
X92940476Y-79945238D01*
X93035714Y-79850000D01*
X93130952Y-79802381D01*
X93321429Y-79802381D01*
X93416667Y-79850000D01*
X93511905Y-79945238D01*
X93559524Y-80135714D01*
X93559524Y-80469048D01*
X93511905Y-80659524D01*
X93416667Y-80754762D01*
X93321429Y-80802381D01*
X93130952Y-80802381D01*
X94321429Y-80278571D02*
X93988095Y-80278571D01*
X93988095Y-80802381D02*
X93988095Y-79802381D01*
X94464286Y-79802381D01*
X94845238Y-80802381D02*
X94845238Y-79802381D01*
X95416667Y-80802381D01*
X95416667Y-79802381D01*
X95892857Y-80421429D02*
X96654762Y-80421429D01*
X97559524Y-80135714D02*
X97559524Y-80802381D01*
X97321428Y-79754762D02*
X97083333Y-80469048D01*
X97702381Y-80469048D01*
X98226190Y-80230952D02*
X98130952Y-80183333D01*
X98083333Y-80135714D01*
X98035714Y-80040476D01*
X98035714Y-79992857D01*
X98083333Y-79897619D01*
X98130952Y-79850000D01*
X98226190Y-79802381D01*
X98416667Y-79802381D01*
X98511905Y-79850000D01*
X98559524Y-79897619D01*
X98607143Y-79992857D01*
X98607143Y-80040476D01*
X98559524Y-80135714D01*
X98511905Y-80183333D01*
X98416667Y-80230952D01*
X98226190Y-80230952D01*
X98130952Y-80278571D01*
X98083333Y-80326190D01*
X98035714Y-80421429D01*
X98035714Y-80611905D01*
X98083333Y-80707143D01*
X98130952Y-80754762D01*
X98226190Y-80802381D01*
X98416667Y-80802381D01*
X98511905Y-80754762D01*
X98559524Y-80707143D01*
X98607143Y-80611905D01*
X98607143Y-80421429D01*
X98559524Y-80326190D01*
X98511905Y-80278571D01*
X98416667Y-80230952D01*
%LPC*%
D13*
X73400000Y-69000000D03*
X71600000Y-69000000D03*
X58900000Y-61000000D03*
X57100000Y-61000000D03*
X82400000Y-69000000D03*
X80600000Y-69000000D03*
D14*
X86000000Y-62600000D03*
X86000000Y-64400000D03*
X93500000Y-64400000D03*
X93500000Y-62600000D03*
X54000000Y-51100000D03*
X54000000Y-52900000D03*
X58000000Y-51100000D03*
X58000000Y-52900000D03*
X62000000Y-51100000D03*
X62000000Y-52900000D03*
X66000000Y-51100000D03*
X66000000Y-52900000D03*
X70000000Y-51100000D03*
X70000000Y-52900000D03*
X74000000Y-51100000D03*
X74000000Y-52900000D03*
X78000000Y-51100000D03*
X78000000Y-52900000D03*
X82000000Y-51100000D03*
X82000000Y-52900000D03*
X86000000Y-51100000D03*
X86000000Y-52900000D03*
X90000000Y-51100000D03*
X90000000Y-52900000D03*
X94000000Y-51100000D03*
X94000000Y-52900000D03*
D15*
X73445000Y-60800000D03*
X72175000Y-60800000D03*
X70905000Y-60800000D03*
X69635000Y-60800000D03*
X68365000Y-60800000D03*
X67095000Y-60800000D03*
X65825000Y-60800000D03*
X64555000Y-60800000D03*
X64555000Y-66200000D03*
X65825000Y-66200000D03*
X67095000Y-66200000D03*
X68365000Y-66200000D03*
X69635000Y-66200000D03*
X70905000Y-66200000D03*
X72175000Y-66200000D03*
X73445000Y-66200000D03*
X82405000Y-60800000D03*
X81135000Y-60800000D03*
X79865000Y-60800000D03*
X78595000Y-60800000D03*
X78595000Y-66200000D03*
X79865000Y-66200000D03*
X81135000Y-66200000D03*
X82405000Y-66200000D03*
D14*
X88500000Y-62600000D03*
X88500000Y-64400000D03*
X91000000Y-62600000D03*
X91000000Y-64400000D03*
X56000000Y-52900000D03*
X56000000Y-51100000D03*
X60000000Y-52900000D03*
X60000000Y-51100000D03*
X64000000Y-52900000D03*
X64000000Y-51100000D03*
X68000000Y-52900000D03*
X68000000Y-51100000D03*
X72000000Y-52900000D03*
X72000000Y-51100000D03*
X76000000Y-52900000D03*
X76000000Y-51100000D03*
X80000000Y-52900000D03*
X80000000Y-51100000D03*
X84000000Y-52900000D03*
X84000000Y-51100000D03*
X88000000Y-52900000D03*
X88000000Y-51100000D03*
X92000000Y-52900000D03*
X92000000Y-51100000D03*
X96000000Y-52900000D03*
X96000000Y-51100000D03*
D16*
X68000000Y-94770000D03*
X68000000Y-95430000D03*
X68000000Y-96470000D03*
X68000000Y-97130000D03*
X68000000Y-98170000D03*
X68000000Y-98830000D03*
D17*
X75900000Y-93650000D03*
X75900000Y-94550000D03*
X75900000Y-95750000D03*
X75900000Y-96650000D03*
X75900000Y-97850000D03*
X75900000Y-98750000D03*
D18*
X86200000Y-90800000D03*
X86200000Y-92400000D03*
X86200000Y-93900000D03*
X86200000Y-95500000D03*
X86200000Y-97000000D03*
X86200000Y-98600000D03*
D14*
X94000000Y-89700000D03*
X94000000Y-91500000D03*
X94000000Y-93200000D03*
X94000000Y-95000000D03*
X94000000Y-96700000D03*
X94000000Y-98500000D03*
D19*
X96200000Y-86100000D03*
X96200000Y-89100000D03*
X96200000Y-90800000D03*
X96200000Y-93800000D03*
X96200000Y-95500000D03*
X96200000Y-98500000D03*
D16*
X67000000Y-94770000D03*
X67000000Y-95430000D03*
X67000000Y-96470000D03*
X67000000Y-97130000D03*
X67000000Y-98170000D03*
X67000000Y-98830000D03*
D17*
X74700000Y-93650000D03*
X74700000Y-94550000D03*
X74700000Y-95750000D03*
X74700000Y-96650000D03*
X74700000Y-97850000D03*
X74700000Y-98750000D03*
D18*
X84700000Y-90800000D03*
X84700000Y-92400000D03*
X84700000Y-93900000D03*
X84700000Y-95500000D03*
X84700000Y-97000000D03*
X84700000Y-98600000D03*
D14*
X92000000Y-89700000D03*
X92000000Y-91500000D03*
X92000000Y-93200000D03*
X92000000Y-95000000D03*
X92000000Y-96700000D03*
X92000000Y-98500000D03*
D19*
X98500000Y-86100000D03*
X98500000Y-89100000D03*
X98500000Y-90800000D03*
X98500000Y-93800000D03*
X98500000Y-95500000D03*
X98500000Y-98500000D03*
D16*
X66000000Y-94770000D03*
X66000000Y-95430000D03*
X66000000Y-96470000D03*
X66000000Y-97130000D03*
X66000000Y-98170000D03*
X66000000Y-98830000D03*
D17*
X73500000Y-93650000D03*
X73500000Y-94550000D03*
X73500000Y-95750000D03*
X73500000Y-96650000D03*
X73500000Y-97850000D03*
X73500000Y-98750000D03*
D18*
X83200000Y-90800000D03*
X83200000Y-92400000D03*
X83200000Y-93900000D03*
X83200000Y-95500000D03*
X83200000Y-97000000D03*
X83200000Y-98600000D03*
D14*
X90000000Y-89700000D03*
X90000000Y-91500000D03*
X90000000Y-93200000D03*
X90000000Y-95000000D03*
X90000000Y-96700000D03*
X90000000Y-98500000D03*
D16*
X65000000Y-94770000D03*
X65000000Y-95430000D03*
X65000000Y-96470000D03*
X65000000Y-97130000D03*
X65000000Y-98170000D03*
X65000000Y-98830000D03*
D17*
X72300000Y-93650000D03*
X72300000Y-94550000D03*
X72300000Y-95750000D03*
X72300000Y-96650000D03*
X72300000Y-97850000D03*
X72300000Y-98750000D03*
D18*
X81700000Y-90800000D03*
X81700000Y-92400000D03*
X81700000Y-93900000D03*
X81700000Y-95500000D03*
X81700000Y-97000000D03*
X81700000Y-98600000D03*
D20*
X82050000Y-84525000D03*
X82050000Y-85175000D03*
X82050000Y-85825000D03*
X82050000Y-86475000D03*
X86450000Y-86475000D03*
X86450000Y-85825000D03*
X86450000Y-85175000D03*
X86450000Y-84525000D03*
D21*
X82050000Y-74250000D03*
X82050000Y-74750000D03*
X82050000Y-75250000D03*
X82050000Y-75750000D03*
X82050000Y-76250000D03*
X82050000Y-76750000D03*
X82050000Y-77250000D03*
X82050000Y-77750000D03*
X82050000Y-78250000D03*
X82050000Y-78750000D03*
X82050000Y-79250000D03*
X82050000Y-79750000D03*
D22*
X83500000Y-81200000D03*
X84000000Y-81200000D03*
X84500000Y-81200000D03*
X85000000Y-81200000D03*
X85500000Y-81200000D03*
X86000000Y-81200000D03*
X86500000Y-81200000D03*
X87000000Y-81200000D03*
X87500000Y-81200000D03*
X88000000Y-81200000D03*
X88500000Y-81200000D03*
X89000000Y-81200000D03*
D21*
X90450000Y-79750000D03*
X90450000Y-79250000D03*
X90450000Y-78750000D03*
X90450000Y-78250000D03*
X90450000Y-77750000D03*
X90450000Y-77250000D03*
X90450000Y-76750000D03*
X90450000Y-76250000D03*
X90450000Y-75750000D03*
X90450000Y-75250000D03*
X90450000Y-74750000D03*
X90450000Y-74250000D03*
D22*
X89000000Y-72800000D03*
X88500000Y-72800000D03*
X88000000Y-72800000D03*
X87500000Y-72800000D03*
X87000000Y-72800000D03*
X86500000Y-72800000D03*
X86000000Y-72800000D03*
X85500000Y-72800000D03*
X85000000Y-72800000D03*
X84500000Y-72800000D03*
X84000000Y-72800000D03*
X83500000Y-72800000D03*
D21*
X64300000Y-75500000D03*
X64300000Y-76000000D03*
X64300000Y-76500000D03*
X64300000Y-77000000D03*
X64300000Y-77500000D03*
X64300000Y-78000000D03*
X64300000Y-78500000D03*
X64300000Y-79000000D03*
X64300000Y-79500000D03*
X64300000Y-80000000D03*
X64300000Y-80500000D03*
X64300000Y-81000000D03*
X64300000Y-81500000D03*
X64300000Y-82000000D03*
X64300000Y-82500000D03*
X64300000Y-83000000D03*
X64300000Y-83500000D03*
X64300000Y-84000000D03*
X64300000Y-84500000D03*
X64300000Y-85000000D03*
X64300000Y-85500000D03*
X64300000Y-86000000D03*
X64300000Y-86500000D03*
X64300000Y-87000000D03*
X64300000Y-87500000D03*
D22*
X66000000Y-89200000D03*
X66500000Y-89200000D03*
X67000000Y-89200000D03*
X67500000Y-89200000D03*
X68000000Y-89200000D03*
X68500000Y-89200000D03*
X69000000Y-89200000D03*
X69500000Y-89200000D03*
X70000000Y-89200000D03*
X70500000Y-89200000D03*
X71000000Y-89200000D03*
X71500000Y-89200000D03*
X72000000Y-89200000D03*
X72500000Y-89200000D03*
X73000000Y-89200000D03*
X73500000Y-89200000D03*
X74000000Y-89200000D03*
X74500000Y-89200000D03*
X75000000Y-89200000D03*
X75500000Y-89200000D03*
X76000000Y-89200000D03*
X76500000Y-89200000D03*
X77000000Y-89200000D03*
X77500000Y-89200000D03*
X78000000Y-89200000D03*
D21*
X79700000Y-87500000D03*
X79700000Y-87000000D03*
X79700000Y-86500000D03*
X79700000Y-86000000D03*
X79700000Y-85500000D03*
X79700000Y-85000000D03*
X79700000Y-84500000D03*
X79700000Y-84000000D03*
X79700000Y-83500000D03*
X79700000Y-83000000D03*
X79700000Y-82500000D03*
X79700000Y-82000000D03*
X79700000Y-81500000D03*
X79700000Y-81000000D03*
X79700000Y-80500000D03*
X79700000Y-80000000D03*
X79700000Y-79500000D03*
X79700000Y-79000000D03*
X79700000Y-78500000D03*
X79700000Y-78000000D03*
X79700000Y-77500000D03*
X79700000Y-77000000D03*
X79700000Y-76500000D03*
X79700000Y-76000000D03*
X79700000Y-75500000D03*
D22*
X78000000Y-73800000D03*
X77500000Y-73800000D03*
X77000000Y-73800000D03*
X76500000Y-73800000D03*
X76000000Y-73800000D03*
X75500000Y-73800000D03*
X75000000Y-73800000D03*
X74500000Y-73800000D03*
X74000000Y-73800000D03*
X73500000Y-73800000D03*
X73000000Y-73800000D03*
X72500000Y-73800000D03*
X72000000Y-73800000D03*
X71500000Y-73800000D03*
X71000000Y-73800000D03*
X70500000Y-73800000D03*
X70000000Y-73800000D03*
X69500000Y-73800000D03*
X69000000Y-73800000D03*
X68500000Y-73800000D03*
X68000000Y-73800000D03*
X67500000Y-73800000D03*
X67000000Y-73800000D03*
X66500000Y-73800000D03*
X66000000Y-73800000D03*
D23*
X70000000Y-54200000D03*
X70000000Y-56800000D03*
X66000000Y-54200000D03*
X66000000Y-56800000D03*
X62000000Y-54200000D03*
X62000000Y-56800000D03*
X58000000Y-54200000D03*
X58000000Y-56800000D03*
X90000000Y-54200000D03*
X90000000Y-56800000D03*
X86000000Y-54200000D03*
X86000000Y-56800000D03*
X82000000Y-54200000D03*
X82000000Y-56800000D03*
X78000000Y-54200000D03*
X78000000Y-56800000D03*
D24*
X77100000Y-97400000D03*
X77100000Y-98800000D03*
X77100000Y-95000000D03*
X77100000Y-96400000D03*
X77100000Y-92600000D03*
X77100000Y-94000000D03*
X78200000Y-97400000D03*
X78200000Y-98800000D03*
X78200000Y-95000000D03*
X78200000Y-96400000D03*
X78200000Y-92600000D03*
X78200000Y-94000000D03*
X79300000Y-97400000D03*
X79300000Y-98800000D03*
X79300000Y-95000000D03*
X79300000Y-96400000D03*
X79300000Y-92600000D03*
X79300000Y-94000000D03*
X80400000Y-97400000D03*
X80400000Y-98800000D03*
X80400000Y-95000000D03*
X80400000Y-96400000D03*
X80400000Y-92600000D03*
X80400000Y-94000000D03*
D25*
X68900000Y-98100000D03*
X68900000Y-98900000D03*
X68900000Y-96500000D03*
X68900000Y-97300000D03*
X68900000Y-94900000D03*
X68900000Y-95700000D03*
X69700000Y-98100000D03*
X69700000Y-98900000D03*
X69700000Y-96500000D03*
X69700000Y-97300000D03*
X69700000Y-94900000D03*
X69700000Y-95700000D03*
X71300000Y-98100000D03*
X71300000Y-98900000D03*
X71300000Y-96500000D03*
X71300000Y-97300000D03*
X71300000Y-94900000D03*
X71300000Y-95700000D03*
X70500000Y-98100000D03*
X70500000Y-98900000D03*
X70500000Y-96500000D03*
X70500000Y-97300000D03*
X70500000Y-94900000D03*
X70500000Y-95700000D03*
D14*
X88000000Y-89700000D03*
X88000000Y-91500000D03*
X88000000Y-93200000D03*
X88000000Y-95000000D03*
X88000000Y-96700000D03*
X88000000Y-98500000D03*
D26*
X62400000Y-96020000D03*
X62400000Y-96580000D03*
X62400000Y-97220000D03*
X62400000Y-97780000D03*
X62400000Y-98420000D03*
X62400000Y-98980000D03*
X63000000Y-96020000D03*
X63000000Y-96580000D03*
X63000000Y-97220000D03*
X63000000Y-97780000D03*
X63000000Y-98420000D03*
X63000000Y-98980000D03*
X63600000Y-96020000D03*
X63600000Y-96580000D03*
X63600000Y-97220000D03*
X63600000Y-97780000D03*
X63600000Y-98420000D03*
X63600000Y-98980000D03*
X64200000Y-96020000D03*
X64200000Y-96580000D03*
X64200000Y-97220000D03*
X64200000Y-97780000D03*
X64200000Y-98420000D03*
X64200000Y-98980000D03*
D24*
X51500000Y-82700000D03*
X51500000Y-81300000D03*
X61000000Y-84700000D03*
X61000000Y-83300000D03*
X51500000Y-85900000D03*
X51500000Y-84500000D03*
D25*
X60000000Y-84400000D03*
X60000000Y-83600000D03*
X52500000Y-82500000D03*
X52500000Y-81700000D03*
X52500000Y-85800000D03*
X52500000Y-85000000D03*
D18*
X51600000Y-91700000D03*
X51600000Y-90100000D03*
X53100000Y-91700000D03*
X53100000Y-90100000D03*
X54600000Y-91700000D03*
X54600000Y-90100000D03*
D27*
X54500000Y-82000000D03*
X54500000Y-82500000D03*
X54500000Y-83000000D03*
X54500000Y-83500000D03*
X54500000Y-84000000D03*
X54500000Y-84500000D03*
X54500000Y-85000000D03*
X54500000Y-85500000D03*
X55000000Y-82000000D03*
X55000000Y-82500000D03*
X55000000Y-83000000D03*
X55000000Y-83500000D03*
X55000000Y-84000000D03*
X55000000Y-84500000D03*
X55000000Y-85000000D03*
X55000000Y-85500000D03*
X55500000Y-82000000D03*
X55500000Y-82500000D03*
X55500000Y-83000000D03*
X55500000Y-83500000D03*
X55500000Y-84000000D03*
X55500000Y-84500000D03*
X55500000Y-85000000D03*
X55500000Y-85500000D03*
X56000000Y-82000000D03*
X56000000Y-82500000D03*
X56000000Y-83000000D03*
X56000000Y-83500000D03*
X56000000Y-84000000D03*
X56000000Y-84500000D03*
X56000000Y-85000000D03*
X56000000Y-85500000D03*
X56500000Y-82000000D03*
X56500000Y-82500000D03*
X56500000Y-83000000D03*
X56500000Y-83500000D03*
X56500000Y-84000000D03*
X56500000Y-84500000D03*
X56500000Y-85000000D03*
X56500000Y-85500000D03*
X57000000Y-82000000D03*
X57000000Y-82500000D03*
X57000000Y-83000000D03*
X57000000Y-83500000D03*
X57000000Y-84000000D03*
X57000000Y-84500000D03*
X57000000Y-85000000D03*
X57000000Y-85500000D03*
X57500000Y-82000000D03*
X57500000Y-82500000D03*
X57500000Y-83000000D03*
X57500000Y-83500000D03*
X57500000Y-84000000D03*
X57500000Y-84500000D03*
X57500000Y-85000000D03*
X57500000Y-85500000D03*
X58000000Y-82000000D03*
X58000000Y-82500000D03*
X58000000Y-83000000D03*
X58000000Y-83500000D03*
X58000000Y-84000000D03*
X58000000Y-84500000D03*
X58000000Y-85000000D03*
X58000000Y-85500000D03*
D28*
X57540000Y-77730000D03*
X57540000Y-79000000D03*
X56270000Y-77730000D03*
X56270000Y-79000000D03*
X55000000Y-77730000D03*
X55000000Y-79000000D03*
D29*
X58810000Y-78365000D03*
X53730000Y-77349000D03*
X53730000Y-79381000D03*
D25*
X54100000Y-87600000D03*
X54100000Y-88400000D03*
X54900000Y-87600000D03*
X54900000Y-88400000D03*
X55700000Y-87600000D03*
X55700000Y-88400000D03*
D18*
X56100000Y-91700000D03*
X56100000Y-90100000D03*
X57600000Y-91700000D03*
X57600000Y-90100000D03*
X59100000Y-91700000D03*
X59100000Y-90100000D03*
X60600000Y-91700000D03*
X60600000Y-90100000D03*
D25*
X56500000Y-87600000D03*
X56500000Y-88400000D03*
X57300000Y-87600000D03*
X57300000Y-88400000D03*
X58100000Y-87600000D03*
X58100000Y-88400000D03*
D18*
X62100000Y-91700000D03*
X62100000Y-90100000D03*
D25*
X59700000Y-87600000D03*
X59700000Y-88400000D03*
X58900000Y-87600000D03*
X58900000Y-88400000D03*
D23*
X74000000Y-54200000D03*
X74000000Y-56800000D03*
X94000000Y-54200000D03*
X94000000Y-56800000D03*
D30*
X59000000Y-64800000D03*
X59000000Y-68800000D03*
X56200000Y-73200000D03*
X52200000Y-73200000D03*
D31*
X54175000Y-64000000D03*
X54175000Y-64650000D03*
X54175000Y-63350000D03*
X54175000Y-62700000D03*
X54175000Y-65300000D03*
D32*
X54500000Y-66225000D03*
X54500000Y-61775000D03*
D33*
X51500000Y-65150000D03*
X51500000Y-62850000D03*
D34*
X51500000Y-67387500D03*
D35*
X51500000Y-68175000D03*
D34*
X51500000Y-60612500D03*
D35*
X51500000Y-59825000D03*
D36*
X92375000Y-73000000D03*
X92375000Y-73500000D03*
X92375000Y-74000000D03*
X92375000Y-74500000D03*
X92375000Y-75000000D03*
X92375000Y-75500000D03*
X92375000Y-76000000D03*
X92375000Y-76500000D03*
X92375000Y-77000000D03*
X92375000Y-77500000D03*
X92375000Y-78000000D03*
X92375000Y-78500000D03*
D37*
X93000000Y-79125000D03*
X93500000Y-79125000D03*
X94000000Y-79125000D03*
X94500000Y-79125000D03*
X95000000Y-79125000D03*
X95500000Y-79125000D03*
X96000000Y-79125000D03*
X96500000Y-79125000D03*
X97000000Y-79125000D03*
X97500000Y-79125000D03*
X98000000Y-79125000D03*
X98500000Y-79125000D03*
D36*
X99125000Y-78500000D03*
X99125000Y-78000000D03*
X99125000Y-77500000D03*
X99125000Y-77000000D03*
X99125000Y-76500000D03*
X99125000Y-76000000D03*
X99125000Y-75500000D03*
X99125000Y-75000000D03*
X99125000Y-74500000D03*
X99125000Y-74000000D03*
X99125000Y-73500000D03*
X99125000Y-73000000D03*
D37*
X98500000Y-72375000D03*
X98000000Y-72375000D03*
X97500000Y-72375000D03*
X97000000Y-72375000D03*
X96500000Y-72375000D03*
X96000000Y-72375000D03*
X95500000Y-72375000D03*
X95000000Y-72375000D03*
X94500000Y-72375000D03*
X94000000Y-72375000D03*
X93500000Y-72375000D03*
X93000000Y-72375000D03*
D38*
X94500000Y-74500000D03*
X94500000Y-77000000D03*
X97000000Y-74500000D03*
X97000000Y-77000000D03*
M02*
