G04 #@! TF.FileFunction,Copper,L2,Bot,Signal*
%FSLAX46Y46*%
G04 Gerber Fmt 4.6, Leading zero omitted, Abs format (unit mm)*
G04 Created by KiCad (PCBNEW 0.201512291232+6408~40~ubuntu14.04.1-stable) date Thu 31 Dec 2015 04:45:24 GMT*
%MOMM*%
G01*
G04 APERTURE LIST*
%ADD10C,0.100000*%
%ADD11C,1.000000*%
%ADD12R,1.900000X2.440000*%
%ADD13C,0.600000*%
%ADD14C,0.800000*%
%ADD15C,1.400000*%
%ADD16C,0.250000*%
%ADD17C,0.200000*%
G04 APERTURE END LIST*
D10*
D11*
X54500000Y-61775000D03*
X54500000Y-66225000D03*
D12*
X51320000Y-67840000D03*
X51320000Y-60160000D03*
D13*
X93250000Y-73250000D03*
X93250000Y-75750000D03*
X93250000Y-78250000D03*
X95750000Y-73250000D03*
X95750000Y-75750000D03*
X95750000Y-78250000D03*
X98250000Y-73250000D03*
X98250000Y-75750000D03*
X98250000Y-78250000D03*
D14*
X88800000Y-54600000D03*
X59200000Y-54600000D03*
X55200000Y-54600000D03*
X92800000Y-54600000D03*
X76450000Y-58750000D03*
X67700000Y-59200000D03*
X83050000Y-57950000D03*
X66400000Y-59350000D03*
X80800000Y-54600000D03*
X67200000Y-54600000D03*
X57000000Y-69600000D03*
X57000000Y-68000000D03*
X56500000Y-65300000D03*
X55800000Y-66000000D03*
X55800000Y-66000000D03*
X55800000Y-64600000D03*
X56400000Y-68800000D03*
X72000000Y-54000000D03*
X84500000Y-64500000D03*
X95000000Y-64500000D03*
X84000000Y-60500000D03*
X69000000Y-69000000D03*
X78000000Y-69000000D03*
X60000000Y-61000000D03*
X63000000Y-60500000D03*
X56000000Y-54000000D03*
X60000000Y-54000000D03*
X64000000Y-54000000D03*
X68000000Y-54000000D03*
X76000000Y-54000000D03*
X80000000Y-54000000D03*
X84000000Y-54000000D03*
X88000000Y-54000000D03*
X92000000Y-54000000D03*
X96000000Y-54000000D03*
D13*
X53600000Y-74600000D03*
X50800000Y-74600000D03*
D14*
X59850000Y-92850000D03*
X53850000Y-92850000D03*
X56850000Y-92850000D03*
X60750000Y-82500000D03*
X55000000Y-76000000D03*
X51500000Y-80500000D03*
X50500000Y-84500000D03*
X63300000Y-99500000D03*
X65000000Y-99500000D03*
X66000000Y-99500000D03*
X67000000Y-99500000D03*
X68000000Y-99500000D03*
X68900000Y-99500000D03*
X69700000Y-99500000D03*
X70500000Y-99500000D03*
X71300000Y-99500000D03*
X72300000Y-99500000D03*
X73500000Y-99500000D03*
X74700000Y-99500000D03*
X75900000Y-99500000D03*
X77100000Y-99500000D03*
X78200000Y-99500000D03*
X79300000Y-99500000D03*
X80400000Y-99500000D03*
X81700000Y-99500000D03*
X83200000Y-99500000D03*
X84700000Y-99500000D03*
X86200000Y-99500000D03*
X88000000Y-99500000D03*
X90000000Y-99500000D03*
X92000000Y-99500000D03*
X94000000Y-99500000D03*
X96200000Y-99500000D03*
X98500000Y-99500000D03*
X63200000Y-54600000D03*
X84800000Y-54600000D03*
D15*
X93250000Y-78250000D02*
X98250000Y-78250000D01*
X93250000Y-73250000D02*
X98250000Y-73250000D01*
X93250000Y-75750000D02*
X98250000Y-75750000D01*
D16*
X59200000Y-54600000D02*
X59200000Y-52600000D01*
X59200000Y-52600000D02*
X59800000Y-52000000D01*
X89000000Y-52725000D02*
X89000000Y-54400000D01*
X59800000Y-52000000D02*
X88275000Y-52000000D01*
X88275000Y-52000000D02*
X89000000Y-52725000D01*
X89000000Y-54400000D02*
X88800000Y-54600000D01*
X55200000Y-54600000D02*
X55000000Y-54400000D01*
X55000000Y-54400000D02*
X55000000Y-52000000D01*
X55600000Y-51400000D02*
X92200000Y-51400000D01*
X55000000Y-52000000D02*
X55600000Y-51400000D01*
X92800000Y-52000000D02*
X92800000Y-54600000D01*
X92200000Y-51400000D02*
X92800000Y-52000000D01*
X67700000Y-59200000D02*
X68150000Y-58750000D01*
X68150000Y-58750000D02*
X76450000Y-58750000D01*
X67800000Y-57950000D02*
X83050000Y-57950000D01*
X66400000Y-59350000D02*
X67800000Y-57950000D01*
X80600000Y-53200000D02*
X80800000Y-53400000D01*
X80800000Y-53400000D02*
X80800000Y-54600000D01*
X67600000Y-53200000D02*
X80600000Y-53200000D01*
X67200000Y-53600000D02*
X67600000Y-53200000D01*
X67200000Y-54600000D02*
X67200000Y-53600000D01*
X84800000Y-54600000D02*
X84800000Y-53050000D01*
X84800000Y-53050000D02*
X84350000Y-52600000D01*
X84350000Y-52600000D02*
X63650000Y-52600000D01*
X63650000Y-52600000D02*
X63200000Y-53050000D01*
X63200000Y-53050000D02*
X63200000Y-54600000D01*
D17*
G36*
X99197347Y-50523560D02*
X99364651Y-50635349D01*
X99476440Y-50802652D01*
X99525000Y-51046782D01*
X99525000Y-70900000D01*
X50475000Y-70900000D01*
X50475000Y-69467836D01*
X52270000Y-69467836D01*
X52418231Y-69439944D01*
X52554372Y-69352340D01*
X52645704Y-69218671D01*
X52677836Y-69060000D01*
X52677836Y-66620000D01*
X52649944Y-66471769D01*
X52605845Y-66403236D01*
X53599844Y-66403236D01*
X53736572Y-66734143D01*
X53989525Y-66987538D01*
X54320194Y-67124843D01*
X54678236Y-67125156D01*
X55009143Y-66988428D01*
X55262538Y-66735475D01*
X55399843Y-66404806D01*
X55400156Y-66046764D01*
X55263428Y-65715857D01*
X55010475Y-65462462D01*
X54679806Y-65325157D01*
X54321764Y-65324844D01*
X53990857Y-65461572D01*
X53737462Y-65714525D01*
X53600157Y-66045194D01*
X53599844Y-66403236D01*
X52605845Y-66403236D01*
X52562340Y-66335628D01*
X52428671Y-66244296D01*
X52270000Y-66212164D01*
X50475000Y-66212164D01*
X50475000Y-61953236D01*
X53599844Y-61953236D01*
X53736572Y-62284143D01*
X53989525Y-62537538D01*
X54320194Y-62674843D01*
X54678236Y-62675156D01*
X55009143Y-62538428D01*
X55262538Y-62285475D01*
X55399843Y-61954806D01*
X55400156Y-61596764D01*
X55263428Y-61265857D01*
X55010475Y-61012462D01*
X54679806Y-60875157D01*
X54321764Y-60874844D01*
X53990857Y-61011572D01*
X53737462Y-61264525D01*
X53600157Y-61595194D01*
X53599844Y-61953236D01*
X50475000Y-61953236D01*
X50475000Y-61787836D01*
X52270000Y-61787836D01*
X52418231Y-61759944D01*
X52554372Y-61672340D01*
X52645704Y-61538671D01*
X52677836Y-61380000D01*
X52677836Y-59508432D01*
X65599861Y-59508432D01*
X65721397Y-59802572D01*
X65946245Y-60027812D01*
X66240172Y-60149861D01*
X66558432Y-60150139D01*
X66852572Y-60028603D01*
X67077812Y-59803755D01*
X67105574Y-59736896D01*
X67246245Y-59877812D01*
X67540172Y-59999861D01*
X67858432Y-60000139D01*
X68152572Y-59878603D01*
X68377812Y-59653755D01*
X68499861Y-59359828D01*
X68499935Y-59275000D01*
X75843699Y-59275000D01*
X75996245Y-59427812D01*
X76290172Y-59549861D01*
X76608432Y-59550139D01*
X76902572Y-59428603D01*
X77127812Y-59203755D01*
X77249861Y-58909828D01*
X77250139Y-58591568D01*
X77201974Y-58475000D01*
X82443699Y-58475000D01*
X82596245Y-58627812D01*
X82890172Y-58749861D01*
X83208432Y-58750139D01*
X83502572Y-58628603D01*
X83727812Y-58403755D01*
X83849861Y-58109828D01*
X83850139Y-57791568D01*
X83728603Y-57497428D01*
X83503755Y-57272188D01*
X83209828Y-57150139D01*
X82891568Y-57149861D01*
X82597428Y-57271397D01*
X82443557Y-57425000D01*
X67800000Y-57425000D01*
X67599091Y-57464963D01*
X67428769Y-57578769D01*
X66457488Y-58550050D01*
X66241568Y-58549861D01*
X65947428Y-58671397D01*
X65722188Y-58896245D01*
X65600139Y-59190172D01*
X65599861Y-59508432D01*
X52677836Y-59508432D01*
X52677836Y-58940000D01*
X52649944Y-58791769D01*
X52562340Y-58655628D01*
X52428671Y-58564296D01*
X52270000Y-58532164D01*
X50475000Y-58532164D01*
X50475000Y-54758432D01*
X54399861Y-54758432D01*
X54521397Y-55052572D01*
X54746245Y-55277812D01*
X55040172Y-55399861D01*
X55358432Y-55400139D01*
X55652572Y-55278603D01*
X55877812Y-55053755D01*
X55999861Y-54759828D01*
X56000139Y-54441568D01*
X55878603Y-54147428D01*
X55653755Y-53922188D01*
X55525000Y-53868724D01*
X55525000Y-52217462D01*
X55817462Y-51925000D01*
X59132538Y-51925000D01*
X58828769Y-52228769D01*
X58714963Y-52399091D01*
X58675000Y-52600000D01*
X58675000Y-53993699D01*
X58522188Y-54146245D01*
X58400139Y-54440172D01*
X58399861Y-54758432D01*
X58521397Y-55052572D01*
X58746245Y-55277812D01*
X59040172Y-55399861D01*
X59358432Y-55400139D01*
X59652572Y-55278603D01*
X59877812Y-55053755D01*
X59999861Y-54759828D01*
X60000139Y-54441568D01*
X59878603Y-54147428D01*
X59725000Y-53993557D01*
X59725000Y-52817462D01*
X60017462Y-52525000D01*
X62982538Y-52525000D01*
X62828769Y-52678769D01*
X62714963Y-52849091D01*
X62675000Y-53050000D01*
X62675000Y-53993699D01*
X62522188Y-54146245D01*
X62400139Y-54440172D01*
X62399861Y-54758432D01*
X62521397Y-55052572D01*
X62746245Y-55277812D01*
X63040172Y-55399861D01*
X63358432Y-55400139D01*
X63652572Y-55278603D01*
X63877812Y-55053755D01*
X63999861Y-54759828D01*
X64000139Y-54441568D01*
X63878603Y-54147428D01*
X63725000Y-53993557D01*
X63725000Y-53267462D01*
X63867462Y-53125000D01*
X66932538Y-53125000D01*
X66828769Y-53228769D01*
X66714963Y-53399091D01*
X66675000Y-53600000D01*
X66675000Y-53993699D01*
X66522188Y-54146245D01*
X66400139Y-54440172D01*
X66399861Y-54758432D01*
X66521397Y-55052572D01*
X66746245Y-55277812D01*
X67040172Y-55399861D01*
X67358432Y-55400139D01*
X67652572Y-55278603D01*
X67877812Y-55053755D01*
X67999861Y-54759828D01*
X68000139Y-54441568D01*
X67878603Y-54147428D01*
X67725000Y-53993557D01*
X67725000Y-53817462D01*
X67817462Y-53725000D01*
X80275000Y-53725000D01*
X80275000Y-53993699D01*
X80122188Y-54146245D01*
X80000139Y-54440172D01*
X79999861Y-54758432D01*
X80121397Y-55052572D01*
X80346245Y-55277812D01*
X80640172Y-55399861D01*
X80958432Y-55400139D01*
X81252572Y-55278603D01*
X81477812Y-55053755D01*
X81599861Y-54759828D01*
X81600139Y-54441568D01*
X81478603Y-54147428D01*
X81325000Y-53993557D01*
X81325000Y-53400000D01*
X81285037Y-53199091D01*
X81235531Y-53125000D01*
X84132538Y-53125000D01*
X84275000Y-53267462D01*
X84275000Y-53993699D01*
X84122188Y-54146245D01*
X84000139Y-54440172D01*
X83999861Y-54758432D01*
X84121397Y-55052572D01*
X84346245Y-55277812D01*
X84640172Y-55399861D01*
X84958432Y-55400139D01*
X85252572Y-55278603D01*
X85477812Y-55053755D01*
X85599861Y-54759828D01*
X85600139Y-54441568D01*
X85478603Y-54147428D01*
X85325000Y-53993557D01*
X85325000Y-53050000D01*
X85285037Y-52849091D01*
X85171231Y-52678769D01*
X85017462Y-52525000D01*
X88057538Y-52525000D01*
X88475000Y-52942462D01*
X88475000Y-53868685D01*
X88347428Y-53921397D01*
X88122188Y-54146245D01*
X88000139Y-54440172D01*
X87999861Y-54758432D01*
X88121397Y-55052572D01*
X88346245Y-55277812D01*
X88640172Y-55399861D01*
X88958432Y-55400139D01*
X89252572Y-55278603D01*
X89477812Y-55053755D01*
X89599861Y-54759828D01*
X89600139Y-54441568D01*
X89525000Y-54259717D01*
X89525000Y-52725000D01*
X89485037Y-52524091D01*
X89371231Y-52353769D01*
X88942462Y-51925000D01*
X91982538Y-51925000D01*
X92275000Y-52217462D01*
X92275000Y-53993699D01*
X92122188Y-54146245D01*
X92000139Y-54440172D01*
X91999861Y-54758432D01*
X92121397Y-55052572D01*
X92346245Y-55277812D01*
X92640172Y-55399861D01*
X92958432Y-55400139D01*
X93252572Y-55278603D01*
X93477812Y-55053755D01*
X93599861Y-54759828D01*
X93600139Y-54441568D01*
X93478603Y-54147428D01*
X93325000Y-53993557D01*
X93325000Y-52000000D01*
X93285037Y-51799091D01*
X93171231Y-51628769D01*
X92571231Y-51028769D01*
X92400909Y-50914963D01*
X92200000Y-50875000D01*
X55600000Y-50875000D01*
X55399091Y-50914963D01*
X55228769Y-51028769D01*
X54628769Y-51628769D01*
X54514963Y-51799091D01*
X54475000Y-52000000D01*
X54475000Y-54259886D01*
X54400139Y-54440172D01*
X54399861Y-54758432D01*
X50475000Y-54758432D01*
X50475000Y-51046782D01*
X50523560Y-50802653D01*
X50635349Y-50635349D01*
X50802652Y-50523560D01*
X51046782Y-50475000D01*
X98953218Y-50475000D01*
X99197347Y-50523560D01*
X99197347Y-50523560D01*
G37*
X99197347Y-50523560D02*
X99364651Y-50635349D01*
X99476440Y-50802652D01*
X99525000Y-51046782D01*
X99525000Y-70900000D01*
X50475000Y-70900000D01*
X50475000Y-69467836D01*
X52270000Y-69467836D01*
X52418231Y-69439944D01*
X52554372Y-69352340D01*
X52645704Y-69218671D01*
X52677836Y-69060000D01*
X52677836Y-66620000D01*
X52649944Y-66471769D01*
X52605845Y-66403236D01*
X53599844Y-66403236D01*
X53736572Y-66734143D01*
X53989525Y-66987538D01*
X54320194Y-67124843D01*
X54678236Y-67125156D01*
X55009143Y-66988428D01*
X55262538Y-66735475D01*
X55399843Y-66404806D01*
X55400156Y-66046764D01*
X55263428Y-65715857D01*
X55010475Y-65462462D01*
X54679806Y-65325157D01*
X54321764Y-65324844D01*
X53990857Y-65461572D01*
X53737462Y-65714525D01*
X53600157Y-66045194D01*
X53599844Y-66403236D01*
X52605845Y-66403236D01*
X52562340Y-66335628D01*
X52428671Y-66244296D01*
X52270000Y-66212164D01*
X50475000Y-66212164D01*
X50475000Y-61953236D01*
X53599844Y-61953236D01*
X53736572Y-62284143D01*
X53989525Y-62537538D01*
X54320194Y-62674843D01*
X54678236Y-62675156D01*
X55009143Y-62538428D01*
X55262538Y-62285475D01*
X55399843Y-61954806D01*
X55400156Y-61596764D01*
X55263428Y-61265857D01*
X55010475Y-61012462D01*
X54679806Y-60875157D01*
X54321764Y-60874844D01*
X53990857Y-61011572D01*
X53737462Y-61264525D01*
X53600157Y-61595194D01*
X53599844Y-61953236D01*
X50475000Y-61953236D01*
X50475000Y-61787836D01*
X52270000Y-61787836D01*
X52418231Y-61759944D01*
X52554372Y-61672340D01*
X52645704Y-61538671D01*
X52677836Y-61380000D01*
X52677836Y-59508432D01*
X65599861Y-59508432D01*
X65721397Y-59802572D01*
X65946245Y-60027812D01*
X66240172Y-60149861D01*
X66558432Y-60150139D01*
X66852572Y-60028603D01*
X67077812Y-59803755D01*
X67105574Y-59736896D01*
X67246245Y-59877812D01*
X67540172Y-59999861D01*
X67858432Y-60000139D01*
X68152572Y-59878603D01*
X68377812Y-59653755D01*
X68499861Y-59359828D01*
X68499935Y-59275000D01*
X75843699Y-59275000D01*
X75996245Y-59427812D01*
X76290172Y-59549861D01*
X76608432Y-59550139D01*
X76902572Y-59428603D01*
X77127812Y-59203755D01*
X77249861Y-58909828D01*
X77250139Y-58591568D01*
X77201974Y-58475000D01*
X82443699Y-58475000D01*
X82596245Y-58627812D01*
X82890172Y-58749861D01*
X83208432Y-58750139D01*
X83502572Y-58628603D01*
X83727812Y-58403755D01*
X83849861Y-58109828D01*
X83850139Y-57791568D01*
X83728603Y-57497428D01*
X83503755Y-57272188D01*
X83209828Y-57150139D01*
X82891568Y-57149861D01*
X82597428Y-57271397D01*
X82443557Y-57425000D01*
X67800000Y-57425000D01*
X67599091Y-57464963D01*
X67428769Y-57578769D01*
X66457488Y-58550050D01*
X66241568Y-58549861D01*
X65947428Y-58671397D01*
X65722188Y-58896245D01*
X65600139Y-59190172D01*
X65599861Y-59508432D01*
X52677836Y-59508432D01*
X52677836Y-58940000D01*
X52649944Y-58791769D01*
X52562340Y-58655628D01*
X52428671Y-58564296D01*
X52270000Y-58532164D01*
X50475000Y-58532164D01*
X50475000Y-54758432D01*
X54399861Y-54758432D01*
X54521397Y-55052572D01*
X54746245Y-55277812D01*
X55040172Y-55399861D01*
X55358432Y-55400139D01*
X55652572Y-55278603D01*
X55877812Y-55053755D01*
X55999861Y-54759828D01*
X56000139Y-54441568D01*
X55878603Y-54147428D01*
X55653755Y-53922188D01*
X55525000Y-53868724D01*
X55525000Y-52217462D01*
X55817462Y-51925000D01*
X59132538Y-51925000D01*
X58828769Y-52228769D01*
X58714963Y-52399091D01*
X58675000Y-52600000D01*
X58675000Y-53993699D01*
X58522188Y-54146245D01*
X58400139Y-54440172D01*
X58399861Y-54758432D01*
X58521397Y-55052572D01*
X58746245Y-55277812D01*
X59040172Y-55399861D01*
X59358432Y-55400139D01*
X59652572Y-55278603D01*
X59877812Y-55053755D01*
X59999861Y-54759828D01*
X60000139Y-54441568D01*
X59878603Y-54147428D01*
X59725000Y-53993557D01*
X59725000Y-52817462D01*
X60017462Y-52525000D01*
X62982538Y-52525000D01*
X62828769Y-52678769D01*
X62714963Y-52849091D01*
X62675000Y-53050000D01*
X62675000Y-53993699D01*
X62522188Y-54146245D01*
X62400139Y-54440172D01*
X62399861Y-54758432D01*
X62521397Y-55052572D01*
X62746245Y-55277812D01*
X63040172Y-55399861D01*
X63358432Y-55400139D01*
X63652572Y-55278603D01*
X63877812Y-55053755D01*
X63999861Y-54759828D01*
X64000139Y-54441568D01*
X63878603Y-54147428D01*
X63725000Y-53993557D01*
X63725000Y-53267462D01*
X63867462Y-53125000D01*
X66932538Y-53125000D01*
X66828769Y-53228769D01*
X66714963Y-53399091D01*
X66675000Y-53600000D01*
X66675000Y-53993699D01*
X66522188Y-54146245D01*
X66400139Y-54440172D01*
X66399861Y-54758432D01*
X66521397Y-55052572D01*
X66746245Y-55277812D01*
X67040172Y-55399861D01*
X67358432Y-55400139D01*
X67652572Y-55278603D01*
X67877812Y-55053755D01*
X67999861Y-54759828D01*
X68000139Y-54441568D01*
X67878603Y-54147428D01*
X67725000Y-53993557D01*
X67725000Y-53817462D01*
X67817462Y-53725000D01*
X80275000Y-53725000D01*
X80275000Y-53993699D01*
X80122188Y-54146245D01*
X80000139Y-54440172D01*
X79999861Y-54758432D01*
X80121397Y-55052572D01*
X80346245Y-55277812D01*
X80640172Y-55399861D01*
X80958432Y-55400139D01*
X81252572Y-55278603D01*
X81477812Y-55053755D01*
X81599861Y-54759828D01*
X81600139Y-54441568D01*
X81478603Y-54147428D01*
X81325000Y-53993557D01*
X81325000Y-53400000D01*
X81285037Y-53199091D01*
X81235531Y-53125000D01*
X84132538Y-53125000D01*
X84275000Y-53267462D01*
X84275000Y-53993699D01*
X84122188Y-54146245D01*
X84000139Y-54440172D01*
X83999861Y-54758432D01*
X84121397Y-55052572D01*
X84346245Y-55277812D01*
X84640172Y-55399861D01*
X84958432Y-55400139D01*
X85252572Y-55278603D01*
X85477812Y-55053755D01*
X85599861Y-54759828D01*
X85600139Y-54441568D01*
X85478603Y-54147428D01*
X85325000Y-53993557D01*
X85325000Y-53050000D01*
X85285037Y-52849091D01*
X85171231Y-52678769D01*
X85017462Y-52525000D01*
X88057538Y-52525000D01*
X88475000Y-52942462D01*
X88475000Y-53868685D01*
X88347428Y-53921397D01*
X88122188Y-54146245D01*
X88000139Y-54440172D01*
X87999861Y-54758432D01*
X88121397Y-55052572D01*
X88346245Y-55277812D01*
X88640172Y-55399861D01*
X88958432Y-55400139D01*
X89252572Y-55278603D01*
X89477812Y-55053755D01*
X89599861Y-54759828D01*
X89600139Y-54441568D01*
X89525000Y-54259717D01*
X89525000Y-52725000D01*
X89485037Y-52524091D01*
X89371231Y-52353769D01*
X88942462Y-51925000D01*
X91982538Y-51925000D01*
X92275000Y-52217462D01*
X92275000Y-53993699D01*
X92122188Y-54146245D01*
X92000139Y-54440172D01*
X91999861Y-54758432D01*
X92121397Y-55052572D01*
X92346245Y-55277812D01*
X92640172Y-55399861D01*
X92958432Y-55400139D01*
X93252572Y-55278603D01*
X93477812Y-55053755D01*
X93599861Y-54759828D01*
X93600139Y-54441568D01*
X93478603Y-54147428D01*
X93325000Y-53993557D01*
X93325000Y-52000000D01*
X93285037Y-51799091D01*
X93171231Y-51628769D01*
X92571231Y-51028769D01*
X92400909Y-50914963D01*
X92200000Y-50875000D01*
X55600000Y-50875000D01*
X55399091Y-50914963D01*
X55228769Y-51028769D01*
X54628769Y-51628769D01*
X54514963Y-51799091D01*
X54475000Y-52000000D01*
X54475000Y-54259886D01*
X54400139Y-54440172D01*
X54399861Y-54758432D01*
X50475000Y-54758432D01*
X50475000Y-51046782D01*
X50523560Y-50802653D01*
X50635349Y-50635349D01*
X50802652Y-50523560D01*
X51046782Y-50475000D01*
X98953218Y-50475000D01*
X99197347Y-50523560D01*
D16*
G36*
X99333910Y-72193867D02*
X99550000Y-72338254D01*
X99550000Y-98955682D01*
X99499990Y-99207101D01*
X99382676Y-99382675D01*
X99207102Y-99499990D01*
X98955682Y-99550000D01*
X62338254Y-99550000D01*
X62193867Y-99333910D01*
X62125000Y-98987690D01*
X62125000Y-78383677D01*
X92574883Y-78383677D01*
X92677429Y-78631857D01*
X92867144Y-78821903D01*
X93115145Y-78924883D01*
X93383677Y-78925117D01*
X93631857Y-78822571D01*
X93821903Y-78632856D01*
X93924883Y-78384855D01*
X93924884Y-78383677D01*
X95074883Y-78383677D01*
X95177429Y-78631857D01*
X95367144Y-78821903D01*
X95615145Y-78924883D01*
X95883677Y-78925117D01*
X96131857Y-78822571D01*
X96321903Y-78632856D01*
X96424883Y-78384855D01*
X96424884Y-78383677D01*
X97574883Y-78383677D01*
X97677429Y-78631857D01*
X97867144Y-78821903D01*
X98115145Y-78924883D01*
X98383677Y-78925117D01*
X98631857Y-78822571D01*
X98821903Y-78632856D01*
X98924883Y-78384855D01*
X98925117Y-78116323D01*
X98822571Y-77868143D01*
X98632856Y-77678097D01*
X98384855Y-77575117D01*
X98116323Y-77574883D01*
X97868143Y-77677429D01*
X97678097Y-77867144D01*
X97575117Y-78115145D01*
X97574883Y-78383677D01*
X96424884Y-78383677D01*
X96425117Y-78116323D01*
X96322571Y-77868143D01*
X96132856Y-77678097D01*
X95884855Y-77575117D01*
X95616323Y-77574883D01*
X95368143Y-77677429D01*
X95178097Y-77867144D01*
X95075117Y-78115145D01*
X95074883Y-78383677D01*
X93924884Y-78383677D01*
X93925117Y-78116323D01*
X93822571Y-77868143D01*
X93632856Y-77678097D01*
X93384855Y-77575117D01*
X93116323Y-77574883D01*
X92868143Y-77677429D01*
X92678097Y-77867144D01*
X92575117Y-78115145D01*
X92574883Y-78383677D01*
X62125000Y-78383677D01*
X62125000Y-75883677D01*
X92574883Y-75883677D01*
X92677429Y-76131857D01*
X92867144Y-76321903D01*
X93115145Y-76424883D01*
X93383677Y-76425117D01*
X93631857Y-76322571D01*
X93821903Y-76132856D01*
X93924883Y-75884855D01*
X93924884Y-75883677D01*
X95074883Y-75883677D01*
X95177429Y-76131857D01*
X95367144Y-76321903D01*
X95615145Y-76424883D01*
X95883677Y-76425117D01*
X96131857Y-76322571D01*
X96321903Y-76132856D01*
X96424883Y-75884855D01*
X96424884Y-75883677D01*
X97574883Y-75883677D01*
X97677429Y-76131857D01*
X97867144Y-76321903D01*
X98115145Y-76424883D01*
X98383677Y-76425117D01*
X98631857Y-76322571D01*
X98821903Y-76132856D01*
X98924883Y-75884855D01*
X98925117Y-75616323D01*
X98822571Y-75368143D01*
X98632856Y-75178097D01*
X98384855Y-75075117D01*
X98116323Y-75074883D01*
X97868143Y-75177429D01*
X97678097Y-75367144D01*
X97575117Y-75615145D01*
X97574883Y-75883677D01*
X96424884Y-75883677D01*
X96425117Y-75616323D01*
X96322571Y-75368143D01*
X96132856Y-75178097D01*
X95884855Y-75075117D01*
X95616323Y-75074883D01*
X95368143Y-75177429D01*
X95178097Y-75367144D01*
X95075117Y-75615145D01*
X95074883Y-75883677D01*
X93924884Y-75883677D01*
X93925117Y-75616323D01*
X93822571Y-75368143D01*
X93632856Y-75178097D01*
X93384855Y-75075117D01*
X93116323Y-75074883D01*
X92868143Y-75177429D01*
X92678097Y-75367144D01*
X92575117Y-75615145D01*
X92574883Y-75883677D01*
X62125000Y-75883677D01*
X62125000Y-73383677D01*
X92574883Y-73383677D01*
X92677429Y-73631857D01*
X92867144Y-73821903D01*
X93115145Y-73924883D01*
X93383677Y-73925117D01*
X93631857Y-73822571D01*
X93821903Y-73632856D01*
X93924883Y-73384855D01*
X93924884Y-73383677D01*
X95074883Y-73383677D01*
X95177429Y-73631857D01*
X95367144Y-73821903D01*
X95615145Y-73924883D01*
X95883677Y-73925117D01*
X96131857Y-73822571D01*
X96321903Y-73632856D01*
X96424883Y-73384855D01*
X96424884Y-73383677D01*
X97574883Y-73383677D01*
X97677429Y-73631857D01*
X97867144Y-73821903D01*
X98115145Y-73924883D01*
X98383677Y-73925117D01*
X98631857Y-73822571D01*
X98821903Y-73632856D01*
X98924883Y-73384855D01*
X98925117Y-73116323D01*
X98822571Y-72868143D01*
X98632856Y-72678097D01*
X98384855Y-72575117D01*
X98116323Y-72574883D01*
X97868143Y-72677429D01*
X97678097Y-72867144D01*
X97575117Y-73115145D01*
X97574883Y-73383677D01*
X96424884Y-73383677D01*
X96425117Y-73116323D01*
X96322571Y-72868143D01*
X96132856Y-72678097D01*
X95884855Y-72575117D01*
X95616323Y-72574883D01*
X95368143Y-72677429D01*
X95178097Y-72867144D01*
X95075117Y-73115145D01*
X95074883Y-73383677D01*
X93924884Y-73383677D01*
X93925117Y-73116323D01*
X93822571Y-72868143D01*
X93632856Y-72678097D01*
X93384855Y-72575117D01*
X93116323Y-72574883D01*
X92868143Y-72677429D01*
X92678097Y-72867144D01*
X92575117Y-73115145D01*
X92574883Y-73383677D01*
X62125000Y-73383677D01*
X62125000Y-73012310D01*
X62193867Y-72666090D01*
X62383013Y-72383013D01*
X62666090Y-72193867D01*
X63012310Y-72125000D01*
X98987690Y-72125000D01*
X99333910Y-72193867D01*
X99333910Y-72193867D01*
G37*
X99333910Y-72193867D02*
X99550000Y-72338254D01*
X99550000Y-98955682D01*
X99499990Y-99207101D01*
X99382676Y-99382675D01*
X99207102Y-99499990D01*
X98955682Y-99550000D01*
X62338254Y-99550000D01*
X62193867Y-99333910D01*
X62125000Y-98987690D01*
X62125000Y-78383677D01*
X92574883Y-78383677D01*
X92677429Y-78631857D01*
X92867144Y-78821903D01*
X93115145Y-78924883D01*
X93383677Y-78925117D01*
X93631857Y-78822571D01*
X93821903Y-78632856D01*
X93924883Y-78384855D01*
X93924884Y-78383677D01*
X95074883Y-78383677D01*
X95177429Y-78631857D01*
X95367144Y-78821903D01*
X95615145Y-78924883D01*
X95883677Y-78925117D01*
X96131857Y-78822571D01*
X96321903Y-78632856D01*
X96424883Y-78384855D01*
X96424884Y-78383677D01*
X97574883Y-78383677D01*
X97677429Y-78631857D01*
X97867144Y-78821903D01*
X98115145Y-78924883D01*
X98383677Y-78925117D01*
X98631857Y-78822571D01*
X98821903Y-78632856D01*
X98924883Y-78384855D01*
X98925117Y-78116323D01*
X98822571Y-77868143D01*
X98632856Y-77678097D01*
X98384855Y-77575117D01*
X98116323Y-77574883D01*
X97868143Y-77677429D01*
X97678097Y-77867144D01*
X97575117Y-78115145D01*
X97574883Y-78383677D01*
X96424884Y-78383677D01*
X96425117Y-78116323D01*
X96322571Y-77868143D01*
X96132856Y-77678097D01*
X95884855Y-77575117D01*
X95616323Y-77574883D01*
X95368143Y-77677429D01*
X95178097Y-77867144D01*
X95075117Y-78115145D01*
X95074883Y-78383677D01*
X93924884Y-78383677D01*
X93925117Y-78116323D01*
X93822571Y-77868143D01*
X93632856Y-77678097D01*
X93384855Y-77575117D01*
X93116323Y-77574883D01*
X92868143Y-77677429D01*
X92678097Y-77867144D01*
X92575117Y-78115145D01*
X92574883Y-78383677D01*
X62125000Y-78383677D01*
X62125000Y-75883677D01*
X92574883Y-75883677D01*
X92677429Y-76131857D01*
X92867144Y-76321903D01*
X93115145Y-76424883D01*
X93383677Y-76425117D01*
X93631857Y-76322571D01*
X93821903Y-76132856D01*
X93924883Y-75884855D01*
X93924884Y-75883677D01*
X95074883Y-75883677D01*
X95177429Y-76131857D01*
X95367144Y-76321903D01*
X95615145Y-76424883D01*
X95883677Y-76425117D01*
X96131857Y-76322571D01*
X96321903Y-76132856D01*
X96424883Y-75884855D01*
X96424884Y-75883677D01*
X97574883Y-75883677D01*
X97677429Y-76131857D01*
X97867144Y-76321903D01*
X98115145Y-76424883D01*
X98383677Y-76425117D01*
X98631857Y-76322571D01*
X98821903Y-76132856D01*
X98924883Y-75884855D01*
X98925117Y-75616323D01*
X98822571Y-75368143D01*
X98632856Y-75178097D01*
X98384855Y-75075117D01*
X98116323Y-75074883D01*
X97868143Y-75177429D01*
X97678097Y-75367144D01*
X97575117Y-75615145D01*
X97574883Y-75883677D01*
X96424884Y-75883677D01*
X96425117Y-75616323D01*
X96322571Y-75368143D01*
X96132856Y-75178097D01*
X95884855Y-75075117D01*
X95616323Y-75074883D01*
X95368143Y-75177429D01*
X95178097Y-75367144D01*
X95075117Y-75615145D01*
X95074883Y-75883677D01*
X93924884Y-75883677D01*
X93925117Y-75616323D01*
X93822571Y-75368143D01*
X93632856Y-75178097D01*
X93384855Y-75075117D01*
X93116323Y-75074883D01*
X92868143Y-75177429D01*
X92678097Y-75367144D01*
X92575117Y-75615145D01*
X92574883Y-75883677D01*
X62125000Y-75883677D01*
X62125000Y-73383677D01*
X92574883Y-73383677D01*
X92677429Y-73631857D01*
X92867144Y-73821903D01*
X93115145Y-73924883D01*
X93383677Y-73925117D01*
X93631857Y-73822571D01*
X93821903Y-73632856D01*
X93924883Y-73384855D01*
X93924884Y-73383677D01*
X95074883Y-73383677D01*
X95177429Y-73631857D01*
X95367144Y-73821903D01*
X95615145Y-73924883D01*
X95883677Y-73925117D01*
X96131857Y-73822571D01*
X96321903Y-73632856D01*
X96424883Y-73384855D01*
X96424884Y-73383677D01*
X97574883Y-73383677D01*
X97677429Y-73631857D01*
X97867144Y-73821903D01*
X98115145Y-73924883D01*
X98383677Y-73925117D01*
X98631857Y-73822571D01*
X98821903Y-73632856D01*
X98924883Y-73384855D01*
X98925117Y-73116323D01*
X98822571Y-72868143D01*
X98632856Y-72678097D01*
X98384855Y-72575117D01*
X98116323Y-72574883D01*
X97868143Y-72677429D01*
X97678097Y-72867144D01*
X97575117Y-73115145D01*
X97574883Y-73383677D01*
X96424884Y-73383677D01*
X96425117Y-73116323D01*
X96322571Y-72868143D01*
X96132856Y-72678097D01*
X95884855Y-72575117D01*
X95616323Y-72574883D01*
X95368143Y-72677429D01*
X95178097Y-72867144D01*
X95075117Y-73115145D01*
X95074883Y-73383677D01*
X93924884Y-73383677D01*
X93925117Y-73116323D01*
X93822571Y-72868143D01*
X93632856Y-72678097D01*
X93384855Y-72575117D01*
X93116323Y-72574883D01*
X92868143Y-72677429D01*
X92678097Y-72867144D01*
X92575117Y-73115145D01*
X92574883Y-73383677D01*
X62125000Y-73383677D01*
X62125000Y-73012310D01*
X62193867Y-72666090D01*
X62383013Y-72383013D01*
X62666090Y-72193867D01*
X63012310Y-72125000D01*
X98987690Y-72125000D01*
X99333910Y-72193867D01*
D17*
G36*
X60343666Y-72170319D02*
X60635011Y-72364989D01*
X60829681Y-72656334D01*
X60900000Y-73009851D01*
X60900000Y-98990149D01*
X60829681Y-99343666D01*
X60675109Y-99575000D01*
X51041860Y-99575000D01*
X50783144Y-99523538D01*
X50599300Y-99400698D01*
X50476462Y-99216857D01*
X50425000Y-98958140D01*
X50425000Y-79549334D01*
X52879853Y-79549334D01*
X53008985Y-79861857D01*
X53247885Y-80101174D01*
X53560183Y-80230852D01*
X53898334Y-80231147D01*
X54210857Y-80102015D01*
X54450174Y-79863115D01*
X54579852Y-79550817D01*
X54580147Y-79212666D01*
X54451015Y-78900143D01*
X54212115Y-78660826D01*
X53905082Y-78533334D01*
X57959853Y-78533334D01*
X58088985Y-78845857D01*
X58327885Y-79085174D01*
X58640183Y-79214852D01*
X58978334Y-79215147D01*
X59290857Y-79086015D01*
X59530174Y-78847115D01*
X59659852Y-78534817D01*
X59660147Y-78196666D01*
X59531015Y-77884143D01*
X59292115Y-77644826D01*
X58979817Y-77515148D01*
X58641666Y-77514853D01*
X58329143Y-77643985D01*
X58089826Y-77882885D01*
X57960148Y-78195183D01*
X57959853Y-78533334D01*
X53905082Y-78533334D01*
X53899817Y-78531148D01*
X53561666Y-78530853D01*
X53249143Y-78659985D01*
X53009826Y-78898885D01*
X52880148Y-79211183D01*
X52879853Y-79549334D01*
X50425000Y-79549334D01*
X50425000Y-77517334D01*
X52879853Y-77517334D01*
X53008985Y-77829857D01*
X53247885Y-78069174D01*
X53560183Y-78198852D01*
X53898334Y-78199147D01*
X54210857Y-78070015D01*
X54450174Y-77831115D01*
X54579852Y-77518817D01*
X54580147Y-77180666D01*
X54451015Y-76868143D01*
X54212115Y-76628826D01*
X53899817Y-76499148D01*
X53561666Y-76498853D01*
X53249143Y-76627985D01*
X53009826Y-76866885D01*
X52880148Y-77179183D01*
X52879853Y-77517334D01*
X50425000Y-77517334D01*
X50425000Y-72324891D01*
X50656334Y-72170319D01*
X51009851Y-72100000D01*
X59990149Y-72100000D01*
X60343666Y-72170319D01*
X60343666Y-72170319D01*
G37*
X60343666Y-72170319D02*
X60635011Y-72364989D01*
X60829681Y-72656334D01*
X60900000Y-73009851D01*
X60900000Y-98990149D01*
X60829681Y-99343666D01*
X60675109Y-99575000D01*
X51041860Y-99575000D01*
X50783144Y-99523538D01*
X50599300Y-99400698D01*
X50476462Y-99216857D01*
X50425000Y-98958140D01*
X50425000Y-79549334D01*
X52879853Y-79549334D01*
X53008985Y-79861857D01*
X53247885Y-80101174D01*
X53560183Y-80230852D01*
X53898334Y-80231147D01*
X54210857Y-80102015D01*
X54450174Y-79863115D01*
X54579852Y-79550817D01*
X54580147Y-79212666D01*
X54451015Y-78900143D01*
X54212115Y-78660826D01*
X53905082Y-78533334D01*
X57959853Y-78533334D01*
X58088985Y-78845857D01*
X58327885Y-79085174D01*
X58640183Y-79214852D01*
X58978334Y-79215147D01*
X59290857Y-79086015D01*
X59530174Y-78847115D01*
X59659852Y-78534817D01*
X59660147Y-78196666D01*
X59531015Y-77884143D01*
X59292115Y-77644826D01*
X58979817Y-77515148D01*
X58641666Y-77514853D01*
X58329143Y-77643985D01*
X58089826Y-77882885D01*
X57960148Y-78195183D01*
X57959853Y-78533334D01*
X53905082Y-78533334D01*
X53899817Y-78531148D01*
X53561666Y-78530853D01*
X53249143Y-78659985D01*
X53009826Y-78898885D01*
X52880148Y-79211183D01*
X52879853Y-79549334D01*
X50425000Y-79549334D01*
X50425000Y-77517334D01*
X52879853Y-77517334D01*
X53008985Y-77829857D01*
X53247885Y-78069174D01*
X53560183Y-78198852D01*
X53898334Y-78199147D01*
X54210857Y-78070015D01*
X54450174Y-77831115D01*
X54579852Y-77518817D01*
X54580147Y-77180666D01*
X54451015Y-76868143D01*
X54212115Y-76628826D01*
X53899817Y-76499148D01*
X53561666Y-76498853D01*
X53249143Y-76627985D01*
X53009826Y-76866885D01*
X52880148Y-77179183D01*
X52879853Y-77517334D01*
X50425000Y-77517334D01*
X50425000Y-72324891D01*
X50656334Y-72170319D01*
X51009851Y-72100000D01*
X59990149Y-72100000D01*
X60343666Y-72170319D01*
M02*
