M48
;DRILL file {KiCad 0.201512291232+6408~40~ubuntu14.04.1-stable} date Thu 31 Dec 2015 04:45:26 GMT
;FORMAT={-:-/ absolute / inch / decimal}
FMAT,2
INCH,TZ
T1C0.016
T2C0.026
T3C0.059
%
G90
G05
M72
T1
X1.9882Y-3.3268
X2.Y-2.937
X2.0276Y-3.1693
X2.1102Y-2.937
X2.1201Y-3.6555
X2.1654Y-2.9921
X2.1732Y-2.1496
X2.1969Y-2.5433
X2.1969Y-2.5984
X2.1969Y-2.5984
X2.2047Y-2.126
X2.2205Y-2.7087
X2.2244Y-2.5709
X2.2382Y-3.6555
X2.2441Y-2.6772
X2.2441Y-2.7402
X2.3307Y-2.1496
X2.3563Y-3.6555
X2.3622Y-2.126
X2.3622Y-2.4016
X2.3917Y-3.248
X2.4803Y-2.3819
X2.4882Y-2.1496
X2.4921Y-3.9173
X2.5197Y-2.126
X2.5591Y-3.9173
X2.5984Y-3.9173
X2.6142Y-2.3366
X2.6378Y-3.9173
X2.6457Y-2.1496
X2.6654Y-2.3307
X2.6772Y-2.126
X2.6772Y-3.9173
X2.7126Y-3.9173
X2.7165Y-2.7165
X2.7441Y-3.9173
X2.7756Y-3.9173
X2.8071Y-3.9173
X2.8346Y-2.126
X2.8465Y-3.9173
X2.8937Y-3.9173
X2.9409Y-3.9173
X2.9882Y-3.9173
X2.9921Y-2.126
X3.0098Y-2.313
X3.0354Y-3.9173
X3.0709Y-2.7165
X3.0787Y-3.9173
X3.122Y-3.9173
X3.1496Y-2.126
X3.1654Y-3.9173
X3.1811Y-2.1496
X3.2165Y-3.9173
X3.2697Y-2.2815
X3.2756Y-3.9173
X3.3071Y-2.126
X3.3071Y-2.3819
X3.3268Y-2.5394
X3.3346Y-3.9173
X3.3386Y-2.1496
X3.3937Y-3.9173
X3.4646Y-2.126
X3.4646Y-3.9173
X3.4961Y-2.1496
X3.5433Y-3.9173
X3.622Y-2.126
X3.622Y-3.9173
X3.6535Y-2.1496
X3.6713Y-2.8839
X3.6713Y-2.9823
X3.6713Y-3.0807
X3.7008Y-3.9173
X3.7402Y-2.5394
X3.7697Y-2.8839
X3.7697Y-2.9823
X3.7697Y-3.0807
X3.7795Y-2.126
X3.7874Y-3.9173
X3.8681Y-2.8839
X3.8681Y-2.9823
X3.8681Y-3.0807
X3.878Y-3.9173
T2
X2.1457Y-2.4321
X2.1457Y-2.6073
T3
X2.0205Y-2.3579
X2.0205Y-2.6815
T0
M30
